ISO-10303-21;
HEADER;
FILE_DESCRIPTION((''),'2;1');
FILE_NAME('PODAJLANIK','2026-08-03T12:39:52',('Student'),('Audax d.o.o.'),
'CREO PARAMETRIC BY PTC INC, 2023254','CREO PARAMETRIC BY PTC INC, 2023254','');
FILE_SCHEMA((
'AP242_MANAGED_MODEL_BASED_3D_ENGINEERING_MIM_LF { 1 0 10303 442 1 1 4 }'));
ENDSEC;
DATA;
#327=DIRECTION('',(0.E0,0.E0,1.E0));
#328=VECTOR('',#327,5.E1);
#329=CARTESIAN_POINT('',(-2.5E1,0.E0,-2.5E1));
#330=LINE('',#329,#328);
#331=DIRECTION('',(1.E0,0.E0,0.E0));
#332=VECTOR('',#331,5.E1);
#333=CARTESIAN_POINT('',(-2.5E1,0.E0,2.5E1));
#334=LINE('',#333,#332);
#335=DIRECTION('',(0.E0,0.E0,-1.E0));
#336=VECTOR('',#335,5.E1);
#337=CARTESIAN_POINT('',(2.5E1,0.E0,2.5E1));
#338=LINE('',#337,#336);
#339=DIRECTION('',(-1.E0,0.E0,0.E0));
#340=VECTOR('',#339,5.E1);
#341=CARTESIAN_POINT('',(2.5E1,0.E0,-2.5E1));
#342=LINE('',#341,#340);
#343=DIRECTION('',(0.E0,1.E0,0.E0));
#344=VECTOR('',#343,3.E0);
#345=CARTESIAN_POINT('',(-2.5E1,0.E0,-2.5E1));
#346=LINE('',#345,#344);
#347=DIRECTION('',(0.E0,1.E0,0.E0));
#348=VECTOR('',#347,3.E0);
#349=CARTESIAN_POINT('',(2.5E1,0.E0,-2.5E1));
#350=LINE('',#349,#348);
#351=DIRECTION('',(0.E0,1.E0,0.E0));
#352=VECTOR('',#351,3.E0);
#353=CARTESIAN_POINT('',(2.5E1,0.E0,2.5E1));
#354=LINE('',#353,#352);
#355=DIRECTION('',(0.E0,1.E0,0.E0));
#356=VECTOR('',#355,3.E0);
#357=CARTESIAN_POINT('',(-2.5E1,0.E0,2.5E1));
#358=LINE('',#357,#356);
#359=DIRECTION('',(0.E0,0.E0,1.E0));
#360=VECTOR('',#359,5.E1);
#361=CARTESIAN_POINT('',(-2.5E1,3.E0,-2.5E1));
#362=LINE('',#361,#360);
#363=DIRECTION('',(-1.E0,0.E0,0.E0));
#364=VECTOR('',#363,5.E1);
#365=CARTESIAN_POINT('',(2.5E1,3.E0,-2.5E1));
#366=LINE('',#365,#364);
#367=DIRECTION('',(0.E0,0.E0,-1.E0));
#368=VECTOR('',#367,5.E1);
#369=CARTESIAN_POINT('',(2.5E1,3.E0,2.5E1));
#370=LINE('',#369,#368);
#371=DIRECTION('',(1.E0,0.E0,0.E0));
#372=VECTOR('',#371,5.E1);
#373=CARTESIAN_POINT('',(-2.5E1,3.E0,2.5E1));
#374=LINE('',#373,#372);
#375=CARTESIAN_POINT('',(0.E0,3.E0,0.E0));
#376=DIRECTION('',(0.E0,1.E0,0.E0));
#377=DIRECTION('',(1.E0,0.E0,0.E0));
#378=AXIS2_PLACEMENT_3D('',#375,#376,#377);
#380=CARTESIAN_POINT('',(0.E0,3.E0,0.E0));
#381=DIRECTION('',(0.E0,1.E0,0.E0));
#382=DIRECTION('',(-1.E0,0.E0,0.E0));
#383=AXIS2_PLACEMENT_3D('',#380,#381,#382);
#385=CARTESIAN_POINT('',(0.E0,5.299999943586E1,0.E0));
#386=DIRECTION('',(0.E0,1.E0,0.E0));
#387=DIRECTION('',(1.E0,0.E0,0.E0));
#388=AXIS2_PLACEMENT_3D('',#385,#386,#387);
#390=CARTESIAN_POINT('',(0.E0,5.299999943580E1,0.E0));
#391=DIRECTION('',(0.E0,-1.E0,0.E0));
#392=DIRECTION('',(-1.E0,0.E0,0.E0));
#393=AXIS2_PLACEMENT_3D('',#390,#391,#392);
#395=DIRECTION('',(0.E0,1.E0,0.E0));
#396=VECTOR('',#395,5.E1);
#397=CARTESIAN_POINT('',(6.5E0,3.E0,0.E0));
#398=LINE('',#397,#396);
#399=CARTESIAN_POINT('',(6.5E0,5.373654087249E1,-9.486832980505E-1));
#400=CARTESIAN_POINT('',(6.499999683769E0,5.380613712365E1,-1.041660708225E0));
#401=CARTESIAN_POINT('',(6.500015746768E0,5.394229200231E1,-1.226323291507E0));
#402=CARTESIAN_POINT('',(6.499968822694E0,5.407123363505E1,-1.409064016462E0));
#403=CARTESIAN_POINT('',(6.499976632254E0,5.413393965859E1,-1.500000001955E0));
#405=CARTESIAN_POINT('',(6.5E0,5.3E1,0.E0));
#406=CARTESIAN_POINT('',(6.5E0,5.308615908345E1,-1.085655621740E-1));
#407=CARTESIAN_POINT('',(6.5E0,5.325560313679E1,-3.235758343041E-1));
#408=CARTESIAN_POINT('',(6.5E0,5.350168894840E1,-6.383802252852E-1));
#409=CARTESIAN_POINT('',(6.5E0,5.365927516591E1,-8.458060622503E-1));
#410=CARTESIAN_POINT('',(6.5E0,5.373654087249E1,-9.486832980505E-1));
#412=CARTESIAN_POINT('',(6.5E0,5.373654087249E1,9.486832980505E-1));
#413=CARTESIAN_POINT('',(6.5E0,5.365872316698E1,8.450857052431E-1));
#414=CARTESIAN_POINT('',(6.5E0,5.350039915450E1,6.366976976748E-1));
#415=CARTESIAN_POINT('',(6.5E0,5.325415974952E1,3.217484189310E-1));
#416=CARTESIAN_POINT('',(6.5E0,5.308553971902E1,1.077816579025E-1));
#417=CARTESIAN_POINT('',(6.5E0,5.3E1,0.E0));
#419=CARTESIAN_POINT('',(6.499978871960E0,5.413394830600E1,1.500000001790E0));
#420=CARTESIAN_POINT('',(6.499971051770E0,5.407095785908E1,1.408651874484E0));
#421=CARTESIAN_POINT('',(6.500014645814E0,5.394169428907E1,1.225515818774E0));
#422=CARTESIAN_POINT('',(6.499999656603E0,5.380583710744E1,1.041259627002E0));
#423=CARTESIAN_POINT('',(6.5E0,5.373654087249E1,9.486832980505E-1));
#425=CARTESIAN_POINT('',(4.E0,5.373654087249E1,-9.486832980505E-1));
#426=DIRECTION('',(0.E0,5.992422179493E-1,-8.005677761609E-1));
#427=DIRECTION('',(1.E0,0.E0,0.E0));
#428=AXIS2_PLACEMENT_3D('',#425,#426,#427);
#430=CARTESIAN_POINT('',(0.E0,5.95E1,-1.5E0));
#431=DIRECTION('',(0.E0,0.E0,1.E0));
#432=DIRECTION('',(1.E0,0.E0,0.E0));
#433=AXIS2_PLACEMENT_3D('',#430,#431,#432);
#435=CARTESIAN_POINT('',(0.E0,5.95E1,-1.5E0));
#436=DIRECTION('',(0.E0,0.E0,1.E0));
#437=DIRECTION('',(-1.E0,0.E0,0.E0));
#438=AXIS2_PLACEMENT_3D('',#435,#436,#437);
#440=CARTESIAN_POINT('',(6.499976632254E0,5.413393965859E1,-1.500000001955E0));
#441=CARTESIAN_POINT('',(6.499964237025E0,5.400674677502E1,-1.500000001955E0));
#442=CARTESIAN_POINT('',(6.486974224364E0,5.375281358642E1,-1.499999999088E0));
#443=CARTESIAN_POINT('',(6.427229814481E0,5.336671791496E1,-1.500000000261E0));
#444=CARTESIAN_POINT('',(6.362936951553E0,5.312113560991E1,-1.5E0));
#445=CARTESIAN_POINT('',(6.324555320337E0,5.3E1,-1.5E0));
#447=DIRECTION('',(4.354730418712E-6,9.999999999905E-1,3.642677334188E-10));
#448=VECTOR('',#447,5.366060341461E0);
#449=CARTESIAN_POINT('',(6.499976632254E0,5.413393965859E1,-1.500000001955E0));
#450=LINE('',#449,#448);
#451=CARTESIAN_POINT('',(0.E0,5.95E1,-1.5E0));
#452=DIRECTION('',(0.E0,0.E0,1.E0));
#453=DIRECTION('',(1.E0,0.E0,0.E0));
#454=AXIS2_PLACEMENT_3D('',#451,#452,#453);
#456=DIRECTION('',(4.344601983176E-6,-9.999999999906E-1,-3.635675257290E-10));
#457=VECTOR('',#456,5.366060115671E0);
#458=CARTESIAN_POINT('',(-6.5E0,5.95E1,-1.5E0));
#459=LINE('',#458,#457);
#460=CARTESIAN_POINT('',(-6.324555320337E0,5.3E1,-1.5E0));
#461=CARTESIAN_POINT('',(-6.362924318778E0,5.312109573718E1,-1.5E0));
#462=CARTESIAN_POINT('',(-6.427209175252E0,5.336662243697E1,-1.500000000260E0));
#463=CARTESIAN_POINT('',(-6.486968331771E0,5.375273834762E1,-1.499999999090E0));
#464=CARTESIAN_POINT('',(-6.499964293324E0,5.400671443833E1,-1.500000001951E0));
#465=CARTESIAN_POINT('',(-6.499976686605E0,5.413393988438E1,-1.500000001951E0));
#467=DIRECTION('',(0.E0,0.E0,-1.E0));
#468=VECTOR('',#467,3.E0);
#469=CARTESIAN_POINT('',(5.E0,5.95E1,1.5E0));
#470=LINE('',#469,#468);
#471=DIRECTION('',(0.E0,0.E0,-1.E0));
#472=VECTOR('',#471,3.E0);
#473=CARTESIAN_POINT('',(-5.E0,5.95E1,1.5E0));
#474=LINE('',#473,#472);
#475=CARTESIAN_POINT('',(0.E0,5.95E1,1.5E0));
#476=DIRECTION('',(0.E0,0.E0,1.E0));
#477=DIRECTION('',(1.E0,0.E0,0.E0));
#478=AXIS2_PLACEMENT_3D('',#475,#476,#477);
#480=CARTESIAN_POINT('',(0.E0,5.95E1,1.5E0));
#481=DIRECTION('',(0.E0,0.E0,1.E0));
#482=DIRECTION('',(-1.E0,0.E0,0.E0));
#483=AXIS2_PLACEMENT_3D('',#480,#481,#482);
#485=CARTESIAN_POINT('',(6.324555320337E0,5.3E1,1.5E0));
#486=CARTESIAN_POINT('',(6.362941034471E0,5.312114875762E1,1.5E0));
#487=CARTESIAN_POINT('',(6.427237863998E0,5.336674829278E1,1.500000000239E0));
#488=CARTESIAN_POINT('',(6.486982338091E0,5.375283283893E1,1.499999999165E0));
#489=CARTESIAN_POINT('',(6.499966818592E0,5.400674977783E1,1.500000001790E0));
#490=CARTESIAN_POINT('',(6.499978871960E0,5.413394830600E1,1.500000001790E0));
#492=CARTESIAN_POINT('',(-6.499978865449E0,5.413394829529E1,1.500000001790E0));
#493=CARTESIAN_POINT('',(-6.499966808831E0,5.400671747647E1,1.500000001790E0));
#494=CARTESIAN_POINT('',(-6.486976263711E0,5.375275734536E1,1.499999999165E0));
#495=CARTESIAN_POINT('',(-6.427217027019E0,5.336665205720E1,1.500000000239E0));
#496=CARTESIAN_POINT('',(-6.362928296172E0,5.312110855695E1,1.5E0));
#497=CARTESIAN_POINT('',(-6.324555320337E0,5.3E1,1.5E0));
#499=DIRECTION('',(3.938566323015E-6,-9.999999999922E-1,3.335775489010E-10));
#500=VECTOR('',#499,5.366051704748E0);
#501=CARTESIAN_POINT('',(-6.5E0,5.95E1,1.5E0));
#502=LINE('',#501,#500);
#503=CARTESIAN_POINT('',(0.E0,5.95E1,1.5E0));
#504=DIRECTION('',(0.E0,0.E0,1.E0));
#505=DIRECTION('',(1.E0,0.E0,0.E0));
#506=AXIS2_PLACEMENT_3D('',#503,#504,#505);
#508=DIRECTION('',(3.937353057899E-6,9.999999999922E-1,-3.334930526010E-10));
#509=VECTOR('',#508,5.366051694046E0);
#510=CARTESIAN_POINT('',(6.499978871960E0,5.413394830600E1,1.500000001790E0));
#511=LINE('',#510,#509);
#512=CARTESIAN_POINT('',(4.E0,5.373654087249E1,9.486832980505E-1));
#513=DIRECTION('',(0.E0,-5.992422179493E-1,-8.005677761609E-1));
#514=DIRECTION('',(1.E0,0.E0,0.E0));
#515=AXIS2_PLACEMENT_3D('',#512,#513,#514);
#517=CARTESIAN_POINT('',(0.E0,5.299999951977E1,0.E0));
#518=DIRECTION('',(0.E0,1.E0,0.E0));
#519=DIRECTION('',(9.730085108210E-1,0.E0,2.307692307692E-1));
#520=AXIS2_PLACEMENT_3D('',#517,#518,#519);
#522=DIRECTION('',(0.E0,1.E0,0.E0));
#523=VECTOR('',#522,5.E1);
#524=CARTESIAN_POINT('',(-6.5E0,3.E0,0.E0));
#525=LINE('',#524,#523);
#526=CARTESIAN_POINT('',(0.E0,5.299999962930E1,0.E0));
#527=DIRECTION('',(0.E0,-1.E0,0.E0));
#528=DIRECTION('',(-9.730085108210E-1,0.E0,2.307692307692E-1));
#529=AXIS2_PLACEMENT_3D('',#526,#527,#528);
#531=CARTESIAN_POINT('',(-4.E0,5.373654087249E1,9.486832980505E-1));
#532=DIRECTION('',(0.E0,-5.992422179493E-1,-8.005677761609E-1));
#533=DIRECTION('',(-9.298221281347E-1,-2.946163489953E-1,2.205266807798E-1));
#534=AXIS2_PLACEMENT_3D('',#531,#532,#533);
#536=CARTESIAN_POINT('',(-6.5E0,5.373654087249E1,-9.486832980505E-1));
#537=CARTESIAN_POINT('',(-6.499999683923E0,5.380613832882E1,-1.041662324661E0));
#538=CARTESIAN_POINT('',(-6.500015719776E0,5.394229413022E1,-1.226326651563E0));
#539=CARTESIAN_POINT('',(-6.499968876526E0,5.407123500215E1,-1.409065681033E0));
#540=CARTESIAN_POINT('',(-6.499976686605E0,5.413393988438E1,-1.500000001951E0));
#542=DIRECTION('',(0.E0,0.E0,1.E0));
#543=VECTOR('',#542,3.E0);
#544=CARTESIAN_POINT('',(-6.5E0,5.95E1,-1.5E0));
#545=LINE('',#544,#543);
#546=CARTESIAN_POINT('',(-6.499978865449E0,5.413394829529E1,1.500000001790E0));
#547=CARTESIAN_POINT('',(-6.499971045253E0,5.407095605201E1,1.408649266470E0));
#548=CARTESIAN_POINT('',(-6.500014649224E0,5.394169059282E1,1.225510676559E0));
#549=CARTESIAN_POINT('',(-6.499999656300E0,5.380583521136E1,1.041257090688E0));
#550=CARTESIAN_POINT('',(-6.5E0,5.373654087249E1,9.486832980505E-1));
#552=CARTESIAN_POINT('',(-6.5E0,5.373654087249E1,9.486832980505E-1));
#553=CARTESIAN_POINT('',(-6.5E0,5.365625826057E1,8.418850985569E-1));
#554=CARTESIAN_POINT('',(-6.5E0,5.349470431361E1,6.293037749572E-1));
#555=CARTESIAN_POINT('',(-6.5E0,5.325330484205E1,3.206951377708E-1));
#556=CARTESIAN_POINT('',(-6.5E0,5.308519759042E1,1.073620343554E-1));
#557=CARTESIAN_POINT('',(-6.5E0,5.3E1,0.E0));
#559=CARTESIAN_POINT('',(-6.5E0,5.3E1,0.E0));
#560=CARTESIAN_POINT('',(-6.5E0,5.308615946805E1,-1.085660487709E-1));
#561=CARTESIAN_POINT('',(-6.5E0,5.325560403381E1,-3.235769696110E-1));
#562=CARTESIAN_POINT('',(-6.5E0,5.350168981335E1,-6.383813532548E-1));
#563=CARTESIAN_POINT('',(-6.5E0,5.365927553644E1,-8.458065456290E-1));
#564=CARTESIAN_POINT('',(-6.5E0,5.373654087249E1,-9.486832980505E-1));
#566=CARTESIAN_POINT('',(-4.E0,5.373654087249E1,-9.486832980505E-1));
#567=DIRECTION('',(0.E0,5.992422179493E-1,-8.005677761609E-1));
#568=DIRECTION('',(-9.298221281347E-1,-2.946163489953E-1,-2.205266807798E-1));
#569=AXIS2_PLACEMENT_3D('',#566,#567,#568);
#571=DIRECTION('',(0.E0,0.E0,1.E0));
#572=VECTOR('',#571,3.E0);
#573=CARTESIAN_POINT('',(6.5E0,5.95E1,-1.5E0));
#574=LINE('',#573,#572);
#575=DIRECTION('',(1.E0,0.E0,0.E0));
#576=VECTOR('',#575,1.264911064067E1);
#577=CARTESIAN_POINT('',(-6.324555320337E0,5.3E1,-1.5E0));
#578=LINE('',#577,#576);
#579=CARTESIAN_POINT('',(0.E0,5.3E1,0.E0));
#580=DIRECTION('',(0.E0,1.E0,0.E0));
#581=DIRECTION('',(9.730085108210E-1,0.E0,-2.307692307692E-1));
#582=AXIS2_PLACEMENT_3D('',#579,#580,#581);
#584=DIRECTION('',(1.E0,0.E0,0.E0));
#585=VECTOR('',#584,1.264911064067E1);
#586=CARTESIAN_POINT('',(-6.324555320337E0,5.3E1,1.5E0));
#587=LINE('',#586,#585);
#588=CARTESIAN_POINT('',(0.E0,5.3E1,0.E0));
#589=DIRECTION('',(0.E0,1.E0,0.E0));
#590=DIRECTION('',(-9.730085108210E-1,0.E0,2.307692307692E-1));
#591=AXIS2_PLACEMENT_3D('',#588,#589,#590);
#593=CARTESIAN_POINT('',(-2.5E1,0.E0,-2.5E1));
#594=CARTESIAN_POINT('',(-2.5E1,0.E0,2.5E1));
#595=VERTEX_POINT('',#593);
#596=VERTEX_POINT('',#594);
#597=CARTESIAN_POINT('',(2.5E1,0.E0,2.5E1));
#598=VERTEX_POINT('',#597);
#599=CARTESIAN_POINT('',(2.5E1,0.E0,-2.5E1));
#600=VERTEX_POINT('',#599);
#601=CARTESIAN_POINT('',(-2.5E1,3.E0,-2.5E1));
#602=CARTESIAN_POINT('',(-2.5E1,3.E0,2.5E1));
#603=VERTEX_POINT('',#601);
#604=VERTEX_POINT('',#602);
#605=CARTESIAN_POINT('',(2.5E1,3.E0,2.5E1));
#606=VERTEX_POINT('',#605);
#607=CARTESIAN_POINT('',(2.5E1,3.E0,-2.5E1));
#608=VERTEX_POINT('',#607);
#609=CARTESIAN_POINT('',(6.5E0,3.E0,0.E0));
#610=CARTESIAN_POINT('',(-6.5E0,3.E0,0.E0));
#611=VERTEX_POINT('',#609);
#612=VERTEX_POINT('',#610);
#613=CARTESIAN_POINT('',(6.5E0,5.95E1,-1.5E0));
#614=CARTESIAN_POINT('',(-6.5E0,5.95E1,-1.5E0));
#615=VERTEX_POINT('',#613);
#616=VERTEX_POINT('',#614);
#617=CARTESIAN_POINT('',(6.5E0,5.95E1,1.5E0));
#618=CARTESIAN_POINT('',(-6.5E0,5.95E1,1.5E0));
#619=VERTEX_POINT('',#617);
#620=VERTEX_POINT('',#618);
#621=CARTESIAN_POINT('',(5.E0,5.95E1,-1.5E0));
#622=CARTESIAN_POINT('',(-5.E0,5.95E1,-1.5E0));
#623=VERTEX_POINT('',#621);
#624=VERTEX_POINT('',#622);
#625=CARTESIAN_POINT('',(5.E0,5.95E1,1.5E0));
#626=CARTESIAN_POINT('',(-5.E0,5.95E1,1.5E0));
#627=VERTEX_POINT('',#625);
#628=VERTEX_POINT('',#626);
#629=VERTEX_POINT('',#440);
#630=VERTEX_POINT('',#445);
#631=VERTEX_POINT('',#399);
#632=VERTEX_POINT('',#405);
#633=VERTEX_POINT('',#412);
#634=CARTESIAN_POINT('',(6.324555320337E0,5.299999951977E1,1.5E0));
#635=VERTEX_POINT('',#634);
#636=VERTEX_POINT('',#490);
#637=VERTEX_POINT('',#460);
#638=VERTEX_POINT('',#465);
#639=VERTEX_POINT('',#536);
#640=VERTEX_POINT('',#559);
#641=VERTEX_POINT('',#552);
#642=CARTESIAN_POINT('',(-6.324555320337E0,5.299999962930E1,1.5E0));
#643=VERTEX_POINT('',#642);
#644=VERTEX_POINT('',#492);
#645=CARTESIAN_POINT('',(0.E0,0.E0,0.E0));
#646=DIRECTION('',(0.E0,1.E0,0.E0));
#647=DIRECTION('',(1.E0,0.E0,0.E0));
#648=AXIS2_PLACEMENT_3D('',#645,#646,#647);
#649=PLANE('',#648);
#651=ORIENTED_EDGE('',*,*,#650,.T.);
#653=ORIENTED_EDGE('',*,*,#652,.T.);
#655=ORIENTED_EDGE('',*,*,#654,.T.);
#657=ORIENTED_EDGE('',*,*,#656,.T.);
#658=EDGE_LOOP('',(#651,#653,#655,#657));
#659=FACE_OUTER_BOUND('',#658,.F.);
#661=CARTESIAN_POINT('',(-2.5E1,0.E0,-2.5E1));
#662=DIRECTION('',(-1.E0,0.E0,0.E0));
#663=DIRECTION('',(0.E0,0.E0,1.E0));
#664=AXIS2_PLACEMENT_3D('',#661,#662,#663);
#665=PLANE('',#664);
#666=ORIENTED_EDGE('',*,*,#650,.F.);
#668=ORIENTED_EDGE('',*,*,#667,.T.);
#670=ORIENTED_EDGE('',*,*,#669,.T.);
#672=ORIENTED_EDGE('',*,*,#671,.F.);
#673=EDGE_LOOP('',(#666,#668,#670,#672));
#674=FACE_OUTER_BOUND('',#673,.F.);
#676=CARTESIAN_POINT('',(2.5E1,0.E0,-2.5E1));
#677=DIRECTION('',(0.E0,0.E0,-1.E0));
#678=DIRECTION('',(-1.E0,0.E0,0.E0));
#679=AXIS2_PLACEMENT_3D('',#676,#677,#678);
#680=PLANE('',#679);
#681=ORIENTED_EDGE('',*,*,#656,.F.);
#683=ORIENTED_EDGE('',*,*,#682,.T.);
#685=ORIENTED_EDGE('',*,*,#684,.T.);
#686=ORIENTED_EDGE('',*,*,#667,.F.);
#687=EDGE_LOOP('',(#681,#683,#685,#686));
#688=FACE_OUTER_BOUND('',#687,.F.);
#690=CARTESIAN_POINT('',(2.5E1,0.E0,2.5E1));
#691=DIRECTION('',(1.E0,0.E0,0.E0));
#692=DIRECTION('',(0.E0,0.E0,-1.E0));
#693=AXIS2_PLACEMENT_3D('',#690,#691,#692);
#694=PLANE('',#693);
#695=ORIENTED_EDGE('',*,*,#654,.F.);
#697=ORIENTED_EDGE('',*,*,#696,.T.);
#699=ORIENTED_EDGE('',*,*,#698,.T.);
#700=ORIENTED_EDGE('',*,*,#682,.F.);
#701=EDGE_LOOP('',(#695,#697,#699,#700));
#702=FACE_OUTER_BOUND('',#701,.F.);
#704=CARTESIAN_POINT('',(-2.5E1,0.E0,2.5E1));
#705=DIRECTION('',(0.E0,0.E0,1.E0));
#706=DIRECTION('',(1.E0,0.E0,0.E0));
#707=AXIS2_PLACEMENT_3D('',#704,#705,#706);
#708=PLANE('',#707);
#709=ORIENTED_EDGE('',*,*,#652,.F.);
#710=ORIENTED_EDGE('',*,*,#671,.T.);
#712=ORIENTED_EDGE('',*,*,#711,.T.);
#713=ORIENTED_EDGE('',*,*,#696,.F.);
#714=EDGE_LOOP('',(#709,#710,#712,#713));
#715=FACE_OUTER_BOUND('',#714,.F.);
#717=CARTESIAN_POINT('',(0.E0,3.E0,0.E0));
#718=DIRECTION('',(0.E0,1.E0,0.E0));
#719=DIRECTION('',(1.E0,0.E0,0.E0));
#720=AXIS2_PLACEMENT_3D('',#717,#718,#719);
#721=PLANE('',#720);
#722=ORIENTED_EDGE('',*,*,#669,.F.);
#723=ORIENTED_EDGE('',*,*,#684,.F.);
#724=ORIENTED_EDGE('',*,*,#698,.F.);
#725=ORIENTED_EDGE('',*,*,#711,.F.);
#726=EDGE_LOOP('',(#722,#723,#724,#725));
#727=FACE_OUTER_BOUND('',#726,.F.);
#729=ORIENTED_EDGE('',*,*,#728,.T.);
#731=ORIENTED_EDGE('',*,*,#730,.T.);
#732=EDGE_LOOP('',(#729,#731));
#733=FACE_BOUND('',#732,.F.);
#735=CARTESIAN_POINT('',(0.E0,3.E0,0.E0));
#736=DIRECTION('',(0.E0,1.E0,0.E0));
#737=DIRECTION('',(1.E0,0.E0,0.E0));
#738=AXIS2_PLACEMENT_3D('',#735,#736,#737);
#739=CYLINDRICAL_SURFACE('',#738,6.5E0);
#741=ORIENTED_EDGE('',*,*,#740,.T.);
#743=ORIENTED_EDGE('',*,*,#742,.T.);
#745=ORIENTED_EDGE('',*,*,#744,.F.);
#747=ORIENTED_EDGE('',*,*,#746,.F.);
#748=ORIENTED_EDGE('',*,*,#728,.F.);
#750=ORIENTED_EDGE('',*,*,#749,.T.);
#751=EDGE_LOOP('',(#741,#743,#745,#747,#748,#750));
#752=FACE_OUTER_BOUND('',#751,.F.);
#754=CARTESIAN_POINT('',(6.497120322592E0,5.305549625843E1,1.232626749175E-1));
#755=CARTESIAN_POINT('',(6.497120322592E0,5.306839410366E1,1.069330671622E-1));
#756=CARTESIAN_POINT('',(6.497120322592E0,5.316677425747E1,-1.758580659571E-2));
#757=CARTESIAN_POINT('',(6.497120322592E0,5.334593171398E1,-2.441114426324E-1));
#758=CARTESIAN_POINT('',(6.497120322592E0,5.359302042851E1,-5.606331547499E-1));
#759=CARTESIAN_POINT('',(6.497120322592E0,5.376614564311E1,-7.876874460319E-1));
#760=CARTESIAN_POINT('',(6.497120322592E0,5.385754885051E1,-9.102297191771E-1));
#761=CARTESIAN_POINT('',(6.497120322592E0,5.387003075488E1,-9.270168828386E-1));
#762=CARTESIAN_POINT('',(6.516206983074E0,5.274417611819E1,-1.236060121579E-1));
#763=CARTESIAN_POINT('',(6.516206983074E0,5.275690648926E1,-1.397213045834E-1));
#764=CARTESIAN_POINT('',(6.516206983074E0,5.285424199394E1,-2.629039690480E-1));
#765=CARTESIAN_POINT('',(6.516206983074E0,5.303414541310E1,-4.903924707257E-1));
#766=CARTESIAN_POINT('',(6.516206983074E0,5.327850822771E1,-8.034287787773E-1));
#767=CARTESIAN_POINT('',(6.516206983074E0,5.344943842566E1,-1.027613755353E0));
#768=CARTESIAN_POINT('',(6.516206983074E0,5.353897174471E1,-1.147653925663E0));
#769=CARTESIAN_POINT('',(6.516206983074E0,5.355118317182E1,-1.164078429110E0));
#770=CARTESIAN_POINT('',(6.441695495615E0,5.243801403796E1,-3.663844932475E-1));
#771=CARTESIAN_POINT('',(6.441695495615E0,5.245057970964E1,-3.822890211938E-1));
#772=CARTESIAN_POINT('',(6.441695495615E0,5.254688787330E1,-5.041576151438E-1));
#773=CARTESIAN_POINT('',(6.441695495615E0,5.272752489573E1,-7.325930293708E-1));
#774=CARTESIAN_POINT('',(6.441695495615E0,5.296920697408E1,-1.042201680739E0));
#775=CARTESIAN_POINT('',(6.441695495615E0,5.313797852318E1,-1.263564882409E0));
#776=CARTESIAN_POINT('',(6.441695495615E0,5.322567293483E1,-1.381144405592E0));
#777=CARTESIAN_POINT('',(6.441695495615E0,5.323761836605E1,-1.397212257505E0));
#778=CARTESIAN_POINT('',(6.277731813676E0,5.215404542770E1,-5.915641360804E-1));
#779=CARTESIAN_POINT('',(6.277731813676E0,5.216645833893E1,-6.072731777138E-1));
#780=CARTESIAN_POINT('',(6.277731813676E0,5.226181363278E1,-7.279229571799E-1));
#781=CARTESIAN_POINT('',(6.277731813676E0,5.244313108012E1,-9.572366429436E-1));
#782=CARTESIAN_POINT('',(6.277731813676E0,5.268232674686E1,-1.263666106008E0));
#783=CARTESIAN_POINT('',(6.277731813676E0,5.284909612601E1,-1.482412081214E0));
#784=CARTESIAN_POINT('',(6.277731813676E0,5.293508493134E1,-1.597709327818E0));
#785=CARTESIAN_POINT('',(6.277731813676E0,5.294678364852E1,-1.613446381611E0));
#786=(BOUNDED_SURFACE()B_SPLINE_SURFACE(3,3,((#754,#755,#756,#757,#758,#759,
#760,#761),(#762,#763,#764,#765,#766,#767,#768,#769),(#770,#771,#772,#773,#774,
#775,#776,#777),(#778,#779,#780,#781,#782,#783,#784,#785)),.UNSPECIFIED.,.F.,
.F.,.F.)B_SPLINE_SURFACE_WITH_KNOTS((4,4),(4,1,1,1,1,4),(0.E0,1.E0),(
-5.168818272209E-2,0.E0,3.433229724614E-1,6.766388300934E-1,1.E0,
1.051154414713E0),.UNSPECIFIED.)GEOMETRIC_REPRESENTATION_ITEM()RATIONAL_B_SPLINE_SURFACE(((1.014106680886E0,1.014106680886E0,1.014106680886E0,1.014106680886E0,
1.014106680886E0,1.014106680886E0,1.014106680886E0,1.014106680886E0),(
9.952977730379E-1,9.952977730379E-1,9.952977730379E-1,9.952977730379E-1,
9.952977730379E-1,9.952977730379E-1,9.952977730379E-1,9.952977730379E-1),(
9.952977730379E-1,9.952977730379E-1,9.952977730379E-1,9.952977730379E-1,
9.952977730379E-1,9.952977730379E-1,9.952977730379E-1,9.952977730379E-1),(
1.014106680886E0,1.014106680886E0,1.014106680886E0,1.014106680886E0,
1.014106680886E0,1.014106680886E0,1.014106680886E0,1.014106680886E0)))REPRESENTATION_ITEM('')SURFACE());
#788=ORIENTED_EDGE('',*,*,#787,.T.);
#790=ORIENTED_EDGE('',*,*,#789,.T.);
#791=ORIENTED_EDGE('',*,*,#740,.F.);
#792=EDGE_LOOP('',(#788,#790,#791));
#793=FACE_OUTER_BOUND('',#792,.F.);
#795=CARTESIAN_POINT('',(6.5E0,5.3E1,-1.5E0));
#796=DIRECTION('',(1.E0,0.E0,0.E0));
#797=DIRECTION('',(0.E0,1.E0,0.E0));
#798=AXIS2_PLACEMENT_3D('',#795,#796,#797);
#799=PLANE('',#798);
#801=ORIENTED_EDGE('',*,*,#800,.F.);
#802=ORIENTED_EDGE('',*,*,#787,.F.);
#804=ORIENTED_EDGE('',*,*,#803,.F.);
#806=ORIENTED_EDGE('',*,*,#805,.F.);
#808=ORIENTED_EDGE('',*,*,#807,.T.);
#810=ORIENTED_EDGE('',*,*,#809,.F.);
#812=ORIENTED_EDGE('',*,*,#811,.F.);
#813=EDGE_LOOP('',(#801,#802,#804,#806,#808,#810,#812));
#814=FACE_OUTER_BOUND('',#813,.F.);
#816=CARTESIAN_POINT('',(6.412180396903E0,5.424031592024E1,-5.257147721567E-1));
#817=CARTESIAN_POINT('',(6.414598630968E0,5.424056251597E1,-5.408281792713E-1));
#818=CARTESIAN_POINT('',(6.464508052391E0,5.424536794816E1,-8.595391931575E-1));
#819=CARTESIAN_POINT('',(6.492145655719E0,5.424196360761E1,-1.182572788818E0));
#820=CARTESIAN_POINT('',(6.498465859826E0,5.423079563734E1,-1.488599517647E0));
#821=CARTESIAN_POINT('',(6.563918873575E0,5.379469174207E1,-8.603551521420E-1));
#822=CARTESIAN_POINT('',(6.564286204492E0,5.379432115050E1,-8.755769663328E-1));
#823=CARTESIAN_POINT('',(6.570915559398E0,5.378624928136E1,-1.196333606427E0));
#824=CARTESIAN_POINT('',(6.554126595291E0,5.377268920115E1,-1.516318137326E0));
#825=CARTESIAN_POINT('',(6.518369975133E0,5.375461258162E1,-1.814839572780E0));
#826=CARTESIAN_POINT('',(6.521219553742E0,5.333410799515E1,-1.206229513011E0));
#827=CARTESIAN_POINT('',(6.519467046830E0,5.333368667313E1,-1.221122340326E0));
#828=CARTESIAN_POINT('',(6.481448046795E0,5.332469189946E1,-1.534720416998E0));
#829=CARTESIAN_POINT('',(6.420644928148E0,5.331327518537E1,-1.842757175222E0));
#830=CARTESIAN_POINT('',(6.344731148431E0,5.330018954039E1,-2.126175483383E0));
#831=CARTESIAN_POINT('',(6.288966394529E0,5.291124634474E1,-1.523776673079E0));
#832=CARTESIAN_POINT('',(6.285267582604E0,5.291134655165E1,-1.537940749151E0));
#833=CARTESIAN_POINT('',(6.206338827373E0,5.291348883226E1,-1.835994870753E0));
#834=CARTESIAN_POINT('',(6.106968315276E0,5.291626943141E1,-2.124551737123E0));
#835=CARTESIAN_POINT('',(5.997410225009E0,5.291950351609E1,-2.386996582932E0));
#836=(BOUNDED_SURFACE()B_SPLINE_SURFACE(3,3,((#816,#817,#818,#819,#820),(#821,
#822,#823,#824,#825),(#826,#827,#828,#829,#830),(#831,#832,#833,#834,#835)),
.UNSPECIFIED.,.F.,.F.,.F.)B_SPLINE_SURFACE_WITH_KNOTS((4,4),(4,1,4),(0.E0,1.E0),
(-5.755874650966E-3,0.E0,1.155435911955E-1),.UNSPECIFIED.)GEOMETRIC_REPRESENTATION_ITEM()RATIONAL_B_SPLINE_SURFACE(((1.029436799059E0,1.029436799059E0,
1.029436799059E0,1.029436799059E0,1.029436799059E0),(9.901877336471E-1,
9.901877336471E-1,9.901877336471E-1,9.901877336471E-1,9.901877336471E-1),(
9.901877336471E-1,9.901877336471E-1,9.901877336471E-1,9.901877336471E-1,
9.901877336471E-1),(1.029436799059E0,1.029436799059E0,1.029436799059E0,
1.029436799059E0,1.029436799059E0)))REPRESENTATION_ITEM('')SURFACE());
#838=ORIENTED_EDGE('',*,*,#837,.T.);
#839=ORIENTED_EDGE('',*,*,#789,.F.);
#840=ORIENTED_EDGE('',*,*,#800,.T.);
#841=EDGE_LOOP('',(#838,#839,#840));
#842=FACE_OUTER_BOUND('',#841,.F.);
#844=CARTESIAN_POINT('',(0.E0,0.E0,-1.5E0));
#845=DIRECTION('',(0.E0,0.E0,1.E0));
#846=DIRECTION('',(1.E0,0.E0,0.E0));
#847=AXIS2_PLACEMENT_3D('',#844,#845,#846);
#848=PLANE('',#847);
#849=ORIENTED_EDGE('',*,*,#837,.F.);
#850=ORIENTED_EDGE('',*,*,#811,.T.);
#852=ORIENTED_EDGE('',*,*,#851,.T.);
#854=ORIENTED_EDGE('',*,*,#853,.T.);
#856=ORIENTED_EDGE('',*,*,#855,.F.);
#858=ORIENTED_EDGE('',*,*,#857,.T.);
#859=EDGE_LOOP('',(#849,#850,#852,#854,#856,#858));
#860=FACE_OUTER_BOUND('',#859,.F.);
#862=ORIENTED_EDGE('',*,*,#861,.F.);
#864=ORIENTED_EDGE('',*,*,#863,.F.);
#865=EDGE_LOOP('',(#862,#864));
#866=FACE_BOUND('',#865,.F.);
#868=CARTESIAN_POINT('',(0.E0,5.95E1,1.5E0));
#869=DIRECTION('',(0.E0,0.E0,1.E0));
#870=DIRECTION('',(1.E0,0.E0,0.E0));
#871=AXIS2_PLACEMENT_3D('',#868,#869,#870);
#872=CYLINDRICAL_SURFACE('',#871,5.E0);
#873=ORIENTED_EDGE('',*,*,#861,.T.);
#875=ORIENTED_EDGE('',*,*,#874,.F.);
#877=ORIENTED_EDGE('',*,*,#876,.F.);
#879=ORIENTED_EDGE('',*,*,#878,.T.);
#880=EDGE_LOOP('',(#873,#875,#877,#879));
#881=FACE_OUTER_BOUND('',#880,.F.);
#883=CARTESIAN_POINT('',(0.E0,5.95E1,1.5E0));
#884=DIRECTION('',(0.E0,0.E0,1.E0));
#885=DIRECTION('',(1.E0,0.E0,0.E0));
#886=AXIS2_PLACEMENT_3D('',#883,#884,#885);
#887=CYLINDRICAL_SURFACE('',#886,5.E0);
#888=ORIENTED_EDGE('',*,*,#863,.T.);
#889=ORIENTED_EDGE('',*,*,#878,.F.);
#891=ORIENTED_EDGE('',*,*,#890,.F.);
#892=ORIENTED_EDGE('',*,*,#874,.T.);
#893=EDGE_LOOP('',(#888,#889,#891,#892));
#894=FACE_OUTER_BOUND('',#893,.F.);
#896=CARTESIAN_POINT('',(0.E0,0.E0,1.5E0));
#897=DIRECTION('',(0.E0,0.E0,1.E0));
#898=DIRECTION('',(1.E0,0.E0,0.E0));
#899=AXIS2_PLACEMENT_3D('',#896,#897,#898);
#900=PLANE('',#899);
#902=ORIENTED_EDGE('',*,*,#901,.F.);
#904=ORIENTED_EDGE('',*,*,#903,.F.);
#906=ORIENTED_EDGE('',*,*,#905,.F.);
#908=ORIENTED_EDGE('',*,*,#907,.F.);
#910=ORIENTED_EDGE('',*,*,#909,.F.);
#911=ORIENTED_EDGE('',*,*,#807,.F.);
#912=EDGE_LOOP('',(#902,#904,#906,#908,#910,#911));
#913=FACE_OUTER_BOUND('',#912,.F.);
#914=ORIENTED_EDGE('',*,*,#876,.T.);
#915=ORIENTED_EDGE('',*,*,#890,.T.);
#916=EDGE_LOOP('',(#914,#915));
#917=FACE_BOUND('',#916,.F.);
#919=CARTESIAN_POINT('',(6.498463955272E0,5.423080792695E1,1.488263120543E0));
#920=CARTESIAN_POINT('',(6.492131691298E0,5.424196515040E1,1.182350590801E0));
#921=CARTESIAN_POINT('',(6.464477118783E0,5.424536526970E1,8.592690663164E-1));
#922=CARTESIAN_POINT('',(6.414550096853E0,5.424055609049E1,5.405158018385E-1));
#923=CARTESIAN_POINT('',(6.412105765104E0,5.424030660148E1,5.252458740464E-1));
#924=CARTESIAN_POINT('',(6.518415972807E0,5.375463305534E1,1.814512235633E0));
#925=CARTESIAN_POINT('',(6.554145055660E0,5.377269867489E1,1.516099036100E0));
#926=CARTESIAN_POINT('',(6.570920750820E0,5.378625696700E1,1.196064065962E0));
#927=CARTESIAN_POINT('',(6.564279559215E0,5.379432794511E1,8.752621200930E-1));
#928=CARTESIAN_POINT('',(6.563907362645E0,5.379470215888E1,8.598824114903E-1));
#929=CARTESIAN_POINT('',(6.344823019342E0,5.330020452434E1,2.125865289871E0));
#930=CARTESIAN_POINT('',(6.420695603709E0,5.331328347849E1,1.842546927186E0));
#931=CARTESIAN_POINT('',(6.481490249939E0,5.332469990139E1,1.534458997949E0));
#932=CARTESIAN_POINT('',(6.519504198786E0,5.333369505869E1,1.220813976727E0));
#933=CARTESIAN_POINT('',(6.521273867365E0,5.333412065421E1,1.205766428842E0));
#934=CARTESIAN_POINT('',(5.997540635909E0,5.291949981441E1,2.386709758549E0));
#935=CARTESIAN_POINT('',(6.107047267628E0,5.291626741583E1,2.124355193739E0));
#936=CARTESIAN_POINT('',(6.206414666018E0,5.291348691423E1,1.835748290861E0));
#937=CARTESIAN_POINT('',(6.285345415880E0,5.291134456509E1,1.537647192151E0));
#938=CARTESIAN_POINT('',(6.289081693301E0,5.291124334430E1,1.523335754009E0));
#939=(BOUNDED_SURFACE()B_SPLINE_SURFACE(3,3,((#919,#920,#921,#922,#923),(#924,
#925,#926,#927,#928),(#929,#930,#931,#932,#933),(#934,#935,#936,#937,#938)),
.UNSPECIFIED.,.F.,.F.,.F.)B_SPLINE_SURFACE_WITH_KNOTS((4,4),(4,1,4),(0.E0,1.E0),
(8.844902181637E-1,1.E0,1.005816023849E0),.UNSPECIFIED.)GEOMETRIC_REPRESENTATION_ITEM()RATIONAL_B_SPLINE_SURFACE(((1.029436711659E0,1.029436711659E0,
1.029436711659E0,1.029436711659E0,1.029436711659E0),(9.901877627802E-1,
9.901877627802E-1,9.901877627802E-1,9.901877627802E-1,9.901877627802E-1),(
9.901877627802E-1,9.901877627802E-1,9.901877627802E-1,9.901877627802E-1,
9.901877627802E-1),(1.029436711659E0,1.029436711659E0,1.029436711659E0,
1.029436711659E0,1.029436711659E0)))REPRESENTATION_ITEM('')SURFACE());
#940=ORIENTED_EDGE('',*,*,#901,.T.);
#941=ORIENTED_EDGE('',*,*,#805,.T.);
#943=ORIENTED_EDGE('',*,*,#942,.T.);
#944=EDGE_LOOP('',(#940,#941,#943));
#945=FACE_OUTER_BOUND('',#944,.F.);
#947=CARTESIAN_POINT('',(6.497120322592E0,5.386993394537E1,9.268864383485E-1));
#948=CARTESIAN_POINT('',(6.497120322592E0,5.385748428227E1,9.101430379945E-1));
#949=CARTESIAN_POINT('',(6.497120322592E0,5.376573744870E1,7.871415855116E-1));
#950=CARTESIAN_POINT('',(6.497120322592E0,5.359224279009E1,5.596208285518E-1));
#951=CARTESIAN_POINT('',(6.497120322592E0,5.334513685543E1,2.431107133806E-1));
#952=CARTESIAN_POINT('',(6.497120322592E0,5.316636769992E1,1.706039430859E-2));
#953=CARTESIAN_POINT('',(6.497120322592E0,5.306832545052E1,-1.070165969479E-1));
#954=CARTESIAN_POINT('',(6.497120322592E0,5.305539279156E1,-1.233879685134E-1));
#955=CARTESIAN_POINT('',(6.516206983074E0,5.355108834884E1,1.163950655276E0));
#956=CARTESIAN_POINT('',(6.516206983074E0,5.353890845156E1,1.147568951672E0));
#957=CARTESIAN_POINT('',(6.516206983074E0,5.344903853785E1,1.027078984261E0));
#958=CARTESIAN_POINT('',(6.516206983074E0,5.327773612521E1,8.024236698470E-1));
#959=CARTESIAN_POINT('',(6.516206983074E0,5.303336484067E1,4.894098287057E-1));
#960=CARTESIAN_POINT('',(6.516206983074E0,5.285379938118E1,2.623327663619E-1));
#961=CARTESIAN_POINT('',(6.516206983074E0,5.275686541108E1,1.396727443036E-1));
#962=CARTESIAN_POINT('',(6.516206983074E0,5.274411167769E1,1.235302351028E-1));
#963=CARTESIAN_POINT('',(6.441695495615E0,5.323752549668E1,1.397087110079E0));
#964=CARTESIAN_POINT('',(6.441695495615E0,5.322561089565E1,1.381061110506E0));
#965=CARTESIAN_POINT('',(6.441695495615E0,5.313758680433E1,1.263041017013E0));
#966=CARTESIAN_POINT('',(6.441695495615E0,5.296844031577E1,1.041203669499E0));
#967=CARTESIAN_POINT('',(6.441695495615E0,5.272675837273E1,7.316281749070E-1));
#968=CARTESIAN_POINT('',(6.441695495615E0,5.254640980269E1,5.035413807299E-1));
#969=CARTESIAN_POINT('',(6.441695495615E0,5.245056574954E1,3.822748510328E-1));
#970=CARTESIAN_POINT('',(6.441695495615E0,5.243798797723E1,3.663574123260E-1));
#971=CARTESIAN_POINT('',(6.277731813676E0,5.294669259114E1,1.613323670206E0));
#972=CARTESIAN_POINT('',(6.277731813676E0,5.293502405523E1,1.597627589935E0));
#973=CARTESIAN_POINT('',(6.277731813676E0,5.284871198397E1,1.481898330967E0));
#974=CARTESIAN_POINT('',(6.277731813676E0,5.268156513809E1,1.262674677950E0));
#975=CARTESIAN_POINT('',(6.277731813676E0,5.244237758810E1,9.562882866288E-1));
#976=CARTESIAN_POINT('',(6.277731813676E0,5.226130267465E1,7.272649553560E-1));
#977=CARTESIAN_POINT('',(6.277731813676E0,5.216646953115E1,6.072909047567E-1));
#978=CARTESIAN_POINT('',(6.277731813676E0,5.215405496462E1,5.915822213447E-1));
#979=(BOUNDED_SURFACE()B_SPLINE_SURFACE(3,3,((#947,#948,#949,#950,#951,#952,
#953,#954),(#955,#956,#957,#958,#959,#960,#961,#962),(#963,#964,#965,#966,#967,
#968,#969,#970),(#971,#972,#973,#974,#975,#976,#977,#978)),.UNSPECIFIED.,.F.,
.F.,.F.)B_SPLINE_SURFACE_WITH_KNOTS((4,4),(4,1,1,1,1,4),(0.E0,1.E0),(
-5.102200733332E-2,0.E0,3.249001455885E-1,6.583167034466E-1,1.E0,
1.051799221888E0),.UNSPECIFIED.)GEOMETRIC_REPRESENTATION_ITEM()RATIONAL_B_SPLINE_SURFACE(((1.014106680886E0,1.014106680886E0,1.014106680886E0,1.014106680886E0,
1.014106680886E0,1.014106680886E0,1.014106680886E0,1.014106680886E0),(
9.952977730379E-1,9.952977730379E-1,9.952977730379E-1,9.952977730379E-1,
9.952977730379E-1,9.952977730379E-1,9.952977730379E-1,9.952977730379E-1),(
9.952977730379E-1,9.952977730379E-1,9.952977730379E-1,9.952977730379E-1,
9.952977730379E-1,9.952977730379E-1,9.952977730379E-1,9.952977730379E-1),(
1.014106680886E0,1.014106680886E0,1.014106680886E0,1.014106680886E0,
1.014106680886E0,1.014106680886E0,1.014106680886E0,1.014106680886E0)))REPRESENTATION_ITEM('')SURFACE());
#980=ORIENTED_EDGE('',*,*,#803,.T.);
#982=ORIENTED_EDGE('',*,*,#981,.F.);
#983=ORIENTED_EDGE('',*,*,#942,.F.);
#984=EDGE_LOOP('',(#980,#982,#983));
#985=FACE_OUTER_BOUND('',#984,.F.);
#987=CARTESIAN_POINT('',(0.E0,3.E0,0.E0));
#988=DIRECTION('',(0.E0,1.E0,0.E0));
#989=DIRECTION('',(1.E0,0.E0,0.E0));
#990=AXIS2_PLACEMENT_3D('',#987,#988,#989);
#991=CYLINDRICAL_SURFACE('',#990,6.5E0);
#992=ORIENTED_EDGE('',*,*,#981,.T.);
#993=ORIENTED_EDGE('',*,*,#749,.F.);
#994=ORIENTED_EDGE('',*,*,#730,.F.);
#995=ORIENTED_EDGE('',*,*,#746,.T.);
#997=ORIENTED_EDGE('',*,*,#996,.F.);
#999=ORIENTED_EDGE('',*,*,#998,.T.);
#1000=EDGE_LOOP('',(#992,#993,#994,#995,#997,#999));
#1001=FACE_OUTER_BOUND('',#1000,.F.);
#1003=CARTESIAN_POINT('',(-6.277731813676E0,5.294669240520E1,1.613322975621E0));
#1004=CARTESIAN_POINT('',(-6.277731813676E0,5.293502399298E1,1.597627281562E0));
#1005=CARTESIAN_POINT('',(-6.277731813676E0,5.284743863868E1,1.480191828317E0));
#1006=CARTESIAN_POINT('',(-6.277731813676E0,5.267973564401E1,1.260305133701E0));
#1007=CARTESIAN_POINT('',(-6.277731813676E0,5.244053246461E1,
9.539599650540E-1));
#1008=CARTESIAN_POINT('',(-6.277731813676E0,5.226068826928E1,
7.264736983367E-1));
#1009=CARTESIAN_POINT('',(-6.277731813676E0,5.216655228542E1,
6.073999496960E-1));
#1010=CARTESIAN_POINT('',(-6.277731813676E0,5.215417107040E1,
5.917364843935E-1));
#1011=CARTESIAN_POINT('',(-6.441695495615E0,5.323752565110E1,1.397086840846E0));
#1012=CARTESIAN_POINT('',(-6.441695495615E0,5.322561104666E1,1.381061074120E0));
#1013=CARTESIAN_POINT('',(-6.441695495615E0,5.313628753972E1,1.261299889749E0));
#1014=CARTESIAN_POINT('',(-6.441695495615E0,5.296659762839E1,1.038817172053E0));
#1015=CARTESIAN_POINT('',(-6.441695495615E0,5.272489787829E1,
7.292803661293E-1));
#1016=CARTESIAN_POINT('',(-6.441695495615E0,5.254583831153E1,
5.028047661871E-1));
#1017=CARTESIAN_POINT('',(-6.441695495615E0,5.245061794366E1,
3.823451019401E-1));
#1018=CARTESIAN_POINT('',(-6.441695495615E0,5.243806056514E1,
3.664563946148E-1));
#1019=CARTESIAN_POINT('',(-6.516206983074E0,5.355108887023E1,1.163950844638E0));
#1020=CARTESIAN_POINT('',(-6.516206983074E0,5.353890883251E1,1.147569208529E0));
#1021=CARTESIAN_POINT('',(-6.516206983074E0,5.344771132819E1,1.025300526310E0));
#1022=CARTESIAN_POINT('',(-6.516206983074E0,5.327587921341E1,
8.000188942342E-1));
#1023=CARTESIAN_POINT('',(-6.516206983074E0,5.303148777399E1,
4.870410097093E-1));
#1024=CARTESIAN_POINT('',(-6.516206983074E0,5.285327415816E1,
2.616550648596E-1));
#1025=CARTESIAN_POINT('',(-6.516206983074E0,5.275688465663E1,
1.397011692443E-1));
#1026=CARTESIAN_POINT('',(-6.516206983074E0,5.274413734661E1,
1.235696161827E-1));
#1027=CARTESIAN_POINT('',(-6.497120322592E0,5.386993483991E1,
9.268870940310E-1));
#1028=CARTESIAN_POINT('',(-6.497120322592E0,5.385748489703E1,
9.101435930350E-1));
#1029=CARTESIAN_POINT('',(-6.497120322592E0,5.376438182321E1,
7.853251679435E-1));
#1030=CARTESIAN_POINT('',(-6.497120322592E0,5.359037141423E1,
5.571974668303E-1));
#1031=CARTESIAN_POINT('',(-6.497120322592E0,5.334324293731E1,
2.407205301964E-1));
#1032=CARTESIAN_POINT('',(-6.497120322592E0,5.316588952455E1,
1.644259838324E-2));
#1033=CARTESIAN_POINT('',(-6.497120322592E0,5.306831119240E1,
-1.070307026358E-1));
#1034=CARTESIAN_POINT('',(-6.497120322592E0,5.305537075102E1,
-1.234091927728E-1));
#1035=(BOUNDED_SURFACE()B_SPLINE_SURFACE(3,3,((#1003,#1004,#1005,#1006,#1007,
#1008,#1009,#1010),(#1011,#1012,#1013,#1014,#1015,#1016,#1017,#1018),(#1019,
#1020,#1021,#1022,#1023,#1024,#1025,#1026),(#1027,#1028,#1029,#1030,#1031,#1032,
#1033,#1034)),.UNSPECIFIED.,.F.,.F.,.F.)B_SPLINE_SURFACE_WITH_KNOTS((4,4),(4,1,
1,1,1,4),(0.E0,1.E0),(-5.102274655807E-2,0.E0,3.304526765063E-1,
6.603916021979E-1,1.E0,1.051794185110E0),.UNSPECIFIED.)GEOMETRIC_REPRESENTATION_ITEM()RATIONAL_B_SPLINE_SURFACE(((1.014106680886E0,1.014106680886E0,
1.014106680886E0,1.014106680886E0,1.014106680886E0,1.014106680886E0,
1.014106680886E0,1.014106680886E0),(9.952977730379E-1,9.952977730379E-1,
9.952977730379E-1,9.952977730379E-1,9.952977730379E-1,9.952977730379E-1,
9.952977730379E-1,9.952977730379E-1),(9.952977730379E-1,9.952977730379E-1,
9.952977730379E-1,9.952977730379E-1,9.952977730379E-1,9.952977730379E-1,
9.952977730379E-1,9.952977730379E-1),(1.014106680886E0,1.014106680886E0,
1.014106680886E0,1.014106680886E0,1.014106680886E0,1.014106680886E0,
1.014106680886E0,1.014106680886E0)))REPRESENTATION_ITEM('')SURFACE());
#1037=ORIENTED_EDGE('',*,*,#1036,.F.);
#1039=ORIENTED_EDGE('',*,*,#1038,.F.);
#1040=ORIENTED_EDGE('',*,*,#996,.T.);
#1041=EDGE_LOOP('',(#1037,#1039,#1040));
#1042=FACE_OUTER_BOUND('',#1041,.F.);
#1044=CARTESIAN_POINT('',(-6.5E0,5.95E1,-1.5E0));
#1045=DIRECTION('',(-1.E0,0.E0,0.E0));
#1046=DIRECTION('',(0.E0,-1.E0,0.E0));
#1047=AXIS2_PLACEMENT_3D('',#1044,#1045,#1046);
#1048=PLANE('',#1047);
#1050=ORIENTED_EDGE('',*,*,#1049,.T.);
#1051=ORIENTED_EDGE('',*,*,#853,.F.);
#1053=ORIENTED_EDGE('',*,*,#1052,.T.);
#1054=ORIENTED_EDGE('',*,*,#907,.T.);
#1056=ORIENTED_EDGE('',*,*,#1055,.T.);
#1057=ORIENTED_EDGE('',*,*,#1036,.T.);
#1059=ORIENTED_EDGE('',*,*,#1058,.T.);
#1060=EDGE_LOOP('',(#1050,#1051,#1053,#1054,#1056,#1057,#1059));
#1061=FACE_OUTER_BOUND('',#1060,.F.);
#1063=CARTESIAN_POINT('',(-6.288966816265E0,5.291124633665E1,
-1.523775067813E0));
#1064=CARTESIAN_POINT('',(-6.285267867339E0,5.291134654733E1,
-1.537939679573E0));
#1065=CARTESIAN_POINT('',(-6.206338975815E0,5.291348883273E1,
-1.835994439066E0));
#1066=CARTESIAN_POINT('',(-6.106968487731E0,5.291626943066E1,
-2.124551944479E0));
#1067=CARTESIAN_POINT('',(-5.997410426757E0,5.291950351330E1,
-2.386996675377E0));
#1068=CARTESIAN_POINT('',(-6.521219743989E0,5.333410802882E1,
-1.206227839738E0));
#1069=CARTESIAN_POINT('',(-6.519467173831E0,5.333368669098E1,
-1.221121229305E0));
#1070=CARTESIAN_POINT('',(-6.481448125155E0,5.332469189741E1,
-1.534719963722E0));
#1071=CARTESIAN_POINT('',(-6.420645083474E0,5.331327518725E1,
-1.842757390787E0));
#1072=CARTESIAN_POINT('',(-6.344731322720E0,5.330018955029E1,
-2.126175574766E0));
#1073=CARTESIAN_POINT('',(-6.563918829204E0,5.379469175030E1,
-8.603534580111E-1));
#1074=CARTESIAN_POINT('',(-6.564286176946E0,5.379432114490E1,
-8.755758458270E-1));
#1075=CARTESIAN_POINT('',(-6.570915576026E0,5.378624925516E1,
-1.196333144708E0));
#1076=CARTESIAN_POINT('',(-6.554126736496E0,5.377268919494E1,
-1.516318352384E0));
#1077=CARTESIAN_POINT('',(-6.518370122750E0,5.375461259033E1,
-1.814839659124E0));
#1078=CARTESIAN_POINT('',(-6.412180142028E0,5.424031584319E1,
-5.257131033732E-1));
#1079=CARTESIAN_POINT('',(-6.414598470170E0,5.424056244841E1,
-5.408270789954E-1));
#1080=CARTESIAN_POINT('',(-6.464508023560E0,5.424536788339E1,
-8.595387338511E-1));
#1081=CARTESIAN_POINT('',(-6.492145788711E0,5.424196358793E1,
-1.182572991568E0));
#1082=CARTESIAN_POINT('',(-6.498465986279E0,5.423079563549E1,
-1.488599592557E0));
#1083=(BOUNDED_SURFACE()B_SPLINE_SURFACE(3,3,((#1063,#1064,#1065,#1066,#1067),(
#1068,#1069,#1070,#1071,#1072),(#1073,#1074,#1075,#1076,#1077),(#1078,#1079,
#1080,#1081,#1082)),.UNSPECIFIED.,.F.,.F.,.F.)B_SPLINE_SURFACE_WITH_KNOTS((4,4),
(4,1,4),(0.E0,1.E0),(-5.756431138774E-3,0.E0,1.155504394531E-1),.UNSPECIFIED.)GEOMETRIC_REPRESENTATION_ITEM()RATIONAL_B_SPLINE_SURFACE(((1.029436796508E0,
1.029436796508E0,1.029436796508E0,1.029436796508E0,1.029436796508E0),(
9.901877344974E-1,9.901877344974E-1,9.901877344974E-1,9.901877344974E-1,
9.901877344974E-1),(9.901877344974E-1,9.901877344974E-1,9.901877344974E-1,
9.901877344974E-1,9.901877344974E-1),(1.029436796508E0,1.029436796508E0,
1.029436796508E0,1.029436796508E0,1.029436796508E0)))REPRESENTATION_ITEM('')SURFACE());
#1084=ORIENTED_EDGE('',*,*,#855,.T.);
#1085=ORIENTED_EDGE('',*,*,#1049,.F.);
#1087=ORIENTED_EDGE('',*,*,#1086,.F.);
#1088=EDGE_LOOP('',(#1084,#1085,#1087));
#1089=FACE_OUTER_BOUND('',#1088,.F.);
#1091=CARTESIAN_POINT('',(-6.277731813676E0,5.215404536896E1,
-5.915640580563E-1));
#1092=CARTESIAN_POINT('',(-6.277731813676E0,5.216645829663E1,
-6.072731220080E-1));
#1093=CARTESIAN_POINT('',(-6.277731813676E0,5.226181393589E1,
-7.279233478117E-1));
#1094=CARTESIAN_POINT('',(-6.277731813676E0,5.244313156633E1,
-9.572372550150E-1));
#1095=CARTESIAN_POINT('',(-6.277731813676E0,5.268232723800E1,
-1.263666745206E0));
#1096=CARTESIAN_POINT('',(-6.277731813676E0,5.284909635859E1,
-1.482412392832E0));
#1097=CARTESIAN_POINT('',(-6.277731813676E0,5.293508493143E1,
-1.597709328002E0));
#1098=CARTESIAN_POINT('',(-6.277731813676E0,5.294678364875E1,
-1.613446382042E0));
#1099=CARTESIAN_POINT('',(-6.441695495615E0,5.243801400058E1,
-3.663844423099E-1));
#1100=CARTESIAN_POINT('',(-6.441695495615E0,5.245057968252E1,
-3.822889847370E-1));
#1101=CARTESIAN_POINT('',(-6.441695495615E0,5.254688815586E1,
-5.041579796769E-1));
#1102=CARTESIAN_POINT('',(-6.441695495615E0,5.272752539016E1,
-7.325936518442E-1));
#1103=CARTESIAN_POINT('',(-6.441695495615E0,5.296920746844E1,
-1.042202324132E0));
#1104=CARTESIAN_POINT('',(-6.441695495615E0,5.313797876069E1,
-1.263565200603E0));
#1105=CARTESIAN_POINT('',(-6.441695495615E0,5.322567293483E1,
-1.381144405664E0));
#1106=CARTESIAN_POINT('',(-6.441695495615E0,5.323761836610E1,
-1.397212257723E0));
#1107=CARTESIAN_POINT('',(-6.516206983074E0,5.274417610383E1,
-1.236059904240E-1));
#1108=CARTESIAN_POINT('',(-6.516206983074E0,5.275690647851E1,
-1.397212888800E-1));
#1109=CARTESIAN_POINT('',(-6.516206983074E0,5.285424225434E1,
-2.629043054428E-1));
#1110=CARTESIAN_POINT('',(-6.516206983074E0,5.303414591638E1,
-4.903931044140E-1));
#1111=CARTESIAN_POINT('',(-6.516206983074E0,5.327850872554E1,
-8.034294266926E-1));
#1112=CARTESIAN_POINT('',(-6.516206983074E0,5.344943866849E1,
-1.027614080636E0));
#1113=CARTESIAN_POINT('',(-6.516206983074E0,5.353897174461E1,
-1.147653925614E0));
#1114=CARTESIAN_POINT('',(-6.516206983074E0,5.355118317170E1,
-1.164078429099E0));
#1115=CARTESIAN_POINT('',(-6.497120322592E0,5.305549626748E1,
1.232626669559E-1));
#1116=CARTESIAN_POINT('',(-6.497120322592E0,5.306839410956E1,
1.069330617626E-1));
#1117=CARTESIAN_POINT('',(-6.497120322592E0,5.316677449534E1,
-1.758611437814E-2));
#1118=CARTESIAN_POINT('',(-6.497120322592E0,5.334593222627E1,
-2.441120877246E-1));
#1119=CARTESIAN_POINT('',(-6.497120322592E0,5.359302092987E1,
-5.606338072638E-1));
#1120=CARTESIAN_POINT('',(-6.497120322592E0,5.376614589135E1,
-7.876877785246E-1));
#1121=CARTESIAN_POINT('',(-6.497120322592E0,5.385754885032E1,
-9.102297190039E-1));
#1122=CARTESIAN_POINT('',(-6.497120322592E0,5.387003075457E1,
-9.270168825929E-1));
#1123=(BOUNDED_SURFACE()B_SPLINE_SURFACE(3,3,((#1091,#1092,#1093,#1094,#1095,
#1096,#1097,#1098),(#1099,#1100,#1101,#1102,#1103,#1104,#1105,#1106),(#1107,
#1108,#1109,#1110,#1111,#1112,#1113,#1114),(#1115,#1116,#1117,#1118,#1119,#1120,
#1121,#1122)),.UNSPECIFIED.,.F.,.F.,.F.)B_SPLINE_SURFACE_WITH_KNOTS((4,4),(4,1,
1,1,1,4),(0.E0,1.E0),(-5.168818748720E-2,0.E0,3.433240056360E-1,
6.766398461970E-1,1.E0,1.051154414512E0),.UNSPECIFIED.)GEOMETRIC_REPRESENTATION_ITEM()RATIONAL_B_SPLINE_SURFACE(((1.014106680886E0,1.014106680886E0,
1.014106680886E0,1.014106680886E0,1.014106680886E0,1.014106680886E0,
1.014106680886E0,1.014106680886E0),(9.952977730379E-1,9.952977730379E-1,
9.952977730379E-1,9.952977730379E-1,9.952977730379E-1,9.952977730379E-1,
9.952977730379E-1,9.952977730379E-1),(9.952977730379E-1,9.952977730379E-1,
9.952977730379E-1,9.952977730379E-1,9.952977730379E-1,9.952977730379E-1,
9.952977730379E-1,9.952977730379E-1),(1.014106680886E0,1.014106680886E0,
1.014106680886E0,1.014106680886E0,1.014106680886E0,1.014106680886E0,
1.014106680886E0,1.014106680886E0)))REPRESENTATION_ITEM('')SURFACE());
#1124=ORIENTED_EDGE('',*,*,#1058,.F.);
#1125=ORIENTED_EDGE('',*,*,#744,.T.);
#1126=ORIENTED_EDGE('',*,*,#1086,.T.);
#1127=EDGE_LOOP('',(#1124,#1125,#1126));
#1128=FACE_OUTER_BOUND('',#1127,.F.);
#1130=CARTESIAN_POINT('',(0.E0,5.95E1,-1.5E0));
#1131=DIRECTION('',(0.E0,0.E0,1.E0));
#1132=DIRECTION('',(1.E0,0.E0,0.E0));
#1133=AXIS2_PLACEMENT_3D('',#1130,#1131,#1132);
#1134=CYLINDRICAL_SURFACE('',#1133,6.5E0);
#1135=ORIENTED_EDGE('',*,*,#851,.F.);
#1136=ORIENTED_EDGE('',*,*,#809,.T.);
#1137=ORIENTED_EDGE('',*,*,#909,.T.);
#1138=ORIENTED_EDGE('',*,*,#1052,.F.);
#1139=EDGE_LOOP('',(#1135,#1136,#1137,#1138));
#1140=FACE_OUTER_BOUND('',#1139,.F.);
#1142=CARTESIAN_POINT('',(-5.997540587934E0,5.291949981548E1,2.386709812472E0));
#1143=CARTESIAN_POINT('',(-6.107047235101E0,5.291626741626E1,2.124355211529E0));
#1144=CARTESIAN_POINT('',(-6.206414528908E0,5.291348691731E1,1.835748687738E0));
#1145=CARTESIAN_POINT('',(-6.285345208278E0,5.291134457028E1,1.537647976445E0));
#1146=CARTESIAN_POINT('',(-6.289081385869E0,5.291124335221E1,1.523336931969E0));
#1147=CARTESIAN_POINT('',(-6.344822982196E0,5.330020452026E1,2.125865349024E0));
#1148=CARTESIAN_POINT('',(-6.420695578409E0,5.331328347696E1,1.842546946899E0));
#1149=CARTESIAN_POINT('',(-6.481490168277E0,5.332469988877E1,1.534459420683E0));
#1150=CARTESIAN_POINT('',(-6.519504100276E0,5.333369503700E1,1.220814799890E0));
#1151=CARTESIAN_POINT('',(-6.521273723207E0,5.333412062110E1,1.205767665294E0));
#1152=CARTESIAN_POINT('',(-6.518415947540E0,5.375463305017E1,1.814512298626E0));
#1153=CARTESIAN_POINT('',(-6.554145037575E0,5.377269867411E1,1.516099057244E0));
#1154=CARTESIAN_POINT('',(-6.570920729826E0,5.378625695600E1,1.196064503998E0));
#1155=CARTESIAN_POINT('',(-6.564279577334E0,5.379432792857E1,
8.752629597921E-1));
#1156=CARTESIAN_POINT('',(-6.563907393885E0,5.379470213262E1,
8.598836729133E-1));
#1157=CARTESIAN_POINT('',(-6.498463941344E0,5.423080792430E1,1.488263185957E0));
#1158=CARTESIAN_POINT('',(-6.492131679415E0,5.424196515238E1,1.182350613152E0));
#1159=CARTESIAN_POINT('',(-6.464477156620E0,5.424536527683E1,
8.592695077960E-1));
#1160=CARTESIAN_POINT('',(-6.414550225740E0,5.424055610993E1,
5.405166343070E-1));
#1161=CARTESIAN_POINT('',(-6.412105963748E0,5.424030662855E1,
5.252471245219E-1));
#1162=(BOUNDED_SURFACE()B_SPLINE_SURFACE(3,3,((#1142,#1143,#1144,#1145,#1146),(
#1147,#1148,#1149,#1150,#1151),(#1152,#1153,#1154,#1155,#1156),(#1157,#1158,
#1159,#1160,#1161)),.UNSPECIFIED.,.F.,.F.,.F.)B_SPLINE_SURFACE_WITH_KNOTS((4,4),
(4,1,4),(0.E0,1.E0),(8.844952662522E-1,1.E0,1.005815609807E0),.UNSPECIFIED.)GEOMETRIC_REPRESENTATION_ITEM()RATIONAL_B_SPLINE_SURFACE(((1.029436712010E0,
1.029436712010E0,1.029436712010E0,1.029436712010E0,1.029436712010E0),(
9.901877626634E-1,9.901877626634E-1,9.901877626634E-1,9.901877626634E-1,
9.901877626634E-1),(9.901877626634E-1,9.901877626634E-1,9.901877626634E-1,
9.901877626634E-1,9.901877626634E-1),(1.029436712010E0,1.029436712010E0,
1.029436712010E0,1.029436712010E0,1.029436712010E0)))REPRESENTATION_ITEM('')SURFACE());
#1163=ORIENTED_EDGE('',*,*,#905,.T.);
#1164=ORIENTED_EDGE('',*,*,#1038,.T.);
#1165=ORIENTED_EDGE('',*,*,#1055,.F.);
#1166=EDGE_LOOP('',(#1163,#1164,#1165));
#1167=FACE_OUTER_BOUND('',#1166,.F.);
#1169=CARTESIAN_POINT('',(0.E0,5.3E1,0.E0));
#1170=DIRECTION('',(0.E0,1.E0,0.E0));
#1171=DIRECTION('',(1.E0,0.E0,0.E0));
#1172=AXIS2_PLACEMENT_3D('',#1169,#1170,#1171);
#1173=PLANE('',#1172);
#1174=ORIENTED_EDGE('',*,*,#857,.F.);
#1175=ORIENTED_EDGE('',*,*,#742,.F.);
#1176=EDGE_LOOP('',(#1174,#1175));
#1177=FACE_OUTER_BOUND('',#1176,.F.);
#1179=CARTESIAN_POINT('',(0.E0,5.3E1,0.E0));
#1180=DIRECTION('',(0.E0,1.E0,0.E0));
#1181=DIRECTION('',(1.E0,0.E0,0.E0));
#1182=AXIS2_PLACEMENT_3D('',#1179,#1180,#1181);
#1183=PLANE('',#1182);
#1184=ORIENTED_EDGE('',*,*,#903,.T.);
#1185=ORIENTED_EDGE('',*,*,#998,.F.);
#1186=EDGE_LOOP('',(#1184,#1185));
#1187=FACE_OUTER_BOUND('',#1186,.F.);
#1191=CARTESIAN_POINT('',(0.E0,0.E0,0.E0));
#1192=DIRECTION('',(0.E0,0.E0,1.E0));
#1193=DIRECTION('',(1.E0,0.E0,0.E0));
#1194=AXIS2_PLACEMENT_3D('PRT_CSYS_DEF',#1191,#1192,#1193);
#1195=DRAUGHTING_PRE_DEFINED_CURVE_FONT('continuous');
#1196=CURVE_STYLE('',#1195,POSITIVE_LENGTH_MEASURE(2.E-2),#156);
#1197=PRESENTATION_STYLE_ASSIGNMENT((#1196));
#1198=STYLED_ITEM('',(#1197),#1194);
#1199=DIRECTION('',(-1.E0,0.E0,0.E0));
#1200=VECTOR('',#1199,5.E1);
#1201=CARTESIAN_POINT('',(2.5E1,0.E0,0.E0));
#1202=LINE('',#1201,#1200);
#1204=CURVE_STYLE('',#1195,POSITIVE_LENGTH_MEASURE(2.E-2),#79);
#1205=PRESENTATION_STYLE_ASSIGNMENT((#1204));
#1206=STYLED_ITEM('',(#1205),#1203);
#1208=DIRECTION('',(0.E0,-1.E0,0.E0));
#1209=VECTOR('',#1208,6.6E1);
#1210=CARTESIAN_POINT('',(0.E0,6.6E1,0.E0));
#1211=LINE('',#1210,#1209);
#1213=CURVE_STYLE('',#1195,POSITIVE_LENGTH_MEASURE(2.E-2),#79);
#1214=PRESENTATION_STYLE_ASSIGNMENT((#1213));
#1215=STYLED_ITEM('',(#1214),#1212);
#1216=DIRECTION('',(0.E0,0.E0,-1.E0));
#1217=VECTOR('',#1216,5.E1);
#1218=CARTESIAN_POINT('',(0.E0,0.E0,2.5E1));
#1219=LINE('',#1218,#1217);
#1221=CURVE_STYLE('',#1195,POSITIVE_LENGTH_MEASURE(2.E-2),#79);
#1222=PRESENTATION_STYLE_ASSIGNMENT((#1221));
#1223=STYLED_ITEM('',(#1222),#1220);
#1224=DIRECTION('',(0.E0,0.E0,1.E0));
#1225=VECTOR('',#1224,5.E1);
#1226=CARTESIAN_POINT('',(-2.5E1,0.E0,-2.5E1));
#1227=LINE('',#1226,#1225);
#1229=CURVE_STYLE('',#1195,POSITIVE_LENGTH_MEASURE(2.E-2),#19);
#1230=PRESENTATION_STYLE_ASSIGNMENT((#1229));
#1231=STYLED_ITEM('',(#1230),#1228);
#1233=DIRECTION('',(1.E0,0.E0,0.E0));
#1234=VECTOR('',#1233,5.E1);
#1235=CARTESIAN_POINT('',(-2.5E1,0.E0,2.5E1));
#1236=LINE('',#1235,#1234);
#1238=CURVE_STYLE('',#1195,POSITIVE_LENGTH_MEASURE(2.E-2),#19);
#1239=PRESENTATION_STYLE_ASSIGNMENT((#1238));
#1240=STYLED_ITEM('',(#1239),#1237);
#1242=DIRECTION('',(0.E0,0.E0,-1.E0));
#1243=VECTOR('',#1242,5.E1);
#1244=CARTESIAN_POINT('',(2.5E1,0.E0,2.5E1));
#1245=LINE('',#1244,#1243);
#1247=CURVE_STYLE('',#1195,POSITIVE_LENGTH_MEASURE(2.E-2),#19);
#1248=PRESENTATION_STYLE_ASSIGNMENT((#1247));
#1249=STYLED_ITEM('',(#1248),#1246);
#1251=DIRECTION('',(-1.E0,0.E0,0.E0));
#1252=VECTOR('',#1251,5.E1);
#1253=CARTESIAN_POINT('',(2.5E1,0.E0,-2.5E1));
#1254=LINE('',#1253,#1252);
#1256=CURVE_STYLE('',#1195,POSITIVE_LENGTH_MEASURE(2.E-2),#19);
#1257=PRESENTATION_STYLE_ASSIGNMENT((#1256));
#1258=STYLED_ITEM('',(#1257),#1255);
#1261=CARTESIAN_POINT('',(0.E0,3.E0,0.E0));
#1262=DIRECTION('',(0.E0,1.E0,0.E0));
#1263=DIRECTION('',(1.E0,0.E0,0.E0));
#1264=AXIS2_PLACEMENT_3D('',#1261,#1262,#1263);
#1267=CURVE_STYLE('',#1195,POSITIVE_LENGTH_MEASURE(2.E-2),#19);
#1268=PRESENTATION_STYLE_ASSIGNMENT((#1267));
#1269=STYLED_ITEM('',(#1268),#1266);
#1271=CARTESIAN_POINT('',(0.E0,3.E0,0.E0));
#1272=DIRECTION('',(0.E0,1.E0,0.E0));
#1273=DIRECTION('',(-1.E0,0.E0,0.E0));
#1274=AXIS2_PLACEMENT_3D('',#1271,#1272,#1273);
#1277=CURVE_STYLE('',#1195,POSITIVE_LENGTH_MEASURE(2.E-2),#19);
#1278=PRESENTATION_STYLE_ASSIGNMENT((#1277));
#1279=STYLED_ITEM('',(#1278),#1276);
#1282=DIRECTION('',(0.E0,-1.E0,0.E0));
#1283=VECTOR('',#1282,6.5E0);
#1284=CARTESIAN_POINT('',(-6.5E0,5.95E1,0.E0));
#1285=LINE('',#1284,#1283);
#1287=CURVE_STYLE('',#1195,POSITIVE_LENGTH_MEASURE(2.E-2),#19);
#1288=PRESENTATION_STYLE_ASSIGNMENT((#1287));
#1289=STYLED_ITEM('',(#1288),#1286);
#1291=DIRECTION('',(1.E0,0.E0,0.E0));
#1292=VECTOR('',#1291,1.3E1);
#1293=CARTESIAN_POINT('',(-6.5E0,5.3E1,0.E0));
#1294=LINE('',#1293,#1292);
#1296=CURVE_STYLE('',#1195,POSITIVE_LENGTH_MEASURE(2.E-2),#19);
#1297=PRESENTATION_STYLE_ASSIGNMENT((#1296));
#1298=STYLED_ITEM('',(#1297),#1295);
#1300=DIRECTION('',(0.E0,1.E0,0.E0));
#1301=VECTOR('',#1300,6.5E0);
#1302=CARTESIAN_POINT('',(6.5E0,5.3E1,0.E0));
#1303=LINE('',#1302,#1301);
#1305=CURVE_STYLE('',#1195,POSITIVE_LENGTH_MEASURE(2.E-2),#19);
#1306=PRESENTATION_STYLE_ASSIGNMENT((#1305));
#1307=STYLED_ITEM('',(#1306),#1304);
#1309=CARTESIAN_POINT('',(0.E0,5.95E1,0.E0));
#1310=DIRECTION('',(0.E0,0.E0,1.E0));
#1311=DIRECTION('',(1.E0,0.E0,0.E0));
#1312=AXIS2_PLACEMENT_3D('',#1309,#1310,#1311);
#1315=CURVE_STYLE('',#1195,POSITIVE_LENGTH_MEASURE(2.E-2),#19);
#1316=PRESENTATION_STYLE_ASSIGNMENT((#1315));
#1317=STYLED_ITEM('',(#1316),#1314);
#1320=CARTESIAN_POINT('',(0.E0,5.95E1,1.5E0));
#1321=DIRECTION('',(0.E0,0.E0,1.E0));
#1322=DIRECTION('',(1.E0,0.E0,0.E0));
#1323=AXIS2_PLACEMENT_3D('',#1320,#1321,#1322);
#1326=CURVE_STYLE('',#1195,POSITIVE_LENGTH_MEASURE(2.E-2),#19);
#1327=PRESENTATION_STYLE_ASSIGNMENT((#1326));
#1328=STYLED_ITEM('',(#1327),#1325);
#1330=CARTESIAN_POINT('',(0.E0,5.95E1,1.5E0));
#1331=DIRECTION('',(0.E0,0.E0,1.E0));
#1332=DIRECTION('',(-1.E0,0.E0,0.E0));
#1333=AXIS2_PLACEMENT_3D('',#1330,#1331,#1332);
#1336=CURVE_STYLE('',#1195,POSITIVE_LENGTH_MEASURE(2.E-2),#19);
#1337=PRESENTATION_STYLE_ASSIGNMENT((#1336));
#1338=STYLED_ITEM('',(#1337),#1335);
#1341=DIRECTION('',(0.E0,0.E0,1.E0));
#1342=VECTOR('',#1341,3.E0);
#1343=CARTESIAN_POINT('',(0.E0,5.95E1,-1.5E0));
#1344=LINE('',#1343,#1342);
#1346=CURVE_STYLE('',#1195,POSITIVE_LENGTH_MEASURE(2.E-2),#79);
#1347=PRESENTATION_STYLE_ASSIGNMENT((#1346));
#1348=STYLED_ITEM('',(#1347),#1345);
#1349=CARTESIAN_POINT('',(0.E0,5.3E1,0.E0));
#1350=DIRECTION('',(0.E0,1.E0,0.E0));
#1351=DIRECTION('',(0.E0,0.E0,-1.E0));
#1352=AXIS2_PLACEMENT_3D('',#1349,#1350,#1351);
#1355=CURVE_STYLE('',#1195,POSITIVE_LENGTH_MEASURE(2.E-2),#19);
#1356=PRESENTATION_STYLE_ASSIGNMENT((#1355));
#1357=STYLED_ITEM('',(#1356),#1354);
#1359=CARTESIAN_POINT('',(0.E0,5.3E1,0.E0));
#1360=DIRECTION('',(0.E0,1.E0,0.E0));
#1361=DIRECTION('',(0.E0,0.E0,1.E0));
#1362=AXIS2_PLACEMENT_3D('',#1359,#1360,#1361);
#1365=CURVE_STYLE('',#1195,POSITIVE_LENGTH_MEASURE(2.E-2),#19);
#1366=PRESENTATION_STYLE_ASSIGNMENT((#1365));
#1367=STYLED_ITEM('',(#1366),#1364);
#1370=PRESENTATION_LAYER_ASSIGNMENT('ALL_CSYS','',(#1194));
#1371=PRESENTATION_LAYER_ASSIGNMENT('ALL_AXIS','',(#1203,#1212,#1220,#1345));
#1372=PRESENTATION_LAYER_ASSIGNMENT('ALL_FEATURE','',(#1260,#1281,#1319,#1340,
#1345,#1369));
#1373=PRESENTATION_LAYER_ASSIGNMENT('ALL_NOGEOM_FEAT','',(#1260,#1281,#1319,
#1340,#1369));
#1374=PRESENTATION_LAYER_ASSIGNMENT('ALL_CURVE','',(#1260,#1281,#1319,#1340,
#1369));
#1375=PRESENTATION_LAYER_ASSIGNMENT('ALL_CURVE_ENT','',(#1228,#1237,#1246,#1255,
#1260,#1266,#1276,#1281,#1286,#1295,#1304,#1314,#1319,#1325,#1335,#1340,#1354,
#1364,#1369));
#1376=PRESENTATION_LAYER_ASSIGNMENT('.BLACK_HOLE','',(#1260,#1281,#1319,#1340));
#1377=PRESENTATION_LAYER_ASSIGNMENT('ALL_GEOM_FEAT','',(#1345));
#1378=PRESENTATION_LAYER_ASSIGNMENT('ALL_SOLID','',(#1190));
#1379=PRESENTATION_LAYER_ASSIGNMENT('ALL_CUT_FEAT','',(#1345));
#1380=INVISIBILITY((#1376));
#1383=PLANE_ANGLE_MEASURE_WITH_UNIT(PLANE_ANGLE_MEASURE(1.745329251994E-2),
#1382);
#1384=(CONVERSION_BASED_UNIT('DEGREE',#1383)NAMED_UNIT(*)PLANE_ANGLE_UNIT());
#1386=UNCERTAINTY_MEASURE_WITH_UNIT(LENGTH_MEASURE(1.E-2),#1381,'closure',
'Maximum model space distance between geometric entities at asserted connectivities');
#1207=GEOMETRIC_SET('',(#1203,#1212,#1220,#1260,#1281,#1319,#1340,#1345,#1369));
#1391=SHAPE_REPRESENTATION_RELATIONSHIP('','',#1390,#1388);
#1392=SHAPE_REPRESENTATION_RELATIONSHIP('','',#1390,#1389);
#1393=MECHANICAL_DESIGN_GEOMETRIC_PRESENTATION_REPRESENTATION('',(#1198,#1206,
#1215,#1223,#1231,#1240,#1249,#1258,#1269,#1279,#1289,#1298,#1307,#1317,#1328,
#1338,#1348,#1357,#1367),#1387);
#1394=APPLICATION_CONTEXT('automotive design');
#1395=APPLICATION_PROTOCOL_DEFINITION('international standard',
'config_control_design',1994,#1394);
#1396=PRODUCT_DEFINITION_CONTEXT('',#1394,'design');
#1397=PRODUCT_CONTEXT('',#1394,'mechanical');
#1398=PRODUCT('PODAJLANIK','PODAJLANIK','NOT SPECIFIED',(#1397));
#1399=PRODUCT_DEFINITION_FORMATION_WITH_SPECIFIED_SOURCE('1','LAST_VERSION',
#1398,.MADE.);
#1407=DERIVED_UNIT_ELEMENT(#1406,-3.E0);
#1409=DERIVED_UNIT_ELEMENT(#1408,1.E0);
#1410=DERIVED_UNIT((#1407,#1409));
#1411=MEASURE_REPRESENTATION_ITEM('density measure',POSITIVE_RATIO_MEASURE(
7.828536E-6),#1410);
#1415=DESCRIPTIVE_REPRESENTATION_ITEM('STEEL','');
#1424=DERIVED_UNIT_ELEMENT(#1423,2.E0);
#1425=AREA_UNIT((#1424));
#1426=MEASURE_REPRESENTATION_ITEM('surface area measure',AREA_MEASURE(
7.942323058328E3),#1425);
#1431=DERIVED_UNIT_ELEMENT(#1430,3.E0);
#1432=VOLUME_UNIT((#1431));
#1433=MEASURE_REPRESENTATION_ITEM('volume measure',VOLUME_MEASURE(
1.435349339718E4),#1432);
#1437=CARTESIAN_POINT('centre point',(-7.208249760276E-8,1.461006722118E1,
-2.791646489017E-10));
#1442=DERIVED_UNIT_ELEMENT(#1441,2.E0);
#1443=AREA_UNIT((#1442));
#1444=MEASURE_REPRESENTATION_ITEM('surface area measure',AREA_MEASURE(
7.942323058328E3),#1443);
#1449=DERIVED_UNIT_ELEMENT(#1448,3.E0);
#1450=VOLUME_UNIT((#1449));
#1451=MEASURE_REPRESENTATION_ITEM('volume measure',VOLUME_MEASURE(
1.435349339718E4),#1450);
#1455=CARTESIAN_POINT('centre point',(-7.208249760276E-8,1.461006722118E1,
-2.791646489017E-10));
#1460=DERIVED_UNIT_ELEMENT(#1459,-3.E0);
#1462=DERIVED_UNIT_ELEMENT(#1461,1.E0);
#1463=DERIVED_UNIT((#1460,#1462));
#1464=MEASURE_REPRESENTATION_ITEM('density measure',POSITIVE_RATIO_MEASURE(
7.828536E-6),#1463);
#1468=DESCRIPTIVE_REPRESENTATION_ITEM('STEEL','');
#1474=GENERAL_PROPERTY('','MASA','user defined attribute');
#1475=GENERAL_PROPERTY_ASSOCIATION('user defined attribute','',#1474,#1473);
#1477=MEASURE_REPRESENTATION_ITEM('MASA',MASS_MEASURE(1.123668397856E-1),#1476);
#1481=GENERAL_PROPERTY('','KODA','user defined attribute');
#1482=GENERAL_PROPERTY_ASSOCIATION('user defined attribute','',#1481,#1480);
#1483=DESCRIPTIVE_REPRESENTATION_ITEM('KODA','X');
#1487=GENERAL_PROPERTY('','IDENT','user defined attribute');
#1488=GENERAL_PROPERTY_ASSOCIATION('user defined attribute','',#1487,#1486);
#1489=DESCRIPTIVE_REPRESENTATION_ITEM('IDENT','X');
#1493=GENERAL_PROPERTY('','OPIS','user defined attribute');
#1494=GENERAL_PROPERTY_ASSOCIATION('user defined attribute','',#1493,#1492);
#1495=DESCRIPTIVE_REPRESENTATION_ITEM('OPIS','X');
#1499=GENERAL_PROPERTY('','NAZIV','user defined attribute');
#1500=GENERAL_PROPERTY_ASSOCIATION('user defined attribute','',#1499,#1498);
#1501=DESCRIPTIVE_REPRESENTATION_ITEM('NAZIV','X');
#1505=GENERAL_PROPERTY('','MATERIAL','user defined attribute');
#1506=GENERAL_PROPERTY_ASSOCIATION('user defined attribute','',#1505,#1504);
#1507=DESCRIPTIVE_REPRESENTATION_ITEM('MATERIAL','X');
#1511=GENERAL_PROPERTY('','OPOMBA','user defined attribute');
#1512=GENERAL_PROPERTY_ASSOCIATION('user defined attribute','',#1511,#1510);
#1513=DESCRIPTIVE_REPRESENTATION_ITEM('OPOMBA','X');
#1517=GENERAL_PROPERTY('','STANDARD','user defined attribute');
#1518=GENERAL_PROPERTY_ASSOCIATION('user defined attribute','',#1517,#1516);
#1519=DESCRIPTIVE_REPRESENTATION_ITEM('STANDARD','X');
#1523=GENERAL_PROPERTY('','FIRMA','user defined attribute');
#1524=GENERAL_PROPERTY_ASSOCIATION('user defined attribute','',#1523,#1522);
#1525=DESCRIPTIVE_REPRESENTATION_ITEM('FIRMA','X');
#1529=GENERAL_PROPERTY('','KONSTRUIRAL','user defined attribute');
#1530=GENERAL_PROPERTY_ASSOCIATION('user defined attribute','',#1529,#1528);
#1531=DESCRIPTIVE_REPRESENTATION_ITEM('KONSTRUIRAL','X');
#1535=GENERAL_PROPERTY('','IZDELAL','user defined attribute');
#1536=GENERAL_PROPERTY_ASSOCIATION('user defined attribute','',#1535,#1534);
#1537=DESCRIPTIVE_REPRESENTATION_ITEM('IZDELAL','X');
#1541=GENERAL_PROPERTY('','KONTROLIRAL','user defined attribute');
#1542=GENERAL_PROPERTY_ASSOCIATION('user defined attribute','',#1541,#1540);
#1543=DESCRIPTIVE_REPRESENTATION_ITEM('KONTROLIRAL','X');
#1547=GENERAL_PROPERTY('','MFG_WP_MATERIAL','user defined attribute');
#1548=GENERAL_PROPERTY_ASSOCIATION('user defined attribute','',#1547,#1546);
#1549=DESCRIPTIVE_REPRESENTATION_ITEM('MFG_WP_MATERIAL','STEEL');
#1553=GENERAL_PROPERTY('','PTC_COMMON_NAME','user defined attribute');
#1554=GENERAL_PROPERTY_ASSOCIATION('user defined attribute','',#1553,#1552);
#1555=DESCRIPTIVE_REPRESENTATION_ITEM('PTC_COMMON_NAME','podajlanik.prt');
#1559=GENERAL_PROPERTY('','PTC_MASTER_MATERIAL','user defined attribute');
#1560=GENERAL_PROPERTY_ASSOCIATION('user defined attribute','',#1559,#1558);
#1561=DESCRIPTIVE_REPRESENTATION_ITEM('PTC_MASTER_MATERIAL','STEEL');
#1=COLOUR_RGB('',0.E0,0.E0,2.E-1);
#2=COLOUR_RGB('',0.E0,0.E0,4.E-1);
#3=COLOUR_RGB('',0.E0,0.E0,6.E-1);
#4=COLOUR_RGB('',0.E0,0.E0,8.E-1);
#5=COLOUR_RGB('',0.E0,0.E0,9.E-1);
#6=DRAUGHTING_PRE_DEFINED_COLOUR('blue');
#7=COLOUR_RGB('',0.E0,3.1E-2,3.1E-1);
#8=COLOUR_RGB('',0.E0,5.9E-2,4.59E-1);
#9=COLOUR_RGB('',0.E0,7.1E-2,2.71E-1);
#10=COLOUR_RGB('',0.E0,9.E-2,2.71E-1);
#11=COLOUR_RGB('',0.E0,1.E-1,2.E-1);
#12=COLOUR_RGB('',0.E0,1.69E-1,4.39E-1);
#13=COLOUR_RGB('',0.E0,1.8E-1,4.78E-1);
#14=COLOUR_RGB('',0.E0,2.E-1,4.E-1);
#15=COLOUR_RGB('',0.E0,2.31E-1,5.02E-1);
#16=COLOUR_RGB('',0.E0,3.E-1,6.E-1);
#17=COLOUR_RGB('',0.E0,4.E-1,8.E-1);
#18=COLOUR_RGB('',0.E0,4.5E-1,9.E-1);
#19=COLOUR_RGB('',0.E0,7.450980392157E-1,9.215686274510E-1);
#20=DRAUGHTING_PRE_DEFINED_COLOUR('green');
#21=COLOUR_RGB('',1.2E-2,2.E-2,3.9E-2);
#22=COLOUR_RGB('',1.2E-2,5.1E-2,1.22E-1);
#23=COLOUR_RGB('',1.2E-2,7.8E-2,1.8E-1);
#24=COLOUR_RGB('',2.E-2,2.E-1,2.E-1);
#25=COLOUR_RGB('',3.9E-2,2.E-1,3.29E-1);
#26=COLOUR_RGB('',3.9E-2,2.2E-1,1.22E-1);
#27=COLOUR_RGB('',3.9E-2,2.59E-1,4.71E-1);
#28=COLOUR_RGB('',3.9E-2,3.61E-1,2.E-1);
#29=COLOUR_RGB('',5.1E-2,3.1E-2,5.1E-2);
#30=COLOUR_RGB('',5.1E-2,7.1E-2,1.02E-1);
#31=COLOUR_RGB('',5.1E-2,2.31E-1,1.8E-1);
#32=COLOUR_RGB('',5.9E-2,4.39E-1,2.E-1);
#33=COLOUR_RGB('',7.1E-2,4.71E-1,1.49E-1);
#34=COLOUR_RGB('',7.8E-2,9.E-2,1.1E-1);
#35=COLOUR_RGB('',9.E-2,1.61E-1,1.1E-1);
#36=COLOUR_RGB('',9.E-2,2.E-1,4.2E-1);
#37=COLOUR_RGB('',9.E-2,2.71E-1,4.39E-1);
#38=COLOUR_RGB('',9.E-2,3.8E-1,6.71E-1);
#39=COLOUR_RGB('',1.E-1,0.E0,0.E0);
#40=COLOUR_RGB('',1.E-1,0.E0,2.E-1);
#41=COLOUR_RGB('',1.E-1,1.E-1,1.E-1);
#42=COLOUR_RGB('',1.02E-1,1.29E-1,1.61E-1);
#43=COLOUR_RGB('',1.02E-1,1.61E-1,2.2E-1);
#44=COLOUR_RGB('',1.02E-1,4.78E-1,3.88E-1);
#45=COLOUR_RGB('',1.1E-1,1.1E-1,1.29E-1);
#46=COLOUR_RGB('',1.1E-1,1.49E-1,9.E-2);
#47=COLOUR_RGB('',1.22E-1,1.8E-1,1.69E-1);
#48=COLOUR_RGB('',1.29E-1,1.29E-1,1.02E-1);
#49=COLOUR_RGB('',1.41E-1,5.69E-1,2.51E-1);
#50=COLOUR_RGB('',1.44E-1,3.4E-2,0.E0);
#51=COLOUR_RGB('',1.49E-1,1.8E-1,2.2E-1);
#52=COLOUR_RGB('',1.49E-1,2.E-1,2.2E-1);
#53=COLOUR_RGB('',1.49E-1,2.2E-1,1.61E-1);
#54=COLOUR_RGB('',1.49E-1,2.9E-1,2.E-1);
#55=COLOUR_RGB('',1.49E-1,3.1E-1,5.29E-1);
#56=COLOUR_RGB('',1.49E-1,3.41E-1,1.29E-1);
#57=COLOUR_RGB('',1.49E-1,4.E-1,1.61E-1);
#58=COLOUR_RGB('',1.61E-1,1.69E-1,1.41E-1);
#59=COLOUR_RGB('',1.61E-1,1.69E-1,1.49E-1);
#60=COLOUR_RGB('',1.61E-1,4.51E-1,7.22E-1);
#61=COLOUR_RGB('',1.61E-1,5.41E-1,2.51E-1);
#62=COLOUR_RGB('',1.69E-1,1.49E-1,1.1E-1);
#63=COLOUR_RGB('',1.69E-1,1.49E-1,1.61E-1);
#64=COLOUR_RGB('',1.8E-1,7.1E-2,1.02E-1);
#65=COLOUR_RGB('',1.8E-1,1.1E-1,1.1E-1);
#66=COLOUR_RGB('',1.8E-1,3.22E-1,5.61E-1);
#67=COLOUR_RGB('',1.88E-1,2.2E-1,2.71E-1);
#68=COLOUR_RGB('',2.E-1,0.E0,0.E0);
#69=COLOUR_RGB('',2.E-1,0.E0,1.E-1);
#70=COLOUR_RGB('',2.E-1,0.E0,1.67E-1);
#71=COLOUR_RGB('',2.E-1,0.E0,4.E-1);
#72=COLOUR_RGB('',2.E-1,1.E-1,0.E0);
#73=COLOUR_RGB('',2.E-1,1.88E-1,1.49E-1);
#74=COLOUR_RGB('',2.E-1,2.E-1,0.E0);
#75=COLOUR_RGB('',2.E-1,2.E-1,2.E-1);
#76=COLOUR_RGB('',2.E-1,2.E-1,1.E0);
#77=COLOUR_RGB('',2.E-1,4.71E-1,3.29E-1);
#78=COLOUR_RGB('',2.12E-1,4.12E-1,1.49E-1);
#79=COLOUR_RGB('',2.156862745098E-1,0.E0,3.725490196078E-1);
#80=COLOUR_RGB('',2.2E-1,3.9E-2,1.8E-1);
#81=COLOUR_RGB('',2.2E-1,1.49E-1,1.1E-1);
#82=COLOUR_RGB('',2.2E-1,5.8E-1,5.1E-1);
#83=COLOUR_RGB('',2.28E-1,2.26E-1,2.52E-1);
#84=COLOUR_RGB('',2.39E-1,1.22E-1,1.1E-1);
#85=COLOUR_RGB('',2.39E-1,2.39E-1,2.31E-1);
#86=COLOUR_RGB('',2.39E-1,2.59E-1,3.22E-1);
#87=COLOUR_RGB('',2.39E-1,2.71E-1,1.8E-1);
#88=COLOUR_RGB('',2.49E-1,5.93E-1,6.3E-1);
#89=COLOUR_RGB('',2.51E-1,1.8E-1,1.29E-1);
#90=COLOUR_RGB('',2.52E-1,2.52E-1,2.52E-1);
#91=COLOUR_RGB('',2.51E-1,2.71E-1,2.71E-1);
#92=COLOUR_RGB('',2.51E-1,2.9E-1,3.29E-1);
#93=COLOUR_RGB('',2.51E-1,5.1E-1,2.12E-1);
#94=COLOUR_RGB('',2.59E-1,5.49E-1,4.71E-1);
#95=COLOUR_RGB('',2.78E-1,1.49E-1,1.1E-1);
#96=COLOUR_RGB('',2.78E-1,2.59E-1,2.2E-1);
#97=COLOUR_RGB('',2.8E-1,2.8E-1,2.8E-1);
#98=COLOUR_RGB('',2.9E-1,3.1E-1,2.9E-1);
#99=COLOUR_RGB('',2.9E-1,3.29E-1,3.49E-1);
#100=COLOUR_RGB('',2.9E-1,4.31E-1,2.E-1);
#101=COLOUR_RGB('',3.E-1,0.E0,6.E-1);
#102=COLOUR_RGB('',3.E-1,3.E-1,3.E-1);
#103=COLOUR_RGB('',3.02E-1,1.22E-1,1.1E-1);
#104=COLOUR_RGB('',3.02E-1,3.22E-1,2.9E-1);
#105=COLOUR_RGB('',3.02E-1,3.61E-1,4.2E-1);
#106=COLOUR_RGB('',3.02E-1,4.12E-1,6.E-1);
#107=COLOUR_RGB('',3.1E-1,7.1E-2,1.02E-1);
#108=COLOUR_RGB('',3.1E-1,6.59E-1,2.E-1);
#109=COLOUR_RGB('',3.13725E-1,3.13725E-1,3.13725E-1);
#110=COLOUR_RGB('',3.29E-1,1.22E-1,1.22E-1);
#111=COLOUR_RGB('',3.41E-1,5.49E-1,7.1E-1);
#112=COLOUR_RGB('',3.45098E-1,1.33333E-1,7.8431E-2);
#113=COLOUR_RGB('',3.44E-1,3.63E-1,3.74E-1);
#114=COLOUR_RGB('',3.52941E-1,3.52941E-1,3.52941E-1);
#115=COLOUR_RGB('',3.55E-1,3.53E-1,3.93E-1);
#116=COLOUR_RGB('',3.61E-1,3.1E-2,1.69E-1);
#117=COLOUR_RGB('',3.69E-1,1.29E-1,1.29E-1);
#118=COLOUR_RGB('',3.69E-1,2.E-1,1.22E-1);
#119=COLOUR_RGB('',3.69E-1,4.9E-1,3.1E-1);
#120=COLOUR_RGB('',3.72549E-1,3.72549E-1,3.72549E-1);
#121=COLOUR_RGB('',3.75E-1,3.8E-1,4.22E-1);
#122=COLOUR_RGB('',3.8E-1,3.69E-1,3.49E-1);
#123=COLOUR_RGB('',3.8E-1,4.12E-1,4.12E-1);
#124=COLOUR_RGB('',3.81E-1,4.41E-1,5.96E-1);
#125=COLOUR_RGB('',3.88E-1,2.39E-1,1.41E-1);
#126=COLOUR_RGB('',3.88E-1,2.39E-1,6.12E-1);
#127=COLOUR_RGB('',3.9E-1,4.4E-1,4.9E-1);
#128=COLOUR_RGB('',3.92157E-1,3.56863E-1,3.52941E-1);
#129=COLOUR_RGB('',3.92157E-1,3.92157E-1,3.92157E-1);
#130=COLOUR_RGB('',3.92E-1,4.35294E-1,4.86275E-1);
#131=COLOUR_RGB('',4.E-1,0.E0,0.E0);
#132=COLOUR_RGB('',4.E-1,0.E0,2.E-1);
#133=COLOUR_RGB('',4.E-1,0.E0,3.33E-1);
#134=COLOUR_RGB('',4.E-1,0.E0,8.E-1);
#135=COLOUR_RGB('',4.E-1,2.E-1,0.E0);
#136=COLOUR_RGB('',4.E-1,2.9E-1,2.39E-1);
#137=COLOUR_RGB('',3.99E-1,3.97E-1,6.41E-1);
#138=COLOUR_RGB('',4.E-1,4.E-1,0.E0);
#139=COLOUR_RGB('',4.E-1,4.E-1,4.E-1);
#140=COLOUR_RGB('',4.E-1,4.E-1,1.E0);
#141=COLOUR_RGB('',4.E-1,7.E-1,1.E0);
#142=COLOUR_RGB('',4.12E-1,5.9E-2,7.8E-2);
#143=COLOUR_RGB('',4.12E-1,3.29E-1,2.2E-1);
#144=COLOUR_RGB('',4.2E-1,3.8E-1,3.8E-1);
#145=COLOUR_RGB('',4.26E-1,4.26E-1,4.26E-1);
#146=COLOUR_RGB('',4.31E-1,2.31E-1,1.88E-1);
#147=COLOUR_RGB('',4.31E-1,2.51E-1,1.88E-1);
#148=COLOUR_RGB('',4.31373E-1,4.31373E-1,4.31373E-1);
#149=COLOUR_RGB('',4.39E-1,4.39E-1,3.8E-1);
#150=COLOUR_RGB('',4.4E-1,5.E-1,6.E-1);
#151=COLOUR_RGB('',4.5E-1,0.E0,9.E-1);
#152=COLOUR_RGB('',4.51E-1,2.31E-1,1.41E-1);
#153=COLOUR_RGB('',4.51E-1,5.22E-1,5.69E-1);
#154=COLOUR_RGB('',4.59E-1,4.51E-1,3.1E-1);
#155=COLOUR_RGB('',4.71E-1,7.8E-2,9.E-2);
#156=COLOUR_RGB('',4.705882352941E-1,3.137254901961E-1,3.333333333333E-1);
#157=COLOUR_RGB('',4.71E-1,5.1E-1,5.49E-1);
#158=COLOUR_RGB('',4.78E-1,4.59E-1,3.8E-1);
#159=COLOUR_RGB('',4.78E-1,4.9E-1,4.59E-1);
#160=COLOUR_RGB('',4.78E-1,4.9E-1,5.02E-1);
#161=COLOUR_RGB('',4.78E-1,5.1E-1,4.59E-1);
#162=COLOUR_RGB('',4.9E-1,1.22E-1,4.78E-1);
#163=COLOUR_RGB('',4.9E-1,3.61E-1,2.2E-1);
#164=COLOUR_RGB('',4.9E-1,4.78E-1,4.71E-1);
#165=COLOUR_RGB('',4.9E-1,7.41E-1,7.1E-1);
#166=COLOUR_RGB('',4.9E-1,8.E-1,7.41E-1);
#167=COLOUR_RGB('',5.E-1,0.E0,1.E0);
#168=COLOUR_RGB('',4.99E-1,4.96E-1,5.52E-1);
#169=COLOUR_RGB('',5.E-1,5.E-1,5.E-1);
#170=COLOUR_RGB('',5.E-1,1.E0,0.E0);
#171=COLOUR_RGB('',5.09E-1,0.E0,5.09E-1);
#172=COLOUR_RGB('',5.1E-1,2.51E-1,5.02E-1);
#173=COLOUR_RGB('',5.09804E-1,3.92157E-1,2.54902E-1);
#174=COLOUR_RGB('',5.09804E-1,3.96078E-1,1.05882E-1);
#175=COLOUR_RGB('',5.1E-1,4.E-1,1.1E-1);
#176=COLOUR_RGB('',5.09804E-1,4.90196E-1,4.66667E-1);
#177=COLOUR_RGB('',5.22E-1,2.2E-1,1.69E-1);
#178=COLOUR_RGB('',5.22E-1,6.51E-1,4.78E-1);
#179=COLOUR_RGB('',5.29E-1,5.8E-1,6.51E-1);
#180=COLOUR_RGB('',5.41E-1,7.1E-2,7.8E-2);
#181=COLOUR_RGB('',5.61E-1,1.49E-1,2.51E-1);
#182=COLOUR_RGB('',5.61E-1,5.29E-1,4.39E-1);
#183=COLOUR_RGB('',5.61E-1,5.8E-1,6.2E-1);
#184=COLOUR_RGB('',5.61E-1,5.88E-1,6.E-1);
#185=COLOUR_RGB('',5.69E-1,5.9E-2,4.E-1);
#186=COLOUR_RGB('',5.69E-1,3.22E-1,1.8E-1);
#187=COLOUR_RGB('',5.69E-1,5.61E-1,5.29E-1);
#188=COLOUR_RGB('',5.71E-1,6.1E-1,6.33E-1);
#189=COLOUR_RGB('',5.8E-1,5.6E-1,5.50196E-1);
#190=COLOUR_RGB('',5.88E-1,1.22E-1,1.1E-1);
#191=COLOUR_RGB('',5.96E-1,5.96E-1,5.96E-1);
#192=COLOUR_RGB('',6.E-1,0.E0,0.E0);
#193=COLOUR_RGB('',6.E-1,0.E0,3.E-1);
#194=COLOUR_RGB('',6.E-1,0.E0,5.E-1);
#195=COLOUR_RGB('',6.E-1,2.E-1,1.E0);
#196=COLOUR_RGB('',6.E-1,3.E-1,0.E0);
#197=COLOUR_RGB('',6.E-1,4.59E-1,1.29E-1);
#198=COLOUR_RGB('',6.E-1,6.E-1,0.E0);
#199=COLOUR_RGB('',6.E-1,6.E-1,6.E-1);
#200=COLOUR_RGB('',6.E-1,6.E-1,1.E0);
#201=COLOUR_RGB('',6.E-1,8.E-1,1.E0);
#202=COLOUR_RGB('',6.12E-1,2.71E-1,1.61E-1);
#203=COLOUR_RGB('',6.12E-1,5.61E-1,3.8E-1);
#204=COLOUR_RGB('',6.12E-1,6.12E-1,6.51E-1);
#205=COLOUR_RGB('',6.2E-1,4.51E-1,5.8E-1);
#206=COLOUR_RGB('',6.2E-1,5.88E-1,6.12E-1);
#207=COLOUR_RGB('',6.2E-1,6.39E-1,6.9E-1);
#208=COLOUR_RGB('',6.35294E-1,6.86275E-1,7.4902E-1);
#209=COLOUR_RGB('',6.39E-1,9.E-2,1.02E-1);
#210=COLOUR_RGB('',6.39E-1,1.02E-1,1.02E-1);
#211=COLOUR_RGB('',6.39E-1,5.49E-1,4.78E-1);
#212=COLOUR_RGB('',6.51E-1,1.1E-1,1.8E-1);
#213=COLOUR_RGB('',6.51E-1,1.41E-1,1.49E-1);
#214=COLOUR_RGB('',6.51E-1,6.71E-1,7.1E-1);
#215=COLOUR_RGB('',6.71E-1,1.22E-1,1.1E-1);
#216=COLOUR_RGB('',6.78E-1,4.78E-1,3.1E-1);
#217=COLOUR_RGB('',6.87E-1,6.83E-1,7.59E-1);
#218=COLOUR_RGB('',7.E-1,4.E-1,1.E0);
#219=COLOUR_RGB('',7.E-1,7.E-1,7.E-1);
#220=COLOUR_RGB('',7.1E-1,7.1E-2,2.E-1);
#221=COLOUR_RGB('',7.1E-1,5.49E-1,3.1E-1);
#222=COLOUR_RGB('',7.29E-1,1.8E-1,1.29E-1);
#223=COLOUR_RGB('',7.29E-1,7.41E-1,7.29E-1);
#224=COLOUR_RGB('',7.41E-1,7.29E-1,6.71E-1);
#225=COLOUR_RGB('',7.49E-1,9.E-2,4.51E-1);
#226=COLOUR_RGB('',7.49E-1,8.9E-1,7.29E-1);
#227=COLOUR_RGB('',7.61E-1,7.49E-1,7.22E-1);
#228=COLOUR_RGB('',7.8E-1,9.E-2,7.1E-2);
#229=COLOUR_RGB('',7.88E-1,2.2E-1,5.49E-1);
#230=COLOUR_RGB('',7.88E-1,5.29E-1,1.29E-1);
#231=COLOUR_RGB('',8.E-1,0.E0,0.E0);
#232=COLOUR_RGB('',8.E-1,0.E0,4.E-1);
#233=COLOUR_RGB('',8.E-1,0.E0,6.67E-1);
#234=COLOUR_RGB('',8.E-1,1.41E-1,1.1E-1);
#235=COLOUR_RGB('',8.E-1,4.E-1,0.E0);
#236=COLOUR_RGB('',8.E-1,5.1E-1,4.51E-1);
#237=COLOUR_RGB('',8.E-1,6.E-1,1.E0);
#238=COLOUR_RGB('',8.E-1,8.E-1,0.E0);
#239=COLOUR_RGB('',8.E-1,8.E-1,8.E-1);
#240=COLOUR_RGB('',8.E-1,8.E-1,1.E0);
#241=COLOUR_RGB('',8.E-1,9.E-1,1.E0);
#242=COLOUR_RGB('',8.07E-1,7.65E-1,5.8E-2);
#243=COLOUR_RGB('',8.12E-1,1.61E-1,2.59E-1);
#244=COLOUR_RGB('',8.2E-1,2.12E-1,3.29E-1);
#245=COLOUR_RGB('',8.26E-1,8.26E-1,8.26E-1);
#246=COLOUR_RGB('',8.31E-1,2.71E-1,1.61E-1);
#247=COLOUR_RGB('',8.31E-1,8.51E-1,8.59E-1);
#248=COLOUR_RGB('',8.39E-1,6.9E-1,4.59E-1);
#249=COLOUR_RGB('',8.39E-1,7.8E-1,5.8E-1);
#250=COLOUR_RGB('',8.41E-1,8.01E-1,7.15E-1);
#251=COLOUR_RGB('',8.42E-1,8.99E-1,9.33E-1);
#252=COLOUR_RGB('',8.51E-1,3.49E-1,3.1E-1);
#253=COLOUR_RGB('',8.51E-1,4.E-1,4.59E-1);
#254=COLOUR_RGB('',8.51E-1,7.29E-1,5.49E-1);
#255=COLOUR_RGB('',8.51E-1,8.39E-1,8.59E-1);
#256=COLOUR_RGB('',8.59E-1,8.9E-1,8.71E-1);
#257=COLOUR_RGB('',8.71E-1,3.22E-1,2.78E-1);
#258=COLOUR_RGB('',8.78E-1,3.69E-1,1.22E-1);
#259=COLOUR_RGB('',8.78E-1,5.1E-1,1.22E-1);
#260=COLOUR_RGB('',8.784E-1,9.49E-1,1.E0);
#261=COLOUR_RGB('',8.9E-1,4.78E-1,1.22E-1);
#262=COLOUR_RGB('',8.9E-1,5.88E-1,1.41E-1);
#263=COLOUR_RGB('',8.9E-1,6.39E-1,1.61E-1);
#264=COLOUR_RGB('',8.9E-1,7.22E-1,2.2E-1);
#265=COLOUR_RGB('',9.E-1,0.E0,4.5E-1);
#266=COLOUR_RGB('',9.E-1,0.E0,7.5E-1);
#267=COLOUR_RGB('',9.E-1,4.5E-1,0.E0);
#268=COLOUR_RGB('',9.E-1,8.E-1,1.E0);
#269=COLOUR_RGB('',9.E-1,9.E-1,0.E0);
#270=COLOUR_RGB('',9.E-1,9.E-1,9.E-1);
#271=COLOUR_RGB('',9.1E-1,6.12E-1,7.1E-1);
#272=COLOUR_RGB('',9.22E-1,2.31E-1,1.1E-1);
#273=COLOUR_RGB('',9.29E-1,3.61E-1,1.61E-1);
#274=COLOUR_RGB('',9.41E-1,8.39E-1,6.71E-1);
#275=COLOUR_RGB('',9.41E-1,9.29E-1,9.02E-1);
#276=COLOUR_RGB('',9.49E-1,2.31E-1,1.1E-1);
#277=COLOUR_RGB('',9.69E-1,6.E-1,3.61E-1);
#278=COLOUR_RGB('',9.8E-1,3.1E-1,1.61E-1);
#279=COLOUR_RGB('',9.8E-1,1.E0,1.E0);
#280=COLOUR_RGB('',9.88E-1,3.9E-2,1.1E-1);
#281=COLOUR_RGB('',9.88E-1,7.8E-2,7.8E-2);
#282=COLOUR_RGB('',9.88E-1,1.1E-1,7.8E-2);
#283=COLOUR_RGB('',9.88E-1,6.39E-1,1.61E-1);
#284=COLOUR_RGB('',9.88E-1,7.22E-1,1.29E-1);
#285=COLOUR_RGB('',9.88E-1,7.41E-1,1.22E-1);
#286=COLOUR_RGB('',9.88E-1,9.22E-1,8.E-1);
#287=COLOUR_RGB('',9.88E-1,1.E0,1.E0);
#288=DRAUGHTING_PRE_DEFINED_COLOUR('red');
#289=COLOUR_RGB('',1.E0,0.E0,2.E-1);
#290=COLOUR_RGB('',1.E0,0.E0,5.E-1);
#291=COLOUR_RGB('',1.E0,0.E0,8.33E-1);
#292=COLOUR_RGB('',1.E0,2.E-1,2.E-1);
#293=COLOUR_RGB('',1.E0,2.E-1,6.E-1);
#294=COLOUR_RGB('',1.E0,2.E-1,8.67E-1);
#295=COLOUR_RGB('',1.E0,3.88E-1,2.12E-1);
#296=COLOUR_RGB('',1.E0,4.E-1,4.E-1);
#297=COLOUR_RGB('',1.E0,4.E-1,7.E-1);
#298=COLOUR_RGB('',1.E0,4.E-1,9.E-1);
#299=COLOUR_RGB('',1.E0,4.59E-1,1.29E-1);
#300=COLOUR_RGB('',1.E0,5.E-1,0.E0);
#301=COLOUR_RGB('',1.E0,5.49E-1,1.02E-1);
#302=COLOUR_RGB('',1.E0,5.8E-1,2.12E-1);
#303=COLOUR_RGB('',1.E0,6.E-1,2.E-1);
#304=COLOUR_RGB('',1.E0,6.E-1,6.E-1);
#305=COLOUR_RGB('',1.E0,6.E-1,8.E-1);
#306=COLOUR_RGB('',1.E0,6.E-1,9.33E-1);
#307=COLOUR_RGB('',1.E0,6.71E-1,3.49E-1);
#308=COLOUR_RGB('',1.E0,7.E-1,4.E-1);
#309=COLOUR_RGB('',1.E0,7.17647E-1,0.E0);
#310=COLOUR_RGB('',1.E0,7.2E-1,0.E0);
#311=COLOUR_RGB('',1.E0,8.E-1,6.E-1);
#312=COLOUR_RGB('',1.E0,8.E-1,8.E-1);
#313=COLOUR_RGB('',1.E0,8.E-1,9.E-1);
#314=COLOUR_RGB('',1.E0,8.E-1,9.67E-1);
#315=COLOUR_RGB('',1.E0,8.39E-1,3.02E-1);
#316=COLOUR_RGB('',1.E0,9.05E-1,8.1E-1);
#317=COLOUR_RGB('',1.E0,9.61E-1,2.59E-1);
#318=COLOUR_RGB('',1.E0,9.61E-1,8.9E-1);
#319=COLOUR_RGB('',1.E0,9.88E-1,9.41E-1);
#320=DRAUGHTING_PRE_DEFINED_COLOUR('yellow');
#321=COLOUR_RGB('',1.E0,1.E0,3.9E-2);
#322=COLOUR_RGB('',1.E0,1.E0,2.E-1);
#323=COLOUR_RGB('',1.E0,1.E0,4.E-1);
#324=COLOUR_RGB('',1.E0,1.E0,6.E-1);
#325=COLOUR_RGB('',1.E0,1.E0,9.E-1);
#326=DRAUGHTING_PRE_DEFINED_COLOUR('white');
#379=CIRCLE('',#378,6.5E0);
#384=CIRCLE('',#383,6.5E0);
#389=CIRCLE('',#388,6.5E0);
#394=CIRCLE('',#393,6.5E0);
#404=B_SPLINE_CURVE_WITH_KNOTS('',3,(#399,#400,#401,#402,#403),.UNSPECIFIED.,
.F.,.F.,(4,1,4),(0.E0,5.E-1,1.E0),.UNSPECIFIED.);
#411=B_SPLINE_CURVE_WITH_KNOTS('',3,(#405,#406,#407,#408,#409,#410),
.UNSPECIFIED.,.F.,.F.,(4,1,1,4),(0.E0,3.333333333333E-1,6.666666666667E-1,1.E0),
.UNSPECIFIED.);
#418=B_SPLINE_CURVE_WITH_KNOTS('',3,(#412,#413,#414,#415,#416,#417),
.UNSPECIFIED.,.F.,.F.,(4,1,1,4),(0.E0,3.333333333333E-1,6.666666666667E-1,1.E0),
.UNSPECIFIED.);
#424=B_SPLINE_CURVE_WITH_KNOTS('',3,(#419,#420,#421,#422,#423),.UNSPECIFIED.,
.F.,.F.,(4,1,4),(0.E0,5.E-1,1.E0),.UNSPECIFIED.);
#429=CIRCLE('',#428,2.5E0);
#434=CIRCLE('',#433,5.E0);
#439=CIRCLE('',#438,5.E0);
#446=B_SPLINE_CURVE_WITH_KNOTS('',3,(#440,#441,#442,#443,#444,#445),
.UNSPECIFIED.,.F.,.F.,(4,1,1,4),(0.E0,3.333333333333E-1,6.666666666667E-1,1.E0),
.UNSPECIFIED.);
#455=CIRCLE('',#454,6.5E0);
#466=B_SPLINE_CURVE_WITH_KNOTS('',3,(#460,#461,#462,#463,#464,#465),
.UNSPECIFIED.,.F.,.F.,(4,1,1,4),(0.E0,3.333333333333E-1,6.666666666667E-1,1.E0),
.UNSPECIFIED.);
#479=CIRCLE('',#478,5.E0);
#484=CIRCLE('',#483,5.E0);
#491=B_SPLINE_CURVE_WITH_KNOTS('',3,(#485,#486,#487,#488,#489,#490),
.UNSPECIFIED.,.F.,.F.,(4,1,1,4),(0.E0,3.333333333333E-1,6.666666666667E-1,1.E0),
.UNSPECIFIED.);
#498=B_SPLINE_CURVE_WITH_KNOTS('',3,(#492,#493,#494,#495,#496,#497),
.UNSPECIFIED.,.F.,.F.,(4,1,1,4),(0.E0,3.333333333333E-1,6.666666666667E-1,1.E0),
.UNSPECIFIED.);
#507=CIRCLE('',#506,6.5E0);
#516=CIRCLE('',#515,2.5E0);
#521=CIRCLE('',#520,6.5E0);
#530=CIRCLE('',#529,6.5E0);
#535=CIRCLE('',#534,2.5E0);
#541=B_SPLINE_CURVE_WITH_KNOTS('',3,(#536,#537,#538,#539,#540),.UNSPECIFIED.,
.F.,.F.,(4,1,4),(0.E0,5.E-1,1.E0),.UNSPECIFIED.);
#551=B_SPLINE_CURVE_WITH_KNOTS('',3,(#546,#547,#548,#549,#550),.UNSPECIFIED.,
.F.,.F.,(4,1,4),(0.E0,5.E-1,1.E0),.UNSPECIFIED.);
#558=B_SPLINE_CURVE_WITH_KNOTS('',3,(#552,#553,#554,#555,#556,#557),
.UNSPECIFIED.,.F.,.F.,(4,1,1,4),(0.E0,3.333333333333E-1,6.666666666667E-1,1.E0),
.UNSPECIFIED.);
#565=B_SPLINE_CURVE_WITH_KNOTS('',3,(#559,#560,#561,#562,#563,#564),
.UNSPECIFIED.,.F.,.F.,(4,1,1,4),(0.E0,3.333333333333E-1,6.666666666667E-1,1.E0),
.UNSPECIFIED.);
#570=CIRCLE('',#569,2.5E0);
#583=CIRCLE('',#582,6.5E0);
#592=CIRCLE('',#591,6.5E0);
#650=EDGE_CURVE('',#595,#596,#330,.T.);
#652=EDGE_CURVE('',#596,#598,#334,.T.);
#654=EDGE_CURVE('',#598,#600,#338,.T.);
#656=EDGE_CURVE('',#600,#595,#342,.T.);
#660=ADVANCED_FACE('',(#659),#649,.F.);
#667=EDGE_CURVE('',#595,#603,#346,.T.);
#669=EDGE_CURVE('',#603,#604,#362,.T.);
#671=EDGE_CURVE('',#596,#604,#358,.T.);
#675=ADVANCED_FACE('',(#674),#665,.T.);
#682=EDGE_CURVE('',#600,#608,#350,.T.);
#684=EDGE_CURVE('',#608,#603,#366,.T.);
#689=ADVANCED_FACE('',(#688),#680,.T.);
#696=EDGE_CURVE('',#598,#606,#354,.T.);
#698=EDGE_CURVE('',#606,#608,#370,.T.);
#703=ADVANCED_FACE('',(#702),#694,.T.);
#711=EDGE_CURVE('',#604,#606,#374,.T.);
#716=ADVANCED_FACE('',(#715),#708,.T.);
#728=EDGE_CURVE('',#611,#612,#379,.T.);
#730=EDGE_CURVE('',#612,#611,#384,.T.);
#734=ADVANCED_FACE('',(#727,#733),#721,.T.);
#740=EDGE_CURVE('',#632,#630,#389,.T.);
#742=EDGE_CURVE('',#630,#637,#583,.T.);
#744=EDGE_CURVE('',#640,#637,#394,.T.);
#746=EDGE_CURVE('',#612,#640,#525,.T.);
#749=EDGE_CURVE('',#611,#632,#398,.T.);
#753=ADVANCED_FACE('',(#752),#739,.T.);
#787=EDGE_CURVE('',#632,#631,#411,.T.);
#789=EDGE_CURVE('',#631,#630,#429,.T.);
#794=ADVANCED_FACE('',(#793),#786,.T.);
#800=EDGE_CURVE('',#631,#629,#404,.T.);
#803=EDGE_CURVE('',#633,#632,#418,.T.);
#805=EDGE_CURVE('',#636,#633,#424,.T.);
#807=EDGE_CURVE('',#636,#619,#511,.T.);
#809=EDGE_CURVE('',#615,#619,#574,.T.);
#811=EDGE_CURVE('',#629,#615,#450,.T.);
#815=ADVANCED_FACE('',(#814),#799,.T.);
#837=EDGE_CURVE('',#629,#630,#446,.T.);
#843=ADVANCED_FACE('',(#842),#836,.T.);
#851=EDGE_CURVE('',#615,#616,#455,.T.);
#853=EDGE_CURVE('',#616,#638,#459,.T.);
#855=EDGE_CURVE('',#637,#638,#466,.T.);
#857=EDGE_CURVE('',#637,#630,#578,.T.);
#861=EDGE_CURVE('',#623,#624,#434,.T.);
#863=EDGE_CURVE('',#624,#623,#439,.T.);
#867=ADVANCED_FACE('',(#860,#866),#848,.F.);
#874=EDGE_CURVE('',#628,#624,#474,.T.);
#876=EDGE_CURVE('',#627,#628,#479,.T.);
#878=EDGE_CURVE('',#627,#623,#470,.T.);
#882=ADVANCED_FACE('',(#881),#872,.F.);
#890=EDGE_CURVE('',#628,#627,#484,.T.);
#895=ADVANCED_FACE('',(#894),#887,.F.);
#901=EDGE_CURVE('',#635,#636,#491,.T.);
#903=EDGE_CURVE('',#643,#635,#587,.T.);
#905=EDGE_CURVE('',#644,#643,#498,.T.);
#907=EDGE_CURVE('',#620,#644,#502,.T.);
#909=EDGE_CURVE('',#619,#620,#507,.T.);
#918=ADVANCED_FACE('',(#913,#917),#900,.T.);
#942=EDGE_CURVE('',#633,#635,#516,.T.);
#946=ADVANCED_FACE('',(#945),#939,.T.);
#981=EDGE_CURVE('',#635,#632,#521,.T.);
#986=ADVANCED_FACE('',(#985),#979,.T.);
#996=EDGE_CURVE('',#643,#640,#530,.T.);
#998=EDGE_CURVE('',#643,#635,#592,.T.);
#1002=ADVANCED_FACE('',(#1001),#991,.T.);
#1036=EDGE_CURVE('',#641,#640,#558,.T.);
#1038=EDGE_CURVE('',#643,#641,#535,.T.);
#1043=ADVANCED_FACE('',(#1042),#1035,.T.);
#1049=EDGE_CURVE('',#639,#638,#541,.T.);
#1052=EDGE_CURVE('',#616,#620,#545,.T.);
#1055=EDGE_CURVE('',#644,#641,#551,.T.);
#1058=EDGE_CURVE('',#640,#639,#565,.T.);
#1062=ADVANCED_FACE('',(#1061),#1048,.T.);
#1086=EDGE_CURVE('',#637,#639,#570,.T.);
#1090=ADVANCED_FACE('',(#1089),#1083,.T.);
#1129=ADVANCED_FACE('',(#1128),#1123,.T.);
#1141=ADVANCED_FACE('',(#1140),#1134,.T.);
#1168=ADVANCED_FACE('',(#1167),#1162,.T.);
#1178=ADVANCED_FACE('',(#1177),#1173,.T.);
#1188=ADVANCED_FACE('',(#1187),#1183,.T.);
#1189=CLOSED_SHELL('',(#660,#675,#689,#703,#716,#734,#753,#794,#815,#843,#867,
#882,#895,#918,#946,#986,#1002,#1043,#1062,#1090,#1129,#1141,#1168,#1178,
#1188));
#1190=MANIFOLD_SOLID_BREP('',#1189);
#1203=TRIMMED_CURVE('X_AXIS',#1202,(PARAMETER_VALUE(0.E0)),(PARAMETER_VALUE
(1.E0)),.T.,.UNSPECIFIED.);
#1212=TRIMMED_CURVE('Y_AXIS',#1211,(PARAMETER_VALUE(0.E0)),(PARAMETER_VALUE
(1.E0)),.T.,.UNSPECIFIED.);
#1220=TRIMMED_CURVE('Z_AXIS',#1219,(PARAMETER_VALUE(0.E0)),(PARAMETER_VALUE
(1.E0)),.T.,.UNSPECIFIED.);
#1228=TRIMMED_CURVE('',#1227,(PARAMETER_VALUE(0.E0)),(PARAMETER_VALUE(1.E0)),
.T.,.UNSPECIFIED.);
#1232=COMPOSITE_CURVE_SEGMENT(.CONTINUOUS.,.T.,#1228);
#1237=TRIMMED_CURVE('',#1236,(PARAMETER_VALUE(0.E0)),(PARAMETER_VALUE(1.E0)),
.T.,.UNSPECIFIED.);
#1241=COMPOSITE_CURVE_SEGMENT(.CONTINUOUS.,.T.,#1237);
#1246=TRIMMED_CURVE('',#1245,(PARAMETER_VALUE(0.E0)),(PARAMETER_VALUE(1.E0)),
.T.,.UNSPECIFIED.);
#1250=COMPOSITE_CURVE_SEGMENT(.CONTINUOUS.,.T.,#1246);
#1255=TRIMMED_CURVE('',#1254,(PARAMETER_VALUE(0.E0)),(PARAMETER_VALUE(1.E0)),
.T.,.UNSPECIFIED.);
#1259=COMPOSITE_CURVE_SEGMENT(.CONTINUOUS.,.T.,#1255);
#1260=COMPOSITE_CURVE('',(#1232,#1241,#1250,#1259),.F.);
#1265=CIRCLE('',#1264,6.5E0);
#1266=TRIMMED_CURVE('',#1265,(PARAMETER_VALUE(0.E0)),(PARAMETER_VALUE(1.8E2)),
.T.,.UNSPECIFIED.);
#1270=COMPOSITE_CURVE_SEGMENT(.CONTINUOUS.,.T.,#1266);
#1275=CIRCLE('',#1274,6.5E0);
#1276=TRIMMED_CURVE('',#1275,(PARAMETER_VALUE(0.E0)),(PARAMETER_VALUE(1.8E2)),
.T.,.UNSPECIFIED.);
#1280=COMPOSITE_CURVE_SEGMENT(.CONTINUOUS.,.T.,#1276);
#1281=COMPOSITE_CURVE('',(#1270,#1280),.F.);
#1286=TRIMMED_CURVE('',#1285,(PARAMETER_VALUE(0.E0)),(PARAMETER_VALUE(1.E0)),
.T.,.UNSPECIFIED.);
#1290=COMPOSITE_CURVE_SEGMENT(.CONTINUOUS.,.T.,#1286);
#1295=TRIMMED_CURVE('',#1294,(PARAMETER_VALUE(0.E0)),(PARAMETER_VALUE(1.E0)),
.T.,.UNSPECIFIED.);
#1299=COMPOSITE_CURVE_SEGMENT(.CONTINUOUS.,.T.,#1295);
#1304=TRIMMED_CURVE('',#1303,(PARAMETER_VALUE(0.E0)),(PARAMETER_VALUE(1.E0)),
.T.,.UNSPECIFIED.);
#1308=COMPOSITE_CURVE_SEGMENT(.CONTINUOUS.,.T.,#1304);
#1313=CIRCLE('',#1312,6.5E0);
#1314=TRIMMED_CURVE('',#1313,(PARAMETER_VALUE(0.E0)),(PARAMETER_VALUE(1.8E2)),
.T.,.UNSPECIFIED.);
#1318=COMPOSITE_CURVE_SEGMENT(.CONTINUOUS.,.T.,#1314);
#1319=COMPOSITE_CURVE('',(#1290,#1299,#1308,#1318),.F.);
#1324=CIRCLE('',#1323,5.E0);
#1325=TRIMMED_CURVE('',#1324,(PARAMETER_VALUE(0.E0)),(PARAMETER_VALUE(1.8E2)),
.T.,.UNSPECIFIED.);
#1329=COMPOSITE_CURVE_SEGMENT(.CONTINUOUS.,.T.,#1325);
#1334=CIRCLE('',#1333,5.E0);
#1335=TRIMMED_CURVE('',#1334,(PARAMETER_VALUE(0.E0)),(PARAMETER_VALUE(1.8E2)),
.T.,.UNSPECIFIED.);
#1339=COMPOSITE_CURVE_SEGMENT(.CONTINUOUS.,.T.,#1335);
#1340=COMPOSITE_CURVE('',(#1329,#1339),.F.);
#1345=TRIMMED_CURVE('A_2',#1344,(PARAMETER_VALUE(0.E0)),(PARAMETER_VALUE(1.E0)),
.T.,.UNSPECIFIED.);
#1353=CIRCLE('',#1352,6.5E0);
#1354=TRIMMED_CURVE('',#1353,(PARAMETER_VALUE(0.E0)),(PARAMETER_VALUE(1.8E2)),
.T.,.UNSPECIFIED.);
#1358=COMPOSITE_CURVE_SEGMENT(.CONTINUOUS.,.T.,#1354);
#1363=CIRCLE('',#1362,6.5E0);
#1364=TRIMMED_CURVE('',#1363,(PARAMETER_VALUE(0.E0)),(PARAMETER_VALUE(1.8E2)),
.T.,.UNSPECIFIED.);
#1368=COMPOSITE_CURVE_SEGMENT(.CONTINUOUS.,.T.,#1364);
#1369=COMPOSITE_CURVE('',(#1358,#1368),.F.);
#1381=(LENGTH_UNIT()NAMED_UNIT(*)SI_UNIT(.MILLI.,.METRE.));
#1382=(NAMED_UNIT(*)PLANE_ANGLE_UNIT()SI_UNIT($,.RADIAN.));
#1385=(NAMED_UNIT(*)SI_UNIT($,.STERADIAN.)SOLID_ANGLE_UNIT());
#1387=(GEOMETRIC_REPRESENTATION_CONTEXT(3)GLOBAL_UNCERTAINTY_ASSIGNED_CONTEXT((
#1386))GLOBAL_UNIT_ASSIGNED_CONTEXT((#1381,#1384,#1385))REPRESENTATION_CONTEXT(
'ID1','3'));
#1388=ADVANCED_BREP_SHAPE_REPRESENTATION('',(#1190),#1387);
#1389=GEOMETRICALLY_BOUNDED_SURFACE_SHAPE_REPRESENTATION('',(#1207),#1387);
#1390=SHAPE_REPRESENTATION('',(#1194),#1387);
#1400=PRODUCT_DEFINITION('design','',#1399,#1396);
#1401=PRODUCT_DEFINITION_SHAPE('','SHAPE FOR PODAJLANIK.',#1400);
#1402=SHAPE_ASPECT('','solid data associated with PODAJLANIK',#1401,.F.);
#1403=PROPERTY_DEFINITION('',
'shape for solid data with which properties are associated',#1402);
#1404=SHAPE_REPRESENTATION('',(#1190),#1387);
#1405=SHAPE_DEFINITION_REPRESENTATION(#1403,#1404);
#1406=(LENGTH_UNIT()NAMED_UNIT(*)SI_UNIT(.MILLI.,.METRE.));
#1408=(MASS_UNIT()NAMED_UNIT(*)SI_UNIT(.KILO.,.GRAM.));
#1412=PROPERTY_DEFINITION('material_property','density',#1402);
#1413=REPRESENTATION('density',(#1411),#1387);
#1414=PROPERTY_DEFINITION_REPRESENTATION(#1412,#1413);
#1416=PROPERTY_DEFINITION('material property','material name',#1402);
#1417=REPRESENTATION('material name',(#1415),#1387);
#1418=PROPERTY_DEFINITION_REPRESENTATION(#1416,#1417);
#1419=SHAPE_ASPECT('','solid data associated with PODAJLANIK',#1401,.F.);
#1420=PROPERTY_DEFINITION('',
'shape for solid data with which properties are associated',#1419);
#1421=SHAPE_REPRESENTATION('',(#1190),#1387);
#1422=SHAPE_DEFINITION_REPRESENTATION(#1420,#1421);
#1423=(LENGTH_UNIT()NAMED_UNIT(*)SI_UNIT(.MILLI.,.METRE.));
#1427=PROPERTY_DEFINITION('geometric validation property','area of PODAJLANIK',
#1419);
#1428=REPRESENTATION('surface area',(#1426),#1387);
#1429=PROPERTY_DEFINITION_REPRESENTATION(#1427,#1428);
#1430=(LENGTH_UNIT()NAMED_UNIT(*)SI_UNIT(.MILLI.,.METRE.));
#1434=PROPERTY_DEFINITION('geometric validation property',
'volume of PODAJLANIK',#1419);
#1435=REPRESENTATION('volume',(#1433),#1387);
#1436=PROPERTY_DEFINITION_REPRESENTATION(#1434,#1435);
#1438=PROPERTY_DEFINITION('geometric validation property',
'centroid of PODAJLANIK',#1419);
#1439=REPRESENTATION('centroid',(#1437),#1387);
#1440=PROPERTY_DEFINITION_REPRESENTATION(#1438,#1439);
#1441=(LENGTH_UNIT()NAMED_UNIT(*)SI_UNIT(.MILLI.,.METRE.));
#1445=PROPERTY_DEFINITION('geometric validation property','area of PODAJLANIK',
#1401);
#1446=REPRESENTATION('surface area',(#1444),#1387);
#1447=PROPERTY_DEFINITION_REPRESENTATION(#1445,#1446);
#1448=(LENGTH_UNIT()NAMED_UNIT(*)SI_UNIT(.MILLI.,.METRE.));
#1452=PROPERTY_DEFINITION('geometric validation property',
'volume of PODAJLANIK',#1401);
#1453=REPRESENTATION('volume',(#1451),#1387);
#1454=PROPERTY_DEFINITION_REPRESENTATION(#1452,#1453);
#1456=PROPERTY_DEFINITION('geometric validation property',
'centroid of PODAJLANIK',#1401);
#1457=REPRESENTATION('centroid',(#1455),#1387);
#1458=PROPERTY_DEFINITION_REPRESENTATION(#1456,#1457);
#1459=(LENGTH_UNIT()NAMED_UNIT(*)SI_UNIT(.MILLI.,.METRE.));
#1461=(MASS_UNIT()NAMED_UNIT(*)SI_UNIT(.KILO.,.GRAM.));
#1465=PROPERTY_DEFINITION('material_property','density',#1400);
#1466=REPRESENTATION('density',(#1464),#1387);
#1467=PROPERTY_DEFINITION_REPRESENTATION(#1465,#1466);
#1469=PROPERTY_DEFINITION('material property','material name',#1400);
#1470=REPRESENTATION('material name',(#1468),#1387);
#1471=PROPERTY_DEFINITION_REPRESENTATION(#1469,#1470);
#1472=SHAPE_DEFINITION_REPRESENTATION(#1401,#1390);
#1473=PROPERTY_DEFINITION('MASA','user defined attribute',#1400);
#1476=(MASS_UNIT()NAMED_UNIT(*)SI_UNIT(.KILO.,.GRAM.));
#1478=REPRESENTATION('',(#1477),#1387);
#1479=PROPERTY_DEFINITION_REPRESENTATION(#1473,#1478);
#1480=PROPERTY_DEFINITION('KODA','user defined attribute',#1400);
#1484=REPRESENTATION('',(#1483),#1387);
#1485=PROPERTY_DEFINITION_REPRESENTATION(#1480,#1484);
#1486=PROPERTY_DEFINITION('IDENT','user defined attribute',#1400);
#1490=REPRESENTATION('',(#1489),#1387);
#1491=PROPERTY_DEFINITION_REPRESENTATION(#1486,#1490);
#1492=PROPERTY_DEFINITION('OPIS','user defined attribute',#1400);
#1496=REPRESENTATION('',(#1495),#1387);
#1497=PROPERTY_DEFINITION_REPRESENTATION(#1492,#1496);
#1498=PROPERTY_DEFINITION('NAZIV','user defined attribute',#1400);
#1502=REPRESENTATION('',(#1501),#1387);
#1503=PROPERTY_DEFINITION_REPRESENTATION(#1498,#1502);
#1504=PROPERTY_DEFINITION('MATERIAL','user defined attribute',#1400);
#1508=REPRESENTATION('',(#1507),#1387);
#1509=PROPERTY_DEFINITION_REPRESENTATION(#1504,#1508);
#1510=PROPERTY_DEFINITION('OPOMBA','user defined attribute',#1400);
#1514=REPRESENTATION('',(#1513),#1387);
#1515=PROPERTY_DEFINITION_REPRESENTATION(#1510,#1514);
#1516=PROPERTY_DEFINITION('STANDARD','user defined attribute',#1400);
#1520=REPRESENTATION('',(#1519),#1387);
#1521=PROPERTY_DEFINITION_REPRESENTATION(#1516,#1520);
#1522=PROPERTY_DEFINITION('FIRMA','user defined attribute',#1400);
#1526=REPRESENTATION('',(#1525),#1387);
#1527=PROPERTY_DEFINITION_REPRESENTATION(#1522,#1526);
#1528=PROPERTY_DEFINITION('KONSTRUIRAL','user defined attribute',#1400);
#1532=REPRESENTATION('',(#1531),#1387);
#1533=PROPERTY_DEFINITION_REPRESENTATION(#1528,#1532);
#1534=PROPERTY_DEFINITION('IZDELAL','user defined attribute',#1400);
#1538=REPRESENTATION('',(#1537),#1387);
#1539=PROPERTY_DEFINITION_REPRESENTATION(#1534,#1538);
#1540=PROPERTY_DEFINITION('KONTROLIRAL','user defined attribute',#1400);
#1544=REPRESENTATION('',(#1543),#1387);
#1545=PROPERTY_DEFINITION_REPRESENTATION(#1540,#1544);
#1546=PROPERTY_DEFINITION('MFG_WP_MATERIAL','user defined attribute',#1400);
#1550=REPRESENTATION('',(#1549),#1387);
#1551=PROPERTY_DEFINITION_REPRESENTATION(#1546,#1550);
#1552=PROPERTY_DEFINITION('PTC_COMMON_NAME','user defined attribute',#1400);
#1556=REPRESENTATION('',(#1555),#1387);
#1557=PROPERTY_DEFINITION_REPRESENTATION(#1552,#1556);
#1558=PROPERTY_DEFINITION('PTC_MASTER_MATERIAL','user defined attribute',#1400);
#1562=REPRESENTATION('',(#1561),#1387);
#1563=PROPERTY_DEFINITION_REPRESENTATION(#1558,#1562);
ENDSEC;
END-ISO-10303-21;
