mtllib lnd_tool_pitch_link_visuals_mesh_1.mtl
v 0.0006362382555380464 0.00020766427041962748 -0.0039000352844595905
v 0.0006872514495626092 -5.5644595704507096e-05 0.004120008088648318
v 0.0005251668626442552 -0.00041935761692002426 -0.003899924689903855
v 0.00021272622689139098 -0.0006363335996866227 0.004120110534131526
v -0.00018119922606274486 -0.0006674213218502701 -0.003899880917742848
v -0.00032518847729079425 -0.0005709913093596698 0.004120098892599343
v -0.0006886795163154602 -5.45203292858787e-05 0.004120008088648318
v -0.0006907850620336831 1.1271296898485163e-05 -0.003900000592693686
v -0.00031467704684473574 0.0005940243136137725 0.004119893535971641
v -0.00026261922903358936 0.0006174177397042514 -0.003900107461959123
v 0.00032460252987220883 0.0005886526778340341 0.004119894932955503
v 0.0002635234559420496 0.0006018851418048144 -0.0039001046679913993
v 0.008755571208894253 -0.0019997898489236836 0.0005762730725109576
v 0.008468886837363243 -0.0020000017248094086 0.00015590804105158893
v 0.006099999416619539 -0.001999509055167437 0.0029503479599952693
v 0.0061037312261760235 -0.002000513952225447 -0.002961583668366074
v 0.008505173027515411 -0.002000063890591264 -0.0003042980388272553
v 0.009675545617938042 -0.001999975880607963 0.0003024229081347584
v 0.010530035011470318 -0.0020003211684525017 0.0005216868012212216
v 0.009741507470607758 -0.002000255743041635 -0.00017128158651757983
v 0.010585249401628971 -0.0020000678487122063 -0.00021920473955105987
v 0.010355320759117603 -0.0020008930005133156 -0.0009105682256631552
v 0.009351453743875027 -0.002000114414840937 -0.0006187039543874561
v 0.009387641213834286 -0.0019994564354419713 0.0006003004382364451
v 0.009929224848747253 -0.001999797765165568 0.001457969658076763
v 0.007246265187859535 -0.001999591942876578 0.0027733116876333948
v 0.00880831852555275 -0.0019997279159724717 0.0022274611983448263
v 0.009496617130935192 -0.0019999770447611813 -0.0018256972543895242
v 0.008869506418704987 -0.0020001363009214406 -0.0006074074190109967
v 0.00803280808031559 -0.00200047972612083 -0.0025475451257079835
v 0.00946924090385437 0.001900063245557249 0.0005346050020307301
v 0.009741310961544514 0.0019001760520040993 0.0001662761205807328
v 0.010312877595424652 0.0019000488100573425 0.0009908812353387473
v 0.01061586756259203 0.001900538103654981 3.011525222973432e-06
v 0.009407062083482742 0.0019001148175448184 0.0018857093527913091
v 0.009053140878677368 0.0018999219173565511 0.0006681281374767422
v 0.007950308732688427 0.0019005150534212594 0.0025754675734788175
v 0.008531514555215836 0.0019000610336661343 0.0003467471979092806
v 0.006105179898440838 0.001900309463962913 0.0029655238613486286
v 0.0103392219170928 0.0018998060841113333 -0.0009414931409992277
v 0.009617682546377182 0.0019001530017703776 -0.0004184709687251597
v 0.009296190924942493 0.0018995231948792939 -0.001985303126275539
v 0.009064927697181702 0.0018999212188646202 -0.0006653130403719841
v 0.007304075639694929 0.0018995282007381324 -0.0027612645644694562
v 0.008490794338285923 0.001899284310638905 -0.0003189462004229426
v 0.006099999416619539 0.001899449154734612 -0.0029503297992050643
v 0.010381563566625118 -0.0023943651467561726 0.0008737271418794989
v 0.009465041570365429 -0.0027631348930299286 0.0005389708676375448
v 0.009727098047733307 -0.002664255909621716 0.00020304339705035088
v 0.009763183072209358 -0.00265377713367343 0.0016063691582530735
v 0.00965801626443863 -0.0026910176966339354 -0.00037067555240355427
v 0.010534844361245632 -0.002329095965251327 -0.0005308114341460167
v 0.009455435909330845 -0.002766773104667664 -0.001830936758778989
v 0.010058572515845299 -0.0025316821411252026 -0.0013031857088208196
v 0.008654884062707424 -0.0030013329815119514 0.0021938222926110025
v 0.008965875022113323 -0.0029242529999464755 0.0006568335811607539
v 0.009226859547197819 -0.0028388502541929488 0.001971420599147677
v 0.008718210272490978 -0.0029892707243561753 -0.000548535375855863
v 0.007825464941561222 -0.003142620436847211 -0.0023351947311311956
v 0.008567305281758308 -0.0030228111427277335 -0.0022209670860320325
v 0.008456275798380375 -0.003043932607397438 -0.0001500924117863178
v 0.008521386422216892 -0.003030275460332633 0.0003171322750858962
v 0.0075948904268443584 -0.003166212234646083 0.0023801948409527536
v 0.009236440062522888 -0.002840323140844703 -0.0006454901886172592
v 0.006833638530224562 -0.0031937842722982177 -0.0024845693260431285
v 0.006473887246102095 -0.003199489554390312 0.0024137496948242183
v 0.010587222874164581 -0.00230529485270381 0.00023821921786293385
v 0.009332751855254173 0.0027088655624538664 -0.0019180789822712538
v 0.009048368781805038 0.0028021263424307112 -0.0006693321047350763
v 0.010152352042496204 0.0023969602771103386 -0.0012058886932209132
v 0.009539125487208366 0.002634796546772123 -0.0004915659083053469
v 0.009733013808727264 0.002562574110925198 -0.00018905337492469695
v 0.009697011671960354 0.002576473401859403 0.0016561894444748757
v 0.009672816842794418 0.0025860504247248177 0.0003406024479772895
v 0.009161686524748802 0.002769084414467216 0.0006739597301930188
v 0.00918434839695692 0.0027580226305872206 0.001990669639781117
v 0.008533937856554985 0.0029248017817735676 0.0022293413057923313
v 0.008650408126413822 0.002902613021433354 0.000481303286505863
v 0.008436721749603748 0.002947949571534992 2.6418281777296212e-05
v 0.007753950543701649 0.0030593357514590034 -0.0023577243555337186
v 0.008600606583058834 0.002913977717980743 -0.0004224982403684407
v 0.008743835613131523 0.0028775767423212533 -0.0021582625340670343
v 0.00776373315602541 0.003046770580112935 0.0023467533756047483
v 0.006786887533962727 0.0030927993357181558 0.0024960727896541353
v 0.0064762248657643795 0.0030994131229817876 -0.0024141618050634857
v 0.010616627521812916 0.00219349772669375 -0.00024482028675265605
v 0.01039452850818634 0.002289543859660626 0.00086300604743883
v 0.00025231935433112085 0.0027529401704669003 0.0014029289595782755
v 0.0009178394102491438 0.0025880294851958756 0.001956071704626083
v 0.0009381624986417592 0.0029102694243192677 0.0018570153042674062
v 0.003756294259801507 0.003100814763456584 0.002437364542856812
v 0.0022596565540879965 0.003069514874368907 0.002272961195558309
v 0.0036257142201066017 0.003029621671885253 0.002648235764354467
v 0.008340738713741302 0.002601853804662824 0.0024264857638627286
v 0.001829541171900928 0.00284145399928093 0.0023693731054663654
v 0.001898256246931851 0.0026061297394335274 0.0024555430281907316
v 0.0034722844138741493 0.0026011704467237 0.0028736751992255445
v 0.003967997618019581 0.002848914591595531 0.0028910180553793903
v 0.005242003593593836 0.003031462663784624 0.0027653691358864303
v 0.005257327575236559 0.0025986409746110444 0.003012632485479116
v 0.006606493145227432 0.0028597568161785607 0.0028458007145673032
v 0.00711094681173563 0.002600687555968762 0.002799963345751166
v 0.00377258425578475 -0.0032012269366532573 -0.0024356301873922344
v 0.0038189664483070374 -0.003200490027666093 0.0024608378298580642
v 0.0008314973092637956 -0.0029981674160808333 -0.0017963049467653034
v 0.00024989614030346274 -0.0028524058870971207 -0.0013996196212247012
v 0.0007277669501490891 -0.0027147990185767417 -0.0018188484245911238
v 0.002093579387292266 -0.0031508717220276603 -0.0022377630230039354
v 0.0036287836264818907 -0.003130013821646572 -0.0026485079433768983
v 0.006828043609857559 -0.002953371964395047 -0.002801286522299051
v 0.008657366968691349 -0.0026619315613061194 -0.002304323017597198
v 0.001429127180017531 -0.0028659838717430834 -0.002216267632320523
v 0.002093337941914797 -0.002954364987090231 -0.0024521749000996347
v 0.0028042239136993885 -0.0026958165690302853 -0.002739496529102325
v 0.0035695196129381657 -0.002949184039607645 -0.002822589129209518
v 0.0044593787752091885 -0.0026992741040885453 -0.002989724045619368
v 0.005242002196609974 -0.003131522564217449 -0.002765351207926869
v 0.005479808431118727 -0.002901078667491675 -0.0029749688692390914
v 0.007188501767814159 -0.0027096243575215344 -0.0027871478814631696
v 0.0002474705397617072 -0.0006078168516978623 -0.0014115936355665324
v 0.0005387196433730423 -0.0003837855183519424 -0.0016753564123064277
v 0.0006516175344586372 0.00018075424304697665 -0.0017649685032665727
v 0.0004497437330428511 0.0004901330685243012 0.0016022935742512343
v 0.0006691687158308923 -6.142903293948622e-05 0.001777876750566065
v 0.0007795237470418215 -0.00271794549189508 0.0018553276313468812
v 0.0004678494296967983 -0.00045489860349334787 0.0016165096312761305
v 0.0001991224562516436 -0.0028386681806296114 0.001358623383566737
v 4.785061173606664e-05 -0.000665920728351921 0.0012349096359685061
v 0.0007851980626583099 0.002621945226565004 -0.0018579461611807344
v 0.00020851225417573005 0.002744353841990233 -0.0013655907241627572
v 0.00029218659619800746 0.0005850698798894883 -0.00145218672696501
v 0.008085908368229866 0.002596355509012938 -0.002536065876483917
v 0.006146940868347883 0.0026203391607850794 -0.0029581778217107053
v 0.00569218909367919 -0.002691994654014707 0.0030032363720238204
v 0.007364342454820871 -0.0029054123442620043 0.0027039274573326107
v 0.00829886831343174 -0.0027030066121369605 0.0024468628689646717
v 0.00160971749573946 -0.002883540000766516 0.0022973625455051656
v 0.0039406633004546165 -0.002900806954130531 0.002910888288170099
v 0.0025717634707689285 -0.0028683403506875042 0.0026484634727239604
v 0.004516256041824818 0.00276453304104507 -0.0029695725534111257
v 0.002851536963135004 0.0026036247145384554 -0.0027548903599381443
v 0.001613596105016768 0.0027829923201352362 -0.0022971727885305877
v 0.003961802925914526 0.0031000482849776754 -0.002466608770191669
v -0.0022426110226660967 -0.0011799655621871354 -0.0009997918969020245
v -0.002398675074800849 0.0003181149659212679 -0.001000055926851928
v -0.0007606668514199555 0.0024281928781419997 -0.0010006779339164493
v -0.0015053534880280495 -0.002253056969493628 -0.0009506948408670722
v -0.0020518270321190357 0.001453654142096639 -0.0010002560447901485
v -0.001566371531225741 0.0021148719824850564 -0.0010003725765272973
v -0.0006813550717197359 -0.0025577889755368237 0.0010028581600636242
v -0.0014923919225111604 0.0021618166938424115 0.0009429997298866509
v -0.0022426110226660967 0.0010799062438309195 0.0009998092427849767
v -0.002398675074800849 -0.00041817408055067073 0.0010000732727348802
v -0.002051827497780323 -0.0015537131112068896 0.0010002733906731007
v -0.001566371531225741 -0.002214931417256594 0.0010003899224102495
v 0.00630050478503108 -0.0031231287866830834 0.0027124744374305006
v 0.00403043907135725 -0.0031315053347498187 0.0027069516945630308
v 0.0022317375987768173 -0.0031559676863253125 0.0022708945907652374
v 0.0009857544209808111 -0.003024742705747486 0.0018833586946129797
v 0.0059153838083148 -0.0029457255732268104 0.002913967706263065
v 0.003989195451140404 0.0030302777886390695 -0.002703822217881679
v 0.0020617207046598196 0.0030548430513590583 -0.0022272486239671703
v 0.0007905390812084079 0.002882200758904219 -0.0017696542199701069
v 0.007675469387322664 0.0028397908899933104 -0.002602805849164724
v 0.006289541255682707 0.0030225822702050218 -0.002713668160140514
v 0.00592702254652977 0.0028511541895568375 -0.0029074349440634246
v 0.002977642696350813 0.0028482670895755295 -0.0027172812260687347
v -0.0003690061566885561 -0.000539587694220245 0.001057549496181309
v -0.00010236165690002963 -0.0027515939436852936 0.0011568554909899829
v -0.0006490987143479288 -0.00016043875075411054 0.0010049490956589577
v -0.0005826221313327551 0.000299032690236345 0.0010136697674170134
v -0.0001748875656630844 0.0006552739068865777 0.0011139170965179799
v -0.00012578285532072186 0.002648236462846399 0.001142955385148525
v -8.719089964870363e-05 0.0026600158307701354 -0.001162406289950013
v -0.0002721157798077911 0.0006290375604294242 -0.0010764355538412926
v -0.0006721222307533026 2.3302791305468424e-05 -0.0010036770254373548
v -0.0003184854576829821 -0.0006053893011994661 -0.00106435758061707
v -0.00016731499636080116 -0.0027370455209165816 -0.0011186703341081736
usemtl material_DefaultMaterial
f 1 2 3
f 3 2 4
f 3 4 5
f 5 4 6
f 5 6 7
f 5 7 8
f 8 7 9
f 8 9 10
f 10 9 11
f 10 11 12
f 12 11 1
f 1 11 2
f 6 4 2
f 2 7 6
f 9 7 2
f 11 9 2
f 1 10 12
f 1 8 10
f 1 5 8
f 3 5 1
f 13 14 15
f 15 14 16
f 16 14 17
f 18 19 20
f 20 19 21
f 20 21 22
f 20 22 23
f 24 25 18
f 18 25 19
f 15 26 13
f 13 26 27
f 13 27 24
f 24 27 25
f 23 22 28
f 23 28 29
f 29 28 30
f 29 30 17
f 17 30 16
f 31 32 33
f 33 32 34
f 31 33 35
f 31 35 36
f 36 35 37
f 36 37 38
f 38 37 39
f 34 32 40
f 40 32 41
f 40 41 42
f 42 41 43
f 42 43 44
f 44 43 45
f 44 45 46
f 46 45 39
f 39 45 38
f 47 48 49
f 48 47 50
f 51 52 49
f 51 53 54
f 51 54 52
f 55 56 57
f 57 56 50
f 50 56 48
f 58 59 60
f 59 58 61
f 61 62 63
f 56 55 62
f 63 62 55
f 53 51 64
f 58 60 64
f 64 60 53
f 59 61 63
f 63 65 59
f 65 63 66
f 52 67 47
f 52 47 49
f 68 69 70
f 70 69 71
f 70 71 72
f 73 74 75
f 75 76 73
f 77 76 75
f 77 75 78
f 78 79 77
f 80 79 81
f 80 81 69
f 80 69 82
f 69 68 82
f 77 79 80
f 77 80 83
f 83 80 84
f 84 80 85
f 86 70 87
f 87 70 73
f 73 70 72
f 73 72 74
f 88 89 90
f 91 92 93
f 76 77 94
f 90 89 95
f 95 89 96
f 95 96 97
f 95 97 98
f 99 91 93
f 98 97 100
f 100 101 98
f 91 99 84
f 101 100 102
f 90 95 92
f 92 95 98
f 92 98 93
f 93 98 99
f 99 98 101
f 99 101 84
f 84 101 83
f 101 102 94
f 83 101 77
f 77 101 94
f 103 65 104
f 104 65 66
f 105 106 107
f 108 109 103
f 60 59 110
f 60 111 53
f 105 107 112
f 113 112 114
f 113 114 115
f 115 114 116
f 117 103 109
f 115 116 118
f 103 117 65
f 110 118 119
f 110 59 65
f 110 65 117
f 110 117 118
f 118 117 109
f 118 109 115
f 115 109 108
f 115 108 113
f 113 108 112
f 112 108 105
f 110 119 60
f 111 60 119
f 50 47 25
f 54 53 28
f 106 120 121
f 106 121 107
f 107 121 122
f 28 53 111
f 22 54 28
f 22 52 54
f 21 52 22
f 19 67 21
f 21 67 52
f 19 47 67
f 25 47 19
f 88 123 89
f 123 124 89
f 125 124 126
f 125 126 127
f 127 126 128
f 33 87 73
f 33 73 35
f 34 86 87
f 34 87 33
f 40 86 34
f 86 40 70
f 42 70 40
f 42 68 70
f 129 122 130
f 130 122 131
f 46 16 118
f 118 16 119
f 132 44 133
f 132 42 44
f 42 132 68
f 76 35 73
f 94 37 35
f 94 35 76
f 37 94 102
f 37 102 39
f 134 26 15
f 39 102 100
f 39 100 15
f 135 26 134
f 136 27 26
f 136 26 135
f 57 27 136
f 27 57 50
f 27 50 25
f 28 111 30
f 119 30 111
f 30 119 16
f 89 124 125
f 125 137 89
f 89 137 96
f 134 15 100
f 134 100 138
f 138 100 97
f 138 97 139
f 139 97 96
f 139 96 137
f 116 140 118
f 140 133 118
f 118 133 46
f 46 133 44
f 140 116 141
f 141 116 114
f 141 114 142
f 142 114 112
f 142 112 129
f 129 112 107
f 129 107 122
f 91 84 143
f 143 84 85
f 144 145 146
f 146 147 144
f 145 148 146
f 146 148 149
f 150 151 152
f 152 153 150
f 153 154 150
f 150 154 155
f 151 149 148
f 151 148 152
f 152 148 145
f 152 145 153
f 153 145 144
f 153 144 154
f 154 144 147
f 154 147 155
f 135 63 55
f 156 66 63
f 157 104 156
f 104 157 158
f 137 159 158
f 125 127 159
f 55 57 136
f 55 136 135
f 134 160 135
f 156 104 66
f 160 134 138
f 137 158 139
f 139 158 157
f 139 157 138
f 138 157 156
f 138 156 160
f 160 156 63
f 160 63 135
f 159 137 125
f 143 161 162
f 162 142 163
f 129 130 163
f 80 82 164
f 165 85 80
f 161 143 165
f 82 68 132
f 82 132 164
f 164 132 133
f 164 133 166
f 165 143 85
f 133 140 166
f 140 141 167
f 141 142 167
f 142 162 167
f 167 162 161
f 167 161 140
f 140 161 165
f 140 165 166
f 166 165 80
f 166 80 164
f 129 163 142
f 168 169 128
f 170 150 168
f 168 150 169
f 170 151 150
f 170 171 151
f 151 171 172
f 151 172 173
f 173 172 88
f 88 172 123
f 128 169 127
f 174 175 146
f 146 175 176
f 146 176 147
f 176 177 147
f 147 177 178
f 120 106 178
f 120 178 177
f 130 131 174
f 174 131 175
f 46 39 16
f 16 39 15
f 178 169 150
f 155 147 150
f 150 147 178
f 105 127 169
f 169 178 106
f 105 169 106
f 105 159 127
f 159 105 108
f 158 159 108
f 104 158 108
f 104 108 103
f 149 151 146
f 146 151 174
f 174 151 173
f 173 130 174
f 130 173 88
f 90 163 130
f 130 88 90
f 163 90 162
f 162 90 92
f 162 92 143
f 143 92 91
f 168 128 177
f 122 123 131
f 123 122 124
f 124 122 121
f 124 121 126
f 121 120 126
f 126 120 128
f 128 120 177
f 168 177 170
f 131 123 172
f 131 172 175
f 170 177 176
f 170 176 171
f 171 176 175
f 171 175 172
f 74 32 31
f 36 75 31
f 31 75 74
f 38 78 36
f 36 78 75
f 78 38 79
f 45 79 38
f 45 81 79
f 43 69 45
f 45 69 81
f 71 41 72
f 41 71 43
f 43 71 69
f 32 74 72
f 32 72 41
f 51 20 23
f 23 64 51
f 64 23 29
f 64 29 58
f 17 58 29
f 58 17 61
f 14 61 17
f 13 62 14
f 14 62 61
f 13 56 62
f 24 56 13
f 18 49 24
f 49 48 24
f 24 48 56
f 20 51 49
f 20 49 18
