v 0.0026581189595162864 -0.00320011586882174 -0.0007494358578696846
v 0.0026499992236495014 -0.003206843277439475 -0.0007494346937164663
v 0.00265811919234693 -0.0032006180845201015 -0.0035994343925267454
v 0.0025715411175042386 -0.003271568100899458 -0.009099421091377733
v 0.003143917769193649 -0.0027248391415923834 -0.0035995182115584608
v 0.002633099909871816 -0.003220681566745043 -0.00045063238940201694
v 0.002580720698460936 -0.0032626313623040915 -0.00016025734657887367
v 0.0031439180020242925 -0.0027258084155619144 -0.009099517017602919
v 0.0036026651505380865 -0.0020815879106521606 -0.009099630638957022
v 0.003602664917707443 -0.0020806186366826296 -0.003599631832912564
v 0.003931202925741672 -0.0013621910475194454 -0.00909975729882717
v 0.003931202460080384 -0.0013612217735499144 -0.0035997584927827115
v 0.004117656964808702 -0.0005936184898018837 -0.009099893271923063
v 0.004117656499147414 -0.0005926492158323526 -0.003599894000217318
v 0.004155287519097327 0.00019635162607301027 -0.009100032038986681
v 0.00415528705343604 0.0001973208854906261 -0.003600033232942223
v 0.004042735788971185 0.0009791675256565213 -0.009100169874727724
v 0.0040427353233098975 0.0009801367996260524 -0.003600171068683266
v 0.0037840686272829767 0.0017265364294871688 -0.00910030212253332
v 0.003784068394452333 0.0017275057034566998 -0.0036003028508275743
v 0.0033886358141899105 0.002411446301266551 -0.009100422263145445
v 0.003388635581359267 0.002412415575236082 -0.0036004236899316307
v 0.002870728494599461 0.0030091428197920322 -0.009100528433918951
v 0.0028707282617688175 0.0030101120937615633 -0.003600528929382562
v 0.0022490657866001125 0.0034980240743607283 -0.009100614115595816
v 0.002387566957622766 0.00340671231970191 0.0003991916601080447
v 0.002500250237062573 0.0033248430117964745 0.00012761946709360925
v 0.002583558205515146 0.0032604788430035114 -0.00016089374548755583
v 0.0026330801192671056 0.0032205679453909397 -0.0004515924374572932
v 0.0026499992236495014 0.0032066081184893847 -0.0007505649118684231
v 0.0026581189595162864 0.0031998807098716497 -0.0007505637477152048
v 0.00265811919234693 0.0031993784941732883 -0.0036005622241646047
v 0.001546115963719785 0.0038604196161031723 -0.009100678376853464
v 0.0015450848732143638 0.003859620075672865 0.0013952102744951842
v 0.0016522475052624939 0.0038180563133209944 0.0013211802579462526
v 0.0018737940117716787 0.003714304883033037 0.0011232162360101936
v 0.0020718530286103483 0.0036075289826840162 0.0009016119875013827
v 0.002249065320938825 0.0034997425973415375 0.000650883710477501
v 0.0013532976154237983 0.003934005741029978 0.001527701038867235
v 0.0007872855057939886 0.004083232022821903 -0.009100717492401598
v 0.0011497915256768463 0.003998247906565666 0.0016368620563298462
v 0.0006307347794063388 0.004111865535378456 -0.0003043250180780887
v 0.0006824494339525699 0.004103625193238258 -0.00015648733824491498
v 0.0003037186106666922 0.0041487994603812695 -0.0006314091733656823
v 0.00043652163003571326 0.004136949777603149 -0.0005479485262185334
v 0.0005472819902934133 0.004123779013752937 -0.0004371691029518842
v 0.0006999998586252331 0.004100695252418518 -9.941990128936593e-07
v 0.0007872849237173795 0.0040851496160030365 0.0017796315951272843
v 0.0006824494339525699 0.004103680141270161 0.00015504180919378993
v 0.0006306050927378236 0.004111992195248604 0.00030314573086798186
v 0.0005472819902934133 0.004123932681977749 0.0004357164143584668
v -0.0006304956041276454 0.004112008959054947 0.00030337195494212205
v -0.000682449317537248 0.004103680141270161 0.00015504172188229856
v -0.0007872850401327013 0.0040851496160030365 0.0017796314787119625
v -0.0005472818738780915 0.004123932681977749 0.0004357163561508059
v 0.0004363183979876339 0.004137164447456598 0.0005466522416099905
v 0.0003037185524590313 0.0041490220464766026 0.0006299466476775705
v 0.0005896802758798002 0.004118329845368862 0.0018328329315409062
v 0.00015614402946084735 0.004157201386988163 0.0006816298700869082
v 0.0002613102260511368 0.004152129869908094 0.0018863528966903684
v -3.0576652321201432e-12 0.004160135984420776 0.0006992667331360279
v -1.3094820872083798e-07 0.004157978110015392 0.0018955430714413522
v -7.546231063315644e-05 0.004159662872552872 0.001898191520012915
v -0.00015590507246088234 0.004157210234552622 0.0006816848181188105
v -0.0002985102182719856 0.004149620421230793 0.0018824017606675623
v -0.000589680392295122 0.004118329845368862 0.0018328329315409062
v -0.0003037185524590313 0.0041490220464766026 0.0006299465894699096
v -0.0004366246575955301 0.004137131851166487 0.0005464072455652057
v -0.0006999997422099112 0.004100695252418518 -7.986971581885881e-07
v -0.000682449317537248 0.004103625193238258 -0.00015648742555640635
v -0.0007872844580560922 0.004083232022821903 -0.009100717492401598
v -0.0006305580609478055 0.00411189254373312 -0.0003046920464839786
v -0.0005472818738780915 0.004123779013752937 -0.00043716916115954513
v -0.0004367168876342475 0.004136929288506508 -0.0005477921222336589
v -0.0003037184942513704 0.0041487994603812695 -0.0006314092315733432
v -0.00015621456259395924 0.004156958311796188 -0.0006830794736742972
v 5.286653337321922e-10 0.004158408846706152 -0.009100730530917643
v 7.29028157286926e-11 0.004159889183938503 -0.0007007332169450818
v 0.00015560862084385005 0.0041569811291992664 -0.0006832173094153403
v -0.0015461150323972104 0.0038604196161031723 -0.009100678376853464
v -0.0015461156144738195 0.003862270386889577 0.0014015333727002142
v -0.0013535792240872977 0.003933908883482218 0.001527534215711057
v -0.00114979175850749 0.003998247906565666 0.0016368619399145243
v -0.002249064855277538 0.0034980240743607283 -0.009100614115595816
v -0.002249065320938825 0.0034997425973415375 0.0006508834194391965
v -0.0020718530286103483 0.0036075289826840162 0.0009016117546707391
v -0.0018746809801086781 0.003713857149705291 0.0011223295005038378
v -0.001647400786168873 0.0038165198639035225 0.0013154639163985846
v -0.0026581189595162864 0.003199881175532937 -0.0007505640387535094
v -0.0026499992236495014 0.003206608584150672 -0.0007505652029067277
v -0.0026581187266856428 0.0031993789598345757 -0.003600562689825892
v -0.00287072779610753 0.0030101125594228506 -0.0036005293950438495
v -0.002633099909871816 0.0032205521129071712 -0.00045176778803579504
v -0.002583558205515146 0.0032604793086647987 -0.0001608940365258604
v -0.0025003186892718072 0.0033247917890548706 0.0001274245587410405
v -0.002387566957622766 0.0034067127853631973 0.0003991913981735706
v -0.0028707275632768865 0.0030091432854533195 -0.009100528433918951
v -0.003388634882867336 0.0024114467669278383 -0.00910042319446802
v -0.0033886351156979795 0.0024124160408973694 -0.0036004239227622743
v -0.003784067695960402 0.001726536895148456 -0.00910030212253332
v -0.0037840679287910457 0.0017275061691179872 -0.0036003033164888616
v -0.00404273485764861 0.0009791679913178086 -0.009100170806050299
v -0.0040427353233098975 0.0009801372652873397 -0.0036001715343445535
v -0.004155286587774753 0.00019635206263046712 -0.009100032970309256
v -0.00415528705343604 0.00019732132204808295 -0.0036000336986035104
v -0.004117656033486127 -0.0005936180241405964 -0.009099893271923063
v -0.004117656499147414 -0.0005926487501710653 -0.0035998944658786054
v -0.003931201994419097 -0.0013621905818581581 -0.009099758230149744
v -0.003931202460080384 -0.001361221307888627 -0.003599758958443999
v -0.003602664219215512 -0.0020815874449908733 -0.009099631570279597
v -0.0036026644520461555 -0.0020806181710213423 -0.0035996320657432075
v -0.003143917070701718 -0.002725807949900627 -0.009099517948925493
v -0.0031439173035323616 -0.002724838675931096 -0.003599518677219748
v -0.0026499992236495014 -0.0032068428117781878 -0.0007494349847547709
v -0.0026581189595162864 -0.003200115403160453 -0.0007494361489079892
v -0.0026581187266856428 -0.0032006176188588142 -0.0035994348581880327
v -0.002571540186181664 -0.0032715676352381706 -0.009099421091377733
v -0.0019062213832512496 -0.0036991422530263662 -0.00909934565424919
v -0.0020718530286103483 -0.0036071811337023973 0.0009028832428157328
v -0.00224383408203721 -0.0035028380807489157 0.0006604770896956323
v -0.002387566957622766 -0.003406541422009468 0.00040039207669906313
v -0.0024915898684412237 -0.003331258660182357 0.0001530699082650244
v -0.0025714270304888483 -0.0032698381692171097 -0.0001184828288387507
v -0.002583558205515146 -0.003260505385696888 -0.00015974484267644581
v -0.0026330871041864152 -0.0032206913456320763 -0.0004505199613049626
v -0.001172007294371724 -0.003991186618804932 0.0016274442896246908
v -0.001421047607436776 -0.003909480758011341 0.0014874548651278017
v -0.0011720067122951148 -0.003993077203631401 -0.009099294431507586
v -0.0016522477380931375 -0.0038175603840500116 0.0013225257862359283
v -0.0019062219653278587 -0.0036973461974412203 0.001091524609364569
v -0.0005472819902934133 -0.004123902879655361 -0.00043571565765887493
v -0.0003954330459237098 -0.004141247831285 -0.0005768796545453369
v -0.0003954325802624225 -0.004142749588936567 -0.009099267423152922
v -0.0003037185524590313 -0.004148992244154215 -0.0006299468805082141
v -0.0006999998586252331 -0.00410066545009613 4.5105505819265085e-07
v -0.0006824494339525699 -0.004103650338947773 -0.00015504105249419806
v -0.0006307347794063388 -0.004111942835152149 -0.0003028758219443261
v -0.0006824494339525699 -0.004103595390915871 0.00015648809494450686
v -0.0006306050927378236 -0.004111855290830135 0.00030459492700174445
v -0.0005472819902934133 -0.00412374921143055 0.0004371698596514761
v -0.00039543316233903164 -0.004140816163271666 0.0018710598815232513
v -0.0005896805087104439 -0.004117653705179691 0.0018342843977734444
v -0.00039543310413137073 -0.004141043871641159 0.0005783389206044375
v -0.0008772675064392387 -0.004066122230142355 0.001751296338625252
v -0.0011492577614262698 -0.003996971063315868 0.0016370035009458659
v -0.0003037186106666922 -0.004148769658058882 0.0006314089405350386
v -0.00015614411677233872 -0.0041569313034415245 0.000683095073327422
v -1.4025398897832273e-10 -0.004159647971391678 0.0019007322844117878
v -7.514500827143776e-11 -0.004159859381616116 0.0007007329841144382
v 0.000395432929508388 -0.004140816163271666 0.0018710598815232513
v 0.00015590498514939097 -0.004156940151005983 0.0006831500213593243
v 0.0003037184942513704 -0.004148769658058882 0.0006314089987426995
v 0.0003954329877160489 -0.004141043871641159 0.0005783389788120984
v 0.0005896801594644784 -0.004117653705179691 0.0018342843977734444
v 0.0008777679759077727 -0.004066014662384987 0.0017511204350739715
v 0.000682449317537248 -0.004103595390915871 0.00015648818225599823
v 0.0006999997422099112 -0.00410066545009613 6.467085427175333e-07
v 0.0011717836605384944 -0.003990494646131992 0.001626046374440193
v 0.0011497915256768463 -0.003997640684247017 0.0016382712638005612
v 0.0005472818738780915 -0.00412374921143055 0.000437169917859137
v 0.0006304956041276454 -0.004111872054636478 0.0003048213256988674
v 0.000682449317537248 -0.004103650338947773 -0.0001550409651827067
v 0.0011720076436176894 -0.003993077203631401 -0.009099294431507586
v 0.0014206246705725787 -0.003909633960574865 0.0014877233188599346
v 0.0003954330459237098 -0.004141247831285 -0.0005768795963376759
v 0.0003954335115849971 -0.004142749588936567 -0.009099267423152922
v 0.0005472818738780915 -0.004123902879655361 -0.000435715599451214
v 0.0006305580609478055 -0.004111969843506813 -0.00030324267572723324
v 0.0019062223145738242 -0.0036991422530263662 -0.00909934565424919
v 0.001906221732497215 -0.0036973461974412203 0.0010915247257798908
v 0.0016522475052624939 -0.0038175603840500116 0.0013225259026512501
v 0.002387566957622766 -0.0034065418876707554 0.00040039233863353724
v 0.0022433495614677663 -0.0035031482111662626 0.0006612485158257185
v 0.0020718530286103483 -0.0036071811337023973 0.0009028834756463765
v 0.0025715406518429513 -0.0032699836883693933 -0.00010936488251900299
v 0.0024917151313275094 -0.0033311655279248953 0.00015272464952431616
v 0.0003037185524590313 -0.004148992244154215 -0.0006299468223005532
v 0.00015621464990545062 -0.0041571687906980515 -0.0006816142704337834
v 4.565780253873441e-10 -0.00416158651933074 -0.009099264629185198
v 8.154726893749852e-13 -0.004160106182098389 -0.0006992669659666716
v -0.00015560853353235868 -0.0041571916081011295 -0.0006817521061748265
v 4.926216656819803e-10 -1.5888247162365587e-06 -0.00909999758005142
v 0.0003037186106666922 0.003199902130290866 -0.0006312419427558779
v 6.458504564488264e-11 0.0031998897902667522 -0.0007005640072748064
v -0.0003037185524590313 0.0032001242507249117 0.000630113820079714
v -1.1375437050653579e-11 0.0032001365907490253 0.0006994359428063034
v -7.648442296170897e-11 0.003200348000973463 0.0018994353013113139
v 0.0005472819320857524 0.0032000900246202946 0.0004358792211860418
v 0.0006824493757449089 0.00320004066452384 0.00015520105080213395
v 0.0026499992236495014 0.0031998807098716497 -0.0007505637477152048
v 0.0006824493757449089 0.0031999857164919376 -0.00015632809663657096
v 0.0005472819320857524 0.003199936356395483 -0.00043700629612430925
v -0.0026499992236495014 0.003199881175532937 -0.0007505640387535094
v -0.0003037184942513704 0.003199902130290866 -0.0006312420009635388
v 0.0005896802176721393 0.0032003363594412804 0.0018329947488382457
v 0.0003037185524590313 0.0032001242507249117 0.0006301138782873749
v 0.0011497915256768463 0.003200301667675376 0.001637002686038613
v -0.0005472819320857524 0.003199936356395483 -0.00043700635433197016
v -0.0006824493757449089 0.0031999857164919376 -0.0001563281693961471
v -0.002583558205515146 0.0031999852508306503 -0.000160883369971998
v -0.0006824493757449089 0.00320004066452384 0.0001552009780425578
v -0.0005472819320857524 0.0032000900246202946 0.00043587916297838086
v -0.0020718530286103483 0.0032001722138375044 0.0009016835829243063
v -0.002387566957622766 0.0032000839710235596 0.00039922780706547195
v -0.000589680450502783 0.0032003363594412804 0.0018329947488382457
v -0.00114979175850749 0.003200301667675376 0.0016370025696232913
v -0.0016522477380931375 0.0032002462539821863 0.001321288989856839
v 0.002583558205515146 0.003199984785169363 -0.00016088309348560867
v 0.002387566957622766 0.0032000835053622723 0.00039922806899994606
v 0.0020718530286103483 0.0032001722138375044 0.0009016838157549499
v 0.0016522475052624939 0.0032002462539821863 0.0013212892226874826
v 0.0026499992236495014 -0.00320011586882174 -0.0007494358578696846
v -0.002583558205515146 -0.0032000113278627396 -0.00015975549467839298
v -0.002387566957622766 -0.0031999126076698303 0.00040035566780716175
v -0.0026499992236495014 -0.003200115403160453 -0.0007494361489079892
v -0.0020718530286103483 -0.0031998243648558855 0.0009028114145621656
v -0.0016522477380931375 -0.0031997503247112036 0.0013224168214946983
v -0.00114979175850749 -0.003199694911018014 0.0016381305176764724
v -0.000589680450502783 -0.0031996602192521095 0.001834122580476105
v -1.3193622583340667e-10 -0.003199648577719927 0.0019005631329491732
v -0.0005472819320857524 -0.0031999065540730953 0.0004370070528239011
v -0.0003037186106666922 -0.003199872327968478 0.0006312417099252342
v -6.68272381876278e-11 -0.0031998599879443645 0.0007005637744441627
v 0.0003037184942513704 -0.003199872327968478 0.0006312417681328951
v -0.0006824493757449089 -0.00319995591416955 0.00015632885333616284
v -0.0006824493757449089 -0.0032000108622014523 -0.00015520029410254208
v -0.0005472819320857524 -0.003200060222297907 -0.0004358784644864499
v -0.0003037185524590313 -0.003200094448402524 -0.0006301141111180185
v 0.0006824493757449089 -0.0032000108622014523 -0.00015520022134296593
v 0.002583558205515146 -0.003200011793524027 -0.00015975521819200364
v 0.0006824493757449089 -0.00319995591416955 0.00015632892609573898
v 9.13324450790842e-12 -0.0032001067884266376 -0.000699436175636947
v 0.0003037185524590313 -0.003200094448402524 -0.0006301140529103576
v 0.0005472819320857524 -0.003200060222297907 -0.000435878406278789
v 0.0005472819320857524 -0.0031999065540730953 0.00043700711103156204
v 0.0020718530286103483 -0.0031998243648558855 0.0009028116473928093
v 0.002387566957622766 -0.0031999130733311176 0.00040035592974163586
v 0.0005896802176721393 -0.0031996602192521095 0.001834122580476105
v 0.0011497915256768463 -0.003199694911018014 0.0016381306340917943
v 0.0016522475052624939 -0.0031997503247112036 0.001322417054325342
f 1 2 3
f 3 2 4
f 3 4 5
f 2 6 7
f 4 8 5
f 5 8 9
f 5 9 10
f 10 9 11
f 10 11 12
f 12 11 13
f 12 13 14
f 14 13 15
f 14 15 16
f 16 15 17
f 16 17 18
f 18 17 19
f 18 19 20
f 20 19 21
f 20 21 22
f 22 21 23
f 22 23 24
f 25 26 27
f 28 29 30
f 30 31 32
f 24 23 32
f 32 23 25
f 32 25 30
f 30 25 27
f 30 27 28
f 33 34 35
f 35 36 33
f 33 36 37
f 33 37 25
f 25 37 38
f 25 38 26
f 34 33 39
f 39 33 40
f 39 40 41
f 42 43 40
f 44 45 40
f 40 45 46
f 40 46 42
f 43 47 40
f 40 47 48
f 40 48 41
f 47 49 48
f 48 49 50
f 48 50 51
f 52 53 54
f 52 54 55
f 51 56 48
f 48 56 57
f 48 57 58
f 58 57 59
f 58 59 60
f 60 59 61
f 60 61 62
f 62 61 63
f 63 61 64
f 63 64 65
f 65 64 66
f 66 64 67
f 66 67 54
f 54 67 68
f 54 68 55
f 69 70 71
f 70 72 71
f 71 72 73
f 71 73 74
f 74 75 71
f 71 75 76
f 71 76 77
f 77 76 78
f 77 78 40
f 40 78 79
f 40 79 44
f 80 81 71
f 71 81 82
f 53 69 54
f 54 69 71
f 54 71 83
f 83 71 82
f 84 85 80
f 80 85 86
f 86 87 80
f 80 87 88
f 80 88 81
f 89 90 91
f 91 90 84
f 91 84 92
f 93 94 90
f 90 94 95
f 90 95 84
f 84 95 96
f 84 96 85
f 84 97 92
f 92 97 98
f 92 98 99
f 99 98 100
f 99 100 101
f 101 100 102
f 101 102 103
f 103 102 104
f 103 104 105
f 105 104 106
f 105 106 107
f 107 106 108
f 107 108 109
f 109 108 110
f 109 110 111
f 111 110 112
f 111 112 113
f 114 115 116
f 113 112 116
f 116 112 117
f 116 117 114
f 118 119 120
f 120 121 118
f 118 121 122
f 118 122 117
f 117 122 123
f 117 123 114
f 114 123 124
f 114 124 125
f 126 127 128
f 128 127 129
f 128 129 118
f 118 129 130
f 118 130 119
f 131 128 132
f 132 128 133
f 132 133 134
f 135 126 136
f 136 126 128
f 136 128 137
f 137 128 131
f 135 138 126
f 126 138 139
f 126 139 140
f 141 142 143
f 143 142 144
f 143 144 140
f 140 144 145
f 140 145 126
f 143 146 141
f 141 146 147
f 141 147 148
f 148 147 149
f 148 149 150
f 150 149 151
f 151 152 150
f 150 152 153
f 150 153 154
f 154 153 155
f 156 157 158
f 155 153 159
f 159 153 160
f 159 160 158
f 158 160 161
f 158 161 156
f 157 162 158
f 158 162 163
f 158 163 164
f 165 166 167
f 167 166 163
f 167 163 168
f 168 163 162
f 169 170 163
f 163 170 171
f 163 171 164
f 172 173 169
f 169 173 174
f 169 174 170
f 2 7 4
f 4 7 175
f 4 175 169
f 169 175 176
f 169 176 172
f 165 177 166
f 166 177 178
f 166 178 179
f 179 178 180
f 179 180 133
f 133 180 181
f 133 181 134
f 179 133 182
f 169 163 182
f 182 163 166
f 182 166 179
f 9 8 182
f 182 8 4
f 182 4 169
f 15 13 182
f 182 13 11
f 182 11 9
f 21 19 182
f 182 19 17
f 182 17 15
f 33 25 182
f 182 25 23
f 182 23 21
f 71 77 182
f 182 77 40
f 182 40 33
f 97 84 182
f 182 84 80
f 182 80 71
f 102 100 182
f 182 100 98
f 182 98 97
f 108 106 182
f 182 106 104
f 182 104 102
f 117 112 182
f 182 112 110
f 182 110 108
f 133 128 182
f 182 128 118
f 182 118 117
f 12 14 92
f 99 101 5
f 116 3 113
f 113 3 5
f 99 5 92
f 92 5 10
f 92 10 12
f 32 91 24
f 24 91 92
f 24 92 22
f 22 92 20
f 14 16 92
f 92 16 18
f 92 18 20
f 107 109 5
f 5 109 111
f 5 111 113
f 101 103 5
f 5 103 105
f 5 105 107
f 183 184 32
f 185 186 187
f 188 189 190
f 190 189 191
f 190 191 192
f 89 91 193
f 193 91 32
f 193 32 194
f 194 32 184
f 187 186 195
f 195 186 196
f 195 196 197
f 31 190 32
f 32 190 192
f 32 192 183
f 194 198 193
f 193 198 199
f 193 199 200
f 200 199 201
f 202 203 201
f 201 203 204
f 201 204 200
f 187 205 185
f 185 205 206
f 185 206 202
f 202 206 207
f 202 207 203
f 188 190 196
f 196 190 208
f 196 208 209
f 209 210 196
f 196 210 211
f 196 211 197
f 1 3 212
f 212 3 116
f 213 214 215
f 215 214 216
f 215 216 217
f 217 218 215
f 215 218 219
f 215 219 220
f 221 215 222
f 222 215 220
f 222 220 223
f 223 220 224
f 221 225 215
f 215 225 226
f 215 226 227
f 115 215 116
f 116 215 227
f 116 227 228
f 212 229 230
f 230 229 231
f 228 232 116
f 116 232 233
f 116 233 212
f 212 233 234
f 212 234 229
f 235 236 231
f 231 236 237
f 231 237 230
f 220 238 224
f 224 238 239
f 224 239 235
f 235 239 240
f 235 240 236
f 215 115 114
f 122 121 214
f 2 212 6
f 6 212 230
f 6 230 7
f 7 230 175
f 175 230 176
f 176 230 237
f 176 237 172
f 172 237 173
f 173 237 236
f 173 236 174
f 174 236 170
f 170 236 240
f 170 240 171
f 171 240 164
f 164 240 239
f 164 239 158
f 238 155 239
f 239 155 159
f 239 159 158
f 220 150 238
f 238 150 154
f 238 154 155
f 219 141 220
f 220 141 148
f 220 148 150
f 218 144 219
f 219 144 142
f 219 142 141
f 127 126 218
f 218 126 145
f 218 145 144
f 127 218 129
f 129 218 217
f 129 217 130
f 130 217 216
f 130 216 119
f 214 121 216
f 216 121 120
f 216 120 119
f 122 214 123
f 123 214 213
f 123 213 124
f 124 213 125
f 125 213 215
f 125 215 114
f 212 2 1
f 190 31 30
f 27 26 209
f 90 193 93
f 93 193 200
f 93 200 94
f 94 200 95
f 95 200 204
f 95 204 96
f 96 204 85
f 85 204 203
f 85 203 86
f 86 203 87
f 87 203 207
f 87 207 88
f 88 207 81
f 81 207 206
f 81 206 82
f 205 54 206
f 206 54 83
f 206 83 82
f 62 63 187
f 187 63 65
f 187 65 205
f 205 65 66
f 205 66 54
f 195 60 187
f 187 60 62
f 197 48 195
f 195 48 58
f 195 58 60
f 34 39 197
f 197 39 41
f 197 41 48
f 34 197 35
f 35 197 211
f 35 211 36
f 36 211 210
f 36 210 37
f 209 26 210
f 210 26 38
f 210 38 37
f 27 209 28
f 28 209 208
f 28 208 29
f 29 208 190
f 29 190 30
f 193 90 89
f 135 136 226
f 134 181 228
f 228 181 232
f 134 228 132
f 132 228 227
f 132 227 131
f 226 136 227
f 227 136 137
f 227 137 131
f 135 226 138
f 138 226 225
f 138 225 139
f 139 225 221
f 139 221 140
f 140 221 143
f 143 221 222
f 143 222 146
f 146 222 147
f 147 222 223
f 147 223 149
f 149 223 151
f 151 223 224
f 151 224 152
f 152 224 153
f 153 224 235
f 153 235 160
f 229 157 231
f 231 157 156
f 231 156 235
f 235 156 161
f 235 161 160
f 234 168 229
f 229 168 162
f 229 162 157
f 233 165 234
f 234 165 167
f 234 167 168
f 181 180 232
f 232 180 178
f 232 178 233
f 233 178 177
f 233 177 165
f 47 43 191
f 44 79 183
f 183 79 184
f 44 183 45
f 45 183 192
f 45 192 46
f 191 43 192
f 192 43 42
f 192 42 46
f 47 191 49
f 49 191 189
f 49 189 50
f 50 189 188
f 50 188 51
f 51 188 56
f 56 188 196
f 56 196 57
f 57 196 59
f 59 196 186
f 59 186 61
f 61 186 64
f 64 186 185
f 64 185 67
f 67 185 68
f 68 185 202
f 68 202 55
f 199 69 201
f 201 69 53
f 201 53 202
f 202 53 52
f 202 52 55
f 198 72 199
f 199 72 70
f 199 70 69
f 194 74 198
f 198 74 73
f 198 73 72
f 79 78 184
f 184 78 76
f 184 76 194
f 194 76 75
f 194 75 74
