v 0.0 0.0 0.0023439999204128976
v 9.499999578110876e-05 -0.0003560000041034073 0.00254700006917119
v 0.00018400000408291822 -0.0003190000134054572 0.00254700006917119
v 0.0 -0.00036800000816583644 0.00254700006917119
v 0.0003190000134054572 -0.00018400000408291822 0.00254700006917119
v 0.0003560000041034073 -9.499999578110876e-05 0.00254700006917119
v 0.0002600000007078052 -0.0002600000007078052 0.00254700006917119
v 0.0003560000041034073 9.499999578110876e-05 0.00254700006917119
v 0.0003190000134054572 0.00018400000408291822 0.00254700006917119
v 0.00036800000816583644 0.0 0.00254700006917119
v 0.00018400000408291822 0.0003190000134054572 0.00254700006917119
v 9.499999578110876e-05 0.0003560000041034073 0.00254700006917119
v 0.0002600000007078052 0.0002600000007078052 0.00254700006917119
v -9.499999578110876e-05 0.0003560000041034073 0.00254700006917119
v -0.00018400000408291822 0.0003190000134054572 0.00254700006917119
v 0.0 0.00036800000816583644 0.00254700006917119
v -0.0003190000134054572 0.00018400000408291822 0.00254700006917119
v -0.0003560000041034073 9.499999578110876e-05 0.00254700006917119
v -0.0002600000007078052 0.0002600000007078052 0.00254700006917119
v -0.0003560000041034073 -9.499999578110876e-05 0.00254700006917119
v -0.0003190000134054572 -0.00018400000408291822 0.00254700006917119
v -0.00036800000816583644 0.0 0.00254700006917119
v -0.00018400000408291822 -0.0003190000134054572 0.00254700006917119
v -9.499999578110876e-05 -0.0003560000041034073 0.00254700006917119
v -0.0002600000007078052 -0.0002600000007078052 0.00254700006917119
v 0.0 -0.00036800000816583644 0.002852000063285231
v 9.499999578110876e-05 -0.0003560000041034073 0.002852000063285231
v 0.00018400000408291822 -0.0003190000134054572 0.002852000063285231
v 0.0002600000007078052 -0.0002600000007078052 0.002852000063285231
v 0.0003190000134054572 -0.00018400000408291822 0.002852000063285231
v 0.0003560000041034073 -9.499999578110876e-05 0.002852000063285231
v 0.00036800000816583644 0.0 0.002852000063285231
v 0.0003560000041034073 9.499999578110876e-05 0.002852000063285231
v 0.0003190000134054572 0.00018400000408291822 0.002852000063285231
v 0.0002600000007078052 0.0002600000007078052 0.002852000063285231
v 0.00018400000408291822 0.0003190000134054572 0.002852000063285231
v 9.499999578110876e-05 0.0003560000041034073 0.002852000063285231
v 0.0 0.00036800000816583644 0.002852000063285231
v -9.499999578110876e-05 0.0003560000041034073 0.002852000063285231
v -0.00018400000408291822 0.0003190000134054572 0.002852000063285231
v -0.0002600000007078052 0.0002600000007078052 0.002852000063285231
v -0.0003190000134054572 0.00018400000408291822 0.002852000063285231
v -0.0003560000041034073 9.499999578110876e-05 0.002852000063285231
v -0.00036800000816583644 0.0 0.002852000063285231
v -0.0003560000041034073 -9.499999578110876e-05 0.002852000063285231
v -0.0003190000134054572 -0.00018400000408291822 0.002852000063285231
v -0.0002600000007078052 -0.0002600000007078052 0.002852000063285231
v -0.00018400000408291822 -0.0003190000134054572 0.002852000063285231
v -9.499999578110876e-05 -0.0003560000041034073 0.002852000063285231
v 0.0003089999954681844 -0.0003870000073220582 0.002852000063285231
v 0.0003870000073220582 -0.0003089999954681844 0.002852000063285231
v 0.0004459999909158797 -0.0002149999927496538 0.002852000063285231
v 0.0004830000107176603 -0.0001100000008591451 0.002852000063285231
v 0.0004949999856762589 0.0 0.002852000063285231
v 0.0004830000107176603 0.0001100000008591451 0.002852000063285231
v 0.0004459999909158797 0.0002149999927496538 0.002852000063285231
v 0.0003870000073220582 0.0003089999954681844 0.002852000063285231
v 0.0003089999954681844 0.0003870000073220582 0.002852000063285231
v 0.0002149999927496538 0.0004459999909158797 0.002852000063285231
v 0.0001100000008591451 0.0004830000107176603 0.002852000063285231
v 0.0 0.0004949999856762589 0.002852000063285231
v -0.0001100000008591451 0.0004830000107176603 0.002852000063285231
v -0.0003089999954681844 -0.0003870000073220582 0.002852000063285231
v -0.0002149999927496538 -0.0004459999909158797 0.002852000063285231
v -0.0001100000008591451 -0.0004830000107176603 0.002852000063285231
v 0.0 -0.0004949999856762589 0.002852000063285231
v 0.0001100000008591451 -0.0004830000107176603 0.002852000063285231
v 0.0002149999927496538 -0.0004459999909158797 0.002852000063285231
v -0.0002149999927496538 0.0004459999909158797 0.002852000063285231
v -0.0003089999954681844 0.0003870000073220582 0.002852000063285231
v -0.0003870000073220582 0.0003089999954681844 0.002852000063285231
v -0.0004459999909158797 0.0002149999927496538 0.002852000063285231
v -0.0004830000107176603 0.0001100000008591451 0.002852000063285231
v -0.0004949999856762589 0.0 0.002852000063285231
v -0.0004830000107176603 -0.0001100000008591451 0.002852000063285231
v -0.0004459999909158797 -0.0002149999927496538 0.002852000063285231
v -0.0003870000073220582 -0.0003089999954681844 0.002852000063285231
v -0.00010299999848939481 -0.0004839999892283232 -0.0023799999617040153
v -0.0001100000008591451 -0.0004820000031031669 -0.0023799999617040153
v -0.00020100000256206846 -0.0004520000074990095 -0.0023799999617040153
v -0.00021399999968707567 -0.0004450000124052168 -0.0023799999617040153
v -0.00029100000392645603 -0.00040099999750964354 -0.0023799999617040153
v -0.00030799998785369104 -0.0003859999997075648 -0.0023799999617040153
v -0.00036800000816583644 -0.0003309999883640558 -0.0023799999617040153
v -0.00038499999209307145 -0.00030799998785369104 -0.0023799999617040153
v -0.0004290000069886447 -0.00024799999664537614 -0.0023799999617040153
v -0.00044400000479072343 -0.00021399999968707567 -0.0023799999617040153
v -0.0004710000066552312 -0.00015300000086426738 -0.0023799999617040153
v -0.0004799999878741802 -0.0001100000008591451 -0.0023799999617040153
v -0.0004930000286549331 -5.1999995775986476e-05 -0.0023799999617040153
v -0.0004949999856762589 0.0 -0.0023799999617040153
v -0.0004930000286549331 5.1999995775986476e-05 -0.0023799999617040153
v -0.0004799999878741802 0.0001100000008591451 -0.0023799999617040153
v -0.0004710000066552312 0.00015300000086426738 -0.0023799999617040153
v -0.00044400000479072343 0.00021399999968707567 -0.0023799999617040153
v -0.0004290000069886447 0.00024799999664537614 -0.0023799999617040153
v -0.00038499999209307145 0.00030799998785369104 -0.0023799999617040153
v -0.00036800000816583644 0.0003309999883640558 -0.0023799999617040153
v -0.00030799998785369104 0.0003859999997075648 -0.0023799999617040153
v -0.00029100000392645603 0.00040099999750964354 -0.0023799999617040153
v -0.00021399999968707567 0.0004450000124052168 -0.0023799999617040153
v -0.00020100000256206846 0.0004520000074990095 -0.0023799999617040153
v -0.0001100000008591451 0.0004820000031031669 -0.0023799999617040153
v -0.00010299999848939481 0.0004839999892283232 -0.0023799999617040153
v 0.0 0.0004949999856762589 -0.0023799999617040153
v 0.00021399999968707567 0.0004450000124052168 -0.0023799999617040153
v 0.00020100000256206846 0.0004520000074990095 -0.0023799999617040153
v 0.0001100000008591451 0.0004820000031031669 -0.0023799999617040153
v 0.00010299999848939481 0.0004839999892283232 -0.0023799999617040153
v 0.00036800000816583644 0.0003309999883640558 -0.0023799999617040153
v 0.00030799998785369104 0.0003859999997075648 -0.0023799999617040153
v 0.00029100000392645603 0.00040099999750964354 -0.0023799999617040153
v 0.0004290000069886447 0.00024799999664537614 -0.0023799999617040153
v 0.00038499999209307145 0.00030799998785369104 -0.0023799999617040153
v 0.0004710000066552312 0.00015300000086426738 -0.0023799999617040153
v 0.00044400000479072343 0.00021399999968707567 -0.0023799999617040153
v 0.0004930000286549331 5.1999995775986476e-05 -0.0023799999617040153
v 0.0004799999878741802 0.0001100000008591451 -0.0023799999617040153
v 0.0004930000286549331 -5.1999995775986476e-05 -0.0023799999617040153
v 0.0004930000286549331 0.0 -0.0023799999617040153
v 0.0004710000066552312 -0.00015300000086426738 -0.0023799999617040153
v 0.0004799999878741802 -0.0001100000008591451 -0.0023799999617040153
v 0.0004290000069886447 -0.00024799999664537614 -0.0023799999617040153
v 0.00044400000479072343 -0.00021399999968707567 -0.0023799999617040153
v 0.00036800000816583644 -0.0003309999883640558 -0.0023799999617040153
v 0.00038499999209307145 -0.00030799998785369104 -0.0023799999617040153
v 0.00029100000392645603 -0.00040099999750964354 -0.0023799999617040153
v 0.00030799998785369104 -0.0003859999997075648 -0.0023799999617040153
v 0.00020100000256206846 -0.0004520000074990095 -0.0023799999617040153
v 0.00021399999968707567 -0.0004450000124052168 -0.0023799999617040153
v 0.0 -0.0004949999856762589 -0.0023799999617040153
v 0.00010299999848939481 -0.0004839999892283232 -0.0023799999617040153
v 0.0001100000008591451 -0.0004820000031031669 -0.0023799999617040153
v -0.0002289999974891544 0.0005140000139363111 -0.002419000025838613
v -0.00017499999376013878 0.0005360000068321825 -0.002419000025838613
v -0.0001170000032288954 0.0005499999970197679 -0.002419000025838613
v -9.499999578110876e-05 0.0005559999844990672 -0.002419000025838613
v -1.2999998943996619e-05 0.0005629999795928599 -0.002419000025838613
v -0.0002509999903850258 0.0005050000036135317 -0.002419000025838613
v -0.00032200000714510685 0.0004630000039469452 -0.002419000025838613
v -0.0003309999883640558 0.00045500000123865913 -0.002419000025838613
v -0.0003859999997075648 0.0004109999863430859 -0.002419000025838613
v -0.000418000010540709 0.0003760000108741225 -0.002419000025838613
v -0.0004419999895617367 0.00034999998752027755 -0.002419000025838613
v -0.00048799999058246623 0.0002819999936036766 -0.002419000025838613
v -0.000523999973665923 0.00020799999765586113 -0.002419000025838613
v -0.0005349999992176891 0.00017400000069756064 -0.002419000025838613
v -0.0005489999894052745 0.0001300000003539026 -0.002419000025838613
v -0.0005600000149570407 5.899999814573677e-05 -0.002419000025838613
v -0.0005619999719783665 4.800000169780107e-05 -0.002419000025838613
v -0.0005629999795928599 -3.4000000596279285e-05 -0.002419000025838613
v -0.0005590000073425473 -5.899999814573677e-05 -0.002419000025838613
v -0.0005520000122487546 -0.00011600000289035964 -0.002419000025838613
v -0.0005349999992176891 -0.00017400000069756064 -0.002419000025838613
v -0.0005290000117383898 -0.00019500000053085392 -0.002419000025838613
v -0.0004949999856762589 -0.00026999998954124754 -0.002419000025838613
v -0.0004870000120718033 -0.00028099998598918324 -0.002419000025838613
v -0.00044999999227002274 -0.00033899999107234185 -0.002419000025838613
v -0.000418000010540709 -0.0003760000108741225 -0.002419000025838613
v -0.00039599998854100715 -0.00040099999750964354 -0.002419000025838613
v -0.0003340000112075359 -0.00045399999362416576 -0.002419000025838613
v -0.0003309999883640558 -0.0004560000088531525 -0.002419000025838613
v -0.00026400000206194823 -0.000498000008519739 -0.002419000025838613
v -2.799999856506475e-05 -0.0005629999795928599 -0.002419000025838613
v -0.00010900000052060935 -0.000553000019863248 -0.002419000025838613
v -0.0001170000032288954 -0.0005510000046342612 -0.002419000025838613
v -0.0001889999984996394 -0.0005310000269673766 -0.002419000025838613
v -0.0002289999974891544 -0.0005140000139363111 -0.002419000025838613
v 0.0 -0.0005619999719783665 -0.002419000025838613
v 5.4000000091036795e-05 -0.000561000022571534 -0.002419000025838613
v 0.0001170000032288954 -0.0005499999970197679 -0.002419000025838613
v 0.00013600000238511714 -0.0005469999741762878 -0.002419000025838613
v 0.00021399999968707567 -0.0005220000166445972 -0.002419000025838613
v 0.0002289999974891544 -0.0005140000139363111 -0.002419000025838613
v 0.000287000002572313 -0.0004849999968428166 -0.002419000025838613
v 0.0003309999883640558 -0.00045500000123865913 -0.002419000025838613
v 0.00035499999648891395 -0.00043799998820759367 -0.002419000025838613
v 0.0004149999876972289 -0.0003809999907389284 -0.002419000025838613
v 0.0004189999890513719 -0.0003769999893847854 -0.002419000025838613
v 0.00046599999768659483 -0.00031699999817647045 -0.002419000025838613
v 0.0004870000120718033 -0.00028099998598918324 -0.002419000025838613
v 0.0005070000188425184 -0.00024600001052021986 -0.002419000025838613
v 0.0005360000068321825 -0.00017400000069756064 -0.002419000025838613
v 0.0005380000220611693 -0.00016900000628083947 -0.002419000025838613
v 0.0005569999921135605 -8.899999374989422e-05 -0.002419000025838613
v 0.0005590000073425473 -5.899999814573677e-05 -0.002419000025838613
v 0.0005639999872073532 -7.000000096013538e-06 -0.002419000025838613
v 0.0005600000149570407 5.899999814573677e-05 -0.002419000025838613
v 0.0005590000073425473 7.500000356230886e-05 -0.002419000025838613
v 0.0005419999943114818 0.0001550000015413389 -0.002419000025838613
v 0.0005349999992176891 0.00017400000069756064 -0.002419000025838613
v 0.0005130000063218177 0.00023299999884329742 -0.002419000025838613
v 0.0004870000120718033 0.00028099998598918324 -0.002419000025838613
v 0.0004740000003948809 0.0003049999941140414 -0.002419000025838613
v 0.0004250000056345017 0.0003710000019054861 -0.002419000025838613
v 0.000418000010540709 0.0003769999893847854 -0.002419000025838613
v 0.00036599999293684965 0.0004290000069886447 -0.002419000025838613
v 0.0003300000098533929 0.00045500000123865913 -0.002419000025838613
v 0.00030000001424923545 0.00047699999413453053 -0.002419000025838613
v 0.0002289999974891544 0.0005150000215508045 -0.002419000025838613
v 0.00022699999681208288 0.0005159999709576369 -0.002419000025838613
v 0.00015000000712461772 0.0005430000019259752 -0.002419000025838613
v 0.0001170000032288954 0.0005499999970197679 -0.002419000025838613
v 6.900000153109433e-05 0.0005590000073425473 -0.002419000025838613
v 0.0 0.0005639999872073532 -0.002419000025838613
v -0.0003269999870099128 0.00046999999904073786 -0.0024250000715255733
v -0.0002559999993536622 0.0005130000063218177 -0.0024250000715255733
v -0.00017800000205170366 0.0005450000171549619 -0.0024250000715255733
v -9.699999645818028e-05 0.0005649999948218466 -0.0024250000715255733
v -0.0003919999871868641 0.000418000010540709 -0.0024250000715255733
v -0.0004490000137593598 0.0003560000041034073 -0.0024250000715255733
v -0.0004959999932907523 0.000287000002572313 -0.0024250000715255733
v -0.0005329999839887024 0.00021199999901000416 -0.0024250000715255733
v -0.0005579999997280539 0.00013200000103097412 -0.0024250000715255733
v -0.0005709999823011459 4.899999476037921e-05 -0.0024250000715255733
v -0.0005719999899156393 -3.4999997296836234e-05 -0.0024250000715255733
v -0.000502999988384545 -0.00027399999089539056 -0.0024250000715255733
v -0.0005380000220611693 -0.00019799999427050358 -0.0024250000715255733
v -0.000561000022571534 -0.0001170000032288954 -0.0024250000715255733
v -0.0004579999949783088 -0.00034400000004097825 -0.0024250000715255733
v -0.0004030000127386303 -0.0004070000140927733 -0.0024250000715255733
v -0.00033899999107234185 -0.0004619999963324518 -0.0024250000715255733
v -0.00026900001103058463 -0.0005060000112280251 -0.0024250000715255733
v -0.00019200000679120427 -0.0005399999790824951 -0.0024250000715255733
v -0.00011100000119768086 -0.0005619999719783665 -0.0024250000715255733
v -2.799999856506475e-05 -0.0005719999899156393 -0.0024250000715255733
v 0.00021699999342672532 -0.0005300000193528832 -0.0024250000715255733
v 0.00013800000306218865 -0.0005559999844990672 -0.0024250000715255733
v 5.4999996791593744e-05 -0.0005699999746866525 -0.0024250000715255733
v 0.0002920000115409494 -0.0004930000286549331 -0.0024250000715255733
v 0.0003610000130720437 -0.0004450000124052168 -0.0024250000715255733
v 0.00042200001189485203 -0.0003879999858327211 -0.0024250000715255733
v 0.0005159999709576369 -0.0002500000118743629 -0.0024250000715255733
v 0.0004740000003948809 -0.00032200000714510685 -0.0024250000715255733
v 0.00056600000243634 -9.100000170292334e-05 -0.0024250000715255733
v 0.0005469999741762878 -0.00017200000002048912 -0.0024250000715255733
v 0.0005729999975301326 -7.000000096013538e-06 -0.0024250000715255733
v 0.0005680000176653267 7.599998934892939e-05 -0.0024250000715255733
v 0.0005510000046342612 0.00015799999528098854 -0.0024250000715255733
v 0.00043200000072829436 0.0003769999893847854 -0.0024250000715255733
v 0.0004820000031031669 0.0003100000030826778 -0.0024250000715255733
v 0.0005220000166445972 0.00023700000019744044 -0.0024250000715255733
v 0.00037200000951997947 0.0004360000020824374 -0.0024250000715255733
v 0.0003049999941140414 0.0004849999968428166 -0.0024250000715255733
v 0.0002309999981662259 0.0005249999812804164 -0.0024250000715255733
v 0.000151999993249774 0.000553000019863248 -0.0024250000715255733
v -1.3999999282532375e-05 0.0005729999975301326 -0.0024250000715255733
v 6.999999459367247e-05 0.0005690000252798201 -0.0024250000715255733
v -0.0005140000139363111 -1.2000000424450267e-05 -0.0026090000756084915
v -0.0005220000166445972 -3.1999999919207773e-05 -0.0026090000756084915
v -0.0005140000139363111 0.0 -0.0026090000756084915
v -0.0005210000090301038 4.500000068219379e-05 -0.0026090000756084915
v -0.0005119999987073244 4.400000034365804e-05 -0.0026090000756084915
v -0.0005089999758638443 0.00011999999696854505 -0.0026090000756084915
v -0.0005000000237487258 0.00011800000356743115 -0.0026090000756084915
v -0.00048600000445730995 0.0001929999998537824 -0.0026090000756084915
v -0.0004780000017490239 0.00019000000611413276 -0.0026090000756084915
v -0.0004529999860096724 0.0002619999868329615 -0.0026090000756084915
v -0.0004450000124052168 0.00025700000696815556 -0.0026090000756084915
v -0.00041000000783242296 0.0003250000008847565 -0.0026090000756084915
v -0.0004030000127386303 0.0003190000134054572 -0.0026090000756084915
v -0.0003579999902285636 0.0003809999907389284 -0.0026090000756084915
v -0.0003520000027492643 0.00037399999564513575 -0.0026090000756084915
v -0.0002990000066347421 0.0004299999854993076 -0.0026090000756084915
v -0.0002939999976661057 0.00042200001189485203 -0.0026090000756084915
v -0.00023299999884329742 0.0004689999914262445 -0.0026090000756084915
v -0.0002289999974891544 0.0004600000102072955 -0.0026090000756084915
v -0.00016300000424962494 0.0004970000009052457 -0.0026090000756084915
v -0.00015999999595806005 0.00048799999058246623 -0.0026090000756084915
v -8.800000068731607e-05 0.0005159999709576369 -0.0026090000756084915
v -8.69999930728227e-05 0.0005060000112280251 -0.0026090000756084915
v -1.2000000424450267e-05 0.0005230000242590905 -0.0026090000756084915
v -1.2000000424450267e-05 0.0005140000139363111 -0.0026090000756084915
v 6.399999983841555e-05 0.0005200000014156104 -0.0026090000756084915
v 6.299999949987979e-05 0.0005099999834783376 -0.0026090000756084915
v 0.0001389999961247668 0.0005050000036135317 -0.0026090000756084915
v 0.00013600000238511714 0.0004949999856762589 -0.0026090000756084915
v 0.00021100000594742602 0.0004790000093635173 -0.0026090000756084915
v 0.000207000004593283 0.00046999999904073786 -0.0026090000756084915
v 0.0002779999922495336 0.00044299999717623006 -0.0026090000756084915
v 0.00027300001238472765 0.000434999994467944 -0.0026090000756084915
v 0.0003399999986868352 0.0003980000037699939 -0.0026090000756084915
v 0.0003340000112075359 0.0003910000086762012 -0.0026090000756084915
v 0.00039400000241585087 0.00034400000004097825 -0.0026090000756084915
v 0.0003870000073220582 0.00033800001256167894 -0.0026090000756084915
v 0.0004400000034365804 0.00028300000121817 -0.0026090000756084915
v 0.00043200000072829436 0.0002779999922495336 -0.0026090000756084915
v 0.00047699999413453053 0.00021600000036414718 -0.0026090000756084915
v 0.0004680000129155816 0.00021199999901000416 -0.0026090000756084915
v 0.000502999988384545 0.0001440000050934032 -0.0026090000756084915
v 0.0004939999780617655 0.00014200000441633168 -0.0026090000756084915
v 0.000518999993801117 6.999999459367247e-05 -0.0026090000756084915
v 0.0005089999758638443 6.800000119255857e-05 -0.0026090000756084915
v 0.0005140000139363111 0.0 -0.0026090000756084915
v 0.0005230000242590905 -7.000000096013538e-06 -0.0026090000756084915
v 0.0005130000063218177 -7.000000096013538e-06 -0.0026090000756084915
v 0.000510999991092831 -5.59999971301295e-05 -0.0026090000756084915
v 0.0005169999785721303 -8.29999989946373e-05 -0.0026090000756084915
v 0.0005070000188425184 -8.099999104160817e-05 -0.0026090000756084915
v 0.0005019999807700516 -0.00011100000119768086 -0.0026090000756084915
v 0.0004990000161342324 -0.0001570000022184104 -0.0026090000756084915
v 0.000490000005811453 -0.00015399999392684552 -0.0026090000756084915
v 0.0004710000066552312 -0.00022800000442657625 -0.0026090000756084915
v 0.0004619999963324518 -0.00022400000307243323 -0.0026090000756084915
v 0.00046599999768659483 -0.00021600000036414718 -0.0026090000756084915
v 0.0004870000120718033 -0.00016399999731220308 -0.0026090000756084915
v 0.0004410000110510738 -0.0002650000096764416 -0.0026090000756084915
v 0.00043300000834278773 -0.0002939999976661057 -0.0026090000756084915
v 0.0004239999980200083 -0.0002889999886974693 -0.0026090000756084915
v 0.00041000000783242296 -0.0003100000030826778 -0.0026090000756084915
v 0.00038499999209307145 -0.0003539999888744206 -0.0026090000756084915
v 0.0003779999969992788 -0.00034800000139512127 -0.0026090000756084915
v 0.0003300000098533929 -0.0004070000140927733 -0.0026090000756084915
v 0.00032299998565576976 -0.00039900001138448726 -0.0026090000756084915
v 0.0003340000112075359 -0.0003910000086762012 -0.0026090000756084915
v 0.00037399999564513575 -0.0003520000027492643 -0.0026090000756084915
v 0.00028999999631196266 -0.0004239999980200083 -0.0026090000756084915
v 0.0002669999958015979 -0.00044999999227002274 -0.0026090000756084915
v 0.0002619999868329615 -0.0004410000110510738 -0.0026090000756084915
v 0.00019900000188499695 -0.0004839999892283232 -0.0026090000756084915
v 0.00012599999899975958 -0.0005080000264570118 -0.0026090000756084915
v 0.00014000000373926016 -0.0004939999780617655 -0.0026090000756084915
v 0.0001929999998537824 -0.00047599998652003716 -0.0026090000756084915
v 0.00019500000053085392 -0.00047500000800937425 -0.0026090000756084915
v 0.00024300000222865498 -0.0004529999860096724 -0.0026090000756084915
v 3.1999999919207773e-05 -0.0005130000063218177 -0.0026090000756084915
v 4.999999873689377e-05 -0.000510999991092831 -0.0026090000756084915
v 5.099999907542953e-05 -0.0005210000090301038 -0.0026090000756084915
v 8.69999930728227e-05 -0.0005070000188425184 -0.0026090000756084915
v 0.00012300000526010993 -0.000498000008519739 -0.0026090000756084915
v -2.4000000848900534e-05 -0.0005130000063218177 -0.0026090000756084915
v -2.5999997887993238e-05 -0.0005230000242590905 -0.0026090000756084915
v -7.899999764049427e-05 -0.0005080000264570118 -0.0026090000756084915
v -0.00010199999815085906 -0.0005130000063218177 -0.0026090000756084915
v -9.999999747378754e-05 -0.000502999988384545 -0.0026090000756084915
v -0.00013200000103097412 -0.0004970000009052457 -0.0026090000756084915
v -0.00017499999376013878 -0.0004930000286549331 -0.0026090000756084915
v -0.00017200000002048912 -0.0004839999892283232 -0.0026090000756084915
v -0.0002450000029057265 -0.0004619999963324518 -0.0026090000756084915
v -0.00024100000155158346 -0.00045399999362416576 -0.0026090000756084915
v -0.0002360000071348623 -0.0004569999873638154 -0.0026090000756084915
v -0.00018499999714549636 -0.0004790000093635173 -0.0026090000756084915
v -0.00028300000121817 -0.0004290000069886447 -0.0026090000756084915
v -0.0003100000030826778 -0.00042200001189485203 -0.0026090000756084915
v -0.000303999986499548 -0.000414000009186566 -0.0026090000756084915
v -0.00032799999462440615 -0.00039599998854100715 -0.0026090000756084915
v -0.00036800000816583644 -0.00037200000951997947 -0.0026090000756084915
v -0.0003610000130720437 -0.00036500001442618674 -0.0026090000756084915
v -0.000418000010540709 -0.00031500001205131417 -0.0026090000756084915
v -0.00041000000783242296 -0.0003089999954681844 -0.0026090000756084915
v -0.00040499999886378657 -0.0003159999905619771 -0.0026090000756084915
v -0.00036800000816583644 -0.0003579999902285636 -0.0026090000756084915
v -0.0004360000020824374 -0.0002709999971557409 -0.0026090000756084915
v -0.0004600000102072955 -0.0002500000118743629 -0.0026090000756084915
v -0.0004509999998845161 -0.0002450000029057265 -0.0026090000756084915
v -0.0004630000039469452 -0.00022299999545793986 -0.0026090000756084915
v -0.0004910000134259463 -0.0001809999957913533 -0.0026090000756084915
v -0.0004820000031031669 -0.0001769999944372103 -0.0026090000756084915
v -0.0005119999987073244 -0.00010699999984353783 -0.0026090000756084915
v -0.0005000000237487258 -0.00011899999663000929 -0.0026090000756084915
v -0.0004839999892283232 -0.00017200000002048912 -0.0026090000756084915
v -0.0005119999987073244 -3.099999958067202e-05 -0.0026090000756084915
v -0.0005099999834783376 -6.50000001769513e-05 -0.0026090000756084915
v -0.0005019999807700516 -0.00010499999916646632 -0.0026090000756084915
v 0.0005910000181756915 -7.999999979801943e-06 -0.002441999968141317
v 0.0005859999801032246 7.899999764049427e-05 -0.002441999968141317
v 0.0005680000176653267 0.00016300000424962494 -0.002441999968141317
v 0.0005380000220611693 0.00024399999529123312 -0.002441999968141317
v 0.0004970000009052457 0.0003199999919161201 -0.002441999968141317
v 0.0004450000124052168 0.0003889999934472145 -0.002441999968141317
v 0.00038400001358240854 0.00044999999227002274 -0.002441999968141317
v 0.0003140000044368208 0.0005009999731555582 -0.002441999968141317
v 0.00023799999326001858 0.0005409999866969885 -0.002441999968141317
v 0.0001570000022184104 0.0005699999746866525 -0.002441999968141317
v 7.20000025467016e-05 0.000586999987717718 -0.002441999968141317
v -1.3999999282532375e-05 0.0005910000181756915 -0.002441999968141317
v -9.999999747378754e-05 0.0005830000154674054 -0.002441999968141317
v -0.00018400000408291822 0.0005619999719783665 -0.002441999968141317
v -0.00026400000206194823 0.0005290000117383898 -0.002441999968141317
v -0.00033800001256167894 0.0004849999968428166 -0.002441999968141317
v -0.00040499999886378657 0.000430999993113801 -0.002441999968141317
v -0.0004630000039469452 0.00036700000055134307 -0.002441999968141317
v -0.0005119999987073244 0.0002960000128950924 -0.002441999968141317
v -0.0005489999894052745 0.0002180000010412187 -0.002441999968141317
v -0.0005750000127591194 0.00013600000238511714 -0.002441999968141317
v -0.0005890000029467047 5.099999907542953e-05 -0.002441999968141317
v -0.0005900000105611981 -3.60000012733508e-05 -0.002441999968141317
v -0.000578999985009432 -0.0001209999973070808 -0.002441999968141317
v -0.0005549999768845738 -0.0002039999963017181 -0.002441999968141317
v -0.000518999993801117 -0.00028300000121817 -0.002441999968141317
v -0.0004720000142697246 -0.00035499999648891395 -0.002441999968141317
v -0.00041599999531172227 -0.0004199999966658653 -0.002441999968141317
v -0.00034999998752027755 -0.00047599998652003716 -0.002441999968141317
v -0.0002770000137388707 -0.0005220000166445972 -0.002441999968141317
v -0.00019799999427050358 -0.0005569999921135605 -0.002441999968141317
v -0.00011500000255182388 -0.0005799999926239253 -0.002441999968141317
v -2.900000072258991e-05 -0.0005900000105611981 -0.002441999968141317
v 5.700000110664406e-05 -0.0005879999953322114 -0.002441999968141317
v 0.00014200000441633168 -0.000574000005144626 -0.002441999968141317
v 0.00022400000307243323 -0.0005469999741762878 -0.002441999968141317
v 0.00030200000037439173 -0.0005089999758638443 -0.002441999968141317
v 0.00037200000951997947 -0.00045900000259280216 -0.002441999968141317
v 0.000434999994467944 -0.0003999999898951502 -0.002441999968141317
v 0.0004889999981969596 -0.0003319999959785492 -0.002441999968141317
v 0.000531999976374209 -0.00025799998547881847 -0.002441999968141317
v 0.0005639999872073532 -0.00017800000205170366 -0.002441999968141317
v 0.0005840000230818988 -9.400000271853062e-05 -0.002441999968141317
v 0.0006050000083632768 -7.999999979801943e-06 -0.0024619998876005407
v 0.0005990000208839775 7.999999797903003e-05 -0.0024619998876005407
v 0.0005810000002384187 0.00016700000560376796 -0.0024619998876005407
v 0.0005510000046342612 0.0002500000118743629 -0.0024619998876005407
v 0.0005089999758638443 0.0003269999870099128 -0.0024619998876005407
v 0.00045500000123865913 0.0003980000037699939 -0.0024619998876005407
v 0.0003929999948013575 0.0004600000102072955 -0.0024619998876005407
v 0.00032200000714510685 0.0005119999987073244 -0.0024619998876005407
v 0.00024399999529123312 0.000553000019863248 -0.0024619998876005407
v 0.00015999999595806005 0.0005830000154674054 -0.0024619998876005407
v 7.40000032237731e-05 0.0006000000284984709 -0.0024619998876005407
v -1.3999999282532375e-05 0.0006050000083632768 -0.0024619998876005407
v -0.00010199999815085906 0.0005959999980404974 -0.0024619998876005407
v -0.00018800000543706124 0.0005750000127591194 -0.0024619998876005407
v -0.00026999998954124754 0.0005409999866969885 -0.0024619998876005407
v -0.00034599998616613453 0.0004959999932907523 -0.0024619998876005407
v -0.000414000009186566 0.0004410000110510738 -0.0024619998876005407
v -0.0004740000003948809 0.0003760000108741225 -0.0024619998876005407
v -0.000523999973665923 0.0003030000079888851 -0.0024619998876005407
v -0.0005619999719783665 0.00022299999545793986 -0.0024619998876005407
v -0.0005890000029467047 0.0001389999961247668 -0.0024619998876005407
v -0.0006029999931342901 5.1999995775986476e-05 -0.0024619998876005407
v -0.0006040000007487835 -3.60000012733508e-05 -0.0024619998876005407
v -0.0005920000257901848 -0.00012399999832268807 -0.0024619998876005407
v -0.0005680000176653267 -0.0002090000052703545 -0.0024619998876005407
v -0.0005310000269673766 -0.0002889999886974693 -0.0024619998876005407
v -0.0004830000107176603 -0.0003629999991972 -0.0024619998876005407
v -0.0004250000056345017 -0.0004299999854993076 -0.0024619998876005407
v -0.0003579999902285636 -0.0004870000120718033 -0.0024619998876005407
v -0.00028300000121817 -0.0005339999916031958 -0.0024619998876005407
v -0.00020300000323913997 -0.0005699999746866525 -0.0024619998876005407
v -0.0001170000032288954 -0.0005929999751970173 -0.0024619998876005407
v -2.999999924213626e-05 -0.0006040000007487835 -0.0024619998876005407
v 5.800000144517982e-05 -0.0006019999855197967 -0.0024619998876005407
v 0.00014499999815598133 -0.000586999987717718 -0.0024619998876005407
v 0.0002289999974891544 -0.0005600000149570407 -0.0024619998876005407
v 0.00030799998785369104 -0.0005200000014156104 -0.0024619998876005407
v 0.0003809999907389284 -0.00046999999904073786 -0.0024619998876005407
v 0.0004450000124052168 -0.0004090000002179296 -0.0024619998876005407
v 0.0005000000237487258 -0.0003399999986868352 -0.0024619998876005407
v 0.0005440000095404686 -0.00026400000206194823 -0.0024619998876005407
v 0.0005770000279881061 -0.00018200000340584668 -0.0024619998876005407
v 0.0005970000056549908 -9.600000339560213e-05 -0.0024619998876005407
v 0.0006130000110715629 -7.999999979801943e-06 -0.002485000062733888
v 0.000607999972999096 8.199999865610154e-05 -0.002485000062733888
v 0.0005890000029467047 0.00016900000628083947 -0.002485000062733888
v 0.0005579999997280539 0.00025300000561401253 -0.002485000062733888
v 0.0005150000215508045 0.0003319999959785492 -0.002485000062733888
v 0.0004619999963324518 0.0004030000127386303 -0.002485000062733888
v 0.0003980000037699939 0.00046599999768659483 -0.002485000062733888
v 0.00032600000849924987 0.000518999993801117 -0.002485000062733888
v 0.00024699998903088277 0.000561000022571534 -0.002485000062733888
v 0.00016300000424962494 0.0005910000181756915 -0.002485000062733888
v 7.500000356230886e-05 0.000607999972999096 -0.002485000062733888
v -1.499999962106813e-05 0.0006130000110715629 -0.002485000062733888
v -0.00010399999882793057 0.0006040000007487835 -0.002485000062733888
v -0.0001909999991767109 0.0005830000154674054 -0.002485000062733888
v -0.00027300001238472765 0.0005489999894052745 -0.002485000062733888
v -0.00034999998752027755 0.000502999988384545 -0.002485000062733888
v -0.0004199999966658653 0.0004469999985303731 -0.002485000062733888
v -0.0004799999878741802 0.0003809999907389284 -0.002485000062733888
v -0.0005310000269673766 0.0003070000093430281 -0.002485000062733888
v -0.0005699999746866525 0.00022600000374950474 -0.002485000062733888
v -0.0005970000056549908 0.0001409999968018383 -0.002485000062733888
v -0.0006109999958425761 5.299999975250104e-05 -0.002485000062733888
v -0.0006120000034570695 -3.700000161188655e-05 -0.002485000062733888
v -0.0006000000284984709 -0.00012599999899975958 -0.002485000062733888
v -0.0005750000127591194 -0.00021199999901000416 -0.002485000062733888
v -0.0005380000220611693 -0.0002929999900516123 -0.002485000062733888
v -0.000490000005811453 -0.00036800000816583644 -0.002485000062733888
v -0.000430999993113801 -0.0004360000020824374 -0.002485000062733888
v -0.0003629999991972 -0.0004939999780617655 -0.002485000062733888
v -0.000287000002572313 -0.0005419999943114818 -0.002485000062733888
v -0.00020500000391621148 -0.0005779999773949386 -0.002485000062733888
v -0.00011899999663000929 -0.0006009999779053033 -0.002485000062733888
v -2.999999924213626e-05 -0.0006120000034570695 -0.002485000062733888
v 5.899999814573677e-05 -0.0006099999882280828 -0.002485000062733888
v 0.00014699999883305284 -0.000594999990426004 -0.002485000062733888
v 0.00023299999884329742 -0.0005670000100508333 -0.002485000062733888
v 0.00031299999682232743 -0.0005269999965094031 -0.002485000062733888
v 0.0003859999997075648 -0.00047599998652003716 -0.002485000062733888
v 0.0004509999998845161 -0.0004149999876972289 -0.002485000062733888
v 0.0005070000188425184 -0.0003450000076554716 -0.002485000062733888
v 0.0005520000122487546 -0.0002669999958015979 -0.002485000062733888
v 0.0005849999724887313 -0.00018400000408291822 -0.002485000062733888
v 0.0006050000083632768 -9.699999645818028e-05 -0.002485000062733888
v 0.0006150000263005496 -7.999999979801943e-06 -0.002510000020265579
v 0.0006099999882280828 8.199999865610154e-05 -0.002510000020265579
v 0.0005920000257901848 0.0001699999993434176 -0.002510000020265579
v 0.000561000022571534 0.0002540000132285059 -0.002510000020265579
v 0.0005179999861866237 0.00033300000359304255 -0.002510000020265579
v 0.00046400001156143855 0.00040499999886378657 -0.002510000020265579
v 0.0003999999898951502 0.0004680000129155816 -0.002510000020265579
v 0.0003269999870099128 0.0005210000090301038 -0.002510000020265579
v 0.00024799999664537614 0.0005629999795928599 -0.002510000020265579
v 0.00016300000424962494 0.0005929999751970173 -0.002510000020265579
v 7.500000356230886e-05 0.0006109999958425761 -0.002510000020265579
v -1.499999962106813e-05 0.0006150000263005496 -0.002510000020265579
v -0.00010399999882793057 0.0006070000235922636 -0.002510000020265579
v -0.0001909999991767109 0.0005849999724887313 -0.002510000020265579
v -0.00027399999089539056 0.0005510000046342612 -0.002510000020265579
v -0.0003520000027492643 0.0005050000036135317 -0.002510000020265579
v -0.00042100000428035866 0.00044800000614486646 -0.002510000020265579
v -0.0004820000031031669 0.0003819999983534218 -0.002510000020265579
v -0.0005329999839887024 0.00030799998785369104 -0.002510000020265579
v -0.0005719999899156393 0.00022699999681208288 -0.002510000020265579
v -0.0005990000208839775 0.0001409999968018383 -0.002510000020265579
v -0.0006130000110715629 5.299999975250104e-05 -0.002510000020265579
v -0.0006140000186860562 -3.700000161188655e-05 -0.002510000020265579
v -0.0006019999855197967 -0.00012599999899975958 -0.002510000020265579
v -0.0005779999773949386 -0.00021199999901000416 -0.002510000020265579
v -0.0005399999790824951 -0.0002939999976661057 -0.002510000020265579
v -0.0004920000210404397 -0.0003699999942909927 -0.002510000020265579
v -0.00043300000834278773 -0.00043799998820759367 -0.002510000020265579
v -0.00036400000681169336 -0.0004959999932907523 -0.002510000020265579
v -0.0002880000101868064 -0.0005440000095404686 -0.002510000020265579
v -0.00020599999697878962 -0.0005799999926239253 -0.002510000020265579
v -0.00011899999663000929 -0.0006040000007487835 -0.002510000020265579
v -2.999999924213626e-05 -0.0006150000263005496 -0.002510000020265579
v 5.899999814573677e-05 -0.0006130000110715629 -0.002510000020265579
v 0.0001480000064475462 -0.0005970000056549908 -0.002510000020265579
v 0.00023299999884329742 -0.0005690000252798201 -0.002510000020265579
v 0.0003140000044368208 -0.0005290000117383898 -0.002510000020265579
v 0.0003879999858327211 -0.0004780000017490239 -0.002510000020265579
v 0.0004529999860096724 -0.00041599999531172227 -0.002510000020265579
v 0.0005089999758638443 -0.00034599998616613453 -0.002510000020265579
v 0.0005540000274777413 -0.00026800000341609126 -0.002510000020265579
v 0.000586999987717718 -0.00018499999714549636 -0.002510000020265579
v 0.000607999972999096 -9.699999645818028e-05 -0.002510000020265579
v 0.0006120000034570695 -7.999999979801943e-06 -0.002533999970182776
v 0.0006060000159777702 8.099999104160817e-05 -0.002533999970182776
v 0.0005879999953322114 0.00016900000628083947 -0.002533999970182776
v 0.0005569999921135605 0.00025300000561401253 -0.002533999970182776
v 0.0005150000215508045 0.0003309999883640558 -0.002533999970182776
v 0.00046099998871795844 0.0004020000051241369 -0.002533999970182776
v 0.0003969999961555005 0.00046499999007210146 -0.002533999970182776
v 0.0003250000008847565 0.0005179999861866237 -0.002533999970182776
v 0.00024600001052021986 0.0005600000149570407 -0.002533999970182776
v 0.00016199999663513157 0.0005900000105611981 -0.002533999970182776
v 7.500000356230886e-05 0.0006070000235922636 -0.002533999970182776
v -1.499999962106813e-05 0.0006120000034570695 -0.002533999970182776
v -0.00010299999848939481 0.0006029999931342901 -0.002533999970182776
v -0.00019000000611413276 0.0005820000078529121 -0.002533999970182776
v -0.00027300001238472765 0.0005479999817907811 -0.002533999970182776
v -0.00034999998752027755 0.0005019999807700516 -0.002533999970182776
v -0.0004189999890513719 0.0004459999909158797 -0.002533999970182776
v -0.0004799999878741802 0.0003800000122282655 -0.002533999970182776
v -0.0005300000193528832 0.00030600000172853475 -0.002533999970182776
v -0.0005690000252798201 0.00022600000374950474 -0.002533999970182776
v -0.0005959999980404974 0.0001409999968018383 -0.002533999970182776
v -0.0006099999882280828 5.1999995775986476e-05 -0.002533999970182776
v -0.0006109999958425761 -3.700000161188655e-05 -0.002533999970182776
v -0.0005990000208839775 -0.00012500000593718144 -0.002533999970182776
v -0.000574000005144626 -0.00021100000594742602 -0.002533999970182776
v -0.0005370000144466759 -0.0002929999900516123 -0.002533999970182776
v -0.0004889999981969596 -0.00036800000816583644 -0.002533999970182776
v -0.0004299999854993076 -0.000434999994467944 -0.002533999970182776
v -0.0003619999915827066 -0.0004930000286549331 -0.002533999970182776
v -0.000287000002572313 -0.0005409999866969885 -0.002533999970182776
v -0.00020500000391621148 -0.0005770000279881061 -0.002533999970182776
v -0.00011899999663000929 -0.0006000000284984709 -0.002533999970182776
v -2.999999924213626e-05 -0.0006109999958425761 -0.002533999970182776
v 5.899999814573677e-05 -0.0006089999806135894 -0.002533999970182776
v 0.00014699999883305284 -0.0005939999828115107 -0.002533999970182776
v 0.00023200000578071927 -0.00056600000243634 -0.002533999970182776
v 0.00031199998920783406 -0.0005259999888949097 -0.002533999970182776
v 0.00038499999209307145 -0.00047500000800937425 -0.002533999970182776
v 0.00044999999227002274 -0.000414000009186566 -0.002533999970182776
v 0.0005060000112280251 -0.00034400000004097825 -0.002533999970182776
v 0.0005510000046342612 -0.0002669999958015979 -0.002533999970182776
v 0.0005840000230818988 -0.00018400000408291822 -0.002533999970182776
v 0.0006040000007487835 -9.699999645818028e-05 -0.002533999970182776
v 0.0006029999931342901 -7.999999979801943e-06 -0.00255699991248548
v 0.0005970000056549908 7.999999797903003e-05 -0.00255699991248548
v 0.000578999985009432 0.0001659999979892746 -0.00255699991248548
v 0.0005489999894052745 0.0002490000042598695 -0.00255699991248548
v 0.0005070000188425184 0.00032600000849924987 -0.00255699991248548
v 0.00045399999362416576 0.00039599998854100715 -0.00255699991248548
v 0.0003910000086762012 0.0004579999949783088 -0.00255699991248548
v 0.0003199999919161201 0.0005099999834783376 -0.00255699991248548
v 0.00024300000222865498 0.0005520000122487546 -0.00255699991248548
v 0.00015999999595806005 0.0005810000002384187 -0.00255699991248548
v 7.40000032237731e-05 0.0005980000132694842 -0.00255699991248548
v -1.3999999282532375e-05 0.0006029999931342901 -0.00255699991248548
v -0.00010199999815085906 0.0005939999828115107 -0.00255699991248548
v -0.00018699999782256787 0.0005729999975301326 -0.00255699991248548
v -0.00026900001103058463 0.0005389999714680017 -0.00255699991248548
v -0.00034400000004097825 0.0004949999856762589 -0.00255699991248548
v -0.0004130000015720726 0.00043899999582208704 -0.00255699991248548
v -0.0004720000142697246 0.00037399999564513575 -0.00255699991248548
v -0.0005220000166445972 0.00030200000037439173 -0.00255699991248548
v -0.0005600000149570407 0.00022200000239536172 -0.00255699991248548
v -0.000586999987717718 0.0001389999961247668 -0.00255699991248548
v -0.0006000000284984709 5.1999995775986476e-05 -0.00255699991248548
v -0.0006019999855197967 -3.60000012733508e-05 -0.00255699991248548
v -0.0005900000105611981 -0.00012399999832268807 -0.00255699991248548
v -0.00056600000243634 -0.00020799999765586113 -0.00255699991248548
v -0.0005290000117383898 -0.0002880000101868064 -0.00255699991248548
v -0.0004820000031031669 -0.0003619999915827066 -0.00255699991248548
v -0.0004239999980200083 -0.00042799999937415134 -0.00255699991248548
v -0.0003570000117179007 -0.00048600000445730995 -0.00255699991248548
v -0.0002819999936036766 -0.000531999976374209 -0.00255699991248548
v -0.0002019999956246466 -0.0005680000176653267 -0.00255699991248548
v -0.0001170000032288954 -0.0005910000181756915 -0.00255699991248548
v -2.999999924213626e-05 -0.0006019999855197967 -0.00255699991248548
v 5.800000144517982e-05 -0.0006000000284984709 -0.00255699991248548
v 0.00014499999815598133 -0.0005849999724887313 -0.00255699991248548
v 0.0002289999974891544 -0.0005579999997280539 -0.00255699991248548
v 0.0003070000093430281 -0.0005179999861866237 -0.00255699991248548
v 0.0003800000122282655 -0.0004680000129155816 -0.00255699991248548
v 0.00044400000479072343 -0.0004079999926034362 -0.00255699991248548
v 0.000498000008519739 -0.00033899999107234185 -0.00255699991248548
v 0.0005419999943114818 -0.00026299999444745486 -0.00255699991248548
v 0.0005750000127591194 -0.0001809999957913533 -0.00255699991248548
v 0.000594999990426004 -9.499999578110876e-05 -0.00255699991248548
v 0.0005879999953322114 -7.999999979801943e-06 -0.0025770000647753473
v 0.0005830000154674054 7.799999730195851e-05 -0.0025770000647753473
v 0.0005649999948218466 0.00016199999663513157 -0.0025770000647753473
v 0.0005360000068321825 0.00024300000222865498 -0.0025770000647753473
v 0.0004949999856762589 0.0003180000057909638 -0.0025770000647753473
v 0.00044299999717623006 0.0003870000073220582 -0.0025770000647753473
v 0.0003819999983534218 0.0004469999985303731 -0.0025770000647753473
v 0.00031299999682232743 0.000498000008519739 -0.0025770000647753473
v 0.00023700000019744044 0.0005380000220611693 -0.0025770000647753473
v 0.00015599999460391703 0.0005670000100508333 -0.0025770000647753473
v 7.20000025467016e-05 0.0005840000230818988 -0.0025770000647753473
v -1.3999999282532375e-05 0.0005879999953322114 -0.0025770000647753473
v -9.899999713525179e-05 0.0005799999926239253 -0.0025770000647753473
v -0.00018299999646842482 0.0005590000073425473 -0.0025770000647753473
v -0.0002619999868329615 0.0005269999965094031 -0.0025770000647753473
v -0.0003359999973326922 0.0004830000107176603 -0.0025770000647753473
v -0.0004030000127386303 0.0004290000069886447 -0.0025770000647753473
v -0.00046099998871795844 0.00036500001442618674 -0.0025770000647753473
v -0.0005089999758638443 0.0002939999976661057 -0.0025770000647753473
v -0.0005469999741762878 0.00021699999342672532 -0.0025770000647753473
v -0.0005719999899156393 0.00013499999477062377 -0.0025770000647753473
v -0.0005859999801032246 4.999999873689377e-05 -0.0025770000647753473
v -0.000586999987717718 -3.4999997296836234e-05 -0.0025770000647753473
v -0.0005760000203736128 -0.0001209999973070808 -0.0025770000647753473
v -0.0005520000122487546 -0.00020300000323913997 -0.0025770000647753473
v -0.0005169999785721303 -0.00028099998598918324 -0.0025770000647753473
v -0.00046999999904073786 -0.0003539999888744206 -0.0025770000647753473
v -0.000414000009186566 -0.000418000010540709 -0.0025770000647753473
v -0.00034800000139512127 -0.0004740000003948809 -0.0025770000647753473
v -0.0002760000061243773 -0.0005200000014156104 -0.0025770000647753473
v -0.00019700000120792543 -0.0005540000274777413 -0.0025770000647753473
v -0.00011400000221328813 -0.0005770000279881061 -0.0025770000647753473
v -2.900000072258991e-05 -0.0005879999953322114 -0.0025770000647753473
v 5.700000110664406e-05 -0.0005849999724887313 -0.0025770000647753473
v 0.00014200000441633168 -0.0005709999823011459 -0.0025770000647753473
v 0.00022299999545793986 -0.0005440000095404686 -0.0025770000647753473
v 0.00030000001424923545 -0.0005060000112280251 -0.0025770000647753473
v 0.0003699999942909927 -0.0004569999873638154 -0.0025770000647753473
v 0.00043300000834278773 -0.0003980000037699939 -0.0025770000647753473
v 0.00048600000445730995 -0.0003309999883640558 -0.0025770000647753473
v 0.0005290000117383898 -0.0002559999993536622 -0.0025770000647753473
v 0.000561000022571534 -0.0001769999944372103 -0.0025770000647753473
v 0.0005810000002384187 -9.300000237999487e-05 -0.0025770000647753473
v 0.0005690000252798201 -7.000000096013538e-06 -0.002591999946162104
v 0.0005639999872073532 7.599998934892939e-05 -0.002591999946162104
v 0.0005469999741762878 0.0001570000022184104 -0.002591999946162104
v 0.000518999993801117 0.00023499999952036893 -0.002591999946162104
v 0.0004790000093635173 0.00030799998785369104 -0.002591999946162104
v 0.0004290000069886447 0.0003750000032596291 -0.002591999946162104
v 0.0003699999942909927 0.00043300000834278773 -0.002591999946162104
v 0.0003030000079888851 0.0004820000031031669 -0.002591999946162104
v 0.0002289999974891544 0.0005210000090301038 -0.002591999946162104
v 0.00015100000018719586 0.0005489999894052745 -0.002591999946162104
v 6.900000153109433e-05 0.0005649999948218466 -0.002591999946162104
v -1.3999999282532375e-05 0.0005690000252798201 -0.002591999946162104
v -9.600000339560213e-05 0.000561000022571534 -0.002591999946162104
v -0.0001769999944372103 0.0005409999866969885 -0.002591999946162104
v -0.0002540000132285059 0.0005099999834783376 -0.002591999946162104
v -0.0003250000008847565 0.0004670000053010882 -0.002591999946162104
v -0.00039000000106170784 0.0004149999876972289 -0.002591999946162104
v -0.0004459999909158797 0.0003539999888744206 -0.002591999946162104
v -0.0004930000286549331 0.00028499998734332627 -0.002591999946162104
v -0.0005290000117383898 0.00020999999833293265 -0.002591999946162104
v -0.0005540000274777413 0.00013099999341648075 -0.002591999946162104
v -0.0005670000100508333 4.899999476037921e-05 -0.002591999946162104
v -0.0005680000176653267 -3.4000000596279285e-05 -0.002591999946162104
v -0.0005569999921135605 -0.0001170000032288954 -0.002591999946162104
v -0.0005339999916031958 -0.00019700000120792543 -0.002591999946162104
v -0.0005000000237487258 -0.0002720000047702343 -0.002591999946162104
v -0.00045500000123865913 -0.00034200001391582196 -0.002591999946162104
v -0.0003999999898951502 -0.00040499999886378657 -0.002591999946162104
v -0.00033700000494718557 -0.00045900000259280216 -0.002591999946162104
v -0.0002669999958015979 -0.000502999988384545 -0.002591999946162104
v -0.0001909999991767109 -0.0005370000144466759 -0.002591999946162104
v -0.00011100000119768086 -0.0005590000073425473 -0.002591999946162104
v -2.799999856506475e-05 -0.0005690000252798201 -0.002591999946162104
v 5.4999996791593744e-05 -0.0005670000100508333 -0.002591999946162104
v 0.00013699999544769528 -0.000553000019863248 -0.002591999946162104
v 0.00021600000036414718 -0.0005269999965094031 -0.002591999946162104
v 0.00028999999631196266 -0.000490000005811453 -0.002591999946162104
v 0.00035899999784305697 -0.0004419999895617367 -0.002591999946162104
v 0.0004189999890513719 -0.00038499999209307145 -0.002591999946162104
v 0.0004710000066552312 -0.0003199999919161201 -0.002591999946162104
v 0.0005119999987073244 -0.00024799999664537614 -0.002591999946162104
v 0.0005430000019259752 -0.00017100000695791098 -0.002591999946162104
v 0.0005619999719783665 -9.000000136438759e-05 -0.002591999946162104
v 0.0005469999741762878 -7.000000096013538e-06 -0.0026030000299215312
v 0.0005430000019259752 7.300000288523735e-05 -0.0026030000299215312
v 0.0005259999888949097 0.00015100000018719586 -0.0026030000299215312
v 0.0004990000161342324 0.00022600000374950474 -0.0026030000299215312
v 0.0004600000102072955 0.0002960000128950924 -0.0026030000299215312
v 0.00041199999395757924 0.00036000000545755034 -0.0026030000299215312
v 0.0003560000041034073 0.00041599999531172227 -0.0026030000299215312
v 0.00029100000392645603 0.00046400001156143855 -0.0026030000299215312
v 0.00022099999478086835 0.0005009999731555582 -0.0026030000299215312
v 0.00014499999815598133 0.0005280000041238965 -0.0026030000299215312
v 6.700000085402281e-05 0.0005430000019259752 -0.0026030000299215312
v -1.2999998943996619e-05 0.0005469999741762878 -0.0026030000299215312
v -9.300000237999487e-05 0.0005399999790824951 -0.0026030000299215312
v -0.0001699999993434176 0.0005200000014156104 -0.0026030000299215312
v -0.00024399999529123312 0.000490000005811453 -0.0026030000299215312
v -0.00031299999682232743 0.0004490000137593598 -0.0026030000299215312
v -0.0003750000032596291 0.00039900001138448726 -0.0026030000299215312
v -0.0004290000069886447 0.0003399999986868352 -0.0026030000299215312
v -0.0004740000003948809 0.00027399999089539056 -0.0026030000299215312
v -0.0005089999758638443 0.0002019999956246466 -0.0026030000299215312
v -0.0005329999839887024 0.00012599999899975958 -0.0026030000299215312
v -0.0005450000171549619 4.700000135926531e-05 -0.0026030000299215312
v -0.0005460000247694553 -3.300000025774353e-05 -0.0026030000299215312
v -0.0005360000068321825 -0.00011200000153621661 -0.0026030000299215312
v -0.0005140000139363111 -0.0001889999984996394 -0.0026030000299215312
v -0.00048099999548867356 -0.0002619999868329615 -0.0026030000299215312
v -0.00043799998820759367 -0.0003290000022388995 -0.0026030000299215312
v -0.00038499999209307145 -0.0003889999934472145 -0.0026030000299215312
v -0.00032399999327026313 -0.0004410000110510738 -0.0026030000299215312
v -0.0002559999993536622 -0.0004839999892283232 -0.0026030000299215312
v -0.00018299999646842482 -0.0005159999709576369 -0.0026030000299215312
v -0.00010599999950500208 -0.0005370000144466759 -0.0026030000299215312
v -2.7000000045518398e-05 -0.0005469999741762878 -0.0026030000299215312
v 5.299999975250104e-05 -0.0005450000171549619 -0.0026030000299215312
v 0.00013200000103097412 -0.0005310000269673766 -0.0026030000299215312
v 0.00020799999765586113 -0.0005070000188425184 -0.0026030000299215312
v 0.00027899999986402696 -0.0004710000066552312 -0.0026030000299215312
v 0.0003450000076554716 -0.0004250000056345017 -0.0026030000299215312
v 0.0004030000127386303 -0.0003699999942909927 -0.0026030000299215312
v 0.0004529999860096724 -0.00030799998785369104 -0.0026030000299215312
v 0.0004930000286549331 -0.00023900000087451195 -0.0026030000299215312
v 0.0005220000166445972 -0.00016399999731220308 -0.0026030000299215312
v 0.0005409999866969885 -8.69999930728227e-05 -0.0026030000299215312
f 1 2 3
f 4 2 1
f 1 5 6
f 7 5 1
f 3 7 1
f 1 8 9
f 10 8 1
f 6 10 1
f 1 11 12
f 13 11 1
f 9 13 1
f 1 14 15
f 16 14 1
f 12 16 1
f 1 17 18
f 19 17 1
f 15 19 1
f 1 20 21
f 22 20 1
f 18 22 1
f 1 23 24
f 25 23 1
f 21 25 1
f 24 4 1
f 4 26 2
f 2 26 27
f 2 27 3
f 3 27 28
f 3 28 7
f 7 28 29
f 7 29 5
f 5 29 30
f 5 30 6
f 6 30 31
f 6 31 10
f 10 31 32
f 10 32 8
f 8 32 33
f 8 33 9
f 9 33 34
f 9 34 13
f 13 34 35
f 13 35 11
f 11 35 36
f 11 36 12
f 12 36 37
f 12 37 16
f 16 37 38
f 16 38 14
f 14 38 39
f 14 39 15
f 15 39 40
f 15 40 19
f 19 40 41
f 19 41 17
f 17 41 42
f 17 42 18
f 18 42 43
f 18 43 22
f 22 43 44
f 22 44 20
f 20 44 45
f 20 45 21
f 21 45 46
f 21 46 25
f 25 46 47
f 25 47 23
f 23 47 48
f 23 48 24
f 24 48 49
f 24 49 4
f 4 49 26
f 28 50 29
f 29 50 51
f 29 51 30
f 30 51 52
f 30 52 31
f 31 52 53
f 31 53 32
f 32 53 54
f 32 54 33
f 33 54 55
f 33 55 34
f 34 55 56
f 34 56 35
f 56 57 35
f 35 57 58
f 35 58 36
f 36 58 59
f 36 59 37
f 37 59 60
f 37 60 38
f 38 60 61
f 38 61 39
f 39 61 62
f 39 62 40
f 47 63 48
f 48 63 64
f 48 64 49
f 49 64 65
f 49 65 26
f 26 65 66
f 26 66 27
f 27 66 67
f 27 67 28
f 28 67 68
f 28 68 50
f 62 69 40
f 40 69 70
f 40 70 41
f 41 70 71
f 41 71 42
f 42 71 72
f 42 72 43
f 43 72 73
f 43 73 44
f 44 73 74
f 44 74 45
f 45 74 75
f 45 75 46
f 46 75 76
f 46 76 47
f 47 76 77
f 47 77 63
f 78 66 79
f 79 66 65
f 79 65 80
f 80 65 81
f 81 65 64
f 81 64 82
f 82 64 83
f 83 64 63
f 83 63 84
f 84 63 77
f 84 77 85
f 85 77 86
f 86 77 76
f 86 76 87
f 87 76 88
f 88 76 75
f 88 75 89
f 89 75 90
f 90 75 74
f 90 74 91
f 91 74 92
f 92 74 73
f 92 73 93
f 93 73 94
f 94 73 72
f 94 72 95
f 95 72 96
f 96 72 71
f 96 71 97
f 97 71 98
f 98 71 70
f 98 70 99
f 99 70 100
f 100 70 69
f 100 69 101
f 101 69 102
f 102 69 62
f 102 62 103
f 103 62 104
f 104 62 61
f 104 61 105
f 60 59 106
f 106 107 60
f 60 107 108
f 60 108 61
f 61 108 109
f 61 109 105
f 57 110 58
f 58 110 111
f 58 111 59
f 59 111 112
f 59 112 106
f 56 113 57
f 57 113 114
f 57 114 110
f 55 115 56
f 56 115 116
f 56 116 113
f 54 117 55
f 55 117 118
f 55 118 115
f 53 119 54
f 54 119 120
f 54 120 117
f 52 121 53
f 53 121 122
f 53 122 119
f 51 123 52
f 52 123 124
f 52 124 121
f 50 125 51
f 51 125 126
f 51 126 123
f 68 127 50
f 50 127 128
f 50 128 125
f 67 129 68
f 68 129 130
f 68 130 127
f 78 131 66
f 66 131 132
f 66 132 67
f 67 132 133
f 67 133 129
f 101 102 134
f 134 102 135
f 135 102 103
f 135 103 136
f 136 103 104
f 136 104 137
f 137 104 105
f 137 105 138
f 134 139 101
f 101 139 140
f 101 140 100
f 100 140 141
f 100 141 99
f 99 141 142
f 99 142 98
f 98 142 143
f 98 143 97
f 143 144 97
f 97 144 145
f 97 145 96
f 96 145 145
f 96 145 95
f 95 145 146
f 95 146 94
f 94 146 147
f 94 147 93
f 93 147 148
f 93 148 92
f 148 149 92
f 92 149 150
f 92 150 91
f 91 150 151
f 91 151 90
f 90 151 152
f 90 152 89
f 89 152 153
f 89 153 88
f 153 154 88
f 88 154 155
f 88 155 87
f 87 155 156
f 87 156 86
f 86 156 157
f 86 157 85
f 85 157 158
f 85 158 84
f 158 159 84
f 84 159 160
f 84 160 83
f 83 160 161
f 83 161 82
f 82 161 162
f 82 162 81
f 81 162 163
f 81 163 80
f 164 131 165
f 165 131 78
f 165 78 166
f 166 78 79
f 166 79 167
f 167 79 80
f 167 80 168
f 168 80 163
f 164 169 131
f 131 169 170
f 131 170 132
f 132 170 171
f 132 171 133
f 171 172 133
f 133 172 173
f 133 173 129
f 129 173 174
f 129 174 130
f 130 174 175
f 130 175 127
f 127 175 176
f 127 176 128
f 176 177 128
f 128 177 178
f 128 178 125
f 125 178 179
f 125 179 126
f 126 179 180
f 126 180 123
f 123 180 181
f 123 181 124
f 124 181 182
f 124 182 121
f 182 183 121
f 121 183 184
f 121 184 122
f 122 184 185
f 122 185 119
f 119 185 186
f 119 186 120
f 120 186 187
f 120 187 117
f 187 188 117
f 117 188 189
f 117 189 118
f 118 189 190
f 118 190 115
f 115 190 191
f 115 191 116
f 116 191 192
f 116 192 113
f 192 193 113
f 113 193 194
f 113 194 114
f 114 194 195
f 114 195 110
f 110 195 196
f 110 196 111
f 111 196 197
f 111 197 112
f 197 198 112
f 112 198 199
f 112 199 106
f 106 199 200
f 106 200 107
f 107 200 201
f 107 201 108
f 201 202 108
f 108 202 203
f 108 203 109
f 109 203 204
f 109 204 105
f 105 204 205
f 105 205 138
f 141 140 206
f 206 140 139
f 206 139 207
f 207 139 134
f 207 134 208
f 208 134 135
f 208 135 209
f 209 135 136
f 141 206 142
f 142 206 210
f 142 210 143
f 143 210 211
f 143 211 144
f 144 211 212
f 144 212 145
f 145 212 145
f 145 212 213
f 145 213 146
f 146 213 147
f 147 213 214
f 147 214 148
f 148 214 149
f 149 214 215
f 149 215 150
f 150 215 216
f 150 216 151
f 157 156 217
f 217 156 155
f 217 155 218
f 218 155 154
f 218 154 219
f 219 154 153
f 219 153 216
f 216 153 152
f 216 152 151
f 157 217 158
f 158 217 220
f 158 220 159
f 159 220 221
f 159 221 160
f 160 221 222
f 160 222 161
f 161 222 162
f 162 222 223
f 162 223 163
f 163 223 168
f 168 223 224
f 168 224 167
f 167 224 166
f 166 224 225
f 166 225 165
f 165 225 226
f 165 226 164
f 174 173 227
f 227 173 172
f 227 172 228
f 228 172 171
f 228 171 229
f 229 171 170
f 229 170 226
f 226 170 169
f 226 169 164
f 174 227 175
f 175 227 230
f 175 230 176
f 176 230 231
f 176 231 177
f 177 231 232
f 177 232 178
f 233 181 234
f 234 181 180
f 234 180 232
f 232 180 179
f 232 179 178
f 186 185 235
f 235 185 184
f 235 184 236
f 236 184 183
f 236 183 233
f 233 183 182
f 233 182 181
f 186 235 187
f 187 235 237
f 187 237 188
f 188 237 238
f 188 238 189
f 189 238 239
f 189 239 190
f 196 195 240
f 240 195 194
f 240 194 241
f 241 194 193
f 241 193 242
f 242 193 192
f 242 192 239
f 239 192 191
f 239 191 190
f 196 240 197
f 197 240 243
f 197 243 198
f 198 243 244
f 198 244 199
f 199 244 200
f 200 244 245
f 200 245 201
f 201 245 246
f 201 246 202
f 136 137 209
f 209 137 138
f 209 138 247
f 247 138 205
f 247 205 248
f 248 205 204
f 248 204 246
f 246 204 203
f 246 203 202
f 249 250 251
f 251 250 252
f 251 252 253
f 253 252 254
f 253 254 255
f 255 254 256
f 255 256 257
f 257 256 258
f 257 258 259
f 259 258 260
f 259 260 261
f 261 260 262
f 261 262 263
f 263 262 264
f 263 264 265
f 265 264 266
f 265 266 267
f 267 266 268
f 267 268 269
f 269 268 270
f 269 270 271
f 271 270 272
f 271 272 273
f 273 272 274
f 273 274 275
f 275 274 276
f 275 276 277
f 277 276 278
f 277 278 279
f 279 278 280
f 279 280 281
f 281 280 282
f 281 282 283
f 283 282 284
f 283 284 285
f 285 284 286
f 285 286 287
f 287 286 288
f 287 288 289
f 289 288 290
f 289 290 291
f 291 290 292
f 291 292 293
f 293 292 294
f 294 292 295
f 294 295 296
f 296 295 297
f 297 295 298
f 297 298 299
f 299 298 300
f 300 298 301
f 300 301 302
f 303 304 305
f 303 305 301
f 301 305 306
f 301 306 302
f 304 303 307
f 307 303 308
f 307 308 309
f 309 308 310
f 310 308 311
f 310 311 312
f 313 314 315
f 313 315 311
f 311 315 316
f 311 316 312
f 314 313 317
f 317 313 318
f 317 318 319
f 320 321 322
f 322 323 320
f 320 323 324
f 320 324 318
f 318 324 325
f 318 325 319
f 326 327 328
f 328 327 329
f 328 329 321
f 321 329 330
f 321 330 322
f 326 328 331
f 331 328 332
f 331 332 333
f 333 332 334
f 333 334 335
f 335 334 336
f 336 334 337
f 336 337 338
f 339 340 341
f 339 341 337
f 337 341 342
f 337 342 338
f 340 339 343
f 343 339 344
f 343 344 345
f 345 344 346
f 346 344 347
f 346 347 348
f 349 350 351
f 349 351 347
f 347 351 352
f 347 352 348
f 350 349 353
f 353 349 354
f 353 354 355
f 355 354 356
f 356 354 357
f 356 357 358
f 359 360 357
f 357 360 361
f 357 361 358
f 249 362 250
f 250 362 363
f 250 363 359
f 359 363 364
f 359 364 360
f 235 365 237
f 237 365 366
f 237 366 238
f 238 366 367
f 238 367 239
f 239 367 368
f 239 368 242
f 242 368 369
f 242 369 241
f 241 369 370
f 241 370 240
f 240 370 371
f 240 371 243
f 243 371 372
f 243 372 244
f 244 372 373
f 244 373 245
f 245 373 374
f 245 374 246
f 246 374 375
f 246 375 248
f 248 375 376
f 248 376 247
f 247 376 377
f 247 377 209
f 209 377 378
f 209 378 208
f 208 378 379
f 208 379 207
f 207 379 380
f 207 380 206
f 206 380 381
f 206 381 210
f 210 381 382
f 210 382 211
f 211 382 383
f 211 383 212
f 212 383 384
f 212 384 213
f 213 384 385
f 213 385 214
f 214 385 386
f 214 386 215
f 215 386 387
f 215 387 216
f 216 387 388
f 216 388 219
f 219 388 389
f 219 389 218
f 218 389 390
f 218 390 217
f 217 390 391
f 217 391 220
f 220 391 392
f 220 392 221
f 221 392 393
f 221 393 222
f 222 393 394
f 222 394 223
f 223 394 395
f 223 395 224
f 224 395 396
f 224 396 225
f 225 396 397
f 225 397 226
f 226 397 398
f 226 398 229
f 229 398 399
f 229 399 228
f 228 399 400
f 228 400 227
f 227 400 401
f 227 401 230
f 230 401 402
f 230 402 231
f 231 402 403
f 231 403 232
f 232 403 404
f 232 404 234
f 234 404 405
f 234 405 233
f 233 405 406
f 233 406 236
f 236 406 407
f 236 407 235
f 235 407 365
f 407 408 365
f 365 408 409
f 365 409 366
f 366 409 410
f 366 410 367
f 367 410 411
f 367 411 368
f 368 411 412
f 368 412 369
f 369 412 413
f 369 413 370
f 370 413 414
f 370 414 371
f 371 414 415
f 371 415 372
f 372 415 416
f 372 416 373
f 373 416 417
f 373 417 374
f 374 417 418
f 374 418 375
f 375 418 419
f 375 419 376
f 376 419 420
f 376 420 377
f 377 420 421
f 377 421 378
f 378 421 422
f 378 422 379
f 379 422 423
f 379 423 380
f 380 423 424
f 380 424 381
f 381 424 425
f 381 425 382
f 382 425 426
f 382 426 383
f 383 426 427
f 383 427 384
f 384 427 428
f 384 428 385
f 385 428 429
f 385 429 386
f 386 429 430
f 386 430 387
f 387 430 431
f 387 431 388
f 388 431 432
f 388 432 389
f 389 432 433
f 389 433 390
f 390 433 434
f 390 434 391
f 391 434 435
f 391 435 392
f 392 435 436
f 392 436 393
f 393 436 437
f 393 437 394
f 394 437 438
f 394 438 395
f 395 438 439
f 395 439 396
f 396 439 440
f 396 440 397
f 397 440 441
f 397 441 398
f 398 441 442
f 398 442 399
f 399 442 443
f 399 443 400
f 400 443 444
f 400 444 401
f 401 444 445
f 401 445 402
f 402 445 446
f 402 446 403
f 403 446 447
f 403 447 404
f 404 447 448
f 404 448 405
f 405 448 449
f 405 449 406
f 406 449 450
f 406 450 407
f 407 450 408
f 450 451 408
f 408 451 452
f 408 452 409
f 409 452 453
f 409 453 410
f 410 453 454
f 410 454 411
f 411 454 455
f 411 455 412
f 412 455 456
f 412 456 413
f 413 456 457
f 413 457 414
f 414 457 458
f 414 458 415
f 415 458 459
f 415 459 416
f 416 459 460
f 416 460 417
f 417 460 461
f 417 461 418
f 418 461 462
f 418 462 419
f 419 462 463
f 419 463 420
f 420 463 464
f 420 464 421
f 421 464 465
f 421 465 422
f 422 465 466
f 422 466 423
f 423 466 467
f 423 467 424
f 424 467 468
f 424 468 425
f 425 468 469
f 425 469 426
f 426 469 470
f 426 470 427
f 427 470 471
f 427 471 428
f 428 471 472
f 428 472 429
f 429 472 473
f 429 473 430
f 430 473 474
f 430 474 431
f 431 474 475
f 431 475 432
f 432 475 476
f 432 476 433
f 433 476 477
f 433 477 434
f 434 477 478
f 434 478 435
f 435 478 479
f 435 479 436
f 436 479 480
f 436 480 437
f 437 480 481
f 437 481 438
f 438 481 482
f 438 482 439
f 439 482 483
f 439 483 440
f 440 483 484
f 440 484 441
f 441 484 485
f 441 485 442
f 442 485 486
f 442 486 443
f 443 486 487
f 443 487 444
f 444 487 488
f 444 488 445
f 445 488 489
f 445 489 446
f 446 489 490
f 446 490 447
f 447 490 491
f 447 491 448
f 448 491 492
f 448 492 449
f 449 492 493
f 449 493 450
f 450 493 451
f 493 494 451
f 451 494 495
f 451 495 452
f 452 495 496
f 452 496 453
f 453 496 497
f 453 497 454
f 454 497 498
f 454 498 455
f 455 498 499
f 455 499 456
f 456 499 500
f 456 500 457
f 457 500 501
f 457 501 458
f 458 501 502
f 458 502 459
f 459 502 503
f 459 503 460
f 460 503 504
f 460 504 461
f 461 504 505
f 461 505 462
f 462 505 506
f 462 506 463
f 463 506 507
f 463 507 464
f 464 507 508
f 464 508 465
f 465 508 509
f 465 509 466
f 466 509 510
f 466 510 467
f 467 510 511
f 467 511 468
f 468 511 512
f 468 512 469
f 469 512 513
f 469 513 470
f 470 513 514
f 470 514 471
f 471 514 515
f 471 515 472
f 472 515 516
f 472 516 473
f 473 516 517
f 473 517 474
f 474 517 518
f 474 518 475
f 475 518 519
f 475 519 476
f 476 519 520
f 476 520 477
f 477 520 521
f 477 521 478
f 478 521 522
f 478 522 479
f 479 522 523
f 479 523 480
f 480 523 524
f 480 524 481
f 481 524 525
f 481 525 482
f 482 525 526
f 482 526 483
f 483 526 527
f 483 527 484
f 484 527 528
f 484 528 485
f 485 528 529
f 485 529 486
f 486 529 530
f 486 530 487
f 487 530 531
f 487 531 488
f 488 531 532
f 488 532 489
f 489 532 533
f 489 533 490
f 490 533 534
f 490 534 491
f 491 534 535
f 491 535 492
f 492 535 536
f 492 536 493
f 493 536 494
f 536 537 494
f 494 537 538
f 494 538 495
f 495 538 539
f 495 539 496
f 496 539 540
f 496 540 497
f 497 540 541
f 497 541 498
f 498 541 542
f 498 542 499
f 499 542 543
f 499 543 500
f 500 543 544
f 500 544 501
f 501 544 545
f 501 545 502
f 502 545 546
f 502 546 503
f 503 546 547
f 503 547 504
f 504 547 548
f 504 548 505
f 505 548 549
f 505 549 506
f 506 549 550
f 506 550 507
f 507 550 551
f 507 551 508
f 508 551 552
f 508 552 509
f 509 552 553
f 509 553 510
f 510 553 554
f 510 554 511
f 511 554 555
f 511 555 512
f 512 555 556
f 512 556 513
f 513 556 557
f 513 557 514
f 514 557 558
f 514 558 515
f 515 558 559
f 515 559 516
f 516 559 560
f 516 560 517
f 517 560 561
f 517 561 518
f 518 561 562
f 518 562 519
f 519 562 563
f 519 563 520
f 520 563 564
f 520 564 521
f 521 564 565
f 521 565 522
f 522 565 566
f 522 566 523
f 523 566 567
f 523 567 524
f 524 567 568
f 524 568 525
f 525 568 569
f 525 569 526
f 526 569 570
f 526 570 527
f 527 570 571
f 527 571 528
f 528 571 572
f 528 572 529
f 529 572 573
f 529 573 530
f 530 573 574
f 530 574 531
f 531 574 575
f 531 575 532
f 532 575 576
f 532 576 533
f 533 576 577
f 533 577 534
f 534 577 578
f 534 578 535
f 535 578 579
f 535 579 536
f 536 579 537
f 579 580 537
f 537 580 581
f 537 581 538
f 538 581 582
f 538 582 539
f 539 582 583
f 539 583 540
f 540 583 584
f 540 584 541
f 541 584 585
f 541 585 542
f 542 585 586
f 542 586 543
f 543 586 587
f 543 587 544
f 544 587 588
f 544 588 545
f 545 588 589
f 545 589 546
f 546 589 590
f 546 590 547
f 547 590 591
f 547 591 548
f 548 591 592
f 548 592 549
f 549 592 593
f 549 593 550
f 550 593 594
f 550 594 551
f 551 594 595
f 551 595 552
f 552 595 596
f 552 596 553
f 553 596 597
f 553 597 554
f 554 597 598
f 554 598 555
f 555 598 599
f 555 599 556
f 556 599 600
f 556 600 557
f 557 600 601
f 557 601 558
f 558 601 602
f 558 602 559
f 559 602 603
f 559 603 560
f 560 603 604
f 560 604 561
f 561 604 605
f 561 605 562
f 562 605 606
f 562 606 563
f 563 606 607
f 563 607 564
f 564 607 608
f 564 608 565
f 565 608 609
f 565 609 566
f 566 609 610
f 566 610 567
f 567 610 611
f 567 611 568
f 568 611 612
f 568 612 569
f 569 612 613
f 569 613 570
f 570 613 614
f 570 614 571
f 571 614 615
f 571 615 572
f 572 615 616
f 572 616 573
f 573 616 617
f 573 617 574
f 574 617 618
f 574 618 575
f 575 618 619
f 575 619 576
f 576 619 620
f 576 620 577
f 577 620 621
f 577 621 578
f 578 621 622
f 578 622 579
f 579 622 580
f 622 623 580
f 580 623 624
f 580 624 581
f 581 624 625
f 581 625 582
f 582 625 626
f 582 626 583
f 583 626 627
f 583 627 584
f 584 627 628
f 584 628 585
f 585 628 629
f 585 629 586
f 586 629 630
f 586 630 587
f 587 630 631
f 587 631 588
f 588 631 632
f 588 632 589
f 589 632 633
f 589 633 590
f 590 633 634
f 590 634 591
f 591 634 635
f 591 635 592
f 592 635 636
f 592 636 593
f 593 636 637
f 593 637 594
f 594 637 638
f 594 638 595
f 595 638 639
f 595 639 596
f 596 639 640
f 596 640 597
f 597 640 641
f 597 641 598
f 598 641 642
f 598 642 599
f 599 642 643
f 599 643 600
f 600 643 644
f 600 644 601
f 601 644 645
f 601 645 602
f 602 645 646
f 602 646 603
f 603 646 647
f 603 647 604
f 604 647 648
f 604 648 605
f 605 648 649
f 605 649 606
f 606 649 650
f 606 650 607
f 607 650 651
f 607 651 608
f 608 651 652
f 608 652 609
f 609 652 653
f 609 653 610
f 610 653 654
f 610 654 611
f 611 654 655
f 611 655 612
f 612 655 656
f 612 656 613
f 613 656 657
f 613 657 614
f 614 657 658
f 614 658 615
f 615 658 659
f 615 659 616
f 616 659 660
f 616 660 617
f 617 660 661
f 617 661 618
f 618 661 662
f 618 662 619
f 619 662 663
f 619 663 620
f 620 663 664
f 620 664 621
f 621 664 665
f 621 665 622
f 622 665 623
f 665 666 623
f 623 666 667
f 623 667 624
f 624 667 668
f 624 668 625
f 625 668 669
f 625 669 626
f 626 669 670
f 626 670 627
f 627 670 671
f 627 671 628
f 628 671 672
f 628 672 629
f 629 672 673
f 629 673 630
f 630 673 674
f 630 674 631
f 631 674 675
f 631 675 632
f 632 675 676
f 632 676 633
f 633 676 677
f 633 677 634
f 634 677 678
f 634 678 635
f 635 678 679
f 635 679 636
f 636 679 680
f 636 680 637
f 637 680 681
f 637 681 638
f 638 681 682
f 638 682 639
f 639 682 683
f 639 683 640
f 640 683 684
f 640 684 641
f 641 684 685
f 641 685 642
f 642 685 686
f 642 686 643
f 643 686 687
f 643 687 644
f 644 687 688
f 644 688 645
f 645 688 689
f 645 689 646
f 646 689 690
f 646 690 647
f 647 690 691
f 647 691 648
f 648 691 692
f 648 692 649
f 649 692 693
f 649 693 650
f 650 693 694
f 650 694 651
f 651 694 695
f 651 695 652
f 652 695 696
f 652 696 653
f 653 696 697
f 653 697 654
f 654 697 698
f 654 698 655
f 655 698 699
f 655 699 656
f 656 699 700
f 656 700 657
f 657 700 701
f 657 701 658
f 658 701 702
f 658 702 659
f 659 702 703
f 659 703 660
f 660 703 704
f 660 704 661
f 661 704 705
f 661 705 662
f 662 705 706
f 662 706 663
f 663 706 707
f 663 707 664
f 664 707 708
f 664 708 665
f 665 708 666
f 708 709 666
f 666 709 710
f 666 710 667
f 667 710 711
f 667 711 668
f 668 711 712
f 668 712 669
f 669 712 713
f 669 713 670
f 670 713 714
f 670 714 671
f 671 714 715
f 671 715 672
f 672 715 716
f 672 716 673
f 673 716 717
f 673 717 674
f 674 717 718
f 674 718 675
f 675 718 719
f 675 719 676
f 676 719 720
f 676 720 677
f 677 720 721
f 677 721 678
f 678 721 722
f 678 722 679
f 679 722 723
f 679 723 680
f 680 723 724
f 680 724 681
f 681 724 725
f 681 725 682
f 682 725 726
f 682 726 683
f 683 726 727
f 683 727 684
f 684 727 728
f 684 728 685
f 685 728 729
f 685 729 686
f 686 729 730
f 686 730 687
f 687 730 731
f 687 731 688
f 688 731 732
f 688 732 689
f 689 732 733
f 689 733 690
f 690 733 734
f 690 734 691
f 691 734 735
f 691 735 692
f 692 735 736
f 692 736 693
f 693 736 737
f 693 737 694
f 694 737 738
f 694 738 695
f 695 738 739
f 695 739 696
f 696 739 740
f 696 740 697
f 697 740 741
f 697 741 698
f 698 741 742
f 698 742 699
f 699 742 743
f 699 743 700
f 700 743 744
f 700 744 701
f 701 744 745
f 701 745 702
f 702 745 746
f 702 746 703
f 703 746 747
f 703 747 704
f 704 747 748
f 704 748 705
f 705 748 749
f 705 749 706
f 706 749 750
f 706 750 707
f 707 750 751
f 707 751 708
f 708 751 709
f 751 295 709
f 709 295 292
f 709 292 710
f 710 292 290
f 710 290 711
f 711 290 288
f 711 288 712
f 712 288 286
f 712 286 713
f 713 286 284
f 713 284 714
f 714 284 282
f 714 282 715
f 715 282 280
f 715 280 716
f 716 280 278
f 716 278 717
f 717 278 276
f 717 276 718
f 718 276 274
f 718 274 719
f 719 274 272
f 719 272 720
f 720 272 270
f 720 270 721
f 721 270 268
f 721 268 722
f 722 268 266
f 722 266 723
f 723 266 264
f 723 264 724
f 724 264 262
f 724 262 725
f 725 262 260
f 725 260 726
f 726 260 258
f 726 258 727
f 727 258 256
f 727 256 728
f 728 256 254
f 728 254 729
f 729 254 252
f 729 252 730
f 730 252 250
f 730 250 731
f 731 250 359
f 731 359 732
f 732 359 357
f 732 357 733
f 733 357 354
f 733 354 734
f 734 354 349
f 734 349 735
f 735 349 347
f 735 347 736
f 736 347 344
f 736 344 737
f 737 344 339
f 737 339 738
f 738 339 337
f 738 337 739
f 739 337 334
f 739 334 740
f 740 334 332
f 740 332 741
f 741 332 328
f 741 328 742
f 742 328 321
f 742 321 743
f 743 321 320
f 743 320 744
f 744 320 318
f 744 318 745
f 745 318 313
f 745 313 746
f 746 313 311
f 746 311 747
f 747 311 308
f 747 308 748
f 748 308 303
f 748 303 749
f 749 303 301
f 749 301 750
f 750 301 298
f 750 298 751
f 751 298 295
f 317 319 277
f 336 338 277
f 277 338 342
f 277 342 341
f 341 340 277
f 277 340 343
f 277 343 345
f 353 355 277
f 316 315 277
f 277 315 314
f 277 314 317
f 319 325 277
f 277 325 324
f 277 324 323
f 329 327 277
f 277 327 326
f 277 326 331
f 294 296 277
f 277 296 297
f 277 297 299
f 307 309 277
f 323 322 277
f 277 322 330
f 277 330 329
f 331 333 277
f 277 333 335
f 277 335 336
f 355 356 277
f 277 356 358
f 277 358 361
f 363 362 277
f 277 362 249
f 309 310 277
f 277 310 312
f 277 312 316
f 345 346 277
f 277 346 348
f 277 348 352
f 361 360 277
f 277 360 364
f 277 364 363
f 299 300 277
f 277 300 302
f 277 302 306
f 352 351 277
f 277 351 350
f 277 350 353
f 306 305 277
f 277 305 304
f 277 304 307
f 267 269 253
f 253 269 271
f 253 271 273
f 249 251 277
f 277 251 253
f 277 253 275
f 275 253 273
f 285 287 289
f 257 259 265
f 265 259 261
f 265 261 263
f 294 277 293
f 293 277 279
f 293 279 281
f 281 283 293
f 293 283 285
f 293 285 291
f 291 285 289
f 267 253 265
f 265 253 255
f 265 255 257
