v 0.000607868714723736 0.00023090315517038112 0.004119957797229289
v 0.0006374689983204007 0.00012771153706125918 0.004119975958019494
v 0.000637469463981688 0.00012629816774278882 -0.003900020848959684
v 0.0006496812566183507 1.964189868886024e-05 -0.003900001989677548
v 0.0006496807909570634 2.1055266188341196e-05 0.0041199945844709865
v 0.0006210898864082992 -0.00019099884957540786 0.004120032303035258
v 0.0006210903520695865 -0.00019241221889387822 -0.0038999647367745634
v 0.0005251941620372236 -0.0003822798316832633 0.0041200658306479445
v 0.0005251946276985109 -0.00038369320100173365 -0.0038999309763312335
v 0.00037238551885820925 -0.0005320594063960017 0.004120092373341321
v 0.0003723859554156661 -0.0005334728048183025 -0.0038999046664685007
v 0.00017922309052664787 -0.0006241065566428007 0.0041201082058250895
v 0.00017922352708410472 -0.0006255199550651015 -0.003899888368323445
v -3.336096051498316e-05 -0.0006484467303380371 0.004120112862437963
v -3.3360531233483925e-05 -0.0006498601287603379 -0.003899884177371859
v -0.00024232985742855817 -0.0006024421891197563 0.004120104480534791
v -0.00024232942087110132 -0.0006038555875420571 -0.003899892326444387
v -0.0004250385973136872 -0.0004910781863145531 0.004120084922760724
v -0.00042503816075623035 -0.000492491584736854 -0.003899911884218454
v -0.0005616878042928874 -0.00032642279984429484 0.004120056051760911
v -0.0005616873386316001 -0.0003278361691627652 -0.0038999409880489107
v -0.000637469463981688 -0.00012631900608539584 0.004120020661503076
v -0.0006374689983204007 -0.0001277323754038662 -0.0038999761454761024
v -0.0006441714358516037 8.754886221140624e-05 0.004119982942938804
v -0.0006441709701903164 8.61355001688935e-05 -0.0039000138640403743
v -0.0005810674629174173 0.0002920049300882966 0.004119947087019681
v -0.00058106699725613 0.00029059156076982623 -0.0039000499527901407
v -0.00045499586849473417 0.00046489317901432525 0.004119916353374719
v -0.0004549954319372773 0.0004634798096958549 -0.0039000802207738157
v -0.0002796183689497411 0.0005874784546904267 0.004119894932955503
v -0.0002796179323922843 0.0005860650562681259 -0.0039001018740236755
v -7.393994746962562e-05 0.0006464768084697426 0.004119884688407182
v -7.393951091216877e-05 0.0006450634100474418 -0.00390011235140264
v 0.0001397509768139571 0.0006354948272928597 0.004119886551052331
v 0.00013975141337141395 0.0006340814288705588 -0.003900110255926847
v 0.00033829768653959036 0.0005557225667871536 0.00411990052089095
v 0.0003382981230970472 0.0005543091683648528 -0.003900096286088228
v 0.0005001846002414823 0.0004158045630902053 0.004119925200939178
v 0.0005001850659027696 0.00041439119377173494 -0.0039000716060400005
v 0.0006078691803850234 0.00022948978585191076 -0.003900039009749889
v -2.2323863591022786e-10 6.962656584619254e-07 0.004119998309761285
v 2.11491227308791e-10 -7.171019547058679e-07 -0.003899998497217893
v 0.0086134672164917 -0.0019999532960355286 0.0004313825047574937
v 0.008468886837363243 -0.0020000017248094086 0.00015590804105158893
v 0.006099999416619539 -0.001999509055167437 0.0029503479599952693
v 0.0067769186571240425 -0.0020005325786769394 -0.0028568047564476724
v 0.006099999416619539 -0.002000548876821995 -0.002949642483144998
v 0.0086134672164917 -0.002000105101615191 -0.000430676678661257
v 0.008468886837363243 -0.002000056672841311 -0.00015520221495535222
v 0.009675545617938042 -0.001999975880607963 0.0003024229081347584
v 0.01057445164769888 -0.0019999782089143996 0.00028917228337377304
v 0.009749999269843102 -0.0020000291988253598 3.5298745615364163e-07
v 0.010585249401628971 -0.0020000678487122063 -0.00021920473955105987
v 0.009675545617938042 -0.0020000825170427565 -0.0003017169656231999
v 0.010438510216772556 -0.002000156324356795 -0.0007212760392576455
v 0.00946924090385437 -0.0020001234952360396 -0.0005345863755792378
v 0.009178347885608673 -0.0019999155774712567 0.0006456135306507348
v 0.009622370824217796 -0.001999728381633759 0.001707734423689544
v 0.00946924090385437 -0.00199993490241468 0.0005352923180907964
v 0.0100859971717 -0.0019998061470687394 0.0012666789116337893
v 0.010406425222754478 -0.0019998901989310984 0.0007892543799243866
v 0.006655106786638498 -0.001999521860852838 0.002877935534343123
v 0.007523613050580025 -0.001999554689973593 0.0026933788321912284
v 0.008869506418704987 -0.001999922096729279 0.0006081132451072334
v 0.008322511799633503 -0.0019996007904410367 0.0024314771872013803
v 0.009028860367834568 -0.0019996592309325938 0.0020997535903006788
v 0.01013844832777977 -0.0020002413075417285 -0.0012026219628751276
v 0.009693680331110954 -0.0020003200042992835 -0.0016494182636961339
v 0.009178347885608673 -0.002000142820179463 -0.0006449075881391763
v 0.009116980247199535 -0.002000390319153667 -0.002048832597211003
v 0.008869506418704987 -0.0020001363009214406 -0.0006074074190109967
v 0.008424912579357624 -0.0020004503894597296 -0.002389393979683518
v 0.007637352682650089 -0.0020004983525723223 -0.002661321079358458
v 0.00946924090385437 0.001900063245557249 0.0005346050020307301
v 0.009675545617938042 0.0019000221509486441 0.00030173562117852265
v 0.010406425222754478 0.0019001078326255087 0.0007885670638643204
v 0.008468886837363243 0.0018999963067471985 0.00015522075409535316
v 0.0086134672164917 0.0019000448519364004 0.0004306952178012579
v 0.006099999416619539 0.0019004889763891701 0.002949660643935203
v 0.01057445164769888 0.0019000197062268858 0.0002884849964175373
v 0.009749999269843102 0.0018999689491465692 -3.3431061297051196e-07
v 0.010585249401628971 0.0018999301828444008 -0.00021989204105921087
v 0.006655106786638498 0.0019004761707037692 0.0028772482182830568
v 0.0100859971717 0.0019001921173185114 0.001265991595573723
v 0.009622370824217796 0.0019002698827534918 0.0017070471076294778
v 0.009178347885608673 0.0019000826869159941 0.0006449262145906686
v 0.009028860367834568 0.0019003389170393352 0.0020990662742406126
v 0.008869506418704987 0.00190007605124265 0.0006074259872548281
v 0.008322511799633503 0.0019003973575308923 0.002430789871141314
v 0.007523613050580025 0.0019004436908289794 0.002692691516131162
v 0.010438510216772556 0.0018998417071998124 -0.0007219633553177117
v 0.009675545617938042 0.0018999157473444943 -0.00030240425257943565
v 0.01013844832777977 0.0018997569568455224 -0.0012033092789351938
v 0.00946924090385437 0.0018998746527358894 -0.000535273691639304
v 0.009693680331110954 0.0018996782600879674 -0.0016501055797562
v 0.009178347885608673 0.0018998552113771443 -0.0006455949041992425
v 0.009116980247199535 0.001899607828818262 -0.002049519913271069
v 0.008424912579357624 0.0018995477585121994 -0.002390081295743584
v 0.008869506418704987 0.0018998618470504884 -0.000608094676863402
v 0.007637352682650089 0.0018995000282302503 -0.0026620083954185243
v 0.0086134672164917 0.001899893046356738 -0.00043136396561749274
v 0.0067769186571240425 0.0018994655692949895 -0.0028574920725077386
v 0.006099999416619539 0.001899449154734612 -0.0029503297992050643
v 0.008468886837363243 0.0018999415915459399 -0.00015588950191158799
v 0.008449998684227467 0.0018999689491465692 -3.343808714362239e-07
v 0.00946537870913744 -0.0027612857520580296 0.0005292507703416048
v 0.009525926783680916 -0.002740008989349008 0.0004914875025860964
v 0.009525657631456852 -0.0027390555478632454 0.001774521544575691
v 0.010183545760810375 -0.002479030750691891 0.0011455737985670564
v 0.010322744958102703 -0.0024197448510676627 0.0009409080957993864
v 0.009657775983214378 -0.002691186266019941 0.0003342183481436222
v 0.010083784349262714 -0.00252070464193821 0.0012650410644710062
v 0.010020432993769646 -0.0025471684057265524 0.0013409061357378957
v 0.00987451896071434 -0.002606488531455398 0.0014896558132022617
v 0.009634473361074924 -0.002699729753658176 0.001698280684649944
v 0.009560996666550636 -0.0027262840885668997 0.0017497615190222857
v 0.009671059437096119 -0.002686110092326999 0.0003007593331858515
v 0.009734801016747952 -0.002661752281710506 0.0001402078632963821
v 0.01048581674695015 -0.0023494486231356864 0.0006046634516678749
v 0.01047799363732338 -0.002352835843339563 0.0006287957075983285
v 0.010436651296913624 -0.002370708622038365 0.0007261284627020358
v 0.010403839871287346 -0.0023848335258662705 0.0007879958720877766
v 0.009689977392554283 -0.002679053228348494 -0.00027233769651502365
v 0.010473095811903477 -0.0023551804479211573 -0.0006403087754733859
v 0.009734573774039745 -0.0026618896517902617 -0.0001402976922690868
v 0.010485815815627575 -0.0023496595676988368 -0.0006015675025992094
v 0.009749999269843102 -0.0026558863464742903 4.685693681949487e-07
v 0.009525763802230358 -0.0027399729005992417 -0.0017754441360011695
v 0.009591296315193176 -0.0027160744648426776 -0.0017283542547374962
v 0.009525926783680916 -0.0027401822153478865 -0.0004905206733383237
v 0.009634473361074924 -0.0027003281284123663 -0.0016973279416561125
v 0.009692410938441753 -0.0026779475156217818 -0.0016479422338306902
v 0.009826256893575191 -0.0026262439787387852 -0.0015338531229645012
v 0.01001544389873743 -0.0025496990419924264 -0.0013454413274303076
v 0.010135538876056671 -0.002499432768672705 -0.0012002809671685097
v 0.010202465578913689 -0.002471420215442777 -0.0011193853570148347
v 0.009618778713047504 -0.002705977996811271 -0.0003911439853254705
v 0.010355071164667606 -0.0024061785079538827 -0.0008848623256199061
v 0.009673262014985085 -0.0026853748131543402 -0.000300229963613674
v 0.010368742980062962 -0.00240029045380652 -0.0008603474707342683
v 0.010435407049953938 -0.0023714723065495495 -0.0007197784143500029
v 0.008923902176320553 -0.0029334365390241155 0.0006262086681090294
v 0.008763655088841915 -0.0029730517417192468 0.002141501987352967
v 0.008871552534401417 -0.00294722174294293 0.0006035428377799689
v 0.008764173835515976 -0.002975497394800187 0.0005570510402321814
v 0.008936119265854359 -0.002929003676399589 0.002084602834656834
v 0.008889595977962017 -0.002942562801763416 0.0021037105470895763
v 0.008861836977303028 -0.002949282992631198 0.0021120400633662935
v 0.009151177480816841 -0.0028663247358053927 0.001996276434510946
v 0.009094206616282463 -0.002884068759158254 0.0006504827761091291
v 0.009262558072805405 -0.00282963109202683 0.0019361587474122641
v 0.009178195148706436 -0.0028579104691743855 0.0006438575219362973
v 0.009403654374182224 -0.002783147851005197 0.0018600022885948417
v 0.009207558818161488 -0.002848765347152949 0.0006415413226932286
v 0.009353525936603546 -0.0028005910571664576 0.0005990122444927691
v 0.007996357046067715 -0.0031165413092821845 -0.0023107102606445547
v 0.008023355156183243 -0.0031127152033150205 -0.002306254347786307
v 0.008619875647127628 -0.003009920474141837 -0.00043762629502452905
v 0.008285357616841793 -0.0030755831394344577 -0.0022630156017839904
v 0.008475109003484249 -0.003038499504327775 -0.0022194811608642335
v 0.008614559657871723 -0.0030110629741102466 -0.0004297594132367521
v 0.00851441640406847 -0.0030325795523822316 -0.0002815871848724782
v 0.008470982313156128 -0.0030413258355110892 -0.00016328520723618564
v 0.008469928987324238 -0.0030415309593081483 -0.00015488796634599564
v 0.008450007997453213 -0.003045412478968502 3.988279331679222e-06
v 0.00799620058387518 -0.0031142884399741897 0.002310331910848617
v 0.008477195166051388 -0.003040006151422859 0.00015459141286555675
v 0.008489825762808323 -0.0030374941416084775 0.00022456413717009124
v 0.008545794524252415 -0.003025929210707546 0.0003401758440304547
v 0.008552168495953083 -0.003024250268936158 0.0022049630060791965
v 0.008237012661993504 -0.0030812786426395187 0.0022715551313012834
v 0.008635067380964756 -0.0030063302256166944 0.00045477529056370253
v 0.00858607143163681 -0.003016042988747359 0.002194789936766028
v 0.008615654893219471 -0.0030105921905487784 0.0004298551939427852
v 0.00818032119423151 -0.003091537160798908 0.0022835340350866313
v 0.009466197341680527 -0.002761298324912787 -0.0005298336036503314
v 0.009382576681673527 -0.0027908603660762314 -0.0005848705768585204
v 0.009451867081224918 -0.002766921883448959 -0.001828544773161411
v 0.009107059799134731 -0.002880390733480454 -0.0006494533154182135
v 0.009289580397307873 -0.0028216557111591105 -0.0019213987980037925
v 0.009178116917610168 -0.0028581237420439724 -0.0006424346356652676
v 0.009220304898917675 -0.0028449029196053748 -0.0006382674328051506
v 0.008954991586506367 -0.0029249880462884907 -0.0006331025506369768
v 0.008763852529227734 -0.0029747127555310735 -0.0021418801043182607
v 0.008860315196216106 -0.0029497330542653808 -0.0021098910365253683
v 0.008901111781597137 -0.0029391688294708737 -0.00209636241197586
v 0.00895615853369236 -0.002924914006143809 -0.002078107558190822
v 0.009213064797222614 -0.002847461728379131 -0.001965178176760673
v 0.00862060859799385 -0.003010063897818328 -0.00218609906733036
v 0.008681186474859715 -0.002996119437739254 -0.002169293817132711
v 0.008764173835515976 -0.0029756934382021436 -0.000556001323275268
v 0.008872517384588718 -0.0029469034634530553 -0.0005997782573103904
v 0.007857471704483032 -0.003131430363282562 0.002330523449927568
v 0.007517243269830942 -0.003163824789226056 -0.0023683349136263128
v 0.007559095975011587 -0.0031613886822015056 -0.0023649604991078372
v 0.007931425236165524 -0.00312574370764196 -0.0023214260581880804
v 0.007859409786760807 -0.003132638055831195 -0.0023298463784158225
v 0.0077918097376823425 -0.003139544278383256 0.0023400804493576284
v 0.0071087973192334175 -0.003186540212482215 -0.0024002208374440666
v 0.007168470416218042 -0.0031841241288930186 -0.002396456198766827
v 0.007767665199935436 -0.0031425277702510366 0.0023435945622622962
v 0.007590101566165686 -0.003158162813633681 0.0023630114737898107
v 0.007008965592831373 -0.0031890650279819974 -0.0024041868746280666
v 0.007340093143284321 -0.003173572476953269 0.0023840116336941715
v 0.007218909449875355 -0.0031810419168323287 0.002394190756604075
v 0.007008980959653854 -0.003188946982845665 0.0024067470803856845
v 0.00696996133774519 -0.0031904163770377645 0.002409080974757671
v 0.006990050431340933 -0.003189543494954706 -0.0024049384519457813
v 0.00688259257003665 -0.0031926308292895564 0.002412848407402634
v 0.006640680134296417 -0.0031983787193894395 -0.002418818417936563
v 0.00680326484143734 -0.0031946415547281512 0.0024162693880498405
v 0.006691647693514824 -0.0031967354007065305 0.002419314812868833
v 0.006616868078708649 -0.003197863698005677 0.002419994911178946
v 0.006566721014678478 -0.0031985132955014714 0.0024193266872316595
v 0.006533048115670681 -0.003198906546458603 0.0024179294705390926
v 0.00651039881631732 -0.0031991531141102323 0.0024161853361874814
v 0.006495131179690361 -0.0031993116717785606 0.0024143233895301815
v 0.0064848135225474834 -0.00319941551424563 0.0024124728515744205
v 0.006477821618318558 -0.0031994846649467954 0.0024106977507472034
v 0.006508372258394957 -0.003200025763362647 -0.002414850983768701
v 0.006473074667155743 -0.003199530765414239 0.0024090181104838844
v 0.00647161016240716 -0.003199545433744789 0.0024061035364866252
v 0.00646832212805748 -0.0031995766330510387 0.0024063966702669855
v 0.0064667100086808205 -0.0031995922327041635 0.0024048744235187765
v 0.006465399172157049 -0.003199605271220208 0.0024015095550566907
v 0.006465399172157049 -0.0032004513777792462 -0.0024003807920962568
v 0.006486884318292141 -0.003200244391337038 -0.0024076160043478008
v 0.006466447375714779 -0.0032004422973841437 -0.0024034078232944007
v 0.006475523579865694 -0.0032003563828766355 -0.0024088243953883644
v 0.006468484178185463 -0.003200423205271364 -0.0024053901433944698
v 0.010596425272524357 -0.0023015995975583796 -0.00010772950918180867
v 0.010596065782010555 -0.00230171624571085 0.00011383702076273038
v 0.010528420098125935 -0.002331117866560817 -0.00015649279521312562
v 0.010587950237095356 -0.0023052238393574957 0.0001988722797250375
v 0.010571015998721123 -0.002312557073310018 0.0002885819121729582
v 0.010546818375587463 -0.002323182532563806 -0.000415768998209387
v 0.010567130520939827 -0.002314352430403233 -0.0003270769375376403
v 0.010581609793007374 -0.002308049472048879 -0.00021866543102078137
v 0.01054694689810276 -0.002322979969903827 0.0004160884418524801
v 0.009262558072805405 0.002729570493102074 -0.0019361401209607718
v 0.009101464413106441 0.0027818048838526015 -0.0006504878983832895
v 0.009403654374182224 0.0026830874849110846 -0.0018599836621433494
v 0.009176992811262608 0.0027576687280088667 -0.0006376816891133784
v 0.009560996666550636 0.002626223955303431 -0.0017497428925707934
v 0.009312810376286507 0.0027142651379108433 -0.0006146529922261833
v 0.009634473361074924 0.0025996693875640635 -0.00169826194178313
v 0.009692162275314331 0.002577331848442555 -0.0016486160457134245
v 0.009850052185356617 0.00251619634218514 -0.0015127385267987845
v 0.009466624818742275 0.002660868922248483 -0.0005306507810018956
v 0.00987566914409399 0.0025057864841073756 -0.0014866177225485442
v 0.009501639753580093 0.002648713300004602 -0.0005115283420309423
v 0.009605073370039463 0.002610888332128525 -0.00040960483602248127
v 0.009669681079685688 0.0025864932686090474 -0.0002991008223034441
v 0.00970427505671978 0.0025734312366694216 -0.00023993311333470044
v 0.009736863896250725 0.0025608954019844536 -0.00013046276581007985
v 0.009749999269843102 0.0025558257475495343 -4.498924681684002e-07
v 0.009875675663352013 0.0025063252542167906 0.0014858352951705454
v 0.009736674837768078 0.0025610143784433608 0.00013048386608716098
v 0.00969795510172844 0.002575939288362861 0.00025439585442654783
v 0.00967283733189106 0.0025854748673737053 0.00030012821662239725
v 0.009635879658162594 0.0025995052419602875 0.0003674172621686011
v 0.009554295800626278 0.0026297834701836113 0.0004644182045012712
v 0.00946838315576315 0.002660715021193028 0.0005333985900506376
v 0.009455793537199497 0.0026652477681636815 0.0005435070488601922
v 0.009855828247964382 0.0025144263636320834 0.001506442087702453
v 0.00934541318565607 0.002703497419133783 0.0006014139507897197
v 0.009225554764270782 0.002743152435868979 0.0006372753414325415
v 0.009591296315193176 0.002616014098748565 0.0017283729976043103
v 0.009634473361074924 0.002600267762318254 0.0016973466845229266
v 0.009101464413106441 0.002782033989205957 0.0006495083798654376
v 0.009213064797222614 0.0027474013622850184 0.0019651968032121654
v 0.009178067557513714 0.0027580314781516795 0.0006419566343538462
v 0.009289580397307873 0.0027215951122343545 0.0019214174244552849
v 0.009451867081224918 0.00266686175018549 0.0018285633996129034
v 0.008616223931312561 0.0029104638379067187 0.00042785733239725227
v 0.00858295802026987 0.002918022451922298 0.0003934002597816288
v 0.00834217481315136 0.0029644188471138486 0.00224999850615859
v 0.008681186474859715 0.002896059071645141 0.0021693122107535596
v 0.008860315196216106 0.0028496724553406243 0.002109909430146217
v 0.00893697515130043 0.00282997009344399 0.0006287258001975714
v 0.008901111781597137 0.002839108463376761 0.002096380805596709
v 0.00895615853369236 0.0028248536400496964 0.0020781261846423145
v 0.009101130068302155 0.0027811476029455666 0.0020144004374742504
v 0.00862060859799385 0.002910003531724215 0.0021861176937818523
v 0.008871483616530895 0.0028473704587668185 0.0006023428868502377
v 0.008475109003484249 0.002938438905403019 0.002219499554485082
v 0.008781366981565952 0.0028713140636682515 0.0005660394672304391
v 0.008688168600201607 0.002894117031246424 0.0005023772246204316
v 0.008486570790410042 0.002938165795058013 0.00021443674631882456
v 0.008471446111798286 0.0029411539435386666 0.00015439256094396112
v 0.008457938209176064 0.0029438231140375146 0.00010076366015709935
v 0.008341940119862556 0.0029622314032167205 -0.0022493656724691387
v 0.00845077820122242 0.0029451975133270034 -3.233130337321199e-05
v 0.008471531793475151 0.0029410920105874547 -0.0001556277275085449
v 0.0084761381149292 0.002940180944278837 -0.00018299325893167404
v 0.008546857163310051 0.0029256439302116637 -0.0003418850828893482
v 0.00861908495426178 0.0029095262289047246 -0.00042676043813116843
v 0.008674520999193192 0.002897156169638038 -0.0004919040948152541
v 0.008864729665219784 0.002849449403584004 -0.0006064292392693459
v 0.008552168495953083 0.0029241899028420453 -0.002204944612458348
v 0.008869628421962261 0.002848097821697593 -0.0006078385631553828
v 0.00858607143163681 0.0029159826226532464 -0.0021947713103145357
v 0.008977236226201057 0.0028184046968817715 -0.000638797937426716
v 0.008861836977303028 0.0028492223937064414 -0.002112021436914801
v 0.008889595977962017 0.0028425024356693034 -0.002103691920638084
v 0.009151177480816841 0.0027662641368806366 -0.0019962578080594535
v 0.009101249277591705 0.00278081581927836 -0.002016763668507337
v 0.008936119265854359 0.002828943077474833 -0.002084584208205342
v 0.007859409786760807 0.003032577922567726 0.002329865004867315
v 0.007931425236165524 0.0030256833415478477 0.002321444451808929
v 0.0077918097376823425 0.0030394839122891435 -0.0023400620557367797
v 0.008023355156183243 0.0030126546043902644 0.002306272974237799
v 0.007857471704483032 0.0030313699971884498 -0.0023305050563067193
v 0.008285357616841793 0.0029755225405097016 0.0022630342282354827
v 0.008237012661993504 0.0029812180437147626 -0.0022715367376804347
v 0.00818032119423151 0.0029914767947047958 -0.0022835156414657827
v 0.007767665199935436 0.003042467404156924 -0.002343575935810804
v 0.007549072615802288 0.003061911556869746 0.002365786815062165
v 0.007559095975011587 0.003061328316107393 0.002364978892728686
v 0.007590101566165686 0.003058102214708925 -0.002362993080168962
v 0.007549044210463762 0.003060632850974799 -0.002366441767662763
v 0.007517243269830942 0.0030637644231319436 0.0023683533072471614
v 0.007340093143284321 0.0030735123436898 -0.002383993240073323
v 0.007168470416218042 0.0030840637627989062 0.002396474592387676
v 0.007218909449875355 0.0030809815507382163 -0.0023941723629832263
v 0.006990050431340933 0.0030894833616912374 0.0024049566127359863
v 0.0071087973192334175 0.0030864798463881024 0.0024002392310649152
v 0.00696996133774519 0.003090356010943652 -0.0024090625811368223
v 0.00688259257003665 0.003092570463195444 -0.002412830246612429
v 0.006640680134296417 0.003098319051787258 0.0024188368115574117
v 0.00680326484143734 0.00309458188712597 -0.002416250994428992
v 0.006691647693514824 0.003096675733104349 -0.002419296652078628
v 0.006616868078708649 0.0030978040304034957 -0.002419976750388741
v 0.006566721014678478 0.00309845362789929 -0.002419308293610811
v 0.006533048115670681 0.0030988468788564214 -0.002417911076918244
v 0.00651039881631732 0.003099093213677407 -0.0024161671753972764
v 0.006495131179690361 0.0030992517713457355 -0.0024143052287399764
v 0.0064848135225474834 0.0030993558466434487 -0.0024124546907842155
v 0.006477821618318558 0.0030994247645139703 -0.0024106793571263547
v 0.006508372258394957 0.003099965862929822 0.002414869144558906
v 0.006473074667155743 0.0030994710978120574 -0.0024089997168630357
v 0.00647161016240716 0.003099485533311964 -0.0024060851428657766
v 0.00646832212805748 0.003099517198279501 -0.002406378276646137
v 0.0064667100086808205 0.0030995323322713384 -0.002404856029897928
v 0.006465614307671785 0.0030995435081422338 -0.0024029007181525226
v 0.006465399172157049 0.003100391710177065 0.0024003991857171054
v 0.006486884318292141 0.0031001849565655 0.0024076341651380058
v 0.006466447375714779 0.0031003826297819623 0.0024034262169152494
v 0.006475523579865694 0.0031002964824438104 0.002408842789009213
v 0.006468484178185463 0.003100363304838539 0.0024054085370153184
v 0.010006040334701538 0.002453298773616553 0.00014222649042494592
v 0.010589467361569405 0.0022045727819204335 0.0001851799606811255
v 0.010599082335829735 0.0022003760095685725 5.439252709038555e-05
v 0.010591734200716019 0.0022035269066691403 -0.00016478731413371858
v 0.010582547634840012 0.002207504585385323 -0.0002194941334892064
v 0.010555099695920944 0.002219387795776129 -0.0003829390043392777
v 0.010530224069952965 0.002230163430795074 -0.00047673963126726443
v 0.010451637208461761 0.002264172770082951 -0.000692496309056878
v 0.010437075980007648 0.0022704489529132847 -0.0007213259814307093
v 0.010346376337110996 0.002309542149305344 -0.0009009058121591805
v 0.010211084969341755 0.0023673118557780985 -0.0011084816651418803
v 0.010135799646377563 0.002398875774815679 -0.00120138400234282
v 0.010073518380522728 0.0024255721364170317 0.0012804165016859768
v 0.01008551474660635 0.0024205320514738564 0.001265534316189587
v 0.010192586109042168 0.0023755468428134923 0.0011327048996463416
v 0.010341547429561615 0.0023119365796446805 0.0009084207122214137
v 0.01040277723222971 0.002285502385348082 0.000786718155723065
v 0.01045782770961523 0.002261735731735826 0.000677299394737929
v 0.010477948933839798 0.002253016456961632 0.0006280976813286542
v 0.010548699647188187 0.0022223044652491812 0.00040839580469764764
v 0.01057073287665844 0.0022127209231257443 0.0002877537917811423
v 0.010042550042271614 0.0024379715323448185 -0.0013164542615413664
v 0.00377394026145339 0.0030995423439890155 -0.0024085249751806255
v 0.0037744175642728806 0.003100392874330283 0.0024061920121312137
v 0.004244564101099968 0.0030995348934084186 -0.0024620969779789443
v 0.00412024836987257 0.00310040032491088 0.0024489059578627344
v 0.00467904144898057 0.003099529771134258 -0.0024912839289754625
v 0.0045836493372917175 0.0031004068441689023 0.0024855071678757663
v 0.00467904144898057 0.0031004075426608333 0.002490191953256726
v 0.009622324258089066 0.0026002693921327595 0.0017068642191588876
v 0.007021104451268911 0.003033431479707361 0.0025552369188517328
v 0.0018974202685058117 0.0030322938691824683 0.0021641515195369716
v 0.0019189673475921154 0.003033365588635207 0.00217796373181045
v 0.0019215238280594349 0.0030345148406922826 0.0021703597158193584
v 0.0016113584861159325 0.0030059325508773336 0.0020904703997075553
v 0.0015293497126549482 0.0029955331701785335 0.002062660409137606
v 0.0014726303052157164 0.002850353252142668 0.0021801907569169994
v 0.0009273613104596734 0.0029079650994390254 0.0018279143841937182
v 0.0008860389934852719 0.002899832092225552 0.0018051954684779046
v 0.0008666679495945573 0.002850292250514031 0.0018342864932492373
v 0.0006352217169478536 0.0028502407949417834 0.0016663529677316544
v 0.000593021628446877 0.002840455621480942 0.001636981265619397
v 0.0005529319168999791 0.002600266365334392 0.001687295385636389
v 0.0003862848680000752 0.0027925197500735526 0.0014930916950106619
v 0.00036014823126606643 0.0026002372615039353 0.0015213304432108996
v 0.0007891143904998899 0.0026002970989793543 0.0018604627111926673
v 0.0006416720570996404 0.002851736266165972 0.0016708424082025883
v 0.001096505206078291 0.002935292199254037 0.00190129445400089
v 0.0011596307158470154 0.0028503241483122115 0.0020155317615717645
v 0.0011991369538009167 0.002951873932033778 0.0019458193564787505
v 0.0012504805345088243 0.002960169455036522 0.001968093682080507
v 0.0020272040273994207 0.0030442539136856803 0.0021975799463689323
v 0.0023236991837620735 0.0030333914328366527 0.0023263322655111547
v 0.00205223704688251 0.003046560566872359 0.002204027725383639
v 0.002744687022641301 0.0030334135517478 0.0024519718717783685
v 0.002537847263738513 0.0030754674226045617 0.0022953022271394725
v 0.002345355460420251 0.003064008429646493 0.0022591219749301668
v 0.003272031433880329 0.00309622846543789 0.002384886378422379
v 0.0032175774686038494 0.0030952224042266616 0.0023794469889253374
v 0.0031807736959308386 0.0030334319453686484 0.002555630169808864
v 0.003022843273356557 0.003091626102104784 0.0023599960841238494
v 0.0027774879708886147 0.00308345165103674 0.0023272680118679996
v 0.003623884404078126 0.003099692752584816 0.002410120330750942
v 0.003549559973180294 0.0030991984531283387 0.002406062558293342
v 0.0036309571005403996 0.003033446380868555 0.002637551864609122
v 0.003438398474827409 0.0030982401221990594 0.002398514654487371
v 0.0033759165089577436 0.0030974848195910462 0.002393396338447928
v 0.00409435061737895 0.0030334568582475194 0.002697572577744722
v 0.00377287226729095 0.003100387519225479 0.0024083273019641633
v 0.0037708475720137358 0.003100380767136813 0.0024092691019177432
v 0.003768743248656392 0.003100373316556216 0.002409911714494228
v 0.00376564241014421 0.0031003623735159644 0.0024105866905301805
v 0.0037610623985528946 0.003100345842540265 0.0024112781975418325
v 0.00375427957624197 0.003100320231169463 0.002411948516964912
v 0.003744209883734584 0.0031002815812826165 0.002412528963759541
v 0.0037292304914444685 0.003100220812484623 0.002412900328636169
v 0.003706911113113165 0.00310012442059815 0.002412866102531552
v 0.003673612605780363 0.0030999653972685346 0.0024121096357703205
v 0.0036660456098616123 0.003099923953413964 0.0024118069559335704
v 0.004932948388159275 0.0031003812327981004 0.0025045159272849555
v 0.004857159219682217 0.0031003684271126994 0.0025031524710357185
v 0.004850996192544699 0.0030334654729813346 0.0027463103178888555
v 0.004820939619094133 0.0031003623735159644 0.002502501010894775
v 0.004767166450619698 0.003100353293120862 0.0025015338324010368
v 0.004570130258798599 0.0030334636103361854 0.002735153073444962
v 0.006456038914620876 0.0031003919430077085 0.0024017775431275363
v 0.006492329761385918 0.003033448476344348 0.002649141242727637
v 0.007534328382462263 0.0030334095936268577 0.0024304108228534456
v 0.008074605837464333 0.00285040051676333 0.002451849170029163
v 0.008502448908984661 0.002850370947271586 0.0022835747804492708
v 0.00852916855365038 0.0026003818493336443 0.0023450464941561218
v 0.008930438198149204 0.002600347856059671 0.0021523765753954645
v 0.009027094580233097 0.0026003380771726374 0.002095920033752918
v 0.009299393743276596 0.0026003099046647553 0.001936871791258454
v 0.009592583402991295 0.0026002735830843453 0.0017301623011007903
v 0.0008292995626106858 0.0026003022212535147 0.0018899262649938462
v 0.0011264607310295105 0.0026003345847129826 0.0020737741142511363
v 0.0014268038794398308 0.002600362524390221 0.0022317783441394563
v 0.001443374902009964 0.002600363921374083 0.002240496221929788
v 0.001825275830924511 0.0026003937236964707 0.002409819513559341
v 0.0018503803294152021 0.0028503825888037686 0.0023476702626794572
v 0.0021712053567171097 0.0026004160754382615 0.002536641433835029
v 0.00226615066640079 0.0028504095971584324 0.002500093542039394
v 0.0022450864780694246 0.002600420964881778 0.002563727088272571
v 0.0026801417116075754 0.0026004435494542126 0.002693572314456105
v 0.0026974366046488285 0.002850431948900223 0.002628811867907643
v 0.0029991939663887024 0.0026004570536315445 0.0027694152668118473
v 0.0031432798132300377 0.0028504505753517155 0.002734793350100517
v 0.0031295560766011477 0.0026004624087363486 0.002800403861328959
v 0.0035925554111599922 0.0026004773098975424 0.0028846610803157087
v 0.003887410508468747 0.0026004840619862084 0.002922853687778115
v 0.0040753926150500774 0.0028504761867225174 0.0028796331025660034
v 0.0036028451286256313 0.0028504654765129094 0.0028184249531477685
v 0.0040684533305466175 0.0026004880201071505 0.0029463036917150016
v 0.004556611645966768 0.00260049500502646 0.00298486347310245
v 0.004560233559459448 0.0028504829388111834 0.0029179304838180538
v 0.004810348618775606 0.0026004966348409657 0.0029949431773275133
v 0.004846358206123114 0.0028504850342869763 0.002929296344518661
v 0.00484466040506959 0.0026004968676716094 0.002996306167915463
v 0.005410933401435614 0.0026004966348409657 0.002994742942973971
v 0.005741708911955357 0.002600493142381311 0.002975173527374863
v 0.0059677837416529655 0.0028504787478595976 0.002894677454605698
v 0.00540886539965868 0.002850484568625689 0.002927743829786777
v 0.0049628205597400665 0.003100409172475339 0.0024984711781144138
v 0.005403215531259775 0.003033465240150691 0.0027447862084954973
v 0.005395497661083937 0.003100408473983408 0.0024948935024440284
v 0.005951784551143646 0.0030334594193845996 0.0027123333420604463
v 0.005929929669946432 0.00310040288604796 0.0024632785934954877
v 0.005973639898002148 0.0026004908140748744 0.0029614521190524097
v 0.006528620608150959 0.0026004794053733353 0.002896569669246673
v 0.006518896669149399 0.0028504675719887023 0.0028302476275712247
v 0.006654587108641863 0.002600475447252393 0.002874198136851191
v 0.007058639079332352 0.002850450342521072 0.0027343914844095703
v 0.007583437021821737 0.0028504277579486374 0.002606744179502129
v 0.007072377484291792 0.002600462175905705 0.002799998968839645
v 0.007523078937083483 0.0026004428509622817 0.0026903720572590824
v 0.007601412013173103 0.002600439358502627 0.0026713185943663116
v 0.008096986450254917 0.0026004118844866757 0.0025150312576442953
v 0.008321034722030163 0.002600396284833551 0.002426909282803535
v 0.00529496418312192 -0.0031995880417525777 0.002498579211533069
v 0.0049628205597400665 -0.003199587808921934 0.0024995813146233554
v 0.0049628205597400665 -0.0032004688400775203 -0.0024984530173242088
v 0.005395497661083937 -0.0032004681415855893 -0.0024948753416538234
v 0.005929929669946432 -0.0032004625536501416 -0.0024632604327052827
v 0.005813991650938988 -0.003199592465534807 0.002473835833370685
v 0.006456038914620876 -0.00320045161060989 -0.0024017591495066877
v 0.006326738279312849 -0.0031996017787605533 0.0024208927061408754
v 0.009592583402991295 -0.0027003339491784577 -0.0017301435582339761
v 0.0018974205013364553 -0.003132353303954006 -0.0021641335915774103
v 0.001918967580422759 -0.003133425023406745 -0.0021779458038508888
v 0.0019215240608900785 -0.003134574508294464 -0.002170341787859797
v 0.001250480767339468 -0.003060228656977416 -0.001968075986951589
v 0.0011991371866315603 -0.0030519335996359595 -0.0019458016613498328
v 0.001159630948677659 -0.0029503835830837497 -0.002015514066442847
v 0.00038628498441539705 -0.0028925791848450903 -0.0014930739998817442
v 0.00036014834768138826 -0.002700296696275473 -0.0015213128644973037
v 0.0005090090562589467 -0.0029210350476205353 -0.0015784903662279246
v 0.0005529321497306228 -0.00270032580010593 -0.0016872776905074713
v 0.0005930218612775207 -0.0029405150562524804 -0.0016369635704904793
v 0.0006352219497784972 -0.002950299996882678 -0.0016663352726027367
v 0.0008666681824252009 -0.002950351685285569 -0.0018342687981203196
v 0.000641672289930284 -0.0029517957009375104 -0.0016708247130736706
v 0.0008860392263159156 -0.0029998915269970903 -0.0018051777733489869
v 0.0009273615432903171 -0.00300802430137992 -0.0018278966890648005
v 0.0013903477229177952 -0.003077965462580324 -0.002015505917370319
v 0.00147263053804636 -0.0029504126869142064 -0.0021801730617880817
v 0.0015293499454855919 -0.0030955926049500712 -0.0020626427140086885
v 0.0020522375125437975 -0.0031466202344745406 -0.0022040097974240776
v 0.002323699649423361 -0.0031334513332694778 -0.0023263143375515933
v 0.002345355926081538 -0.0031640685629099616 -0.0022591040469706054
v 0.0027446874883025885 -0.003133473452180625 -0.002451953943818807
v 0.002777488436549902 -0.003183511085808278 -0.0023272500839084382
v 0.0025378477293998003 -0.0031755268573760995 -0.002295284299179911
v 0.0023961374536156654 -0.0031670916359871635 -0.002268648939207196
v 0.003022843739017844 -0.003191686002537609 -0.002359978156164288
v 0.003180774161592126 -0.0031334918458014735 -0.002555612241849303
v 0.0032175779342651367 -0.0031952823046594867 -0.002379429060965776
v 0.0036238848697394133 -0.0031997524201869973 -0.0024101024027913804
v 0.0035495604388415813 -0.003199258353561164 -0.002406044630333781
v 0.003630957566201687 -0.00313350628130138 -0.0026375339366495605
v 0.003438398940488696 -0.0031983000226318845 -0.0023984967265278097
v 0.0032720318995416164 -0.0031962881330400714 -0.002384868217632174
v 0.00409435061737895 -0.0031335167586803445 -0.0026975546497851606
v 0.0037742264103144407 -0.0032004518434405336 -0.0024069752544164653
v 0.003770848037675023 -0.0032004404347389945 -0.002409251173958182
v 0.0037687437143176794 -0.0032004329841583976 -0.0024098937865346666
v 0.003765642875805497 -0.003200422041118146 -0.002410568762570619
v 0.003761062864214182 -0.0032004055101424464 -0.0024112600367516275
v 0.0037542800419032574 -0.003200380131602288 -0.002411930356174707
v 0.003744210349395871 -0.003200341248884798 -0.002412510802969336
v 0.003729230957105756 -0.003200280712917448 -0.002412882167845964
v 0.003706911578774452 -0.0032001840882003316 -0.002412847941741347
v 0.0036736130714416504 -0.003200025064870716 -0.0024120914749801155
v 0.0036660460755228996 -0.0031999836210161456 -0.0024117887951433654
v 0.004932948388159275 -0.003200440900400282 -0.0025044977664947505
v 0.004857159219682217 -0.003200428094714881 -0.0025031343102455135
v 0.004850996192544699 -0.0031335253734141597 -0.0027462921570986505
v 0.004820939619094133 -0.0032004222739487895 -0.00250248285010457
v 0.004767166450619698 -0.003200413193553687 -0.0025015156716108318
v 0.00467904144898057 -0.0032004672102630147 -0.002490173792466521
v 0.004570130258798599 -0.0031335235107690105 -0.0027351351454854007
v 0.006492329761385918 -0.003133508376777173 -0.002649122849106788
v 0.007021104451268911 -0.0031334918458014735 -0.002555218525230884
v 0.007534328382462263 -0.00313346995972097 -0.002430392429232597
v 0.008074605837464333 -0.0029504608828574428 -0.0024518305435776706
v 0.007583437021821737 -0.0029504881240427503 -0.002606725553050637
v 0.008502448908984661 -0.0029504313133656987 -0.0022835561539977785
v 0.008930438198149204 -0.0027004082221537833 -0.002152357948943972
v 0.009114667773246765 -0.0027003893628716473 -0.002044750144705176
v 0.009299393743276596 -0.0027003702707588677 -0.0019368531648069618
v 0.0008292997954413295 -0.0027003616560250525 -0.0018899085698649285
v 0.0008691413095220923 -0.0027003658469766383 -0.0019145576516166327
v 0.0011264609638601542 -0.0027003940194845204 -0.0020737564191222187
v 0.0014433751348406076 -0.0027004233561456208 -0.0022404785268008705
v 0.0015233231242746115 -0.0027004296425729994 -0.002275925129652023
v 0.0018503805622458458 -0.002950442023575307 -0.0023476525675505395
v 0.0018252760637551546 -0.0027004531584680085 -0.0024098018184304233
v 0.002245086943730712 -0.002700480399653316 -0.0025637091603130098
v 0.0022661511320620775 -0.0029504690319299707 -0.0025000758469104763
v 0.002279413864016533 -0.002700482262298465 -0.0025739541742950674
v 0.002697437070310116 -0.0029504918493330487 -0.002628794172778725
v 0.0026801421772688627 -0.0027005034498870377 -0.0026935543864965435
v 0.003116999287158251 -0.0027005218435078864 -0.0027974008116871114
v 0.003143280278891325 -0.002950510475784541 -0.002734775189310312
v 0.003129556542262435 -0.0027005223091691737 -0.0028003859333693977
v 0.0035925558768212795 -0.0027005372103303675 -0.0028846431523561473
v 0.0036028455942869186 -0.002950525376945735 -0.0028184067923575635
v 0.004011824261397123 -0.0027005467563867573 -0.002938950434327125
v 0.0040753926150500774 -0.002950536087155343 -0.0028796149417757984
v 0.0045836493372917175 -0.0032004665117710837 -0.0024854890070855613
v 0.00412024836987257 -0.0032004599925130614 -0.0024488877970725294
v 0.0040684533305466175 -0.0027005479205399756 -0.0029462855309247966
v 0.004556611645966768 -0.002700554905459285 -0.002984845312312245
v 0.004560233559459448 -0.002950542839244009 -0.0029179123230278488
v 0.00484466040506959 -0.0027005567681044344 -0.002996288007125258
v 0.004846358206123114 -0.002950544934719802 -0.002929278183728456
v 0.004937655758112669 -0.0027005567681044344 -0.002996031194925308
v 0.00540886539965868 -0.0029505444690585145 -0.002927725668996572
v 0.005410933401435614 -0.002700556535273791 -0.002994724782183766
v 0.005868179257959127 -0.0027005518786609177 -0.0029676731210201974
v 0.0059677837416529655 -0.002950538648292423 -0.002894659293815493
v 0.005403215531259775 -0.003133525140583516 -0.0027447678148746486
v 0.005951784551143646 -0.0031335193198174247 -0.0027123149484395976
v 0.005973639898002148 -0.0027005507145076994 -0.0029614339582622047
v 0.006528620608150959 -0.0027005393058061604 -0.0028965512756258245
v 0.006518896669149399 -0.0029505274724215278 -0.0028302294667810197
v 0.0067761908285319805 -0.002700531389564276 -0.0028525830712169404
v 0.007058639079332352 -0.0029505107086151847 -0.0027343730907887216
v 0.0016113587189465761 -0.003105992218479515 -0.0020904527045786376
v 0.007072377484291792 -0.0027005225419998173 -0.0027999805752187963
v 0.007601412013173103 -0.0027004997245967392 -0.002671300200745463
v 0.007636999245733023 -0.00270049786195159 -0.002660077298060059
v 0.00852916855365038 -0.0027004422154277567 -0.0023450278677046295
v 0.00842380989342928 -0.0027004496660083537 -0.002386467065662145
v 0.008096986450254917 -0.002700472250580788 -0.002515012631192803
v 0.004754095803946257 0.0025994412135332827 -0.0029945177957415576
v 0.004937685094773769 0.002599440980702639 -0.0029958011582493778
v 0.000273458514129743 -0.002699248725548387 -0.0014379626372829077
v 0.00027345854323357344 -0.0005899613606743516 -0.0014383343514055011
v 0.00031623741961084306 -0.0027000226546078925 -0.001479869009926915
v 0.00033585389610379934 -0.0005568027845583857 -0.0014989499468356369
v 0.00033594793058000505 -0.0027001458220183854 -0.001498472294770181
v 0.0004293367965146899 -0.0004846809897571803 -0.0015832912176847456
v 0.0004531618906185031 -0.0004662997671402992 -0.0016047864919528363
v 0.0005429739831015468 -0.0003576483868528158 -0.0016796806594356892
v 0.0006037781713530421 -0.00024106605269480502 -0.0017277646111324427
v 0.0006068850634619594 -0.00023056766076479113 -0.001730144955217838
v 0.0006375521188601851 -0.0001269375497940928 -0.0017536417581140993
v 0.0006496811984106898 -2.070160735456739e-05 -0.0017628067871555684
v 0.0006386110326275229 7.725819887127729e-05 -0.0017544521251693366
v 0.0006287529831752181 0.00016449388931505385 -0.0017470122547820208
v 0.0008700498146936297 0.0025996316689997916 -0.0019143060781061647
v 0.0005807027919217944 0.00029170321067795163 -0.001709853298962116
v 0.0005292043788358569 0.00036488671321421867 -0.0016677710227668283
v 0.0004709049826487899 0.0004477338807191701 -0.0016201316611841319
v 0.0006362976273521781 0.0025996600743383174 -0.0017531721387058494
v 0.00027345839771442115 0.0025991897564381365 0.0014379803324118254
v 0.0002734583686105907 0.000589901872444898 0.0014383343514055011
v 0.00031623730319552124 0.0025999634526669983 0.0014798867050558326
v 0.0003004266764037311 0.0005730822449550034 0.0014637494459748266
v 0.0004093793104402721 0.0005051306216046215 0.0015664269449189303
v 0.0005307957762852311 0.0003754383942577989 0.001669806079007685
v 0.0005340167554095387 0.00036903671571053575 0.0016723521985113619
v 0.0006176234455779195 0.00020286206563469028 0.0017384415259584782
v 0.0006416054675355554 0.00010440521873533728 0.001756710698828101
v 0.000643729348666966 7.85033334977925e-05 0.0017583145527169106
v 0.0006499976152554154 2.0628704078262676e-06 0.001763047883287072
v 0.0006420953432098031 -0.00010077987826662141 0.0017571166390553115
v 0.0007904107915237546 -0.002699700882658363 0.0018594259163364766
v 0.0006185645470395684 -0.0001994174963328988 0.001739234081469476
v 0.0006041169399395585 -0.00022841997270006692 0.0017278318991884587
v 0.0005319822812452912 -0.00037322475691325973 0.0016709037590771911
v 0.00042874383507296443 -0.00048411969328299176 0.0015831146156415341
v 0.00041045871330425143 -0.0005037609371356667 0.0015675657195970414
v 0.0006362973945215344 -0.002699719509109855 0.0017531898338347671
v 0.0003601481730584055 -0.0026997602544724946 0.0015222644433379171
v 0.0003162102366331965 -0.002699500881135464 0.0014807948609814046
v 0.0002734583686105907 -0.0005894543719477953 0.001438542269170284
v 0.00027345833950676024 -0.002698741620406509 0.0014389139832928775
v 0.009563504718244076 0.00259965960867703 -0.0017533205682411788
v 0.009273793548345566 0.0025996242184191947 -0.0019541776273399587
v 0.00036014840588904917 0.0025997008197009568 -0.0015222468646243212
v 0.00033585389610379934 0.000556214654352516 -0.0014991461066529153
v 0.00033594798878766596 0.002599558094516397 -0.0014994061784818766
v 0.00030162406619638205 0.0005744171794503928 -0.001465899054892361
v 0.0003162104694638401 0.0025994414463639264 -0.0014807771658524869
v 0.00027345854323357344 0.0005893948837183417 -0.001438542269170284
v 0.0002734585723374039 0.0025986826512962584 -0.0014388962881639598
v 0.007636416237801313 0.002599500119686127 -0.002658853074535727
v 0.007425074931234121 0.002599489409476519 -0.0027192083653062578
v 0.006963113322854042 0.002599471248686314 -0.002823088318109512
v 0.008423997089266777 0.002599547849968076 -0.0023880396038293834
v 0.008302383124828339 0.0025995387695729737 -0.002439482836052775
v 0.007871786132454872 0.0025995119940489535 -0.002591635566204786
v 0.008633767254650593 0.002599563449621201 -0.002299305517226457
v 0.008963492698967457 0.002599592320621014 -0.0021356460638344284
v 0.009115342050790787 0.002599607920274139 -0.002046842128038406
v 0.006654378958046436 -0.0026995223015546803 0.0028736097738146778
v 0.0063920882530510426 -0.0026995148509740834 0.002916515571996569
v 0.005851502995938063 -0.00269950507208705 0.0029723385814577337
v 0.007522975094616413 -0.002699554665014148 0.002691268222406506
v 0.007425074931234121 -0.0026995497755706315 0.0027192267589271064
v 0.006963113322854042 -0.0026995316147804265 0.0028231067117303606
v 0.008322292007505894 -0.002699600532650948 0.002431079745292663
v 0.008302383124828339 -0.002699599135667086 0.0024395014625042673
v 0.007871786132454872 -0.002699572360143066 0.0025916539598256345
v 0.009027796797454357 -0.0026996592059731488 0.0020980588160455223
v 0.008963492698967457 -0.0026996526867151265 0.0021356646902859207
v 0.008633767254650593 -0.0026996238157153134 0.0022993241436779495
v 0.009273793548345566 -0.002699684584513307 0.001954196253791451
v 0.009563504718244076 -0.0026997199747711424 0.001753339311107993
v 0.009622279554605484 -0.0026997281238436703 0.0017077407101169226
v 0.0009464604081586003 -0.002699682023376227 0.00196699658408761
v 0.001290579792112112 -0.0026996470987796788 0.002164378063753247
v 0.001426546834409237 -0.0026996349915862088 0.002233197214081883
v 0.0018632484134286642 -0.0026996009983122353 0.002425966085866093
v 0.005741822998970747 -0.0026995041407644753 0.002977567724883556
v 0.005305141676217318 -0.002699500415474177 0.002998387441039085
v 0.004810341168195009 -0.002699500881135464 0.002994929207488894
v 0.004754095803946257 -0.002699501113966108 0.0029945359565317626
v 0.004199483897536993 -0.002699507167562843 0.0029599904082715507
v 0.0038875271566212177 -0.002699513686820865 0.0029225889593362804
v 0.0036422042176127434 -0.002699519041925669 0.0028931759297847743
v 0.0033310134895145893 -0.0026995281223207717 0.00284106726758182
v 0.0029993669595569372 -0.002699540695175529 0.002769301878288388
v 0.002817750908434391 -0.0026995476800948386 0.00273000169545412
v 0.0023276335559785366 -0.0026995721273124222 0.002591469325125217
v 0.0021717746276408434 -0.002699581673368812 0.002535922452807426
v 0.005305141676217318 0.0025994405150413518 -0.00299836928024888
v 0.005851502995938063 0.002599445171654225 -0.0029723204206675287
v 0.005868276581168175 0.0025994454044848685 -0.002970588160678744
v 0.0063920882530510426 0.0025994549505412583 -0.0029164971783757205
v 0.00677627045661211 0.00259946589358151 -0.002853652229532599
v 0.004199483897536993 0.0025994472671300177 -0.0029599722474813457
v 0.004012097604572773 0.00259945122525096 -0.002937505720183253
v 0.0036422046832740307 0.002599459141492844 -0.002893158001825213
v 0.0033310139551758766 0.0025994682218879466 -0.0028410493396222587
v 0.0031177359633147717 0.0025994763709604744 -0.0027948978822678323
v 0.0028177513740956783 0.0025994877796620135 -0.002729983767494559
v 0.002327634021639824 0.002599512226879597 -0.0025914513971656557
v 0.0022796590346843004 0.0025995154865086083 -0.0025743534788489337
v 0.0018632486462593079 0.0025995415635406975 -0.0024259483907371755
v 0.0015236744657158852 0.002599568106234074 -0.00227605365216732
v 0.0014259344898164272 0.002599575556814671 -0.002232909202575683
v 0.0012905800249427557 0.002599587664008141 -0.002164360368624329
v 0.000946460640989244 0.002599622588604689 -0.001966978888958692
v 0.00529496418312192 0.0030995283741503963 -0.002498561050742864
v 0.0049628205597400665 0.0030995281413197526 -0.0024995631538331504
v 0.005813991650938988 0.0030995327979326257 -0.00247381767258048
v 0.006326738279312849 0.003099542111158372 -0.0024208743125200267
v 0.0037744175642728806 -0.00319960410706699 0.002407302381470799
v 0.004244564101099968 -0.0031995945610106 0.0024621151387691493
v 0.00467904144898057 -0.0031995894387364396 0.0024913020897656675
v -0.000786299875471741 0.0024182342458516364 -0.001000425894744694
v -0.002184072509407997 -0.0012369217583909633 -0.0009997818851843474
v -0.002345539629459381 -0.0006787269958294929 -0.0009998802561312912
v -0.002399999648332596 -0.00010020576883107426 -0.0009999822359532116
v -0.002399999648332596 -2.0599264871634665e-07 -0.0009999998146668074
v -0.002345539629459381 0.0005783152300864459 -0.0010001017944887278
v -0.000786299875471741 -0.002518646186217666 -0.0009995559230446813
v -0.001566371531225741 -0.002215283922851086 -0.0009996094740927217
v -0.0019212720217183232 -0.0017551770433783536 -0.0009996904991567133
v -0.002184072509407997 0.00113650958519429 -0.0010002001654356716
v -0.0019212720217183232 0.0016547652194276456 -0.001000291435047984
v -0.001566371531225741 0.0021148719824850564 -0.0010003725765272973
v -0.0007862999918870628 -0.002518293680623174 0.0010004434734582899
v -0.002184072509407997 0.0011368620907887819 0.0009997992310672996
v -0.002345539629459381 0.0005786677356809379 0.0009998976020142434
v -0.0007862999918870628 0.0024185867514461283 0.0009995735017582772
v -0.001566371531225741 0.0021152244880795483 0.000999626819975674
v -0.0019212720217183232 0.0016551177250221376 0.0009997079614549873
v -0.002399999648332596 1.4646815316154973e-07 0.0009999995818361638
v -0.002399999648332596 -9.985330689232799e-05 0.0010000171605497596
v -0.002345539629459381 -0.000678374490235001 0.00100011914037168
v -0.002184072509407997 -0.0012365692527964713 0.0010002175113186238
v -0.0019212720217183232 -0.0017548245377838616 0.001000308897346258
v -0.001566371531225741 -0.002214931417256594 0.0010003899224102495
v 0.0003290850145276636 -0.0028387657366693024 -0.0014644114999100564
v 0.000317323807394132 -0.0028241290710866456 -0.001459100400097668
v 0.0003084734489675611 -0.002810570411384106 -0.001455034827813506
v 0.000289711490040645 -0.002773921471089125 -0.0014462440740317104
v 0.00027802385739050806 -0.0027368264272809033 -0.0014405193505808709
v 0.0003464392793830484 -0.0028603631071746354 -0.001472248346544802
v 0.0003770872426684946 -0.0028902778867632155 -0.0014858148060739038
v 0.0036909845657646656 -0.0031992597505450257 0.002413693349808454
v 0.003714135382324457 -0.0031993587035685786 0.002413466107100248
v 0.0036792741157114506 -0.0031325751915574082 0.002646015956997871
v 0.006914937868714333 -0.0031325872987508782 0.00257786875590682
v 0.007795969024300575 -0.0031326268799602994 0.0023535043001174922
v 0.00860590673983097 -0.0029496343340724715 0.0022384498734027143
v 0.008278008550405502 -0.002949609886854888 0.0023771498817950483
v 0.00785147026181221 -0.0029495833441615113 0.002527865814045071
v 0.007363429293036461 -0.0031326052267104396 0.0024770228192210193
v 0.006359413266181946 -0.0031325710006058225 0.00266873650252819
v 0.004762683529406786 -0.003132557729259134 0.0027447598986327644
v 0.004771187901496887 -0.0031995633617043504 0.002497893758118152
v 0.004820939619094133 -0.0031995491590350875 0.0025014525745064016
v 0.004888811614364386 -0.0031995298340916642 0.0025063077919185157
v 0.005300052929669619 -0.0031325570307672032 0.0027485159225761886
v 0.0037540881894528866 -0.0031995291355997333 0.0024130735546350475
v 0.003769824281334877 -0.0031995873432606467 0.0024107184726744886
v 0.004222023766487837 -0.0031325635500252256 0.002711085136979818
v 0.003773052478209138 -0.003199599217623473 0.0024093212559819217
v 0.0034393833484500647 -0.003197464160621167 0.0023996969684958454
v 0.0033765588887035847 -0.003132584039121867 0.0025953275617212053
v 0.0034132141154259443 -0.003196990583091975 0.0023971267510205503
v 0.0028781031724065542 -0.0031326031312346467 0.002487472258508205
v 0.0029127192683517933 -0.003187933238223196 0.002347968984395265
v 0.0024034702219069004 -0.0031326266471296558 0.0023533257190138097
v 0.002427420113235712 -0.0031692837364971646 0.002277985448017716
v 0.0024382607080042362 -0.0031699610408395537 0.0022800904698669906
v 0.002894538687542081 -0.003187604248523713 0.0023461834061890836
v 0.0018952798563987017 -0.0031318559776991614 0.0021657249890267845
v 0.001959853572770953 -0.003137610154226423 0.0021819313988089557
v 0.0019555012695491314 -0.003132654586806894 0.0021936865523457523
v 0.0020522931590676308 -0.0031458472367376098 0.0022051313426345582
v 0.002396074589341879 -0.003167325397953392 0.0022718976251780982
v 0.0015114489942789078 -0.0030924249440431604 0.0020573029760271306
v 0.0016844284255057573 -0.0031130674760788688 0.0021128070075064893
v 0.0018879675772041082 -0.002949611749500037 0.002363750478252768
v 0.0014553924556821585 -0.002949645509943367 0.00217280862852931
v 0.001321660354733467 -0.0029496573843061933 0.0021050814539194103
v 0.0013902466744184494 -0.0030779612716287383 0.0020184128079563375
v 0.001034651417285204 -0.00302596832625568 0.0018793189665302632
v 0.0013353980612009764 -0.0030714159365743407 0.002000813605263829
v 0.0013702036812901497 -0.0030755696352571258 0.0020119815599173303
v 0.0006767526501789689 -0.002949728863313795 0.0016998421633616088
v 0.000760983326472342 -0.0029758892487734565 0.0017419789219275115
v 0.0009821024723351002 -0.0029496916104108104 0.0019103224622085688
v 0.0010094409808516502 -0.0030213550198823222 0.001866666949354112
v 0.0003862848097924143 -0.0028920529875904326 0.0014940935652703045
v 0.0005088347825221717 -0.0029215482063591485 0.0015847040340304373
v 0.0006383295403793454 -0.0029494559857994327 0.0016654749633744357
v 0.000681888428516686 -0.0029588432516902694 0.0016926442040130494
v 0.007408556994050741 -0.0029495609924197206 0.002654352225363254
v 0.0063833328895270824 -0.002949526300653816 0.00285014696419239
v 0.006950204726308584 -0.0029495428316295156 0.0027574189007282253
v 0.0058464775793254375 -0.0029495165217667827 0.00290558417327702
v 0.005303777754306793 -0.0029495120979845533 0.0029314581770449872
v 0.0058327470906078815 -0.0031325614545494327 0.002723119687288999
v 0.004756396636366844 -0.0029495125636458406 0.0029276325367391105
v 0.004205523524433374 -0.0029495186172425756 0.0028933202847838397
v 0.003652137005701661 -0.002949530491605402 0.0028269733302295204
v 0.0028339221607893705 -0.0029495588969439277 0.0026650398503988977
v 0.003343217307701707 -0.0029495395720005044 0.00277524534612894
v 0.002347953850403428 -0.0029495831113308677 0.0025276825763285156
v 0.00027447022148407996 -0.0027143748011440043 0.001439582207240164
v 0.0002767296100500971 -0.0027299153152853255 0.0014408136485144494
v 0.00028555901371873915 -0.002776117762550712 0.0014425107510760424
v 0.0002950319612864405 -0.002821758389472962 0.0014387955889105795
v 0.0003386066819075495 -0.0028798980638384823 0.0014548371545970438
v 0.00029853047453798354 -0.0028374695684760813 0.0014362822985276578
v 0.0003066935169044882 -0.002871762495487929 0.0014285615179687736
v 0.00027672984288074076 0.0026298561133444314 -0.0014407959533855317
v 0.0002744704543147236 0.002614315832033754 -0.0014395645121112464
v 0.0002855592465493828 0.0026760583277791743 -0.0014424930559471247
v 0.00029503219411708415 0.002721698954701424 -0.0014387778937816618
v 0.00033860691473819315 0.0027798386290669446 -0.001454819459468126
v 0.0002985307073686272 0.0027374099008739 -0.00143626460339874
v 0.00030669374973513186 0.002771703060716391 -0.001428543822839856
v 0.00038628504262305796 0.002791993552818895 -0.0014940758701413868
v 0.007795969024300575 0.003032566513866187 -0.0023534859064966436
v 0.00860590673983097 0.0028495739679783587 -0.002238431246951222
v 0.003690985031425953 0.0030992000829428443 -0.002413675189018249
v 0.0037141358479857445 0.003099299035966397 -0.002413447946310043
v 0.003679274581372738 0.003032515291124583 -0.0026459980290383096
v 0.003754088655114174 0.003099469467997552 -0.0024130553938448425
v 0.0037698247469961643 0.0030995276756584653 -0.0024107005447149272
v 0.004222023766487837 0.0030325036495924005 -0.0027110672090202566
v 0.003439383814111352 0.003097404260188342 -0.002399679040536284
v 0.003376559354364872 0.003032524138689042 -0.002595309633761644
v 0.0034132145810872316 0.00309693068265915 -0.002397108823060989
v 0.0033759239595383406 0.0030962561722844848 -0.00239344616420567
v 0.0028781036380678415 0.0030325432308018216 -0.0024874543305486436
v 0.0029127197340130806 0.003087873337790371 -0.002347951056435704
v 0.0024034706875681877 0.0030325667466968307 -0.0023533077910542484
v 0.0024274205788969994 0.0030692238360643396 -0.0022779675200581546
v 0.0024382611736655235 0.0030699011404067287 -0.0022800725419074293
v 0.002894539153203368 0.0030875445809215316 -0.0023461654782295223
v 0.0018952800892293453 0.00303179631009698 -0.0021657072938978668
v 0.0019598540384322405 0.0030375504866242417 -0.0021819134708493944
v 0.0019555017352104187 0.0030325951520353564 -0.002193668624386191
v 0.00202719634398818 0.003043551230803133 -0.0021988148801028724
v 0.002052293624728918 0.0030457875691354283 -0.002205113414674997
v 0.0015114492271095514 0.0029923655092716226 -0.002057285280898213
v 0.001684428658336401 0.0030130078084766873 -0.002112789079546928
v 0.001887967810034752 0.002849552314728499 -0.0023637327831238504
v 0.00133539829403162 0.002971356501802803 -0.002000795910134911
v 0.0013216605875641108 0.002849597949534655 -0.0021050637587904926
v 0.0010963922832161188 0.0029352386482059964 -0.001904242788441479
v 0.0009821027051657438 0.002849632175639272 -0.0019103047670796511
v 0.0010346516501158476 0.002925908891484142 -0.0018793011549860237
v 0.0006383297732099891 0.0028493965510278945 -0.001665457268245518
v 0.0006818886613473296 0.0028587835840880875 -0.0016926265088841317
v 0.0006767528830096126 0.002849669428542257 -0.001699824468232691
v 0.0007609835593029857 0.0028758298140019183 -0.0017419612267985938
v 0.001009441213682294 0.002921295585110784 -0.0018666491378098724
v 0.0005088348989374936 0.0028214887715876107 -0.0015846863389015196
v 0.008278008550405502 0.002849549520760775 -0.002377131255343556
v 0.007363429293036461 0.003032544860616327 -0.0024770044256001707
v 0.006914937868714333 0.003032526932656766 -0.002577850362285971
v 0.006359413266181946 0.0030325111001729974 -0.0026687181089073415
v 0.004762683529406786 0.003032497828826309 -0.002744741970673203
v 0.004771187901496887 0.0030995034612715253 -0.002497875597327947
v 0.004820939619094133 0.0030994892586022624 -0.0025014344137161966
v 0.004888811614364386 0.003099470166489483 -0.0025062896311283107
v 0.005300052929669619 0.003032497130334378 -0.00274849752895534
v 0.007408556994050741 0.0028495006263256077 -0.002654333598911762
v 0.00785147026181221 0.0028495229780673985 -0.002527847187593579
v 0.006950204726308584 0.0028494824655354027 -0.0027574007399380203
v 0.0063833328895270824 0.0028494664002209906 -0.002850128803402185
v 0.0058464775793254375 0.002849456621333957 -0.002905566012486815
v 0.0058327470906078815 0.0030325015541166076 -0.0027231012936681505
v 0.004756396636366844 0.002849452663213015 -0.0029276143759489055
v 0.005303777754306793 0.0028494521975517277 -0.0029314400162547822
v 0.004205523524433374 0.00284945871680975 -0.0028933021239936347
v 0.0036521374713629484 0.0028494705911725764 -0.0028269551694393154
v 0.003343217773362994 0.002849479671567679 -0.002775227185338735
v 0.002833922626450658 0.002849498996511102 -0.0026650219224393363
v 0.0023479543160647154 0.002849523210898042 -0.002527664881199598
v 0.0014553926885128021 0.0028495860751718287 -0.002172790933400392
v 0.0013702039141207933 0.002975510200485588 -0.0020119638647884126
v 0.0003173236909788102 0.0027240696363151078 0.0014591180952265856
v 0.0003084733325522393 0.0027105107437819247 0.0014550524065271018
v 0.0002897113736253232 0.002673862269148231 0.001446261769160628
v 0.00027802374097518623 0.002636767225340009 0.0014405370457097886
v 0.00037708712625317276 0.002790218219161034 0.0014858325012028215
v 0.0003464391629677266 0.0027603036724030976 0.0014722660416737197
v 0.00032908489811234176 0.0027387063018977646 0.001464429195038974
v 0.00030598437297157943 0.0027714052703231577 0.0014315005391836164
v -1.811305082810577e-05 0.0026805510278791194 0.0012081377208232877
v -5.4403899412136525e-05 0.002669152338057757 0.001190619892440736
v 2.2307738618110307e-05 0.0026639513671398167 0.001233939779922366
v -0.00022276511299423873 0.0026162713766098027 0.0011093505891039965
v -0.00027504301397129893 0.002599128289148212 0.001089358585886657
v -3.945570642827079e-05 0.00259914854541421 0.0012050074292346833
v 0.00019818379951175302 0.002742882119491697 0.001349126570858061
v 0.00017958947864826769 0.002737962175160647 0.00133491784799844
v 8.494430221617222e-05 0.0027104779146611695 0.0012742251856252549
v 2.915622098953463e-05 0.0026942773256450896 0.0012384501751512287
v 0.00022769322094973177 0.0027506900951266293 0.0013716754037886856
v 1.665647141635418e-05 0.0025991534348577265 0.0012325525749474762
v -0.00028109291451983154 -0.0005859152297489346 0.0010877411114051936
v -0.00039887355524115264 -0.0005077251116745175 0.0010524106910452244
v -0.0004005592782050371 -0.0026554299984127287 0.0010600656969472764
v -0.00015555531717836857 -0.0006309409509412945 0.001139169675298035
v -0.00027504307217895985 -0.0026988030876964335 0.001090292236767709
v -3.703615948325023e-05 -0.0006487619248218835 0.0012006510514765976
v -0.0005346221732906997 -0.00036955077666789304 0.0010213293135166166
v -0.0004310297954361886 -0.0004863778594881297 0.0010427648667246101
v -0.0005997169646434486 -0.0025866089854389433 0.0010121051454916594
v -0.0004155638162046671 -0.0026502453256398444 0.001056452398188412
v -0.000645260966848582 7.849642861401664e-05 0.0010066311806440351
v -0.000645256310235709 -7.823600753908978e-05 0.0010066592367365954
v -0.0006077603320591152 -0.0002303446526639164 0.001010703621432185
v -0.0006077295984141529 0.00023072265321388846 0.0010106260888278482
v -0.0005349392886273563 0.00036939210258424293 0.0010211452608928082
v -0.0006452437373809516 0.0024694839958101515 0.0010151469614356754
v -0.00039848193409852684 0.0005136842955835165 0.0010509104467928407
v -0.0004588856245391071 0.002536727581173182 0.001035722089000046
v -0.00039923161966726184 0.0025569756980985407 0.0010531261796131728
v -0.0003020700241904706 0.0005757066537626089 0.001080207643099129
v -0.00017032516188919544 0.0006274568149819971 0.001132199424318969
v -3.804430161835626e-05 0.0006451086956076325 0.0012023241724818943
v -2.445953162233394e-10 0.0006501853931695224 0.0012224921956658361
v 0.0001450751005904749 0.0006338066305033864 0.001324073178693652
v -3.945575008401647e-05 -0.0026987828314304356 0.0012059410801157353
v 1.6656427760608494e-05 -0.002698777941986919 0.0012334862258285282
v 0.00015555527352262288 -0.0006309068994596602 0.001332673826254904
v 1.782523759175092e-05 -0.002725754631683231 0.0012338539818301795
v -0.0001769552764017135 -0.0027302070520818238 0.0011332706781104205
v 2.0656923879869282e-05 -0.0027525459881871943 0.0012345291906967757
v -7.953520253067836e-05 -0.002761396579444409 0.0011759562185034154
v 3.508450390654616e-05 -0.002795507432892919 0.001241622259840369
v 0.00019981541845481843 -0.0028425743803381924 0.0013493972364813087
v 0.00014768556866329163 -0.002828337717801333 0.0013107847189530728
v 0.00011995592649327591 -0.002820764901116491 0.001290245330892503
v 0.00030598448938690126 -0.0028714647050946955 -0.0014314828440546987
v -1.8112967154593207e-05 -0.0027806102298200135 -0.0012081201421096919
v -5.4403812100645155e-05 -0.002769211539998651 -0.0011906021973118184
v 2.230782774859108e-05 -0.002764010569080711 -0.0012339220847934482
v -0.00022276505478657782 -0.002716330578550697 -0.0011093328939750788
v -0.000275042955763638 -0.0026991872582584624 -0.0010893408907577393
v -3.945561911677942e-05 -0.0026992075145244603 -0.0012049897341057656
v 0.0001981838868232444 -0.0028429417870938782 -0.0013491089921444652
v 0.00017958956595975906 -0.0028380218427628283 -0.0013349001528695224
v 8.494438952766359e-05 -0.002810537582263351 -0.001274207606911659
v 2.9156308301026e-05 -0.002794336993247271 -0.001238432480022311
v 0.000226379677769728 -0.0028504021465778355 -0.0013706540921702979
v 1.6656562365824357e-05 -0.002699212403967977 -0.0012325348798185585
v -0.00039923150325194 0.0025566045660525565 -0.001054027467034757
v -0.000398481817683205 0.0005133138620294632 -0.0010510915890336035
v -0.00045888550812378526 0.0025363625027239327 -0.001036616158671677
v -0.000645555614028126 0.0024699959903955464 -0.0010070526041090486
v -0.0005349391722120345 0.00036903214640915405 -0.0010212754132226107
v -0.0006076405406929553 0.00023060111561790114 -0.0010107181733474133
v -0.0006452608504332602 7.81416238169186e-05 -0.00100665888749063
v -0.0006452268571592867 -7.883295620558785e-05 -0.0010066344402730463
v -0.0006077602156437933 -0.00023070088354870682 -0.0010106223635375498
v -0.0005347226397134364 -0.00036976567935198556 -0.0010211821645498274
v -0.0004273383819963783 -0.00048324838280677806 -0.0010446137748658655
v -0.0005997168482281268 -0.002586965681985021 -0.0010111933806911109
v -0.000398481817683205 -0.00051374378381297 -0.0010509105632081626
v -0.00041591667104512453 -0.002651652786880732 -0.0010459793265908954
v -0.00039870955515652895 -0.0026574588846415286 -0.0010512758744880555
v -0.0002808506542351097 -0.000586414767894894 -0.0010876213200390337
v -0.00015555520076304674 -0.0006313424673862756 -0.0011389473220333455
v -3.7036028516013175e-05 -0.0006491850945167245 -0.0012004224117845295
v 0.00015555541904177517 -0.00063137651886791 -0.0013324514729902146
v 0.0001450277486583218 0.0006333506316877903 -0.0013242589775472877
v 1.6656607840559445e-05 0.0025987189728766684 -0.0012334685306996105
v -3.1257064847522997e-07 0.0006456058472394944 -0.0012255837209522722
v -3.945557546103373e-05 0.002598723862320185 -0.0012059233849868176
v -3.703601396409795e-05 0.00064870243659243 -0.0012006510514765976
v -0.0002750428975559771 0.002598744118586183 -0.0010902745416387913
v -0.00017007358837872744 0.0006271259044297041 -0.0011325338855385778
v -0.00030206990777514875 0.000575325859244913 -0.0010804104385897515
v 1.782541767170187e-05 0.0026256954297423367 -0.0012338362867012618
v -0.00017695510177873075 0.0026301478501409297 -0.0011332530993968246
v 2.0657105778809637e-05 0.0026524867862463 -0.0012345116119831798
v -7.953503518365324e-05 0.002661337144672871 -0.0011759386397898195
v 3.508468216750771e-05 0.0026954477652907376 -0.0012416046811267731
v 0.00022771525254938751 0.002750134095549584 -0.0013700444251298902
v 0.00019981562218163162 0.0027425149455666546 -0.001349379541352391
v 0.00014768577239010483 0.0027282780501991515 -0.0013107670238241551
v 0.00011995611566817388 0.002720705466344953 -0.0012902277521789072
v 0.003764253342524171 -0.0031995673198252925 0.002410188084468245
v 0.003764253808185458 0.003099507652223111 -0.00241016992367804
f 1 2 3
f 3 2 4
f 2 5 4
f 4 5 6
f 4 6 7
f 7 6 8
f 7 8 9
f 9 8 10
f 9 10 11
f 11 10 12
f 11 12 13
f 13 12 14
f 13 14 15
f 15 14 16
f 15 16 17
f 17 16 18
f 17 18 19
f 19 18 20
f 19 20 21
f 21 20 22
f 21 22 23
f 23 22 24
f 23 24 25
f 25 24 26
f 25 26 27
f 27 26 28
f 27 28 29
f 29 28 30
f 29 30 31
f 31 30 32
f 31 32 33
f 33 32 34
f 33 34 35
f 35 34 36
f 35 36 37
f 37 36 38
f 37 38 39
f 39 38 1
f 39 1 40
f 40 1 3
f 2 1 41
f 2 41 5
f 10 8 41
f 41 8 6
f 41 6 5
f 16 14 41
f 41 14 12
f 41 12 10
f 22 20 41
f 41 20 18
f 41 18 16
f 28 26 41
f 41 26 24
f 41 24 22
f 34 32 41
f 41 32 30
f 41 30 28
f 1 38 41
f 41 38 36
f 41 36 34
f 3 4 42
f 3 42 40
f 35 37 42
f 42 37 39
f 42 39 40
f 29 31 42
f 42 31 33
f 42 33 35
f 23 25 42
f 42 25 27
f 42 27 29
f 17 19 42
f 42 19 21
f 42 21 23
f 11 13 42
f 42 13 15
f 42 15 17
f 4 7 42
f 42 7 9
f 42 9 11
f 43 44 45
f 46 47 48
f 45 44 47
f 47 44 49
f 47 49 48
f 50 51 52
f 52 51 53
f 52 53 54
f 54 53 55
f 54 55 56
f 57 58 59
f 59 58 60
f 59 60 50
f 50 60 61
f 50 61 51
f 45 62 43
f 43 62 63
f 43 63 64
f 64 63 65
f 64 65 57
f 57 65 66
f 57 66 58
f 55 67 56
f 56 67 68
f 56 68 69
f 69 68 70
f 69 70 71
f 71 70 72
f 71 72 48
f 48 72 73
f 48 73 46
f 74 75 76
f 77 78 79
f 76 75 80
f 80 75 81
f 80 81 82
f 79 78 83
f 76 84 74
f 74 84 85
f 74 85 86
f 86 85 87
f 86 87 88
f 88 87 89
f 88 89 78
f 78 89 90
f 78 90 83
f 82 81 91
f 91 81 92
f 91 92 93
f 93 92 94
f 93 94 95
f 95 94 96
f 95 96 97
f 97 96 98
f 98 96 99
f 98 99 100
f 100 99 101
f 100 101 102
f 102 101 103
f 103 101 104
f 103 104 79
f 79 104 105
f 79 105 77
f 106 107 108
f 109 107 110
f 110 107 111
f 109 112 107
f 107 112 113
f 107 113 114
f 114 115 107
f 107 115 116
f 107 116 108
f 117 118 119
f 119 120 117
f 117 120 121
f 117 121 111
f 111 121 122
f 111 122 110
f 123 124 125
f 125 124 126
f 125 126 127
f 128 129 130
f 130 129 131
f 131 132 130
f 130 132 133
f 130 133 134
f 134 135 130
f 130 135 136
f 130 136 137
f 137 136 138
f 137 138 139
f 139 138 140
f 139 140 123
f 123 140 141
f 123 141 124
f 142 143 144
f 144 143 145
f 146 147 142
f 142 147 148
f 142 148 143
f 146 142 149
f 149 142 150
f 149 150 151
f 151 150 152
f 151 152 153
f 153 152 154
f 153 154 108
f 108 154 155
f 108 155 106
f 156 157 158
f 158 157 159
f 158 159 160
f 158 161 156
f 156 161 162
f 156 162 163
f 164 165 166
f 165 167 166
f 166 167 168
f 166 168 169
f 170 171 172
f 145 143 172
f 172 143 173
f 172 173 170
f 169 174 166
f 166 174 172
f 166 172 175
f 175 172 171
f 130 176 128
f 128 176 177
f 128 177 178
f 179 180 181
f 181 180 178
f 181 178 182
f 182 178 177
f 183 184 185
f 185 186 183
f 183 186 187
f 183 187 179
f 179 187 188
f 179 188 180
f 160 189 158
f 158 189 190
f 158 190 191
f 191 190 184
f 191 184 192
f 192 184 183
f 193 194 195
f 163 164 156
f 156 164 166
f 156 166 196
f 196 166 193
f 196 193 197
f 197 193 195
f 198 199 193
f 193 199 200
f 193 200 194
f 198 201 199
f 199 201 202
f 199 202 203
f 203 202 204
f 203 204 205
f 205 206 203
f 203 206 207
f 203 207 208
f 208 207 209
f 208 209 210
f 210 209 211
f 211 212 210
f 210 212 213
f 210 213 214
f 214 215 210
f 210 215 216
f 210 216 217
f 217 218 210
f 210 218 219
f 210 219 220
f 219 221 222
f 222 221 223
f 222 223 224
f 224 225 222
f 222 225 226
f 222 226 227
f 227 226 228
f 219 222 220
f 220 222 227
f 220 227 229
f 229 227 228
f 229 228 230
f 231 232 233
f 233 232 234
f 233 234 235
f 233 126 236
f 236 237 233
f 233 237 238
f 233 238 231
f 235 239 233
f 233 239 119
f 233 119 126
f 126 119 118
f 126 118 127
f 240 241 242
f 242 241 243
f 242 243 244
f 244 243 245
f 244 245 246
f 246 245 247
f 247 245 248
f 248 245 249
f 248 249 250
f 249 251 250
f 250 251 252
f 250 252 253
f 253 254 250
f 250 254 255
f 250 255 256
f 257 258 259
f 259 260 257
f 257 260 261
f 257 261 262
f 262 263 257
f 257 263 264
f 257 264 265
f 265 264 266
f 267 268 266
f 266 268 269
f 266 269 265
f 270 271 272
f 272 271 273
f 272 273 267
f 267 273 274
f 267 274 268
f 275 276 277
f 278 279 280
f 279 281 280
f 280 281 282
f 280 282 270
f 270 282 283
f 270 283 271
f 278 280 284
f 284 280 285
f 284 285 286
f 286 285 287
f 286 287 277
f 277 287 288
f 277 288 275
f 276 289 277
f 277 289 290
f 277 290 291
f 292 293 294
f 294 295 292
f 292 295 296
f 292 296 297
f 297 298 292
f 292 298 299
f 292 299 300
f 300 299 301
f 300 301 302
f 302 301 303
f 302 303 304
f 304 303 305
f 240 306 241
f 241 306 307
f 241 307 303
f 303 307 308
f 303 308 305
f 309 310 311
f 311 310 312
f 311 312 313
f 291 293 277
f 277 293 292
f 277 292 314
f 314 292 315
f 314 315 312
f 312 315 316
f 312 316 313
f 317 318 311
f 311 318 319
f 311 319 309
f 317 320 318
f 318 320 321
f 318 321 322
f 322 321 323
f 322 323 324
f 325 326 323
f 323 326 327
f 323 327 324
f 325 328 326
f 326 328 329
f 326 329 330
f 330 329 331
f 331 332 330
f 330 332 333
f 330 333 334
f 334 335 330
f 330 335 336
f 330 336 337
f 337 338 330
f 330 338 339
f 330 339 340
f 339 341 342
f 342 341 343
f 342 343 344
f 344 345 342
f 342 345 346
f 342 346 347
f 347 346 348
f 339 342 340
f 340 342 347
f 340 347 349
f 349 347 348
f 349 348 350
f 351 352 353
f 353 354 351
f 351 354 355
f 351 355 356
f 356 357 351
f 351 357 358
f 351 358 359
f 359 360 351
f 351 360 361
f 351 361 362
f 351 257 363
f 363 364 351
f 351 364 365
f 351 365 366
f 366 367 351
f 351 367 368
f 351 368 369
f 369 370 351
f 351 370 371
f 351 371 352
f 362 372 351
f 351 372 250
f 351 250 257
f 257 250 256
f 257 256 258
f 373 374 375
f 375 374 376
f 375 376 377
f 377 376 378
f 377 378 379
f 380 269 268
f 327 326 381
f 382 383 384
f 385 386 387
f 388 389 390
f 391 392 393
f 393 392 394
f 393 394 395
f 393 396 391
f 391 396 390
f 391 390 397
f 397 390 389
f 388 390 398
f 398 390 399
f 398 399 400
f 387 386 399
f 399 386 401
f 399 401 400
f 384 383 402
f 402 383 403
f 402 403 404
f 405 406 403
f 403 406 407
f 403 407 404
f 408 409 410
f 410 409 411
f 410 411 405
f 405 411 412
f 405 412 406
f 413 414 415
f 415 414 416
f 415 416 410
f 410 416 417
f 410 417 408
f 418 374 415
f 374 419 415
f 415 419 420
f 415 420 421
f 421 422 415
f 415 422 423
f 415 423 424
f 424 425 415
f 415 425 426
f 415 426 427
f 427 428 415
f 415 428 429
f 415 429 413
f 430 431 432
f 432 431 433
f 433 434 432
f 432 434 379
f 432 379 435
f 346 436 348
f 349 350 437
f 349 437 340
f 381 326 437
f 437 326 330
f 437 330 340
f 319 318 438
f 438 318 322
f 438 322 381
f 381 322 324
f 381 324 327
f 314 312 439
f 439 312 310
f 439 310 309
f 278 284 440
f 440 284 286
f 440 286 439
f 439 286 277
f 439 277 314
f 278 440 279
f 279 440 441
f 279 441 442
f 271 443 273
f 273 443 444
f 273 444 274
f 271 283 443
f 443 283 282
f 443 282 442
f 442 282 281
f 442 281 279
f 274 444 268
f 268 444 445
f 268 445 380
f 396 446 390
f 390 446 447
f 390 447 399
f 399 447 448
f 399 448 387
f 448 449 387
f 387 449 450
f 387 450 451
f 451 450 452
f 451 452 453
f 452 454 453
f 453 454 455
f 453 455 456
f 456 455 457
f 456 457 458
f 458 457 459
f 458 459 460
f 461 462 460
f 460 462 463
f 460 463 458
f 379 378 435
f 435 378 376
f 435 376 418
f 418 376 374
f 461 464 462
f 462 464 465
f 462 465 466
f 466 465 467
f 466 467 468
f 468 467 469
f 468 469 470
f 471 472 470
f 470 472 473
f 470 473 468
f 430 432 474
f 474 432 475
f 474 475 476
f 476 475 477
f 476 477 478
f 478 477 437
f 478 437 436
f 436 437 350
f 436 350 348
f 471 479 472
f 472 479 480
f 472 480 481
f 481 480 482
f 481 482 483
f 385 387 382
f 382 387 451
f 382 451 383
f 383 451 453
f 383 453 403
f 403 453 456
f 403 456 405
f 405 456 458
f 405 458 410
f 410 458 463
f 410 463 415
f 415 463 462
f 415 462 418
f 418 462 466
f 418 466 435
f 435 466 468
f 435 468 432
f 432 468 473
f 432 473 475
f 475 473 472
f 475 472 477
f 477 472 481
f 477 481 437
f 437 481 483
f 437 483 381
f 381 483 484
f 381 484 438
f 482 485 483
f 483 485 486
f 483 486 484
f 484 486 487
f 484 487 488
f 319 438 309
f 309 438 484
f 309 484 439
f 439 484 488
f 439 488 440
f 440 488 489
f 440 489 441
f 490 491 492
f 492 493 490
f 490 493 494
f 490 494 495
f 495 494 496
f 495 496 497
f 497 496 226
f 497 226 225
f 129 498 131
f 228 226 496
f 499 500 501
f 502 503 504
f 505 506 507
f 507 506 508
f 507 508 509
f 510 511 512
f 512 511 513
f 504 503 511
f 511 503 514
f 511 514 513
f 502 504 515
f 515 504 516
f 515 516 517
f 501 500 518
f 518 500 519
f 518 519 520
f 521 522 523
f 521 523 519
f 519 523 524
f 519 524 520
f 522 521 525
f 525 521 526
f 525 526 527
f 528 529 530
f 530 529 531
f 530 531 526
f 526 531 532
f 526 532 527
f 533 534 530
f 530 534 535
f 530 535 536
f 536 537 530
f 530 537 538
f 530 538 539
f 539 540 530
f 530 540 541
f 530 541 542
f 542 543 530
f 530 543 544
f 530 544 528
f 545 546 547
f 547 546 548
f 548 549 547
f 547 549 550
f 547 550 551
f 229 230 552
f 229 552 220
f 199 203 553
f 553 203 208
f 553 208 552
f 552 208 210
f 552 210 220
f 197 195 554
f 554 195 194
f 554 194 553
f 553 194 200
f 553 200 199
f 555 157 156
f 156 196 555
f 555 196 197
f 555 197 556
f 190 557 184
f 184 557 185
f 190 189 557
f 557 189 160
f 557 160 555
f 555 160 159
f 555 159 157
f 187 558 188
f 188 558 559
f 188 559 180
f 180 559 560
f 180 560 178
f 498 129 560
f 560 129 128
f 560 128 178
f 509 508 510
f 510 508 561
f 510 561 511
f 511 561 562
f 511 562 504
f 562 563 504
f 504 563 564
f 504 564 516
f 516 564 565
f 516 565 566
f 565 567 566
f 566 567 568
f 566 568 569
f 569 568 570
f 569 570 571
f 570 572 571
f 571 572 573
f 571 573 574
f 573 575 574
f 574 575 576
f 574 576 577
f 577 576 578
f 577 578 579
f 550 580 551
f 551 580 581
f 551 581 533
f 533 581 534
f 578 582 579
f 579 582 583
f 579 583 584
f 584 583 585
f 584 585 586
f 586 585 587
f 586 587 588
f 587 589 588
f 588 589 590
f 588 590 591
f 545 547 492
f 492 547 592
f 492 592 493
f 493 592 593
f 493 593 494
f 494 593 552
f 494 552 496
f 496 552 230
f 496 230 228
f 590 594 591
f 591 594 595
f 591 595 596
f 596 595 597
f 596 597 598
f 197 554 556
f 556 554 553
f 556 553 598
f 598 553 552
f 598 552 596
f 596 552 593
f 596 593 591
f 591 593 592
f 591 592 588
f 588 592 547
f 588 547 586
f 586 547 551
f 586 551 584
f 584 551 533
f 584 533 579
f 579 533 530
f 579 530 577
f 577 530 526
f 577 526 574
f 574 526 521
f 574 521 571
f 571 521 519
f 571 519 569
f 569 519 500
f 569 500 566
f 566 500 499
f 566 499 516
f 516 499 599
f 516 599 517
f 597 600 598
f 598 600 601
f 598 601 556
f 556 601 602
f 556 602 555
f 187 186 558
f 558 186 185
f 558 185 603
f 603 185 557
f 603 557 604
f 604 557 555
f 604 555 605
f 605 555 602
f 606 607 587
f 269 380 85
f 113 112 60
f 136 135 67
f 133 132 68
f 608 609 610
f 610 609 611
f 610 611 612
f 612 611 506
f 506 611 613
f 506 613 508
f 508 613 614
f 508 614 561
f 561 614 562
f 562 614 615
f 562 615 616
f 616 617 562
f 562 617 618
f 562 618 619
f 620 621 622
f 622 621 623
f 623 624 622
f 622 624 625
f 622 625 626
f 132 131 68
f 68 131 498
f 68 498 70
f 70 498 560
f 70 560 559
f 67 135 68
f 68 135 134
f 68 134 133
f 124 141 55
f 55 141 140
f 55 140 67
f 67 140 138
f 67 138 136
f 238 237 53
f 53 237 236
f 53 236 55
f 55 236 126
f 55 126 124
f 235 234 51
f 51 234 232
f 51 232 53
f 53 232 231
f 53 231 238
f 121 120 61
f 61 120 119
f 61 119 51
f 51 119 239
f 51 239 235
f 112 109 60
f 60 109 110
f 60 110 61
f 61 110 122
f 61 122 121
f 113 60 114
f 114 60 58
f 114 58 115
f 627 628 629
f 629 628 630
f 629 630 395
f 395 630 393
f 393 630 631
f 393 631 396
f 396 631 632
f 396 632 633
f 633 634 396
f 396 634 635
f 396 635 636
f 637 638 639
f 638 640 639
f 639 640 641
f 639 641 642
f 642 643 639
f 639 643 644
f 639 644 645
f 645 644 646
f 646 644 647
f 647 644 648
f 647 648 649
f 364 363 84
f 84 363 257
f 84 257 85
f 85 257 265
f 85 265 269
f 368 367 76
f 76 367 366
f 76 366 84
f 84 366 365
f 84 365 364
f 352 371 80
f 80 371 370
f 80 370 76
f 76 370 369
f 76 369 368
f 82 355 354
f 82 354 80
f 80 354 353
f 80 353 352
f 359 358 91
f 91 358 357
f 91 357 82
f 82 357 356
f 82 356 355
f 359 91 360
f 360 91 93
f 360 93 361
f 248 250 95
f 95 250 372
f 95 372 93
f 93 372 362
f 93 362 361
f 650 95 651
f 651 95 97
f 650 246 95
f 95 246 247
f 95 247 248
f 626 625 652
f 652 625 653
f 652 653 654
f 654 653 655
f 654 655 656
f 656 655 657
f 656 657 658
f 103 47 590
f 590 47 594
f 594 47 46
f 594 46 595
f 659 100 660
f 660 100 102
f 660 102 661
f 662 98 663
f 663 98 100
f 663 100 664
f 664 100 659
f 662 665 98
f 98 665 666
f 98 666 97
f 97 666 667
f 97 667 651
f 443 87 444
f 444 87 85
f 444 85 445
f 445 85 380
f 489 89 441
f 441 89 87
f 441 87 442
f 442 87 443
f 489 488 89
f 89 488 487
f 89 487 90
f 90 487 486
f 90 486 83
f 83 486 485
f 83 485 482
f 668 62 669
f 669 62 45
f 669 45 670
f 482 480 83
f 83 480 479
f 83 479 79
f 79 479 471
f 79 471 45
f 671 63 672
f 672 63 62
f 672 62 673
f 673 62 668
f 674 65 675
f 675 65 63
f 675 63 676
f 676 63 671
f 677 66 678
f 678 66 65
f 678 65 679
f 679 65 674
f 677 680 66
f 66 680 681
f 66 681 58
f 58 681 682
f 58 682 115
f 559 558 70
f 70 558 603
f 70 603 72
f 602 73 605
f 605 73 72
f 605 72 604
f 604 72 603
f 602 601 73
f 73 601 600
f 73 600 46
f 46 600 597
f 46 597 595
f 636 637 396
f 396 637 639
f 396 639 446
f 446 639 683
f 446 683 447
f 683 684 447
f 447 684 685
f 447 685 448
f 448 685 449
f 449 685 686
f 670 45 687
f 687 45 471
f 687 471 688
f 471 470 688
f 688 470 469
f 688 469 689
f 689 469 467
f 689 467 690
f 690 467 465
f 690 465 691
f 691 465 464
f 691 464 692
f 692 464 461
f 692 461 693
f 693 461 460
f 693 460 694
f 694 460 459
f 694 459 695
f 695 459 457
f 695 457 696
f 696 457 455
f 696 455 697
f 697 455 454
f 697 454 698
f 698 454 452
f 698 452 686
f 686 452 450
f 686 450 449
f 587 607 589
f 607 699 589
f 589 699 700
f 589 700 590
f 590 700 701
f 590 701 103
f 103 701 702
f 103 702 102
f 102 702 703
f 102 703 661
f 587 585 606
f 606 585 583
f 606 583 704
f 704 583 582
f 704 582 705
f 705 582 578
f 705 578 706
f 706 578 576
f 706 576 707
f 707 576 575
f 707 575 708
f 708 575 573
f 708 573 709
f 709 573 572
f 709 572 710
f 710 572 570
f 710 570 711
f 711 570 568
f 711 568 712
f 712 568 567
f 712 567 713
f 713 567 565
f 713 565 714
f 714 565 564
f 714 564 715
f 715 564 563
f 715 563 716
f 716 563 562
f 716 562 622
f 622 562 619
f 622 619 620
f 717 718 474
f 474 476 717
f 717 476 478
f 717 478 719
f 719 478 436
f 719 436 720
f 720 436 346
f 720 346 345
f 721 534 722
f 722 534 581
f 722 581 723
f 723 581 580
f 723 580 550
f 724 725 726
f 726 727 724
f 724 727 728
f 724 728 729
f 730 731 724
f 724 731 732
f 724 732 725
f 729 733 724
f 724 733 734
f 724 734 735
f 736 737 738
f 739 740 736
f 736 740 741
f 736 741 737
f 738 742 736
f 736 742 743
f 736 743 744
f 744 745 736
f 736 745 746
f 736 746 747
f 728 727 742
f 742 727 743
f 740 735 734
f 740 734 741
f 741 734 733
f 741 733 737
f 737 733 729
f 737 729 738
f 738 729 728
f 738 728 742
f 743 727 726
f 743 726 744
f 744 726 725
f 744 725 745
f 745 725 732
f 745 732 746
f 746 732 731
f 746 731 747
f 748 749 610
f 610 749 750
f 750 751 610
f 610 751 752
f 610 752 608
f 748 610 753
f 753 610 612
f 753 612 754
f 754 612 506
f 754 506 505
f 755 756 757
f 211 209 758
f 201 198 759
f 759 198 193
f 681 116 682
f 682 116 115
f 680 151 153
f 680 153 681
f 681 153 108
f 681 108 116
f 151 680 149
f 149 680 677
f 149 677 146
f 146 677 678
f 146 678 147
f 148 760 143
f 143 760 173
f 761 171 760
f 760 171 170
f 760 170 173
f 762 166 761
f 761 166 175
f 761 175 171
f 201 759 202
f 202 759 763
f 202 763 204
f 209 207 758
f 758 207 206
f 758 206 763
f 763 206 205
f 763 205 204
f 764 224 223
f 223 221 764
f 764 221 219
f 764 219 218
f 218 217 764
f 764 217 216
f 764 216 215
f 215 214 764
f 764 214 213
f 764 213 758
f 758 213 212
f 758 212 211
f 765 766 767
f 767 768 765
f 765 768 491
f 765 491 769
f 756 770 757
f 757 770 771
f 757 771 772
f 772 771 773
f 772 773 721
f 766 765 723
f 723 765 772
f 723 772 722
f 722 772 721
f 755 757 774
f 774 757 775
f 774 775 776
f 776 775 777
f 776 777 778
f 779 780 781
f 779 781 777
f 777 781 782
f 777 782 778
f 783 784 785
f 785 784 786
f 785 786 779
f 779 786 787
f 779 787 780
f 788 789 790
f 790 789 783
f 791 792 793
f 794 795 792
f 792 795 796
f 792 796 793
f 797 798 799
f 799 798 800
f 799 800 794
f 646 801 645
f 645 801 802
f 645 802 803
f 645 803 797
f 797 803 804
f 797 804 798
f 147 678 148
f 148 678 679
f 148 679 760
f 760 679 674
f 760 674 761
f 674 675 761
f 761 675 676
f 761 676 762
f 762 676 671
f 762 671 805
f 805 671 672
f 805 672 673
f 668 806 673
f 673 806 807
f 673 807 805
f 668 669 806
f 806 669 670
f 806 670 808
f 808 670 687
f 808 687 809
f 491 490 769
f 769 490 495
f 769 495 810
f 810 495 497
f 810 497 764
f 764 497 225
f 764 225 224
f 687 688 809
f 809 688 689
f 809 689 811
f 689 690 811
f 811 690 691
f 811 691 812
f 812 691 813
f 691 692 813
f 813 692 693
f 813 693 694
f 695 814 694
f 694 814 815
f 694 815 813
f 686 790 698
f 698 790 816
f 698 816 697
f 697 816 814
f 697 814 696
f 696 814 695
f 783 785 790
f 790 785 779
f 790 779 816
f 816 779 777
f 816 777 814
f 814 777 775
f 814 775 815
f 815 775 757
f 815 757 813
f 813 757 772
f 813 772 812
f 812 772 765
f 812 765 811
f 811 765 769
f 811 769 809
f 809 769 810
f 809 810 808
f 808 810 764
f 808 764 806
f 806 764 758
f 806 758 807
f 807 758 763
f 807 763 805
f 805 763 759
f 805 759 762
f 762 759 193
f 762 193 166
f 686 685 790
f 790 685 791
f 790 791 788
f 788 791 793
f 791 685 684
f 791 684 792
f 792 684 683
f 794 792 799
f 799 792 683
f 799 683 797
f 797 683 639
f 797 639 645
f 649 817 647
f 647 817 818
f 647 818 819
f 819 820 821
f 821 820 822
f 821 822 823
f 819 821 647
f 647 821 801
f 647 801 646
f 824 656 825
f 825 656 658
f 826 827 828
f 828 827 829
f 828 829 830
f 824 826 656
f 656 826 828
f 656 828 654
f 654 828 831
f 654 831 652
f 313 832 311
f 300 302 833
f 833 302 304
f 834 835 836
f 835 837 836
f 836 837 838
f 836 838 839
f 839 838 373
f 834 836 840
f 840 836 841
f 840 841 842
f 842 841 843
f 843 841 844
f 843 844 845
f 846 847 848
f 846 848 844
f 844 848 849
f 844 849 845
f 850 851 852
f 852 851 853
f 852 853 846
f 846 853 854
f 846 854 847
f 855 856 857
f 857 856 850
f 858 859 860
f 860 859 861
f 860 861 862
f 863 864 865
f 865 864 866
f 865 866 861
f 861 866 867
f 861 867 862
f 652 831 626
f 626 831 868
f 651 242 650
f 650 242 244
f 650 244 246
f 305 308 666
f 666 308 307
f 666 307 667
f 667 307 306
f 667 306 651
f 651 306 240
f 651 240 242
f 300 833 292
f 292 833 869
f 292 869 315
f 323 321 870
f 870 321 320
f 870 320 832
f 832 320 317
f 832 317 311
f 331 329 871
f 871 329 328
f 871 328 870
f 870 328 325
f 870 325 323
f 872 344 343
f 343 341 872
f 872 341 339
f 872 339 338
f 338 337 872
f 872 337 336
f 872 336 335
f 335 334 872
f 872 334 333
f 872 333 871
f 871 333 332
f 871 332 331
f 873 874 875
f 875 876 873
f 873 876 718
f 873 718 877
f 874 873 377
f 377 873 839
f 377 839 375
f 375 839 373
f 305 666 304
f 304 666 665
f 304 665 833
f 833 665 662
f 833 662 869
f 869 662 663
f 869 663 664
f 659 878 664
f 664 878 879
f 664 879 869
f 659 660 878
f 878 660 661
f 878 661 880
f 880 661 703
f 880 703 881
f 703 702 881
f 881 702 701
f 881 701 882
f 882 701 700
f 882 700 699
f 718 717 877
f 877 717 719
f 877 719 883
f 883 719 720
f 883 720 872
f 872 720 345
f 872 345 344
f 607 884 699
f 699 884 885
f 699 885 882
f 607 606 884
f 884 606 704
f 884 704 886
f 886 704 705
f 886 705 887
f 705 706 887
f 887 706 707
f 887 707 888
f 888 707 708
f 888 708 889
f 712 857 711
f 711 857 890
f 711 890 710
f 710 890 889
f 710 889 709
f 709 889 708
f 850 852 857
f 857 852 846
f 857 846 890
f 890 846 844
f 890 844 889
f 889 844 841
f 889 841 888
f 888 841 836
f 888 836 887
f 887 836 839
f 887 839 886
f 886 839 873
f 886 873 884
f 884 873 877
f 884 877 885
f 885 877 883
f 885 883 882
f 882 883 872
f 882 872 881
f 881 872 871
f 881 871 880
f 880 871 870
f 880 870 878
f 878 870 832
f 878 832 879
f 879 832 313
f 879 313 869
f 869 313 316
f 869 316 315
f 712 713 857
f 857 713 891
f 857 891 855
f 855 891 859
f 855 859 892
f 892 859 858
f 868 863 626
f 626 863 865
f 626 865 622
f 622 865 861
f 622 861 716
f 716 861 859
f 716 859 715
f 715 859 891
f 715 891 714
f 714 891 713
f 629 893 894
f 894 895 629
f 629 895 896
f 629 896 627
f 394 897 395
f 395 897 898
f 395 898 629
f 629 898 899
f 629 899 893
f 900 898 897
f 901 902 903
f 904 905 906
f 903 896 895
f 907 908 895
f 895 908 909
f 895 909 903
f 903 909 910
f 903 910 901
f 893 911 907
f 893 907 894
f 894 907 895
f 911 893 900
f 900 893 899
f 900 899 898
f 627 896 912
f 912 896 903
f 912 903 906
f 906 903 902
f 906 902 904
f 913 914 915
f 913 915 916
f 916 915 917
f 916 917 918
f 919 736 920
f 920 736 921
f 920 921 914
f 914 921 922
f 914 922 915
f 923 739 924
f 924 739 736
f 924 736 925
f 925 736 919
f 923 926 739
f 739 926 927
f 739 927 928
f 928 927 929
f 928 929 930
f 930 929 931
f 929 932 931
f 931 932 933
f 931 933 905
f 905 933 934
f 905 934 906
f 906 934 935
f 906 935 912
f 912 935 936
f 912 936 627
f 627 936 628
f 917 937 918
f 918 937 938
f 918 938 939
f 939 938 649
f 939 649 648
f 940 817 649
f 917 941 937
f 937 941 940
f 937 940 938
f 938 940 649
f 818 817 942
f 942 817 940
f 942 940 943
f 943 940 941
f 942 943 944
f 823 822 945
f 945 822 820
f 945 820 946
f 946 820 819
f 946 819 947
f 947 819 944
f 944 819 818
f 944 818 942
f 948 753 754
f 949 950 951
f 952 953 954
f 951 752 751
f 955 956 751
f 751 956 957
f 751 957 951
f 951 957 958
f 951 958 949
f 751 750 955
f 955 750 749
f 955 749 959
f 959 749 948
f 948 749 748
f 948 748 753
f 608 752 960
f 960 752 951
f 960 951 954
f 954 951 950
f 954 950 952
f 961 962 963
f 963 962 964
f 964 962 724
f 724 962 965
f 724 965 966
f 966 967 724
f 724 967 968
f 724 968 730
f 730 968 969
f 969 970 730
f 730 970 971
f 730 971 972
f 972 971 973
f 972 973 974
f 974 973 975
f 973 976 975
f 975 976 977
f 975 977 953
f 953 977 978
f 609 608 979
f 979 608 960
f 979 960 978
f 978 960 954
f 978 954 953
f 658 657 980
f 658 980 981
f 981 980 982
f 981 982 983
f 983 982 984
f 983 984 985
f 985 984 986
f 985 986 961
f 961 986 987
f 961 987 962
f 988 825 658
f 985 989 983
f 983 989 988
f 983 988 981
f 981 988 658
f 824 825 990
f 990 825 988
f 990 988 991
f 991 988 989
f 990 991 992
f 993 830 829
f 993 829 994
f 994 829 827
f 994 827 995
f 995 827 826
f 995 826 996
f 996 826 992
f 992 826 824
f 992 824 990
f 103 79 47
f 47 79 45
f 974 922 921
f 747 731 736
f 736 731 730
f 736 730 921
f 921 730 972
f 921 972 974
f 801 821 507
f 821 823 507
f 507 823 945
f 507 945 946
f 946 947 507
f 507 947 944
f 507 944 943
f 922 974 915
f 915 974 975
f 915 975 917
f 917 975 953
f 917 953 952
f 952 950 917
f 917 950 949
f 917 949 958
f 958 957 917
f 917 957 956
f 917 956 955
f 955 959 917
f 917 959 948
f 917 948 754
f 943 941 507
f 507 941 917
f 507 917 505
f 505 917 754
f 794 800 510
f 800 798 510
f 510 798 804
f 510 804 509
f 804 803 509
f 509 803 802
f 509 802 507
f 507 802 801
f 512 796 510
f 510 796 795
f 510 795 794
f 512 513 796
f 796 513 514
f 796 514 503
f 503 502 796
f 796 502 515
f 796 515 793
f 787 786 520
f 520 786 784
f 520 784 783
f 499 501 788
f 499 788 599
f 793 515 788
f 788 515 517
f 788 517 599
f 783 789 520
f 520 789 788
f 520 788 518
f 518 788 501
f 536 534 721
f 528 544 776
f 770 756 544
f 997 721 773
f 997 773 771
f 756 755 544
f 544 755 774
f 544 774 776
f 771 770 997
f 997 770 544
f 997 544 721
f 721 544 543
f 543 542 721
f 721 542 541
f 721 541 540
f 534 536 535
f 540 539 721
f 721 539 538
f 721 538 536
f 536 538 537
f 782 781 522
f 522 781 780
f 522 780 523
f 523 780 787
f 523 787 524
f 524 787 520
f 782 522 778
f 778 522 525
f 778 525 527
f 527 532 778
f 778 532 531
f 778 531 776
f 776 531 529
f 776 529 528
f 548 546 768
f 768 546 491
f 491 546 545
f 491 545 492
f 768 767 548
f 548 767 766
f 548 766 549
f 549 766 723
f 549 723 550
f 384 402 892
f 735 740 724
f 724 740 739
f 724 739 964
f 964 739 928
f 964 928 963
f 963 928 930
f 963 930 961
f 961 930 985
f 902 901 996
f 996 901 995
f 992 991 930
f 930 991 989
f 930 989 985
f 930 931 992
f 992 931 905
f 992 905 996
f 996 905 904
f 996 904 902
f 910 993 901
f 901 993 994
f 901 994 995
f 910 909 993
f 993 909 908
f 993 908 907
f 398 860 862
f 862 867 398
f 398 867 866
f 398 866 864
f 864 863 398
f 398 863 868
f 398 868 831
f 907 911 993
f 993 911 830
f 830 911 900
f 900 897 830
f 830 897 394
f 830 394 392
f 392 391 830
f 830 391 397
f 830 397 389
f 831 828 398
f 398 828 830
f 398 830 388
f 388 830 389
f 850 856 402
f 402 856 855
f 402 855 892
f 860 398 858
f 858 398 400
f 858 400 892
f 892 400 401
f 892 401 386
f 386 385 892
f 892 385 382
f 892 382 384
f 848 847 407
f 407 847 854
f 407 854 404
f 404 854 853
f 404 853 402
f 402 853 851
f 402 851 850
f 406 845 407
f 407 845 849
f 407 849 848
f 406 412 845
f 845 412 411
f 845 411 409
f 374 373 998
f 373 838 998
f 998 838 837
f 998 837 374
f 374 837 835
f 374 835 834
f 409 408 845
f 845 408 417
f 845 417 843
f 843 417 416
f 843 416 842
f 842 416 414
f 842 414 413
f 413 429 842
f 842 429 428
f 842 428 427
f 427 426 842
f 842 426 425
f 842 425 424
f 424 423 842
f 842 423 422
f 842 422 421
f 834 840 374
f 374 840 842
f 374 842 419
f 419 842 421
f 419 421 420
f 433 431 876
f 876 431 718
f 718 431 430
f 718 430 474
f 876 875 433
f 433 875 874
f 433 874 434
f 434 874 377
f 434 377 379
f 913 916 977
f 980 657 630
f 630 657 655
f 630 655 631
f 631 655 653
f 625 633 653
f 653 633 632
f 653 632 631
f 620 635 634
f 625 624 633
f 633 624 623
f 633 623 634
f 634 623 621
f 634 621 620
f 638 637 620
f 620 637 636
f 620 636 635
f 620 619 638
f 638 619 618
f 638 618 640
f 640 618 617
f 640 617 641
f 641 617 616
f 614 613 643
f 616 615 641
f 641 615 614
f 641 614 642
f 642 614 643
f 613 611 643
f 643 611 609
f 643 609 644
f 644 609 648
f 648 609 939
f 939 609 979
f 939 979 978
f 977 916 978
f 978 916 918
f 978 918 939
f 977 976 913
f 913 976 973
f 913 973 914
f 914 973 971
f 914 971 920
f 920 971 970
f 920 970 919
f 630 628 980
f 980 628 936
f 980 936 982
f 982 936 935
f 982 935 984
f 984 935 934
f 984 934 933
f 919 970 925
f 925 970 969
f 925 969 924
f 924 969 968
f 924 968 923
f 923 968 967
f 923 967 926
f 926 967 966
f 926 966 927
f 927 966 965
f 927 965 929
f 929 965 962
f 929 962 932
f 932 962 987
f 932 987 933
f 933 987 986
f 933 986 984
f 303 301 99
f 105 104 294
f 260 75 261
f 261 75 74
f 261 74 262
f 86 272 267
f 267 266 86
f 86 266 264
f 86 264 74
f 74 264 263
f 74 263 262
f 272 86 270
f 270 86 88
f 270 88 280
f 275 288 78
f 78 288 287
f 78 287 88
f 88 287 285
f 88 285 280
f 275 78 276
f 276 78 77
f 276 77 289
f 294 293 105
f 105 293 291
f 105 291 77
f 77 291 290
f 77 290 289
f 298 297 101
f 101 297 296
f 101 296 104
f 104 296 295
f 104 295 294
f 99 301 101
f 101 301 299
f 101 299 298
f 303 99 241
f 241 99 96
f 241 96 243
f 252 94 253
f 253 94 92
f 253 92 254
f 252 251 94
f 94 251 249
f 94 249 96
f 96 249 245
f 96 245 243
f 260 259 75
f 75 259 258
f 75 258 81
f 81 258 256
f 81 256 92
f 92 256 255
f 92 255 254
f 154 152 57
f 139 54 137
f 137 54 56
f 137 56 130
f 181 182 69
f 69 182 177
f 69 177 56
f 56 177 176
f 56 176 130
f 181 69 179
f 179 69 71
f 179 71 183
f 161 158 48
f 48 158 191
f 48 191 71
f 71 191 192
f 71 192 183
f 161 48 162
f 162 48 49
f 162 49 163
f 44 165 49
f 49 165 164
f 49 164 163
f 43 174 44
f 44 174 169
f 169 168 44
f 44 168 167
f 44 167 165
f 142 144 64
f 64 144 145
f 64 145 43
f 43 145 172
f 43 172 174
f 57 152 64
f 64 152 150
f 64 150 142
f 50 117 59
f 59 117 111
f 111 107 59
f 59 107 106
f 59 106 57
f 57 106 155
f 57 155 154
f 139 123 54
f 54 123 125
f 54 125 52
f 52 125 127
f 52 127 50
f 50 127 118
f 50 118 117
