mtllib lnd_main_insertion_link_3_visuals.mtl
v 0.0 -0.004193000029772521 0.057668000459671034
v -0.0020999999251216654 -0.003565999912098051 0.5891240239143373
v -0.0020999999251216654 -0.0036299999337643394 0.057668000459671034
v -0.0020999999251216654 -0.0036299999337643394 0.057668000459671034
v -0.0020999999251216654 -0.003565999912098051 0.5891240239143373
v -0.003636999987065793 -0.0020280000753700738 0.5891230106353761
v -0.0020999999251216654 -0.0036299999337643394 0.057668000459671034
v -0.003636999987065793 -0.0020280000753700738 0.5891230106353761
v -0.003636999987065793 -0.0020930001046508555 0.05766599997878076
v -0.003636999987065793 -0.0020930001046508555 0.05766599997878076
v -0.003636999987065793 -0.0020280000753700738 0.5891230106353761
v -0.004199999850243331 7.20000025467016e-05 0.5891230106353761
v -0.004199999850243331 7.000000096013538e-06 0.05766599997878076
v -0.004199999850243331 7.000000096013538e-06 0.05766599997878076
v -0.004199999850243331 7.20000025467016e-05 0.5891230106353761
v -0.003636999987065793 0.0021720000077039008 0.5891230106353761
v -0.003636999987065793 0.002106999978423119 0.05766599997878076
v -0.003636999987065793 0.002106999978423119 0.05766599997878076
v -0.003636999987065793 0.0021720000077039008 0.5891230106353761
v -0.0020999999251216654 0.0037090000696480283 0.5891209840774537
v -0.0020999999251216654 0.0036440000403672465 0.05766500160098077
v -0.0020999999251216654 0.0036440000403672465 0.05766500160098077
v -0.0020999999251216654 0.0037090000696480283 0.5891209840774537
v 0.0 0.004271999932825566 0.5891209840774537
v 0.0 0.004207000136375428 0.05766500160098077
v 0.0 0.004207000136375428 0.05766500160098077
v 0.0 0.004271999932825566 0.5891209840774537
v 0.0020999999251216654 0.0037090000696480283 0.5891209840774537
v 0.0020999999251216654 0.0036440000403672465 0.05766500160098077
v 0.0020999999251216654 0.0036440000403672465 0.05766500160098077
v 0.0020999999251216654 0.0037090000696480283 0.5891209840774537
v 0.003636999987065793 0.0021720000077039008 0.5891230106353761
v 0.003636999987065793 0.002106999978423119 0.05766599997878076
v 0.003636999987065793 0.002106999978423119 0.05766599997878076
v 0.003636999987065793 0.0021720000077039008 0.5891230106353761
v 0.004199999850243331 7.20000025467016e-05 0.5891230106353761
v 0.004199999850243331 7.000000096013538e-06 0.05766599997878076
v 0.004199999850243331 7.000000096013538e-06 0.05766599997878076
v 0.004199999850243331 7.20000025467016e-05 0.5891230106353761
v 0.003636999987065793 -0.0020280000753700738 0.5891230106353761
v 0.003636999987065793 -0.0020930001046508555 0.05766599997878076
v 0.003636999987065793 -0.0020930001046508555 0.05766599997878076
v 0.003636999987065793 -0.0020280000753700738 0.5891230106353761
v 0.0020999999251216654 -0.003565999912098051 0.5891240239143373
v 0.003636999987065793 -0.0020930001046508555 0.05766599997878076
v 0.0020999999251216654 -0.003565999912098051 0.5891240239143373
v 0.0020999999251216654 -0.0036299999337643394 0.057668000459671034
v 0.0020999999251216654 -0.0036299999337643394 0.057668000459671034
v 0.0020999999251216654 -0.003565999912098051 0.5891240239143373
v 0.0 -0.0041279997676610955 0.5891240239143373
v 0.0020999999251216654 -0.0036299999337643394 0.057668000459671034
v 0.0 -0.0041279997676610955 0.5891240239143373
v 0.0 -0.004193000029772521 0.057668000459671034
v 0.0 -0.004193000029772521 0.057668000459671034
v 0.0 -0.0041279997676610955 0.5891240239143373
v -0.0020999999251216654 -0.003565999912098051 0.5891240239143373
v 0.003636999987065793 0.0021720000077039008 0.5891230106353761
v 0.0020999999251216654 0.0037090000696480283 0.5891209840774537
v 0.0 7.20000025467016e-05 0.5891230106353761
v 0.0 7.20000025467016e-05 0.5891230106353761
v 0.0020999999251216654 0.0037090000696480283 0.5891209840774537
v 0.0 0.004271999932825566 0.5891209840774537
v -0.0020999999251216654 0.0037090000696480283 0.5891209840774537
v 0.0020999999251216654 -0.003565999912098051 0.5891240239143373
v 0.003636999987065793 -0.0020280000753700738 0.5891230106353761
v 0.0 7.20000025467016e-05 0.5891230106353761
v 0.0 7.20000025467016e-05 0.5891230106353761
v 0.003636999987065793 -0.0020280000753700738 0.5891230106353761
v 0.004199999850243331 7.20000025467016e-05 0.5891230106353761
v 0.003636999987065793 0.0021720000077039008 0.5891230106353761
v -0.003636999987065793 -0.0020280000753700738 0.5891230106353761
v -0.0020999999251216654 -0.003565999912098051 0.5891240239143373
v 0.0 7.20000025467016e-05 0.5891230106353761
v 0.0 7.20000025467016e-05 0.5891230106353761
v -0.0020999999251216654 -0.003565999912098051 0.5891240239143373
v 0.0 -0.0041279997676610955 0.5891240239143373
v 0.0 7.20000025467016e-05 0.5891230106353761
v 0.0 -0.0041279997676610955 0.5891240239143373
v 0.0020999999251216654 -0.003565999912098051 0.5891240239143373
v -0.0020999999251216654 0.0037090000696480283 0.5891209840774537
v -0.003636999987065793 0.0021720000077039008 0.5891230106353761
v 0.0 7.20000025467016e-05 0.5891230106353761
v -0.003636999987065793 0.0021720000077039008 0.5891230106353761
v -0.004199999850243331 7.20000025467016e-05 0.5891230106353761
v -0.003636999987065793 -0.0020280000753700738 0.5891230106353761
v 0.0 -0.005692999809980393 0.05549399927258493
v -0.0020999999251216654 -0.0036299999337643394 0.057668000459671034
v -0.0028500000480562453 -0.004929999820888043 0.05549399927258493
v -0.0028500000480562453 -0.004929999820888043 0.05549399927258493
v -0.0020999999251216654 -0.0036299999337643394 0.057668000459671034
v -0.003636999987065793 -0.0020930001046508555 0.05766599997878076
v -0.0028500000480562453 -0.004929999820888043 0.05549399927258493
v -0.003636999987065793 -0.0020930001046508555 0.05766599997878076
v -0.0049359998665750035 -0.0028429999947547917 0.05549300089478494
v -0.0049359998665750035 -0.0028429999947547917 0.05549300089478494
v -0.003636999987065793 -0.0020930001046508555 0.05766599997878076
v -0.004199999850243331 7.000000096013538e-06 0.05766599997878076
v -0.0049359998665750035 -0.0028429999947547917 0.05549300089478494
v -0.004199999850243331 7.000000096013538e-06 0.05766599997878076
v -0.005700000096112491 7.000000096013538e-06 0.05549300089478494
v -0.005700000096112491 7.000000096013538e-06 0.05549300089478494
v -0.004199999850243331 7.000000096013538e-06 0.05766599997878076
v -0.003636999987065793 0.002106999978423119 0.05766599997878076
v -0.005700000096112491 7.000000096013538e-06 0.05549300089478494
v -0.003636999987065793 0.002106999978423119 0.05766599997878076
v -0.0049359998665750035 0.002857000101357699 0.05549100041389467
v -0.0049359998665750035 0.002857000101357699 0.05549100041389467
v -0.003636999987065793 0.002106999978423119 0.05766599997878076
v -0.0020999999251216654 0.0036440000403672465 0.05766500160098077
v -0.0049359998665750035 0.002857000101357699 0.05549100041389467
v -0.0020999999251216654 0.0036440000403672465 0.05766500160098077
v -0.0028500000480562453 0.004943000152707101 0.05549100041389467
v -0.0028500000480562453 0.004943000152707101 0.05549100041389467
v -0.0020999999251216654 0.0036440000403672465 0.05766500160098077
v 0.0 0.004207000136375428 0.05766500160098077
v -0.0028500000480562453 0.004943000152707101 0.05549100041389467
v 0.0 0.004207000136375428 0.05766500160098077
v 0.0 0.0057069999165833005 0.05549100041389467
v 0.0 0.0057069999165833005 0.05549100041389467
v 0.0 0.004207000136375428 0.05766500160098077
v 0.0020999999251216654 0.0036440000403672465 0.05766500160098077
v 0.0 0.0057069999165833005 0.05549100041389467
v 0.0020999999251216654 0.0036440000403672465 0.05766500160098077
v 0.0028500000480562453 0.004943000152707101 0.05549100041389467
v 0.0028500000480562453 0.004943000152707101 0.05549100041389467
v 0.0020999999251216654 0.0036440000403672465 0.05766500160098077
v 0.003636999987065793 0.002106999978423119 0.05766599997878076
v 0.0028500000480562453 0.004943000152707101 0.05549100041389467
v 0.003636999987065793 0.002106999978423119 0.05766599997878076
v 0.0049359998665750035 0.002857000101357699 0.05549100041389467
v 0.0049359998665750035 0.002857000101357699 0.05549100041389467
v 0.003636999987065793 0.002106999978423119 0.05766599997878076
v 0.004199999850243331 7.000000096013538e-06 0.05766599997878076
v 0.0049359998665750035 0.002857000101357699 0.05549100041389467
v 0.004199999850243331 7.000000096013538e-06 0.05766599997878076
v 0.005700000096112491 7.000000096013538e-06 0.05549300089478494
v 0.005700000096112491 7.000000096013538e-06 0.05549300089478494
v 0.004199999850243331 7.000000096013538e-06 0.05766599997878076
v 0.003636999987065793 -0.0020930001046508555 0.05766599997878076
v 0.005700000096112491 7.000000096013538e-06 0.05549300089478494
v 0.003636999987065793 -0.0020930001046508555 0.05766599997878076
v 0.0049359998665750035 -0.0028429999947547917 0.05549300089478494
v 0.0049359998665750035 -0.0028429999947547917 0.05549300089478494
v 0.003636999987065793 -0.0020930001046508555 0.05766599997878076
v 0.0020999999251216654 -0.0036299999337643394 0.057668000459671034
v 0.0049359998665750035 -0.0028429999947547917 0.05549300089478494
v 0.0020999999251216654 -0.0036299999337643394 0.057668000459671034
v 0.0028500000480562453 -0.004929999820888043 0.05549399927258493
v 0.0028500000480562453 -0.004929999820888043 0.05549399927258493
v 0.0020999999251216654 -0.0036299999337643394 0.057668000459671034
v 0.0 -0.004193000029772521 0.057668000459671034
v 0.0028500000480562453 -0.004929999820888043 0.05549399927258493
v 0.0 -0.004193000029772521 0.057668000459671034
v 0.0 -0.005692999809980393 0.05549399927258493
v 0.0 -0.005692999809980393 0.05549399927258493
v 0.0 -0.004193000029772521 0.057668000459671034
v -0.0020999999251216654 -0.0036299999337643394 0.057668000459671034
usemtl material_Default_OBJ
f 1 2 3
f 4 5 6
f 7 8 9
f 10 11 12
f 10 12 13
f 14 15 16
f 14 16 17
f 18 19 20
f 18 20 21
f 22 23 24
f 22 24 25
f 26 27 28
f 26 28 29
f 30 31 32
f 30 32 33
f 34 35 36
f 34 36 37
f 38 39 40
f 38 40 41
f 42 43 44
f 45 46 47
f 48 49 50
f 51 52 53
f 54 55 56
f 57 58 59
f 60 61 62
f 60 62 63
f 64 65 66
f 67 68 69
f 67 69 70
f 71 72 73
f 74 75 76
f 77 78 79
f 80 81 82
f 67 83 84
f 67 84 85
f 86 87 88
f 89 90 91
f 92 93 94
f 95 96 97
f 98 99 100
f 101 102 103
f 104 105 106
f 107 108 109
f 110 111 112
f 113 114 115
f 116 117 118
f 119 120 121
f 122 123 124
f 125 126 127
f 128 129 130
f 131 132 133
f 134 135 136
f 137 138 139
f 140 141 142
f 143 144 145
f 146 147 148
f 149 150 151
f 152 153 154
f 155 156 157
