v -0.000593051954638213 -0.00026552722556516534 0.0024500002618879075
v -0.000623756553977728 -0.00018229501438327136 0.002449981169775128
v -0.0006237563211470843 -0.0001834402210079134 -0.002550016855821013
v -0.000642841449007392 -9.680233779363337e-05 -0.0025500368792563672
v -0.0006428416818380357 -9.565711661707613e-05 0.0024499611463397737
v -0.0006449546781368555 8.134682138916106e-05 0.002449920633807778
v -0.0006449544453062118 8.020160748856144e-05 -0.002550077391788363
v -0.0005992341903038324 0.00025235707289539283 0.002449881518259644
v -0.0005992339574731887 0.0002512118662707508 -0.002550116507336497
v -0.0005090711056254805 0.00040469050873070966 0.002449846593663096
v -0.0005090708727948369 0.00040354530210606765 -0.002550151431933045
v -0.0003811524366028608 0.0005270494148135186 0.0024498186539858575
v -0.00038115214556455623 0.0005259041790850462 -0.0025501793716102834
v -0.00022496527526527649 0.0006103587802499534 0.002449799561873078
v -0.00022496499877888715 0.0006092135445214809 -0.002550198463723063
v -5.2093375416006906e-05 0.000648440094664693 0.0024497909471392627
v -5.2093102567596375e-05 0.0006472948589362205 -0.0025502070784568782
v 0.0001246421743417159 0.0006384690059348942 0.0024497930426150556
v 0.00012464245082810524 0.0006373237702064217 -0.0025502049829810853
v 0.00029213377274572855 0.0005811849259771408 0.002449806313961744
v 0.0002921340637840331 0.0005800396902486683 -0.002550191711634397
v 0.00043795918463729333 0.0004808364319615067 0.0024498293641954656
v 0.0004379594756755979 0.0004796912253368647 -0.0025501686614006753
v 0.0005513033829629422 0.00034486592630855745 0.0024498603306710716
v 0.0005513036157935859 0.00034372071968391543 -0.0025501376949250694
v 0.0006237600464373828 0.00018335771164856857 0.0024498973507434125
v 0.0006237602792680265 0.00018221250502392652 -0.0025501006748527284
v 0.0006499553564935924 8.29010969027877e-06 0.0024499376304447647
v 0.000649955589324236 7.144893970689738e-06 -0.0025500603951513763
v 0.000627946632448584 -0.00016735293320380154 0.002449977677315473
v 0.0006279468652792276 -0.00016849813982844355 -0.002550020348280668
v 0.0005593660753220321 -0.0003305447462480516 0.0024500151630491014
v 0.0005593663081526757 -0.0003316899528726936 -0.0025499828625470396
v 0.00044930001604370784 -0.0004691822105087341 0.0024500468280166383
v 0.0004493003070820124 -0.0004703274171333761 -0.0025499511975795026
v 0.00030591155518777674 -0.0005729830591008068 0.002450070576742291
v 0.0003059118462260813 -0.0005741282948292793 -0.00254992744885385
v 0.0001398352032992989 -0.0006342490669339896 0.0024500845465809102
v 0.00013983547978568825 -0.0006353943026624621 -0.0025499134790152307
v -3.661197479232215e-05 -0.0006484363111667336 0.0024500878062099214
v -3.661170194391162e-05 -0.0006495815468952061 -0.0025499102193862195
v -0.00021034367091488099 -0.0006144925137050451 0.002450080122798681
v -0.00021034339442849165 -0.0006156377494335176 -0.00254991790279746
v -0.00036847504088655125 -0.0005349353305064143 0.002450061962008476
v -0.0003684747498482467 -0.0005360805662348868 -0.002549936063587665
v -0.0004992781323380769 -0.00041566495201550435 0.0024500344879925247
v -0.0004992778995074333 -0.00041681015864014636 -0.0025499635376036163
v -0.0005930517218075694 -0.00026667243218980735 -0.0025499977637082334
v 1.7295868071087743e-09 5.313534074957716e-07 0.0024499392602592702
v 2.001132370921255e-09 -6.138623120932608e-07 -0.0025500587653368707
f 1 2 3
f 3 2 4
f 2 5 4
f 4 5 6
f 4 6 7
f 7 6 8
f 7 8 9
f 9 8 10
f 9 10 11
f 11 10 12
f 11 12 13
f 13 12 14
f 13 14 15
f 15 14 16
f 15 16 17
f 17 16 18
f 17 18 19
f 19 18 20
f 19 20 21
f 21 20 22
f 21 22 23
f 23 22 24
f 23 24 25
f 25 24 26
f 25 26 27
f 27 26 28
f 27 28 29
f 29 28 30
f 29 30 31
f 31 30 32
f 31 32 33
f 33 32 34
f 33 34 35
f 35 34 36
f 35 36 37
f 37 36 38
f 37 38 39
f 39 38 40
f 39 40 41
f 41 40 42
f 41 42 43
f 43 42 44
f 43 44 45
f 45 44 46
f 45 46 47
f 47 46 1
f 47 1 48
f 48 1 3
f 6 5 49
f 49 5 2
f 49 2 1
f 12 10 49
f 49 10 8
f 49 8 6
f 18 16 49
f 49 16 14
f 49 14 12
f 24 22 49
f 49 22 20
f 49 20 18
f 30 28 49
f 49 28 26
f 49 26 24
f 36 34 49
f 49 34 32
f 49 32 30
f 42 40 49
f 49 40 38
f 49 38 36
f 1 46 49
f 49 46 44
f 49 44 42
f 47 48 50
f 50 48 3
f 50 3 4
f 41 43 50
f 50 43 45
f 50 45 47
f 35 37 50
f 50 37 39
f 50 39 41
f 29 31 50
f 50 31 33
f 50 33 35
f 23 25 50
f 50 25 27
f 50 27 29
f 17 19 50
f 50 19 21
f 50 21 23
f 11 13 50
f 50 13 15
f 50 15 17
f 4 7 50
f 50 7 9
f 50 9 11
