mtllib lnd_tool_roll_link_visuals_mesh_1.mtl
v 0.00265811919234693 -0.0032006180845201015 -0.0035994343925267454
v 0.002653009025380015 -0.0032014932949095964 -0.0007495915051549672
v 0.0025715411175042386 -0.003271568100899458 -0.009099421091377733
v 0.003143917769193649 -0.0027248391415923834 -0.0035995182115584608
v 0.002633099909871816 -0.003220681566745043 -0.00045063238940201694
v 0.002571543678641319 -0.00326998857781291 -0.00010937743354588746
v 0.0031439180020242925 -0.0027258084155619144 -0.009099517017602919
v 0.0036026651505380865 -0.0020815879106521606 -0.009099630638957022
v 0.003602664917707443 -0.0020806186366826296 -0.003599631832912564
v 0.003931202925741672 -0.0013621910475194454 -0.00909975729882717
v 0.003931202460080384 -0.0013612217735499144 -0.0035997584927827115
v 0.004117656964808702 -0.0005936184898018837 -0.009099893271923063
v 0.004117656499147414 -0.0005926492158323526 -0.003599894000217318
v 0.004155287519097327 0.00019635162607301027 -0.009100032038986681
v 0.00415528705343604 0.0001973208854906261 -0.003600033232942223
v 0.004042735788971185 0.0009791675256565213 -0.009100169874727724
v 0.0040427353233098975 0.0009801367996260524 -0.003600171068683266
v 0.0037840686272829767 0.0017265364294871688 -0.00910030212253332
v 0.003784068394452333 0.0017275057034566998 -0.0036003028508275743
v 0.0033886358141899105 0.002411446301266551 -0.009100422263145445
v 0.003388635581359267 0.002412415575236082 -0.0036004236899316307
v 0.002870728494599461 0.0030091428197920322 -0.009100528433918951
v 0.0028707282617688175 0.0030101120937615633 -0.003600528929382562
v 0.00265811919234693 0.0031993784941732883 -0.0036005622241646047
v 0.0022490657866001125 0.0034980240743607283 -0.009100614115595816
v 0.0026533261407166715 0.0032012758310884237 -0.000750743900425732
v 0.002438477938994765 0.003370861057192087 0.00030402012635022396
v 0.0026159721892327066 0.003232716117054224 -0.00027890549972653384
v 0.0016522471560165284 0.0038180567789822817 0.0013211804907768963
v 0.0019810590893030162 0.0036588842049241066 0.0010152825852856038
v 0.001546115963719785 0.0038604196161031723 -0.009100678376853464
v 0.002249065320938825 0.0034997425973415375 0.000650883710477501
v 0.0012513109249994157 0.0039687324315309525 0.0015898862620815633
v 0.0007872855057939886 0.004083232022821903 -0.009100717492401598
v 0.0006307347794063388 0.004111865535378456 -0.0003043250180780887
v 0.0006989305256865918 0.00410078139975667 -0.00010475103044882415
v 0.00023238673747982827 0.004154049791395664 -0.0006656140903942286
v 0.0004979544319212436 0.004130396991968155 -0.0004988167784176766
v 0.000693548354320228 0.004102085251361132 0.0018109244992956517
v 0.0006824494339525699 0.004103680141270161 0.00015504180919378993
v 0.0005964016309008001 0.004117340315133333 0.0003740066604223102
v -0.0005963414441794156 0.004117263481020927 0.0003740389365702867
v -0.000682449317537248 0.004103680141270161 0.00015504172188229856
v -0.0006967447116039692 0.004101572558283806 0.0018098424188792703
v 0.000371963222278282 0.004142651800066233 0.0005974710802547633
v 0.00015614402946084735 0.004157201386988163 0.0006816298700869082
v 0.0002613102260511368 0.004152129869908094 0.0018863528966903684
v -8.135328243952243e-05 0.004161256365478039 0.0006988620152696966
v -0.00015828320465516296 0.004159889649599791 0.001898929360322654
v -0.0003720197710208594 0.004142646677792072 0.0005974419182166456
v -0.000699913769494742 0.004100731108337641 -7.956269109854473e-05
v -0.0005964379524812101 0.004117197822779417 -0.00037538254400715226
v -0.0007872844580560922 0.004083232022821903 -0.009100717492401598
v -0.0003748935705516487 0.004143511410802603 -0.0005970285856164991
v -7.574924529762937e-05 0.004161902237683535 -0.0007010793196968733
v 5.286653337321922e-10 0.004158408846706152 -0.009100730530917643
v -0.0015461150323972104 0.0038604196161031723 -0.009100678376853464
v -0.0015461156144738195 0.003862270386889577 0.0014015333727002142
v -0.0012304830597713587 0.003975989762693644 0.001600018120370805
v -0.002249064855277538 0.0034980240743607283 -0.009100614115595816
v -0.0021743753459304567 0.0035460698418319225 0.0007722587906755506
v -0.0018746833084151147 0.003713856218382716 0.0011223268229514358
v -0.0026581187266856428 0.0031993789598345757 -0.003600562689825892
v -0.0026532560586929317 0.0032014173921197653 -0.0007507371483370661
v -0.00287072779610753 0.0030101125594228506 -0.0036005293950438495
v -0.0026209431234747167 0.0032294599805027246 -0.00032392900902777905
v -0.0024571944959461685 0.0033576383721083403 0.00025471407570876176
v -0.0028707275632768865 0.0030091432854533195 -0.009100528433918951
v -0.003388634882867336 0.0024114467669278383 -0.00910042319446802
v -0.0033886351156979795 0.0024124160408973694 -0.0036004239227622743
v -0.003784067695960402 0.001726536895148456 -0.00910030212253332
v -0.0037840679287910457 0.0017275061691179872 -0.0036003033164888616
v -0.00404273485764861 0.0009791679913178086 -0.009100170806050299
v -0.0040427353233098975 0.0009801372652873397 -0.0036001715343445535
v -0.004155286587774753 0.00019635206263046712 -0.009100032970309256
v -0.00415528705343604 0.00019732132204808295 -0.0036000336986035104
v -0.004117656033486127 -0.0005936180241405964 -0.009099893271923063
v -0.004117656499147414 -0.0005926487501710653 -0.0035998944658786054
v -0.003931201994419097 -0.0013621905818581581 -0.009099758230149744
v -0.003931202460080384 -0.001361221307888627 -0.003599758958443999
v -0.003602664219215512 -0.0020815874449908733 -0.009099631570279597
v -0.0036026644520461555 -0.0020806181710213423 -0.0035996320657432075
v -0.003143917070701718 -0.002725807949900627 -0.009099517948925493
v -0.0031439173035323616 -0.002724838675931096 -0.003599518677219748
v -0.0026581187266856428 -0.0032006176188588142 -0.0035994348581880327
v -0.002571540186181664 -0.0032715676352381706 -0.009099421091377733
v -0.002653557807207107 -0.00320099457167089 -0.0007496385369449853
v -0.0019062213832512496 -0.0036991422530263662 -0.00909934565424919
v -0.001988307340070605 -0.00365543644875288 0.0010080679785460232
v -0.00224383408203721 -0.0035028380807489157 0.0006604770896956323
v -0.0024354688357561822 -0.0033715202007442713 0.0003109655808657407
v -0.0026157901156693693 -0.003233983414247632 -0.0002726505335886031
v -0.0011720067122951148 -0.003993077203631401 -0.009099294431507586
v -0.001247749663889408 -0.003972856793552637 0.001594383153133094
v -0.0016522477380931375 -0.0038175603840500116 0.0013225257862359283
v -0.0005922124255448579 -0.004117862321436405 -0.0003817904216703027
v -0.00036167266080155963 -0.004145360551774502 -0.0006028433563187717
v -0.0003954325802624225 -0.004142749588936567 -0.009099267423152922
v -0.0006989079411141573 -0.004100271500647068 -0.0001033062653732486
v -0.0006824494339525699 -0.004103595390915871 0.00015648809494450686
v -0.0005902406992390751 -0.004116151947528124 0.00038651848444715137
v -0.0003614085435401648 -0.004145120270550251 0.0006044536712579428
v -0.00047543889377266163 -0.004134673159569502 0.0018611861160024998
v -0.0008772675064392387 -0.004066122230142355 0.001751296338625252
v -0.00015614411677233872 -0.0041569313034415245 0.000683095073327422
v -1.4025398897832273e-10 -0.004159647971391678 0.0019007322844117878
v 7.81633425503969e-05 -0.00415906822308898 0.0007007474196143447
v 0.0004679436678998172 -0.0041360072791576385 0.0018624650547280905
v 0.00036497483961284155 -0.00414535216987133 0.0006022370071150361
v 0.0008777679759077727 -0.004066014662384987 0.0017511204350739715
v 0.000682449317537248 -0.004103595390915871 0.00015648818225599823
v 0.0006998962489888071 -0.004100250080227852 -7.808179361745714e-05
v 0.0011584615567699073 -0.003994317725300789 0.0016337642446160314
v 0.0005880690296180545 -0.004116593394428492 0.00038945057895034546
v 0.0011720076436176894 -0.003993077203631401 -0.009099294431507586
v 0.001544771250337362 -0.0038645772729068995 0.001409055897966027
v 0.00035994374775327737 -0.004144913051277399 -0.0006038927240297197
v 0.0002573547244537621 -0.004157692659646273 -0.009099265560507773
v 0.0005921883857809006 -0.004117423202842474 -0.00038197604590095574
v 0.0019062223145738242 -0.0036991422530263662 -0.00909934565424919
v 0.0019769568461924787 -0.0036631948314607143 0.0010205429280176757
v 0.0024512102827429767 -0.0033615478314459324 0.00026970924227498466
v 0.0022433495614677663 -0.0035031482111662626 0.0006612485158257185
v 0.00015621464990545062 -0.0041571687906980515 -0.0006816142704337834
v -7.80436603236012e-05 -0.004159342497587204 -0.0006992968264967202
v 0.0003037186106666922 0.003199902130290866 -0.0006312419427558779
v 6.458504564488264e-11 0.0031998897902667522 -0.0007005640072748064
v -0.0003037185524590313 0.0032001242507249117 0.000630113820079714
v -1.1375437050653579e-11 0.0032001365907490253 0.0006994359428063034
v -7.648442296170897e-11 0.003200348000973463 0.0018994353013113139
v 0.0005472819320857524 0.0032000900246202946 0.0004358792211860418
v 0.0006824493757449089 0.00320004066452384 0.00015520105080213395
v 0.0006824493757449089 0.0031999857164919376 -0.00015632809663657096
v 0.0005472819320857524 0.003199936356395483 -0.00043700629612430925
v -0.0003037184942513704 0.003199902130290866 -0.0006312420009635388
v 0.0005896802176721393 0.0032003363594412804 0.0018329947488382457
v 0.0003037185524590313 0.0032001242507249117 0.0006301138782873749
v 0.0011497915256768463 0.003200301667675376 0.001637002686038613
v -0.0005472819320857524 0.003199936356395483 -0.00043700635433197016
v -0.0006824493757449089 0.0031999857164919376 -0.0001563281693961471
v -0.002583558205515146 0.0031999852508306503 -0.000160883369971998
v -0.0006824493757449089 0.00320004066452384 0.0001552009780425578
v -0.0005472819320857524 0.0032000900246202946 0.00043587916297838086
v -0.0020718530286103483 0.0032001722138375044 0.0009016835829243063
v -0.002387566957622766 0.0032000839710235596 0.00039922780706547195
v -0.000589680450502783 0.0032003363594412804 0.0018329947488382457
v -0.00114979175850749 0.003200301667675376 0.0016370025696232913
v -0.0016522477380931375 0.0032002462539821863 0.001321288989856839
v 0.002583558205515146 0.003199984785169363 -0.00016088309348560867
v 0.002387566957622766 0.0032000835053622723 0.00039922806899994606
v 0.0020718530286103483 0.0032001722138375044 0.0009016838157549499
v 0.0016522475052624939 0.0032002462539821863 0.0013212892226874826
v -0.002583558205515146 -0.0032000113278627396 -0.00015975549467839298
v -0.002387566957622766 -0.0031999126076698303 0.00040035566780716175
v -0.0020718530286103483 -0.0031998243648558855 0.0009028114145621656
v -0.0016522477380931375 -0.0031997503247112036 0.0013224168214946983
v -0.00114979175850749 -0.003199694911018014 0.0016381305176764724
v -0.000589680450502783 -0.0031996602192521095 0.001834122580476105
v -1.3193622583340667e-10 -0.003199648577719927 0.0019005631329491732
v -0.0005472819320857524 -0.0031999065540730953 0.0004370070528239011
v -0.0003037186106666922 -0.003199872327968478 0.0006312417099252342
v -6.68272381876278e-11 -0.0031998599879443645 0.0007005637744441627
v 0.0003037184942513704 -0.003199872327968478 0.0006312417681328951
v -0.0006824493757449089 -0.00319995591416955 0.00015632885333616284
v -0.0006824493757449089 -0.0032000108622014523 -0.00015520029410254208
v -0.0005472819320857524 -0.003200060222297907 -0.0004358784644864499
v -0.0003037185524590313 -0.003200094448402524 -0.0006301141111180185
v 0.0006824493757449089 -0.0032000108622014523 -0.00015520022134296593
v 0.002583558205515146 -0.003200011793524027 -0.00015975521819200364
v 0.0006824493757449089 -0.00319995591416955 0.00015632892609573898
v 9.13324450790842e-12 -0.0032001067884266376 -0.000699436175636947
v 0.0003037185524590313 -0.003200094448402524 -0.0006301140529103576
v 0.0005472819320857524 -0.003200060222297907 -0.000435878406278789
v 0.0005472819320857524 -0.0031999065540730953 0.00043700711103156204
v 0.0020718530286103483 -0.0031998243648558855 0.0009028116473928093
v 0.002387566957622766 -0.0031999130733311176 0.00040035592974163586
v 0.0005896802176721393 -0.0031996602192521095 0.001834122580476105
v 0.0011497915256768463 -0.003199694911018014 0.0016381306340917943
v 0.0016522475052624939 -0.0031997503247112036 0.001322417054325342
usemtl material_DefaultMaterial
f 1 2 3
f 1 3 4
f 2 5 6
f 3 7 4
f 4 7 8
f 4 8 9
f 9 8 10
f 9 10 11
f 11 10 12
f 11 12 13
f 13 12 14
f 13 14 15
f 15 14 16
f 15 16 17
f 17 16 18
f 17 18 19
f 19 18 20
f 19 20 21
f 21 20 22
f 21 22 23
f 23 22 24
f 24 22 25
f 24 25 26
f 26 25 27
f 26 27 28
f 29 30 31
f 31 30 25
f 25 30 32
f 25 32 27
f 29 31 33
f 33 31 34
f 35 36 34
f 37 38 34
f 34 38 35
f 34 36 39
f 34 39 33
f 36 40 39
f 39 40 41
f 42 43 44
f 41 45 39
f 39 45 46
f 39 46 47
f 47 46 48
f 47 48 49
f 49 48 44
f 44 48 50
f 44 50 42
f 51 52 53
f 53 52 54
f 53 54 55
f 53 55 56
f 56 55 34
f 34 55 37
f 57 58 53
f 53 58 59
f 43 51 44
f 44 51 53
f 44 53 59
f 60 61 57
f 61 62 57
f 57 62 58
f 63 64 60
f 63 60 65
f 64 66 67
f 64 67 60
f 60 67 61
f 60 68 65
f 65 68 69
f 65 69 70
f 70 69 71
f 70 71 72
f 72 71 73
f 72 73 74
f 74 73 75
f 74 75 76
f 76 75 77
f 76 77 78
f 78 77 79
f 78 79 80
f 80 79 81
f 80 81 82
f 82 81 83
f 82 83 84
f 84 83 85
f 85 83 86
f 85 86 87
f 88 89 90
f 90 91 88
f 88 91 86
f 86 91 92
f 86 92 87
f 93 94 95
f 93 95 88
f 88 95 89
f 96 93 97
f 97 93 98
f 99 94 93
f 99 93 96
f 99 100 94
f 94 100 101
f 102 103 104
f 102 104 101
f 101 104 94
f 103 102 105
f 103 105 106
f 106 105 107
f 106 107 108
f 107 109 108
f 108 109 110
f 111 112 113
f 110 109 113
f 113 109 114
f 113 114 111
f 113 112 115
f 113 115 116
f 117 118 119
f 119 118 115
f 119 115 112
f 120 121 115
f 115 121 116
f 122 123 120
f 120 123 121
f 2 6 3
f 3 6 120
f 120 6 122
f 118 117 124
f 118 124 125
f 118 125 98
f 98 125 97
f 120 115 118
f 8 7 118
f 118 7 3
f 118 3 120
f 14 12 118
f 118 12 10
f 118 10 8
f 20 18 118
f 118 18 16
f 118 16 14
f 31 25 118
f 118 25 22
f 118 22 20
f 53 56 118
f 118 56 34
f 118 34 31
f 68 60 118
f 118 60 57
f 118 57 53
f 73 71 118
f 118 71 69
f 118 69 68
f 79 77 118
f 118 77 75
f 118 75 73
f 86 83 118
f 118 83 81
f 118 81 79
f 98 93 118
f 118 93 88
f 118 88 86
f 11 13 65
f 70 72 4
f 85 1 84
f 84 1 4
f 70 4 65
f 65 4 9
f 65 9 11
f 24 63 23
f 23 63 65
f 23 65 21
f 21 65 19
f 13 15 65
f 65 15 17
f 65 17 19
f 78 80 4
f 4 80 82
f 4 82 84
f 72 74 4
f 4 74 76
f 4 76 78
f 126 127 24
f 128 129 130
f 131 132 26
f 26 132 133
f 26 133 134
f 64 63 24
f 64 24 135
f 135 24 127
f 130 129 136
f 136 129 137
f 136 137 138
f 24 26 134
f 24 134 126
f 135 139 64
f 64 139 140
f 64 140 141
f 141 140 142
f 143 144 142
f 142 144 145
f 142 145 141
f 130 146 128
f 128 146 147
f 128 147 143
f 143 147 148
f 143 148 144
f 131 26 137
f 137 26 149
f 137 149 150
f 150 151 137
f 137 151 152
f 137 152 138
f 2 1 85
f 153 154 87
f 87 154 155
f 87 155 156
f 156 157 87
f 87 157 158
f 87 158 159
f 160 87 161
f 161 87 159
f 161 159 162
f 162 159 163
f 160 164 87
f 87 164 165
f 87 165 166
f 85 87 166
f 85 166 167
f 2 168 169
f 169 168 170
f 167 171 85
f 85 171 172
f 85 172 2
f 2 172 173
f 2 173 168
f 174 175 170
f 170 175 176
f 170 176 169
f 159 177 163
f 163 177 178
f 163 178 174
f 174 178 179
f 174 179 175
f 5 2 169
f 5 169 6
f 6 169 122
f 122 169 176
f 122 176 123
f 123 176 175
f 123 175 121
f 121 175 179
f 121 179 116
f 116 179 178
f 116 178 113
f 177 110 178
f 178 110 113
f 159 108 177
f 177 108 110
f 158 103 159
f 159 103 106
f 159 106 108
f 157 104 158
f 158 104 103
f 157 94 104
f 94 157 95
f 95 157 156
f 95 156 89
f 89 156 155
f 154 91 155
f 155 91 90
f 155 90 89
f 91 154 92
f 92 154 153
f 92 153 87
f 66 64 141
f 66 141 67
f 67 141 145
f 67 145 61
f 61 145 144
f 61 144 62
f 62 144 148
f 62 148 58
f 58 148 147
f 58 147 59
f 146 44 147
f 147 44 59
f 130 49 146
f 146 49 44
f 136 47 130
f 130 47 49
f 138 39 136
f 136 39 47
f 29 33 138
f 138 33 39
f 29 138 152
f 29 152 30
f 30 152 151
f 150 27 151
f 151 27 32
f 151 32 30
f 27 150 28
f 28 150 149
f 28 149 26
f 97 125 167
f 167 125 171
f 97 167 166
f 97 166 96
f 165 99 166
f 166 99 96
f 99 165 100
f 100 165 164
f 100 164 101
f 101 164 160
f 101 160 102
f 102 160 161
f 102 161 105
f 105 161 162
f 105 162 107
f 107 162 163
f 107 163 109
f 109 163 174
f 109 174 114
f 168 112 170
f 170 112 111
f 170 111 174
f 174 111 114
f 173 119 168
f 168 119 112
f 172 117 173
f 173 117 119
f 171 125 124
f 171 124 172
f 172 124 117
f 126 37 127
f 37 126 38
f 38 126 134
f 133 36 134
f 134 36 35
f 134 35 38
f 36 133 40
f 40 133 132
f 40 132 41
f 41 132 131
f 41 131 45
f 45 131 137
f 45 137 46
f 46 137 129
f 46 129 48
f 48 129 128
f 48 128 50
f 50 128 143
f 50 143 42
f 140 51 142
f 142 51 43
f 142 43 143
f 143 43 42
f 139 52 140
f 140 52 51
f 135 54 139
f 139 54 52
f 37 55 127
f 127 55 135
f 135 55 54
